<?xml version="1.0" standalone="no"?>
<!DOCTYPE svg PUBLIC "-//W3C//DTD SVG 1.1//EN" "http://www.w3.org/Graphics/SVG/1.1/DTD/svg11.dtd" >
<svg xmlns="http://www.w3.org/2000/svg" xmlns:xlink="http://www.w3.org/1999/xlink" version="1.1">
<metadata>
Created by FontForge 20150318 at Thu May 14 14:27:53 2015
 By uniteet7
a_AlternaRough *Arsenal Company (c) 1997*  FAX: (095)924-3775; e-Mail: arsenal@itco.msk.su; Phone: (095)924-5811 (Design and Featuring W.Chufarofsky)
</metadata>
<defs>
<font id="alt_r" horiz-adv-x="524" >
  <font-face 
    font-family="alt_r"
    font-weight="600"
    font-stretch="normal"
    units-per-em="1000"
    panose-1="2 11 7 6 2 2 7 5 2 4"
    ascent="800"
    descent="-200"
    x-height="622"
    cap-height="713"
    bbox="-83 -358 1130 865"
    underline-thickness="81"
    underline-position="-170"
    unicode-range="U+0020-203A"
  />
<missing-glyph horiz-adv-x="573" 
d="M40 0v653h493v-653h-493zM80 40h413v573h-413v-573z" />
    <glyph glyph-name=".notdef" horiz-adv-x="573" 
d="M40 0v653h493v-653h-493zM80 40h413v573h-413v-573z" />
    <glyph glyph-name=".null" horiz-adv-x="0" 
 />
    <glyph glyph-name="nonmarkingreturn" horiz-adv-x="333" 
 />
    <glyph glyph-name="space" unicode=" " horiz-adv-x="256" 
 />
    <glyph glyph-name="exclam" unicode="!" horiz-adv-x="283" 
d="M66 0l4 4v18l-11 9l7 9l4 3l-9 9l9 9v9l-4 9l4 3l-7 9l7 9l-10 9l6 9l4 4l-1 9l1 9l-1 9l-3 9l2 -4l9 2l9 -2l9 5l9 -1l1 -4l9 13l9 -13l9 10l9 -6l1 -4l9 12l9 -12l9 13l9 -9l2 -4l9 4l9 -4l9 17l9 -13l-4 -4l10 -9l-10 -9l14 -9l-10 -9l-4 -3l16 -9l-16 -9l4 -9v-9
l-4 -3l14 -9l-14 -9l13 -9l-13 -13l7 -9l-7 -9l10 -9l-6 -9l-2 4l-9 -15l-9 15h-9l-9 -4l-1 4l-9 -7l-9 7l-9 -8l-9 4l-1 4l-9 -1l-9 1l-9 -8l-9 4l-2 4l-9 -15l-9 15l-9 -1zM85 187l4 16l-13 9l7 9l4 17l-2 9l-4 9l4 16l-18 8l12 10l3 16l-12 8l6 10l4 17l-17 8l11 10l4 16
l-6 9v9l4 16l-7 9l1 9l4 17l-11 9l5 9l4 16l-12 9l6 9l4 16l-6 18l4 17l-10 9l4 9l3 16l-6 18l4 16l-6 9v9l4 17l-14 9l8 9l4 16l-6 9v9l17 -4l9 8l9 -4v-4l9 2l9 -2l9 9l9 -5l17 -4l9 5l9 -1v-4l9 14l9 -14l9 4h9l17 -4l9 3l9 1l-5 -16l6 -9l-3 -9l-5 -17l4 -9l-1 -9
l-5 -16l3 -9v-9l-5 -16l17 -10l-14 -8l-5 -17l17 -10l-14 -8l-5 -16l6 -9l-3 -9l-5 -16l6 -9l-3 -9l-6 -17l9 -10l-6 -8l-5 -16l6 -9l-3 -9l-5 -16l16 -10l-13 -8l-5 -17l12 -9l-9 -9l-5 -16l15 -10l-12 -8l-5 -16l4 -9l-1 -9l-5 -17l7 -9l-4 -9l-5 -16l11 -9l-8 -9l-2 5
l-9 -12l-9 12l-9 -15l-9 10l-2 5l-9 -10l-9 10l-9 -12l-9 7l-2 5l-9 -9l-9 9l-9 -17z" />
    <glyph glyph-name="quotedbl" unicode="&#x22;" horiz-adv-x="356" 
d="M225 441l5 17l-3 9l-2 9l5 17l-6 9l1 9l5 17l-14 9l9 9l5 17l-11 9l6 9l5 17l-13 9l8 9l5 17l-14 9l9 9l5 17l-5 9v9l5 17l-18 9l13 9l7 -5l9 11l9 -11l9 15l9 -10l8 -5l9 17l9 -17l9 5h9l-4 -17l14 -9l-10 -9l-4 -17l13 -9l-9 -9l-4 -17l7 -9l-3 -9l-4 -17l10 -9l-6 -9
l-4 -17l15 -9l-11 -9l-4 -17v-9l4 -9l-4 -17l7 -9l-3 -9l-4 -17l8 -9l-4 -9l-8 5l-9 -2l-9 2l-9 -9l-9 4l-7 5l-9 -16l-9 16l-9 -2zM45 441l5 17l-8 9l3 9l5 17l-7 9l2 9l5 17l-11 9l6 9l5 17l-7 9l2 9l5 17l-18 9l13 9l5 17l-13 9l8 9l5 17l-17 9l12 9l5 17l-5 9v9l7 -5
l9 9l9 -9l9 13l9 -8l7 -5l9 12l9 -12l9 15l9 -10l-5 -17l10 -9l-5 -9l-5 -17l12 -9l-7 -9l-5 -17l9 -9l-4 -9l-5 -17l17 -9l-12 -9l-5 -17l1 -9l4 -9l-5 -17l12 -9l-7 -9l-5 -17l10 -9l-5 -9l-5 -17l1 -9l4 -9l-7 5l-9 -8l-9 8l-9 -11l-9 6l-7 5l-9 -2l-9 2l-9 -2z" />
    <glyph glyph-name="numbersign" unicode="#" 
d="M321 399l-9 5l-9 -4l-9 4l-9 -6l-9 1l-8 5l-9 -8l-9 8l-9 -10l-9 5l-9 -14l4 -11l-5 -8l-10 -15l3 -10l-4 -8l-9 -14l11 -13l-12 -6l9 -4l9 7l9 -7l9 8l9 -4l8 -4l9 6l9 -6l9 3l9 1l9 14l-12 13l13 6l10 15l-8 12l9 6l9 14l-9 12zM179 480l10 15l-10 13l11 6l9 14l-7 12
l8 7l10 15l2 9l-1 10l9 14l-13 14l14 5l10 15l2 9l-1 10l4 -4l9 10l9 -10l9 11l9 -7l3 -4h18l9 11l9 -7l-9 -15l3 -11l-4 -8l-9 -14l8 -12l-9 -7l-10 -15l12 -14l-13 -5l-9 -14l13 -14l-14 -5l-9 -15l8 -12l-9 -7l7 -4l9 2l9 -2l9 17l9 -13l7 -4l9 3l9 -3l9 3l9 1l10 15
l-4 11l5 8l9 14l-3 11l4 8l10 15l1 10v9l9 14l-6 12l7 7l10 15l-9 13l10 6l3 -4l9 15l9 -15l9 12l9 -8l2 -4l9 5l9 -5l9 6l9 -2l-9 -15l7 -12l-8 -7l-10 -15l12 -13l-13 -5l-9 -15l10 -13l-11 -6l-10 -15l10 -12l-11 -6l-9 -15l7 -12l-8 -7l15 -4l9 16l9 -12l16 -4l9 5l9 -1
l15 -4l9 12l9 -8l-6 -4l9 -13l-15 -4l11 -14l-12 -5l-6 -5l9 -13l-15 -4l2 -11l-3 -8l-15 5l-9 -7l-9 2l-15 5l-9 -2l-9 -3l-15 5l-9 -1l-9 -4l-9 -14l5 -11l-6 -8l-9 -13l8 -12l-9 -7l-9 -14l3 -11l-4 -8l16 -5l9 10l9 -5l17 -5l9 1l9 4l16 -5l9 16l9 -11l-6 -5l7 -12
l-12 -5l6 -12l-7 -7l-6 -4l12 -14l-18 -3l1 -10l-2 -9l-17 4l-9 -14l-9 10l-16 4l-9 -14l-9 10l-17 4l-9 -13l-9 9l-10 -15l6 -12l-7 -7l-9 -15l11 -13l-12 -6l-10 -15l3 -10l-4 -8l-9 -15l-1 -10v-9l-10 -15l9 -13l-10 -6l-3 5l-9 -1l-9 1l-9 -2l-9 -3l-3 5l-9 -14l-9 14
l-9 -13l-9 8l10 15l2 9l-1 10l9 15l1 10v9l10 15l-9 12l10 6l9 15l-5 11l6 8l10 15l-8 12l9 7l-7 4h-18l-9 -17l-9 13l-8 4l-9 -8l-9 8l-9 -10l-9 6l-10 -15l11 -13l-12 -6l-9 -15l5 -11l-6 -8l-10 -15l-2 -8l1 -10l-9 -15l9 -12l-10 -7l-10 -15l10 -13l-11 -6l-3 5l-9 -12
l-9 12l-9 -17l-9 12l-3 5l-9 -14l-9 14l-9 -8l-9 3l9 15l-14 14l15 5l10 15l-10 13l11 6l9 14v10l1 9l10 15l-5 11l6 8l9 15l-12 14l13 5l-16 4l-9 -9l-9 5l-17 4l-9 -13l-9 9l-16 4l-9 -1l-9 -3l6 4l-10 13l16 4l-1 10l2 9l7 5l-9 13l14 5l-3 10l5 8l16 -5l9 4l9 1l16 -5
l9 7l9 -2l16 -5l9 6l9 -1l9 14l-11 13l12 6l9 13l-7 12l8 7l9 14l-6 12l7 7v5l-9 -5l-9 5l-9 -5h-9l-17 5l-9 -3l-9 -2v5l-9 -17l-9 17l-9 -9l-9 4l6 4l-3 11l9 6v10l1 9l6 5v10l6 7l-12 14l13 5l17 -4l9 13l9 -9l17 -4h9l9 4l17 -4l9 13z" />
    <glyph glyph-name="dollar" unicode="$" 
d="M471 460l-3 4l-9 -10l-9 10l-9 -13l-9 9l-2 4l-9 -3l-9 3l-9 -8l-9 4l-2 4l-9 -1l-9 1l-9 -10l-9 6l-3 4l-9 -7l-9 7l-9 -11l-9 7l5 1l-18 9l18 9l-5 9v9l1 13l-4 8l-1 9l-9 7v9l-10 8l-9 1l-8 6l-10 -1l-8 3l-14 -3l-8 -5l-8 -4l-2 -15l-14 6l-4 -11l-9 -2l-2 -6l7 -7
l6 -7v-7l15 2l-2 -14l18 4l-2 -14l-1 -5h12l2 -12l10 -2l4 -9l16 6l1 -14l11 -14l16 8l-2 -18l14 3l1 -14l12 1l5 -8l1 -6l17 8l-3 -19l9 -3l6 -7l15 6l2 -13l5 -10l15 4l-2 -16l14 2l3 -10l-2 -4l6 -6l6 -8l18 4l-3 -14l4 -17l5 -8l8 -6l-4 -3l13 -6l-9 -12l13 -6l-8 -20
l2 -9l-1 -9l12 -9l-6 -9l-6 -13l6 -9l-7 -9l10 -10l-7 -8l-6 -6l12 -13l-17 -4l14 -13l-14 -6h-5l6 -13l-15 -3l-4 -18l-5 2l6 -19l-18 6l-4 -9l-6 -7l-6 1l-6 -8l-10 -1l-4 -10l-9 -3l-11 1l-7 -8l-10 3l-16 -10l-18 2l-8 -11l-10 8l-7 -13l-10 6l-5 -10l16 -9l-16 -9
l13 -9l-13 -9l6 -9l-1 -9l-15 4l-9 -6l-9 6l-9 -9l-9 5l4 11l-15 9l15 9l-13 9l13 9l-13 9l9 9l-15 7l-10 -8l-8 11l-11 -15l-7 13l-6 7l-11 -2l-7 8l-12 -9l-6 10l-1 6l-14 -6l-1 15l-15 -8l-3 13l2 4l-15 -2l3 15l-10 3l-6 7l3 4l-10 5l2 11l-5 7l-7 7l3 7l-3 9l-2 9
l-10 6l1 10l4 14l-12 9l11 9l-7 9l1 9l4 5l-9 9l9 9v9l-4 9l4 5l-15 9l15 9l-10 9l6 9l2 -5l9 9l9 -9l9 16l9 -11l2 -5l9 5l9 -5l9 15l9 -10l2 -5l9 15l9 -15l9 14l9 -9l2 -5l9 10l9 -10l9 14l9 -9l-4 -2l5 -9l-5 -9l1 -9l3 -9l-4 -2l12 -9l-12 -9v-9l4 -9l-4 -4l5 -8v-9
l16 -6l-11 -12l15 -5l-6 -11l15 -10l8 -3l9 -4l18 -2l11 -1l5 15l12 -9l6 10h10l5 1l-6 13l13 4l3 8v10l2 17l-19 6l11 11l2 6l-12 2l2 13l-14 1v11l-10 15l-16 -4l2 16h-12l-4 9l-1 6l-8 5l-7 6l-14 -5l-1 15l-15 -6v16l-13 -4l-4 11l-5 9l-17 -8l3 19l-15 -6v16h-11l-6 7
l2 5l-19 -7l6 19l-16 -3l3 16l-8 4l-8 5l-5 14l-12 2l1 12l-18 -2l4 14l1 9l-13 4l5 12l-15 3l4 12l4 4l-3 9v9l-14 7l7 10l6 10l-4 9l6 9l-12 10l9 8l6 4l-3 11l10 6v9l3 9l7 2v11l11 3l2 11l6 6l9 1l-1 16l16 -6l1 14h25l5 12l12 -5l7 7l8 3l3 -4l8 6l9 -3l9 4l9 -1l6 18
l11 -10l4 15l-8 9l4 9l4 15l-6 9l2 9l15 -4l9 3l9 -3l9 3l9 1l-5 -15l16 -9l-11 -9l-5 -15l14 -9l-9 -9l16 -7l9 -1l9 -2l11 13l7 -11l7 -7h10l7 -5l11 2l8 -3v-5l12 2l4 -11l13 4l5 -9l-3 -4l12 -1l1 -11l10 -3l6 -7l-4 -3l17 -1l-8 -15l11 -4l2 -9l-3 -6l10 -7l-6 -11
l9 -7v-9l-4 -12l4 -9l-3 -9l16 -8l-10 -10l-5 -6l12 -9l-12 -9l12 -9z" />
    <glyph glyph-name="percent" unicode="%" 
d="M359 227l-5 -1l18 -9l-18 -9l15 -9l-10 -9l-5 -2l5 -9l-5 -9l17 -9l-12 -9l-5 -2l11 -9l-11 -9l3 -9l2 -9l-5 -1l14 -9l-14 -9l8 -9l-3 -9l11 -13l9 -3l6 -7l9 -3l8 -4l15 5l4 9l10 2v16l12 -2l5 1l-15 9l15 9l-12 9l7 9l5 2l-3 9l3 9l-18 9l13 9l5 2l-6 9l6 9l-9 9l4 9
l5 1l-13 9l13 9l-12 9l7 9l-10 12l-8 4l-7 6l-16 -7l-1 14l-15 -5l-2 -13l-13 3v-16zM83 610l-5 -1l2 -9l-2 -9l14 -9l-9 -9l-5 -1l14 -9l-14 -9l4 -9l1 -9l-5 -1l1 -9l-1 -9l8 -9l-3 -9l-5 -1l11 -9l-11 -9l1 -9l4 -9l10 -13h11l3 -11l9 -2l8 -5l15 6l2 12l12 -1l-2 17
l14 -3l5 1l-18 9l18 9l-17 9l12 9l5 1l-18 9l18 9l-10 9l5 9l5 1l-15 9l15 9l-2 9l-3 9l5 1l-13 9l13 9l-9 9l4 9l-11 13l-13 -4l-2 14l-17 -8v15l-13 -4v-16l-14 5l-3 -13zM498 219l-4 -16l8 -9l-4 -9l-4 -15l15 -9l-11 -9l-4 -16l16 -9l-12 -9l-4 -16l6 -9l-2 -9l-4 1
l4 -10l-8 -8l11 -11l-15 -6l16 -13l-15 -6l-9 -2l-5 -9l-9 -4l-6 -6l-4 -9l-18 1l-6 -18l-12 15l-7 -10l-10 2l-17 7l-11 -13l-7 16l-11 -12l-7 11l-3 9l-10 3l-3 10l-13 -1l-3 10l4 1l-2 9l-1 9l-4 8v9l-11 7l3 10l5 16l-3 9l-2 9l5 16l-15 9l10 9l5 15l-9 9l4 9l5 16
l-12 9l7 9h5v9l3 9l-14 12l18 5l-1 10v9l9 2l4 9l9 3v13l10 3l18 -1l6 18l12 -15l7 11l10 -3l17 -8l11 12l6 -15l12 10l7 -9l4 -10l13 2v-14l18 6l-2 -15l-4 -1l8 -8l-5 -10l14 -6l-10 -11l6 -8zM220 603l-4 -16l4 -18l-4 -15l9 -9l-5 -9l-4 -16l13 -9l-9 -9l-4 -16l3 -9
l1 -9h-5l10 -11l-13 -7l7 -10l-11 -7l9 -11l-8 -8l-10 -3l-4 -10l-10 -3l4 -17l-14 2l-18 1l-8 -6l-10 3l-7 -11l-10 3l-17 8l-10 -4l-7 7l-10 -3l-9 2l-3 9l-14 -1l1 14h-13l-3 9l4 2l-10 7l7 11l-14 6l10 11l-6 8l-2 9l4 16l-17 9l13 9l4 16l-10 9l6 9l4 15l-12 9l8 9
l4 16l-1 9l-3 9l4 -1l-3 10l7 8l-8 11l12 6v10l-1 9l9 2l4 8l9 4l6 8l4 8l18 -1l7 14l11 -11l9 3l8 5l17 -8l9 2l8 -5l11 10l8 -9l4 -10l16 5l-2 -16l7 -6l9 -3l-4 -1l10 -7l-7 -11l19 -5l-15 -12l12 -7zM66 0l-9 4h-18l-9 -8l-9 8l-9 -6l-9 2l13 11l-5 14l11 4l13 11l-5 14
l11 3l13 11l-7 16l13 2l13 11l4 8l2 9l13 11l6 18l13 11l-6 15l12 3l13 11l-4 13l10 4l13 11l-5 15l11 3l13 11l-2 13l8 5l13 11l-1 11l7 6l13 11l2 10l4 8l13 11l-1 11l7 6l12 11l-4 14l10 4l13 11l-1 12l7 6l13 11v10l6 7l13 11l-6 15l12 3l13 11l2 10l4 8l13 11l4 7l2 10
l13 11l6 18l13 11l1 10l5 7l13 11l-1 12l7 6l13 11l-2 13l8 5l13 11l4 7l2 10l13 11l1 10l5 8l7 -5l9 10l9 -10l9 10l9 -10l9 1l9 4l-13 -11l10 -18h-16l-13 -11l2 -11l-8 -6l-13 -11l9 -17l-15 -1l-13 -11l10 -17h-16l-12 -11l6 -15l-12 -3l-13 -11l6 -15l-12 -3l-13 -11
l6 -14l-12 -3l-13 -11l-4 -9l-2 -9l-13 -11v-11l-6 -7l-13 -11l8 -16l-14 -1l-13 -11l4 -14l-10 -4l-13 -11l-3 -8l-3 -9l-12 -11l10 -17l-16 -1l-13 -11v-11l-6 -7l-13 -11l6 -14l-12 -3l-13 -11v-11l-6 -7l-13 -11l4 -14l-10 -4l-13 -11l5 -13l-11 -4l-13 -11l3 -13l-9 -5
l-13 -11l-2 -9l-4 -8l-12 -11l8 -16l-14 -2l-13 -11l6 -15l-12 -3l-13 -11v-10l-6 -7l-13 -11l1 -12z" />
    <glyph glyph-name="ampersand" unicode="&#x26;" horiz-adv-x="526" 
d="M278 159l1 7l-19 -1l11 16l-11 5l-2 9l2 6l-20 -1l11 17l-16 1l3 12l1 7l-5 7l-3 8l-14 3l1 11l1 7l-10 4l2 11l-7 7l-6 7l-12 -5v-14l-14 2l-5 -8l-8 -4l-1 -13l-10 -2l-8 -13l11 -12l-15 -5l5 -11l-5 -8l-4 -3l9 -8l-6 -10l3 -9v-9l13 -7l-6 -10l3 -12l8 -5l2 -10l18 1
l-4 -13l7 -7l13 10l4 -16l12 6l7 -7h13l8 7l9 -1l8 7l8 3l8 8l-2 10l9 7l-3 10zM253 473l13 5l5 9l9 3l-2 16l16 -5l6 7l5 8l6 1l-3 14h14l4 9l4 8l7 7l-1 10l1 9l-3 15l-13 3v10l-14 8l-10 -1l-7 5l-9 2l-10 -2l-13 1l-5 -19l-13 15l-5 -16l-11 7l-12 -10l3 -12l-8 -6v-18
l6 -8l3 -8l-2 -6l17 -1l-8 -15l17 -1l-8 -15h18l-10 -15l14 -3zM300 385l4 -17l17 -1l-4 -12l4 -16l13 -3l-1 -11l4 -17h18l-5 -13l4 -17l20 1l-7 -14l11 14l-4 12l11 4l1 10l7 7v10l3 8l9 5l3 9l7 6l1 10l5 8l11 4l7 6l4 9l-1 -5l14 3l1 -14l12 2l5 -9l-1 -5l8 -5l6 -6
l17 6v-14l-1 -5l17 7l-2 -18h11l6 -7l-12 -4l-6 -7l-9 -4l-5 -8l-9 -3l-3 -11l-22 -11l-1 -12h-12l-1 -12l-9 -4l-14 -12l-4 -8l-3 -9l-6 -6l1 -10l-2 -9l-3 -5l4 -8l5 -8l-3 -4l16 -1l-8 -14l16 -2l-3 -12l-3 -4l12 -3l-3 -13l7 -6l6 -7l-3 -4h19l-10 -16l4 -8l8 -6l-3 -4
l16 -1l-7 -15l19 1l-6 -14l-3 -4l16 -1l-8 -14l7 -7l2 -3l-9 -12l-9 12l-9 -17l-9 13l-3 4l-9 -14l-9 14l-9 -9l-9 5l-3 4l-9 -16l-9 16h-9l-9 -4l-4 4l-9 -4l-9 4l-9 -13l-9 9l-5 17l-10 4l-3 9l-5 18l-11 4l-2 9l-10 -3l-6 -6l-7 -6l3 -16l-16 4l-5 -9l-5 -7l-15 -2
l-1 -17l-15 9l-5 -11l-9 -1l-16 3l-7 -13l-11 11l-8 -5l-9 -1l-10 5l-10 -17l-8 19l-10 -14l-8 11l-2 5l-13 -13l-4 18l-14 -14l-5 15l1 4h-10l-5 10l-15 -8l-3 13l3 4l-18 -4l6 17l-7 6l-9 4l2 5l-11 4l3 12l-17 1l5 13l2 9l-17 5l13 13l-5 8l-4 8l3 17l-10 9l9 9l-7 9l1 9
l5 15l-8 9l9 9l-3 9v9l7 10l-15 12l19 5l-8 11l7 8l7 5l1 10l7 7l-11 14l14 4l8 4v10l10 5l-4 13l10 4l9 2l-2 14l14 -1l3 10l7 6l12 3l-1 16l15 -5l1 14h11l1 8l-8 6v10h-19l11 16l-10 5l-2 9l-2 18l-14 4l8 13l-4 8l-6 7l3 11l-7 8l5 10l-9 8l2 9l5 7l-12 10l15 8l-8 10
l6 8l5 1l1 10l7 7l-8 13l11 5h6l-6 18l18 -5l-6 17l15 -1l7 -1l8 5l8 3l8 5l6 8l12 -1l5 14l12 -9l6 13l10 -4v-4l9 1h9l9 8l9 -7l9 2l9 4l10 -5l18 -2l9 6l9 -3l5 -6l13 10l4 -16l11 3l8 -4v-5l12 2l3 -12l13 4l5 -9l-2 -4l15 2l-3 -15l15 1l1 -11l-3 -3l19 -1l-12 -16
l5 -7l7 -7l-4 -5l18 -6l-15 -12l3 -8l4 -9l-6 -8l2 -9l-4 -9l5 -9l-3 -9l-8 -7l-3 -9l-4 -8l2 -10l-5 -8l-10 -7l-1 -10l-9 -5l8 -16l-15 -1l-14 -6l-4 -9l-9 -4l-6 -6l-4 -9l-16 -5l-3 -12l-12 2v-17z" />
    <glyph glyph-name="quotesingle" unicode="'" horiz-adv-x="176" 
d="M45 441l5 17l-15 9l10 9l5 17l-7 9l2 9l5 17l-14 9l9 9l5 17l-6 9l1 9l5 17l-9 9l4 9l5 17l-10 9l5 9l5 17l-6 9l1 9l5 17l-16 9l11 9l7 -5l9 13l9 -13l9 10l9 -5l7 -5l9 12l9 -12l9 4l9 1l-5 -17l15 -9l-10 -9l-5 -17l11 -9l-6 -9l-5 -17l16 -9l-11 -9l-5 -17l6 -9
l-1 -9l-5 -17l13 -9l-8 -9l-5 -17l17 -9l-12 -9l-5 -17l18 -9l-13 -9l-5 -17l14 -9l-9 -9l-7 5l-9 -3l-9 3l-9 -6l-9 1l-7 5l-9 -6l-9 6l-9 -8z" />
    <glyph glyph-name="parenleft" unicode="(" horiz-adv-x="318" 
d="M288 64l-4 -5l7 -9l-7 -9l6 -9l-2 -9l-4 -5l12 -9l-12 -9l4 -18l-4 -5l5 -9l-5 -9l10 -9l-6 -9l-9 5l-10 -8l-8 10l-10 -8l-8 6l-5 6l-10 -1l-7 6l-14 -15l-5 15l-1 5l-14 -11l-3 18l-13 -8l-5 11l2 4l-8 4l-7 6l-17 -9v16l2 5l-9 3l-4 9l-18 -4l2 14l3 4h-17l7 15
l-19 -1l5 14l2 7l-15 3l7 13l-17 3l6 12l2 11l-16 5l11 13l-14 5l5 11l2 15l-9 8l7 10l-4 8l-3 9l4 4l-3 9l3 9l-15 9l14 9l-17 9l12 9l4 5l-7 9l7 9l-10 9l6 9l4 5l-13 9l13 9l-3 9l-1 9l4 5l-7 9l7 9l-9 9l5 9l4 5l-3 9l3 9l-4 9v9l5 4l-3 9l3 9l-13 9l14 9l-10 9l6 9
l7 15l-8 10l10 8l-5 9l3 9l7 8l-7 11l12 6l-12 13l12 6l7 4l1 10l6 7l-11 14l14 4l5 -1l5 8l5 7l6 18l5 -2l4 9l8 4l3 10l7 6l3 -3l-1 17l16 -7l4 10l8 4l5 -3l3 16l13 -9l6 10l9 1l7 -3l5 18l13 -14l7 9h9l10 -3l8 4l10 -2l8 9l9 -3l-4 -4l3 -9l-3 -9l10 -9l-6 -9l-4 -5
l8 -9l-8 -9l15 -9l-11 -9l-4 -4l15 -9l-15 -9l14 -9l-10 -9h-15l-7 -8l-10 2l-7 -8l-9 -2l-4 3l4 -17l-16 4l3 -17l-13 1l-5 -2l3 -11l-8 -6l10 -13l-11 -6l-5 -13l5 -9l-6 -9l8 -9l-4 -9l-5 -9l10 -9l-5 -9h-5l6 -9l-6 -9l16 -9l-11 -9l-5 -17l13 -9l-8 -9l-5 -17l10 -9
l-5 -9h-5l12 -9l-12 -9l4 -9l1 -9h-5l15 -9l-15 -9l11 -9l-6 -9l-5 -17l16 -9l-11 -9l-5 -9l6 -9l-1 -9l-4 -13l13 -9l-12 -9l16 -9l-11 -9l-3 -5l19 -3l-14 -14l15 -5l-6 -11l-3 -4l9 -4l4 -8l10 -3l6 -7l12 -9l10 3l7 -8l11 5z" />
    <glyph glyph-name="parenright" unicode=")" horiz-adv-x="318" 
d="M30 588l4 4l-7 9l7 9l-6 9l2 9l4 5l-12 9l12 9l-4 18l4 4l-5 9l5 9l-10 9l6 9l9 -5l10 8l8 -10l10 8l8 -6l5 -6l10 2l7 -6l13 15l6 -15l1 -5l14 11l3 -18l13 8l5 -11l-2 -4l8 -4l7 -6l17 9v-16l-2 -4l9 -4l4 -9l17 5l-1 -14l-2 -5h16l-6 -15l18 1l-5 -14l-2 -7l15 -3
l-7 -13l17 -3l-6 -12l-2 -11l16 -5l-11 -13l14 -5l-5 -11l-2 -16l9 -8l-7 -10l4 -8l3 -9l-4 -4l3 -9l-3 -9l15 -9l-14 -9l17 -9l-12 -9l-4 -5l7 -9l-7 -9l10 -9l-6 -9l-4 -5l13 -9l-13 -9l3 -9l1 -9l-4 -5l7 -9l-7 -9l9 -9l-5 -9l-4 -5l3 -9l-3 -9l4 -9v-9l-5 -4l3 -9l-3 -9
l13 -9l-14 -9l10 -9l-6 -9l-6 -14l7 -10l-10 -8l5 -9l-3 -9l-7 -9l7 -11l-12 -6l12 -13l-18 -9l-1 -10l-7 -7l11 -15l-14 -3l-5 1l-5 -8l-5 -7l-6 -18l-5 2l-4 -9l-8 -4l-3 -10l-7 -6l-3 3l1 -17l-16 7l-4 -10l-8 -4l-4 3l-4 -16l-13 9l-6 -10l-9 -1l-7 3l-5 -19l-13 14
l-7 -9h-9l-10 3l-8 -4l-10 2l-8 -9l-9 3l4 5l-3 9l3 9l-10 9l6 9l4 5l-8 9l8 9l-15 9l11 9l4 5l-15 9l15 9l-14 9l10 9h16l7 8l10 -3l7 8l9 2l4 -3l-4 17l16 -4l-3 17l13 -1l5 2l-3 11l8 6l-10 13l11 6l5 13l-5 9l6 9l-8 9l8 18l-9 9l5 9l4 17l-5 9l1 9h4l-15 9l15 9l-12 9
l8 9h4l-9 9l9 9l-11 9l7 9l4 17l-3 9l-1 9l4 17l-14 9l10 9h4l-10 9l10 9l-15 9l11 9l4 9l-5 9l1 9l4 13l-13 9l12 9l-16 9l11 9l3 5l-19 3l14 14l-15 5l6 11l3 4l-9 4l-4 8l-10 3l-6 7l-13 9l-10 -2l-7 8l-11 -5z" />
    <glyph glyph-name="asterisk" unicode="*" horiz-adv-x="343" 
d="M112 420v5l-10 2l-5 8l-10 1l-8 5l-1 6l-9 2l-6 7l-15 -7l-3 13l12 8l-2 13h14l-1 13l9 4l12 7l1 11l10 3l-1 13l9 4l-13 8l-13 -11l-6 12l-14 9l-10 -1l-9 1l-13 8l-14 -13l-5 14h5l3 8l3 9l2 18l5 1l1 9l5 8l-2 10l4 8l13 -9l13 11l6 -12l12 -8l11 2l8 -3l13 -9l13 10
l6 -11l4 11l-7 9l7 9l-17 9l12 9l4 10l-7 9l7 9l-4 9l-1 9l5 -4l9 8l9 -8l9 3l9 1l5 -4l9 10l9 -10l9 8l9 -4l-4 -10l15 -9l-15 -9l15 -9l-11 -9l-4 -11l14 -9l-14 -9l5 -9l-1 -9h16l7 7l9 2h15l4 17l12 -7h16l5 16l11 -7l-4 -3l9 -6l-2 -11l16 -3l-6 -12l-3 -4l8 -6l-2 -11
l10 -5v-10h-16l-6 -11l-10 2l-17 1l-7 -8l-9 -1h-16l-4 -17l-12 8l3 -11l16 1l-4 -15l13 -1l2 -10l3 -11h15l-4 -15l8 -5l7 -6l-5 2l1 -17l-16 6l-1 -13l-11 -1l-6 2l2 -18l-17 8l-4 -10l-8 -4l-4 12l-16 -1l5 15l-18 -3l3 14l-4 12l-19 -4l8 18l-16 -2l1 13l-10 -6l-4 -9
l-7 -5l-2 -10l-6 -7l-10 -6l-2 -10l-9 -4v-12z" />
    <glyph glyph-name="plus" unicode="+" horiz-adv-x="763" 
d="M334 357l4 1l-6 9l6 9l-11 9l7 9l4 1l-15 9l15 9l-17 9l13 9l4 1l-15 9l15 9l-14 9l10 9l4 1l-9 9l9 9l-8 9l4 9l4 1l-13 9l13 9l-15 9l11 9l4 1l-8 9l8 9l-4 9v9l12 -5l9 6l9 -6l9 5h9l11 -5l9 1l9 -1l9 7l9 -2l-5 -1l12 -9l-12 -9l15 -9l-10 -9l-5 -1l11 -9l-11 -9
l12 -9l-7 -9l-5 -1l2 -9l-2 -9l6 -9l-1 -9l-5 -1l6 -9l-6 -9l14 -9l-9 -9l-5 -1l5 -9l-5 -9l10 -9l-5 -9l-5 -1l2 -9l-2 -9l14 -9l-9 -9l16 -5l9 8l24 -8l9 7l9 -2l16 -5l9 14l9 -9l16 -5l9 8l9 -3l16 -5l9 18l9 -13l15 -5l9 9l9 -4l16 -5l9 10l9 -5l-5 -9l5 -9l-5 -9l6 -9
l-1 -9l-5 -9l9 -9l-9 -9l11 -9l-6 -9l-16 5l-9 -3l-9 -2l-15 5l-9 -14l-9 9l-16 5l-9 -5h-9l-16 5l-9 -18l-9 13l-16 5l-9 -5h-9l-15 5l-9 -2l-9 -3l-16 5l-9 -13l-9 8l-5 -1l2 -9l-2 -9l1 -9l4 -9l-5 -1l3 -9l-3 -9l4 -9l1 -9l-5 -1l10 -9l-10 -9l18 -9l-13 -9l-5 -2l13 -9
l-13 -9l12 -9l-7 -9l-5 -1l10 -9l-10 -9l4 -9l1 -9l-5 -1l11 -9l-11 -9l15 -9l-10 -9l-11 4l-9 -12l-9 12l-9 -11l-9 7l-12 4l-9 -14l-9 14l-9 -3l-9 -1l4 1l-11 9l11 9l-10 9l6 9l4 1l-17 9l17 9l-3 9l-1 9l4 2l-8 9l8 9l-17 9l13 9l4 1l-14 9l14 9l-16 9l12 9l4 1l-7 9
l7 9l-4 18l4 1l-17 9l17 9l-17 9l13 9l-16 5l-9 -17l-9 12l-15 5l-9 -11l-9 6l-16 5l-9 -3l-9 -2l-15 5l-9 -9l-9 4l-16 5l-9 -17l-9 12l-15 5l-9 -4l-9 -1l-16 5l-9 -9l-9 4l5 9l-7 9l7 9l-15 9l10 9l5 9l-1 9l1 9l-12 9l7 9l16 -5l9 6l9 -1l15 -5l9 1l9 4l16 -5l9 12l9 -7
l15 -5l9 5h9l16 -5l9 12l9 -7l15 -5l9 2l9 3l16 -5l9 18z" />
    <glyph glyph-name="comma" unicode="," horiz-adv-x="248" 
d="M49 0l5 4l-11 9l11 9l-15 9l10 9l5 3l-13 9l13 9l-12 9l7 9l5 3l-15 9l15 9l-4 9l-1 9l5 4l-12 9l12 9l-11 9l6 9l1 -4l9 17l9 -17l9 3l9 1l2 -4l9 8l9 -8l9 17l9 -13l2 -4l9 14l9 -14l9 16l9 -12l1 -4l9 7l9 -7l18 4l-5 -4l18 -9l-18 -9l18 -9l-13 -9l-5 -5l17 -9
l-17 -9l11 -9l-6 -9l-5 -5l3 -9l-3 -9l9 -9l-4 -9l-5 -4l17 -9l-17 -9l4 -9l1 -9l-6 2l-4 -12l-12 3l-4 -10l-9 -3l-6 2v-18l-16 9l-7 -5l-6 -8l-6 2l-2 -15l-14 6l-5 -9l-8 -4l-8 13l-7 5l-10 3l11 4l-1 14l14 -2l4 9l10 3l-2 14l12 1l-16 4l-9 -1l-9 -3l-16 4l-9 -17z" />
    <glyph glyph-name="hyphen" unicode="-" horiz-adv-x="271" 
d="M263 248v4l-9 -12l-9 12l-9 -11l-9 7l-1 4l-9 -9l-9 9l-9 -3l-9 -1v4l-9 -10l-9 10l-9 -14l-9 10l-1 4l-9 -12l-9 12l-9 -11l-9 7v4l-9 -14l-9 14l-9 -3l-9 -1l-1 4l-9 -11l-9 11l-9 -10l-9 6v4l-9 -17l-9 17l-9 -3l-9 -1l4 7l-8 9l8 9l-17 9l13 9l4 8l-14 9l14 9l-16 9
l12 9l4 7l-7 9l7 9l-2 9l-1 6l8 16l9 -17l9 17l9 -13l1 -4l9 16l9 -16l9 10l9 -6v-4l9 2l9 -2l9 8l9 -4l1 -4l9 16l9 -16l9 3l9 1v-4l9 8l9 -8l9 6l9 -2l1 -4l9 14l9 -14h9l9 4v-4l9 11l9 -11l9 5l9 -1l-5 -7l1 -9l-1 -9l12 -9l-7 -9l-5 -8l5 -9l-5 -9l12 -9l-7 -9l-5 -7
l2 -9l-2 -9l18 -9zM9 375l-1 -1v4z" />
    <glyph glyph-name="period" unicode="." horiz-adv-x="248" 
d="M49 0l5 4l-15 9l15 9l-4 9l-1 9l5 3l-12 9l12 9l-11 9l6 9l5 3l-18 9l18 9l-4 9l-1 9l5 4l-9 9l9 9l-18 9l13 9l1 -4l9 14l9 -14l9 16l9 -12l2 -4l9 7l9 -7l18 4l2 -4l9 17l9 -17l9 17l9 -13l1 -4l9 16l9 -16l9 10l9 -6l-5 -4l3 -9l-3 -9l9 -9l-4 -9l-5 -3l17 -9l-17 -9
l4 -9l1 -9l-5 -3l9 -9l-9 -9l7 -9l-2 -9l-5 -4l15 -9l-15 -9l1 -9l2 -6l-8 -10l-9 11l-9 -5l-9 1l-2 4h-18l-9 -11l-9 7l-2 4l-9 -4l-9 4l-9 -11l-9 7l-1 4l-9 -1l-9 1l-9 -17zM199 0l-2 3l1 1z" />
    <glyph glyph-name="slash" unicode="/" horiz-adv-x="334" 
d="M-1 -95l-5 5l-9 -18l-9 18l-9 -9l-9 4l-5 5l-9 -10l-9 10l-9 -5h-9l11 13l-2 10l5 8l11 13l-3 12l7 6l11 13l-6 12l9 6l11 13l4 18l11 13l-9 14l12 4l11 13l-1 10l4 8l11 13l-12 16l16 2l11 13l-1 10l4 8l11 13l2 8l1 10l11 13l-7 14l11 4l11 13l2 8l1 10l11 13l4 8v10
l11 13l1 9l2 9l10 12l1 9l3 9l11 13l-4 12l8 6l11 13l-12 15l15 3l11 13l-8 14l12 4l11 13l-7 13l10 5l11 13l-6 12l9 6l11 13l1 10l3 8l11 13l-6 12l9 6l11 13l-10 14l13 4l11 13l-7 13l11 5l11 13l-7 13l10 5l11 13l-9 14l13 4l11 13v9l3 9l5 -4l9 11l9 -11l9 10l9 -6
l5 -4l9 17l9 -17l9 3l9 1l-11 -13l4 -11l-7 -7l-11 -13l12 -16l-16 -2l-11 -13l10 -14l-13 -4l-11 -13l11 -15l-15 -3l-11 -13l4 -11l-7 -7l-11 -13l-1 -9l-2 -9l-11 -13l11 -15l-15 -3l-11 -13l12 -15l-15 -3l-11 -13l11 -15l-14 -3l-11 -13l5 -13l-9 -5l-11 -13l-1 -9
l-2 -9l-11 -13l4 -12l-8 -6l-11 -13l11 -15l-14 -3l-10 -12l-1 -9l-3 -9l-11 -13l3 -11l-7 -7l-11 -13l2 -10l-5 -8l-11 -13l9 -14l-13 -4l-11 -13l-3 -8v-10l-11 -13l7 -13l-10 -5l-11 -13v-10l-4 -8l-11 -13l-3 -8v-10l-11 -13l7 -13l-10 -5l-11 -13v-10l-4 -8l-11 -13
l7 -13l-10 -5l-11 -13l-3 -8l-1 -10l-11 -13l13 -15z" />
    <glyph glyph-name="zero" unicode="0" horiz-adv-x="522" 
d="M477 491l-5 -1l6 -9l-6 -9l3 -9l2 -9l-5 -1l12 -9l-12 -9l18 -9l-13 -9l-5 -1l14 -9l-14 -9l3 -9l2 -9l-5 -1l13 -9l-13 -9l1 -9l4 -9l-5 -1l12 -9l-12 -9l17 -9l-12 -9l-5 -1l8 -9l-8 -9l1 -9l4 -9l-5 -1l14 -9l-14 -9l3 -9l2 -9l-5 -1l2 -9l-2 -9l1 -9l4 -9l-5 -13
l10 -9l-11 -9v-9l3 -9l-6 -6l6 -11l-10 -6l-2 -9l2 -10l-6 -2l10 -14l-17 -2l4 -12l-8 -6l-4 3l-2 -10l-9 -4l4 -15l-12 -2l-4 3l-7 -7l-8 -4l-7 -6l-5 -8l-5 3l-8 -5l-9 -2l-5 -12l-10 1l-9 3l-8 -7l-9 3l-8 -8h-9l-15 4l-9 -4l-9 3l-9 -10l-9 4l-15 5l-9 -2l-9 3l-9 -4
l-9 1l-8 6l-11 -11l-6 15l-10 -2l-9 1l-2 6l-11 -3l-6 10h-10l-8 3l1 5l-11 -1l-4 11l-9 3l-8 4l3 4l-18 -4l6 17l-16 -1l1 12l3 4l-14 3l7 14l-20 1l8 13l2 8l-6 8l2 10l-13 6l4 10l4 13l-19 8l18 10l-15 8l9 10l5 1l-10 9l10 9l-11 9l6 9l5 1l-2 9l2 9l-15 9l10 9l5 1
l-4 9l4 9l-16 9l11 9l5 1l-18 9l18 9l-11 9l6 9l5 1l-4 9l4 9l-6 9l1 9l5 1l-6 9l6 9l-18 9l13 9l5 1l-15 9l15 9l-10 9l5 9l5 1l-18 9l18 9l-15 9l10 9l5 13l-6 9l7 9l-15 10l12 8l6 7l2 9l3 8l-3 10l3 9h5l-12 16l20 1l-7 13l10 5l4 -2l-6 17l18 -4l3 9l5 8l4 -3l1 15
l14 -4l-2 18l14 -4l6 -2l6 7h10l4 15l11 -4l10 -3l7 8l10 -4l6 18l11 -10l15 -4l8 15l10 -14l9 6h9l15 -5l9 4l9 -5l10 15l8 -12l7 -6l9 -2l8 -2l12 10l7 -9l2 -6l14 10l3 -17l11 4l7 -7l-1 -5l13 3l2 -13l14 5l3 -12l-3 -3l8 -5l3 -9l11 -3l4 -8l-3 -5l8 -6v-10l18 -1
l-6 -13l-3 -9l6 -8l-1 -9l14 -6l-6 -11l-4 -13l1 -9v-9zM205 502l-5 -17l3 -9l2 -9l-5 -17l3 -9l2 -9l-5 -17l7 -9l-2 -9l-5 -17l6 -9l-1 -9l-5 -17l17 -9l-12 -9l-5 -17l8 -9l-3 -9l-5 -17l9 -9l-4 -9l-5 -17l17 -9l-12 -9l-5 -17l8 -9l-3 -9l-4 -1l4 -18l3 -8l1 -9l5 -9
l3 -8l9 -7l11 5l6 -10l14 12l5 -13l10 -2l7 6l10 -1l7 7l9 3l5 -1l-7 11l11 7l-3 10l7 7l2 9l-2 10l4 17l-10 9l6 9l4 17l-7 9l3 9l4 17l-12 9l8 9l4 17l-10 9l6 9l4 17l-15 9l11 9l4 17l-3 9l-1 9l4 17l-13 9l9 9l4 17l-3 9l-1 9l4 17l-1 9l-3 9v18l-18 5l14 13l-6 8l-3 8
l-7 7l-12 -11l-5 15l-13 -12l-6 13l-10 2l-5 -13l-12 8l-5 -14l-11 4l-9 -15l14 -13l-19 -4v-19z" />
    <glyph glyph-name="one" unicode="1" 
d="M371 0l-3 4l-9 -14l-9 14l-9 -7l-9 3l-4 4l-9 -1l-9 1l-9 -1l-9 -3l-3 4l-9 -13l-9 13l-9 -12l-9 8l-3 4l-9 -1l-9 1l-9 -1l-9 -3l4 16l-11 9l7 9l4 16l-9 9l5 9l4 15l-8 9l4 9l4 16l-16 9l12 9l4 16v9l-4 9l4 16l-17 9l13 9l4 16l-1 9l-3 9l4 15l-5 9l1 9l4 16l-7 9l3 9
l4 16l-7 9l3 9l4 16l-11 9l7 9l4 16l-9 9l5 9l4 15l-14 9l10 9l4 16l-4 18l4 16l-4 9v9l-10 2l-4 -17l-13 12l-7 -7l-10 1l-4 -18l-12 9l-10 4l-8 -4l-9 2l-8 -14l-10 8h-10l5 2l-12 9l12 9l-3 9l-2 9l5 1l-8 9l8 9l-5 9v9l5 2l-1 9l1 9l-2 9l-3 9h18l8 6l10 -1l7 7l9 2
l14 2l4 13l13 -6l3 14l11 -2h8l-2 17l16 -6l7 5l5 9l5 -2l3 9l8 5l-1 13l9 4l3 -5l9 2l9 -2l9 6l9 -1l3 -5l9 12l9 -12l9 9l9 -4l3 -5l9 17l9 -17l9 9l9 -4l-5 -16l16 -9l-11 -9l-5 -17l7 -9l-2 -9l-5 -16l8 -9l-3 -9l-5 -16l1 -9l4 -9l-5 -17l13 -9l-8 -9l-5 -16l16 -9
l-11 -9l-5 -16l5 -9v-9l-5 -17l12 -9l-7 -9l-5 -16l9 -9l-4 -9l-5 -16l5 -9v-9l-5 -17l10 -9l-5 -9l-5 -16l8 -9l-3 -9l-5 -17l2 -9l3 -9l-5 -16l14 -9l-9 -9l-5 -16l6 -9l-1 -9l-5 -17l14 -9l-9 -9l-5 -16l6 -9l-1 -9l-5 -16l2 -9l3 -9l-5 -17l15 -9l-10 -9l-5 -16l13 -9z
" />
    <glyph glyph-name="two" unicode="2" 
d="M206 425l-4 5l-9 -2l-9 2l-9 -17l-9 12l-4 5l-9 -12l-9 12l-9 -13l-9 8l-3 5l-9 -8l-9 8l-9 -16l-9 11l-4 5l-9 -12l-9 12l-9 -15l-9 10l5 15l-10 9l5 9l5 15l-2 9l-3 9l5 13l-14 10l15 8l-7 9l4 9l6 7l-13 12l17 5l-6 11l6 8l5 1l-5 12l13 4l4 18l4 -3l5 8l6 6l4 8l4 9
l4 -3l3 10l11 1l1 13l11 1l6 -2l2 16l14 -9l8 5l7 6l10 -3l6 14l11 -10l6 18l11 -10l14 -4l9 2l9 -1l8 16l10 -10l13 -5l10 14l8 -15l10 13l8 -10l8 -6l11 10l6 -14l11 6l8 -5l2 -6l14 9l3 -16l9 -2l9 -1l-1 -5l13 5l2 -15l12 2l5 -8l-3 -4l17 3l-5 -16l8 -5l7 -6l-3 -4
l7 -6l1 -10l12 -14l-3 -6l18 -5l-14 -13l13 -6l-4 -10l-4 -11l4 -8l-2 -9l1 -9l5 -9l-5 -11l13 -10l-14 -8l2 -9l1 -9l-6 -7l14 -12l-18 -5l7 -11l-7 -8l-6 -4l-3 -9l-4 -8l-3 -8v-10l-7 -3l10 -16l-19 1l2 -12l-7 -6l-8 -3l5 -15l-17 2l-2 -10l-6 -7l-14 -7l1 -13h-13
l-6 -7l-7 -5l6 -19l-16 3l-5 2v-14l-13 1l-4 -9l-9 -3l2 -15l-15 3l1 -14l-11 -2l-14 -10l1 -13l-13 -1l5 -16l-13 -1l-13 -13l2 -12l-7 -6l15 -4l9 1l9 3l16 -4l9 1l9 3l15 -4l9 13l9 -9l16 -4l9 12l9 -8l15 -4l9 1l9 3l16 -4l9 1l9 3l15 -4l9 11l9 -7l-4 -7l9 -9l-9 -9
l8 -9l-4 -9l-4 -8l16 -9l-16 -9v-9l4 -9l-4 -7l17 -9l-17 -9l1 -9l3 -9l-16 4l-9 -5l-9 1l-15 4l-9 -7l-9 3l-16 4l-9 -7l-9 3l-15 4l-9 -11l-9 7l-16 4l-9 -9l-9 5l-15 4l-9 -14l-9 10l-16 4l-18 -4l-15 4l-9 -4h-9l-16 4l-9 -14l-9 10l-15 4l-9 -3l-9 -1l-16 4l-9 -16
l-9 12l-15 4l-9 -3l-9 -1l-16 4l-9 -13l-9 9l4 10l-12 9l7 9l5 1l-3 9l4 9l-7 9l4 9l5 2l-3 10l6 7l1 9l-2 10l6 2l1 10l4 8v9l2 9l7 4v10l8 6l-5 13l9 5l9 6l-5 13l14 2l-8 16l13 2l11 7l5 7l6 7l3 9l4 8l13 8l-1 13l13 1l5 7l4 9l4 -2l3 10l10 2l-1 15l14 -3l1 13l9 3l8 1
l-5 19l15 -3h6v12h13l-5 17l17 -4l2 11l8 5l11 7v12l11 3l5 7l2 10l6 3l-8 13l15 4l-11 14l14 4l5 1l-3 9l6 9l-11 10l9 8v16l-10 7l6 11l-7 7l-2 9l-9 7l-11 -7l-6 12l-11 -5l-8 5l-10 2l-8 -4l-9 -1l-5 -15l-11 6l-8 -16l3 -10l-7 -7l11 -12l-11 -7l-4 -2l5 -9l-5 -9l1 -9
l3 -9l-4 -3l14 -9l-14 -9l12 -9z" />
    <glyph glyph-name="three" unicode="3" 
d="M205 485l-2 5l-9 -7l-9 7l-9 -15l-9 10l-1 5l-9 -3l-9 3l-9 -8l-9 3l-2 5l-9 -4l-9 4l-9 -3l-9 -2l-2 5l-9 -2l-9 2l-9 -13l-9 8l4 1l-17 8l16 10l-7 9l2 9l5 8l-16 10l17 8l-14 10l11 8l5 1l-4 10l8 7l1 9l-1 10l11 12v10l4 8l13 8l-1 13l10 3l16 4l1 15l12 -2l4 -3l6 7
l11 -1l5 12l10 -2l9 -3l7 15l11 -12l8 9l9 -2l15 -4l9 5l9 -4l9 4l9 1l4 -5l9 12l9 -13l10 17l8 -18l9 10l9 -6l11 -6h9l9 -3l10 8l8 -7l1 -5l14 12l3 -19l10 1l8 -3l10 -14l17 8v-15l5 -16l8 -5l6 -7l-3 -4l7 -7l-1 -10l16 -3l-6 -12l-3 -10l14 -7l-12 -11l8 -8l-1 -9h-4
l11 -9l-11 -9l12 -9l-11 -9l12 -9l-7 -9l-5 -3l6 -10l-8 -8v-9l-2 -9l15 -11l-17 -7l-1 -9l3 -9l-5 1l-4 -9l-8 -5l-4 -9l-4 -8l5 -10l8 -5l9 -2l-3 -4l3 -8l3 -9l19 -2l-9 -13l-3 -15l4 -9l-3 -9l17 -8l-16 -10l18 -8l-12 -10l-5 -4l2 -9l-2 -9l17 -9l-12 -9l-5 -4l12 -9
l-12 -9l11 -9l-6 -9l-5 -9l10 -10l-12 -8l13 -10l-10 -8l-5 -3l9 -12l-14 -5l14 -13l-14 -6l-4 2l-3 -9l-6 -7l5 -14l-10 -4l-15 -10l4 -16h-13l-4 3l2 -19l-17 9l1 -17l-13 3l-5 3l-4 -14l-13 8l-2 -19l-13 8l-9 3l-8 -7l-9 3l-8 -6l-9 -2l-13 4l-9 -4l-9 3l-8 -18l-10 12
l-16 5l-10 -13l-8 14l-10 -13l-8 10l-9 6l-11 -10l-6 13l-11 -8l-8 7l-3 6l-9 -1l-8 7l-11 -4l-7 6l2 4l-11 -1l-4 11l-10 1l-7 5l-8 16l-17 -2l2 13l4 3l-9 5l1 11l-7 6l-5 8l3 7l-17 5l13 13l-11 6l2 10l4 12l-11 9l10 9l-6 18l4 6l-15 9l15 9l-1 9l-3 9l4 6l-4 9l4 9
l-5 9l1 9l4 -5l9 14l9 -14l9 11l9 -6l4 -5l9 4l9 -4l9 3l9 2l4 -5l9 3l9 -3l9 16l9 -11l4 -5l9 14l9 -14l9 12l9 -7l-4 -5v-18l4 -9v-9l-4 -5l17 -9l-17 -9l4 -9v-9l-4 -2l13 -6l-9 -11l7 -8l-2 -10l12 -6l-3 -10l7 -7l12 9l5 -13l11 3l8 -4l9 -2l8 5h9l5 16l11 -7l4 -1
l-1 10l5 8l2 9l2 8l-2 10l2 9l5 10l-15 9l15 9l-9 9l4 9l3 10l-9 8l7 10l-5 8l-2 9l-7 16l-10 3l-5 8l-6 7l-10 -1l-7 6l-13 -9l-6 10l-11 5l-9 -3l-9 4l-10 -17l-8 18l-9 -9l-9 5v5l-9 -10l-9 5l4 3l-8 9l8 9l-6 9l2 9l4 3l-13 9l13 9l-1 9l-3 9l4 3l-4 9l4 9l-5 9l1 9
l4 -4l9 5l9 -5l9 12l9 -8l4 -4l9 15l9 -14l9 4l9 -3l9 7l9 -2l8 -1l8 5l9 2l2 18l12 -6l8 10l-4 11l9 6l-3 11l4 8l1 15l-4 9l-1 9l-13 6l4 10l-4 6l-13 -11l-4 16l-12 -7l-7 8l-9 2l-8 -3l-9 -2l-8 -7l-8 -3l-6 -7l-1 -9l-4 -8l11 -12l-11 -7l-5 -7l14 -9z" />
    <glyph glyph-name="four" unicode="4" 
d="M293 114l-16 4l-9 -16l-9 12l-16 4l-18 -4l-16 4l-9 -11l-9 7l-15 4l-9 -13l-9 9l-16 4l-9 -16l-9 12l-16 4l-9 -13l-9 9l-16 4l-9 -11l-9 7l-16 4l-9 -16l-9 12l4 10l-5 9l4 9l-5 9l4 9l-3 9l-2 9l5 15l-17 9l17 9l-13 9l9 9l6 14l-14 10l15 8l-11 10l8 8l6 12l-9 10
l11 8l-2 9v9l7 11l-6 10l9 7l-5 11l4 8l7 8l-2 10l7 7l-12 13l12 6l7 8l-2 10l7 7l-1 10l2 9l7 6l-10 14l17 3l-4 11l7 7l7 5l-5 13l13 4l1 9l2 9l8 5l-10 16h18l4 8l1 10l8 4v10l9 5v11l6 7l8 3l-6 16l16 -1l-3 13l10 4l8 3l3 9l9 4l4 9l4 8v-5l9 3l9 -3l9 16l9 -11l17 -5
l9 14l9 -9v-5l9 12l9 -12l9 1l9 4v-5l9 5l9 -5l9 18l9 -13v-5l9 5l9 -5l9 12l9 -7l17 -5l9 5h9v-5l9 11l9 -11l9 12l9 -7l-4 -16l5 -9l-1 -9l-4 -16l4 -18l-4 -15l14 -9l-10 -9l-4 -16l3 -9l1 -9l-4 -16v-9l4 -9l-4 -16l4 -9v-9l-4 -15l14 -9l-10 -9l-4 -16l8 -9l-4 -9
l-4 -16l7 -9l-3 -9l-4 -16l3 -9l1 -9l-4 -15l5 -9l-1 -9l-4 -16l3 -9l1 -9l-4 -16l12 -9l-8 -9l12 -4l9 3l9 -3l9 17l9 -13l-4 -16l9 -9l-5 -9l-4 -15l9 -9l-5 -9l-4 -15l8 -9l-4 -9l-4 -16l6 -9l-2 -9l-12 4l-9 -13l-9 13l-9 -1l-9 -3l-4 -2l4 -9l-4 -9l5 -9l-1 -9l-4 -2
l5 -9l-5 -9l12 -9l-8 -9l-4 -2l14 -9l-14 -9l4 -9v-9l-2 4l-9 -6l-9 6l-9 -1l-9 -3l-2 4l-9 -14l-9 14l-9 -6l-9 2l-3 4l-9 -5l-9 5l-9 -1l-9 -3l-2 4l-9 -10l-9 10l-9 -14l-9 10l5 2l-10 9l10 9l-1 9l-4 9l5 2l-5 9l5 9l-2 9l-3 9l5 2l-14 9l14 9l-14 9zM179 269l-5 -3
l11 -9l-6 -9l2 -4l9 1l9 -1l9 10l9 -6l2 -4l9 16l9 -16l9 4h9l2 -4l9 16l9 -16l18 4l5 16l-5 9v9l5 16l-15 9l10 9l5 16l-14 9l9 9l5 16l-8 9l3 9l5 16l-12 9l7 9l5 15l-12 9l7 9l5 16l-13 9l8 9l5 16l-7 9l2 9l5 16l-2 9l-3 9l5 16l-15 9l-2 -2l-5 -7l-3 -9l-8 -6l-3 -8
l-3 -9l-4 2l-4 -8l-5 -8l-4 -8l-5 -7l10 -16l-15 -2l-10 -10v-10l-7 -7l11 -15l-15 -3l-7 -8l13 -14l-19 -3l-2 -9v-9l-6 -8l14 -12l-18 -5l9 -12l-9 -7l-5 -8l9 -10l-11 -8l10 -10l-8 -8l-5 -9l13 -9l-14 -9l12 -9zM286 584l-3 -6l10 9z" />
    <glyph glyph-name="five" unicode="5" 
d="M65 332h4l-14 9l15 9l-1 9l-3 9l5 17l-8 9l4 9h5l-8 9l8 9l-6 9l1 9l5 17l-13 9l9 9h4l-4 9l5 9l-4 18l5 17l-3 9l-1 9h4l-4 9l5 9l-13 9l9 9l5 17l-17 9l12 9h4l-13 9l14 9l-5 9l1 9l5 17l-11 9l7 9l16 -5l9 2l9 3l15 -5l9 4l9 1l16 -5l9 10l9 -5l16 -5l9 10l9 -5l16 -5
l9 4l9 1l15 -5l9 4l9 1l16 -5l9 15l9 -10l16 -5l9 10l9 -5l16 -5l9 9l9 -4l15 -5l9 5h9l16 -5l9 7l9 -2l-4 -7l14 -9l-14 -9l5 -9l-1 -9l-4 -8l5 -9l-5 -9l14 -9l-10 -9l-4 -7l6 -9l-6 -9l6 -9l-2 -9l-16 5l-9 -5h-9l-16 5l-9 -14l-9 9l-16 5l-9 -10l-9 5l-15 5l-9 -13l-9 8
l-16 5l-9 -4l-9 -1l-16 5l-9 -15l-9 10l-16 5l-9 -5h-9l-5 -4l16 -10l-17 -8l4 -18l-5 -4l13 -9l-13 -9l1 -9l3 -9l5 -3l3 19l14 -13l7 7h10l5 10h10l10 -3l9 2h9l7 15l10 -9l7 -5h9l9 -2l10 10l8 -7l2 -5l14 14l3 -19l10 1l9 -2l-1 -4l12 2l3 -12l10 -1l8 -4l-3 -3l7 -6
l6 -7l18 6l-2 -15l-3 -3l6 -7l3 -9l7 -6l6 -7l-3 -6l14 -5l-9 -12l19 -4l-9 -12l-4 -10l11 -8l-9 -9l11 -8l-5 -10l-5 -15l9 -9l-4 -9l-5 -15l4 -9l1 -9l-5 -15l9 -9l-4 -9l-5 -15l7 -9l-2 -9l-5 -13l6 -9l-7 -9l7 -9l-4 -9l-6 -6l4 -10l-8 -7l-1 -9l1 -10l-5 -1l9 -14
l-17 -2l-1 -10l-3 -8l-4 2l-1 -11l-11 -2l-1 -11l-7 -6l-4 3l-6 -7l-8 -4l-3 -11l-9 -3l-6 2l-7 -5l-9 -2l-1 -20l-14 9l-10 3l-7 -10l-10 6l-7 -14l-10 6l-15 4l-9 -6l-9 5l-9 -11l-9 5l-14 5l-9 -6l-9 7l-9 -8l-9 5l-8 6l-11 -10l-6 14l-11 -6l-8 5l-2 6l-12 -6l-5 12
l-11 -4l-7 7l1 5l-8 4l-7 6l-13 -2l-4 9l3 3l-10 3l-1 11l-17 -2l2 13l2 5l-12 5l5 12l-12 4v10l2 8l-9 7l5 11l-14 6l5 10l4 13l-6 9l5 9l-12 9l6 9l5 16l-16 9l11 9l5 16l-9 9l4 9l5 -5l9 11l9 -11l9 13l9 -8l4 -5l9 7l9 -7l9 6l9 -1l4 -5l9 9l9 -9l9 7l9 -2l5 -5l9 13
l9 -13l9 17l9 -12l-5 -2l7 -9l-7 -9l1 -9l4 -9l-5 -2l18 -9l-18 -9l8 -9l-3 -9l-4 -2l8 -8l-4 -10l17 -5l-13 -12l14 -6l-6 -11l6 -6l12 9l5 -14l11 5l8 -6l10 -2l3 20l14 -15l6 11l10 -1l5 -1l-14 13l18 5l-11 12l15 5l-11 12l11 7l5 15l-17 9l12 9l5 15l-9 9l4 9l5 15
l-5 9v9l5 15l-4 9l-1 9v18l-13 6l9 12l-4 8l-5 8l-7 7l-11 -6l-6 10h-10l-9 1h-17l-8 -7l-10 3l-5 -16l-11 7l-6 -3l5 -12l-12 -5l-1 -9l-2 -9l-7 4l-9 -10l-9 10l-9 -16l-9 12l-7 4l-9 -6l-9 6l-9 -8l-9 4l-7 4l-9 -9l-9 9l-9 -6z" />
    <glyph glyph-name="six" unicode="6" 
d="M321 478l5 6l-14 9l9 9v18l-8 8l4 10l-13 6l4 10l-8 7l-9 1l-8 4l-10 -1l-9 1l-9 2l-6 -12l-11 7l-6 -11l-10 2l-9 -16l2 -10l-6 -7l1 -10l-1 -9l-5 -5l15 -9l-15 -9l10 -9l-5 -9l-5 -5l9 -9l-9 -9l5 -9v-9l-5 -5l7 -9l-7 -9l15 -9l-10 -9l11 5l2 11l10 2l2 11l10 3
l-5 16h14l7 -1l5 10l11 -1l4 10l9 3l2 -4l8 5l10 -3l7 14l10 -7l10 -6l10 9l8 -11l10 12l8 -9l3 -6h10l7 -7l13 10l5 -12l-1 -5l10 -2l4 -9l18 7l-1 -15l-1 -7l7 -6l3 -9l15 -1l-2 -12l-1 -12l3 -8l2 -9l18 -4l-9 -12l-4 -2l5 -9l-4 -9l9 -9l-8 -9l2 -9l4 -9l-5 -3l15 -9
l-15 -9l1 -9l4 -9l-5 -3l11 -9l-11 -9l18 -9l-13 -9l-5 -13l4 -9l-5 -9l7 -9l-4 -9l-6 -6l2 -10l-6 -7l-2 -9l2 -10l-6 -2l11 -15l-18 -1l-3 -9l-1 -9l-4 3l-3 -9l-8 -5l3 -14l-11 -3l-4 3l2 -19l-17 8l-2 -13l-10 -1l-5 3l-5 -14l-12 7l-5 -12l-10 1l-9 3l-8 -5l-9 1
l-7 -10l-10 2l-15 4l-9 -7l-9 6l-9 -8l-9 2l-14 5l-9 -7l-9 8l-9 -6l-9 3l-8 6l-9 1l-8 3l-12 -13l-7 12l-2 6l-10 -1l-7 7l-10 -2l-8 5l2 4l-11 1l-4 10l-8 4l-9 3l3 3l-11 2v12l-7 6l-8 5l2 5l-20 1l13 16l-12 4v10l3 8l-15 6l11 12l-7 7l-2 9l4 13l-11 9l10 9l-8 9l2 9
l4 1l-9 9l9 9l-12 9l8 9l4 1l-7 9l7 9l-9 9l5 9l4 1l-8 9l8 9l-1 9l-3 9l4 1l-9 9l9 9l-5 9l1 9l4 1l-14 9l14 9l-8 9l4 9l4 1l-9 9l9 9l-7 9l3 9l4 1l-11 9l11 9l-5 9l1 9l4 1l-11 9l11 9l-15 9l11 9l5 13l-8 9l9 9l-9 9l6 9l6 7l-10 12l14 5l-4 11l4 8l5 1l-1 10l9 6
l-3 11l7 7l4 -3v12l11 2l-4 15l12 2l4 -3l-3 18l17 -7l3 10l9 4l6 -2l8 4l8 3l1 20l14 -9l10 -3l7 10l10 -6l8 8h9l14 -4l8 16l10 -15l9 13l9 -7l13 -5l10 11l8 -12l9 8l9 -5l8 -6l12 15l5 -19l11 6l8 -5l2 -6l14 12l3 -18l13 8l5 -11l-2 -4l15 6v-16l17 8v-15l-3 -3l12 -1
v-13l9 -3l6 -7l-3 -3l7 -6l1 -10l14 -3l-2 -11l-3 -6l4 -8l1 -9l10 -6l-1 -10l-4 -9l3 -9l-2 -9l6 -9v-9l-5 -8l15 -9l-10 -9l-3 4l-9 -9l-9 9l-9 -3l-9 -1l-4 4l-9 -10l-9 10l-9 -16l-9 12l-4 4l-9 -6l-9 6l-9 -8l-9 4l-3 4l-9 -9l-9 9l-9 -6zM209 264l-5 -2l12 -9l-12 -9
l16 -9l-11 -9l-5 -3l9 -9l-9 -9l13 -9l-8 -9l-4 -1l10 -7l-6 -11l14 -6l-10 -11l8 -8v-9l7 -7l12 6l5 -11l13 10l6 -11l10 -2l8 5h9l7 8l9 2h5l-1 9l5 8l-8 12l13 5l-8 12l8 7l5 3l-16 9l16 9l-2 9l-3 9l5 2l-8 9l8 9l-8 9l3 9v17l-7 8l3 10l-15 5l6 11l-8 7l-10 -2l-7 7
h-19l-10 2l-7 -6l-10 1l-7 -7l-9 -2l-8 -15l11 -12l-15 -5l14 -13z" />
    <glyph glyph-name="seven" unicode="7" 
d="M267 0v4l-9 -8l-9 8l-9 -4h-9l-1 4l-9 -9l-9 9l-9 -12l-9 8v4l-9 -10l-9 10l-9 -1l-9 -3l-1 4l-9 -3l-9 3l-9 -4h-9v4l-9 -7l-9 7l-9 -1l-9 -3v10l5 5l-14 10l15 8l-6 9l2 9l5 6l-3 9l6 9l-5 9l3 9l6 7l-13 12l17 5l-7 11l6 8l7 9l1 9l4 8l-4 11l5 8l9 11l-1 9l7 8l-9 13
l11 5l11 14l-11 15l18 2l-3 11l6 7h5l-11 15l19 2l-11 14l18 2l-7 13l11 5l8 5l3 9l5 7l4 9l1 9l6 1l-3 13l12 3l-2 11l10 5l-8 15l13 3l12 13l-5 14l14 2l-11 16h19l-1 11l6 7l10 12l1 10l7 7v10l3 8l9 12v9l1 9l-16 5l-9 -15l-9 10l-17 5l-9 -17l-9 12l-16 5l-9 -9l-9 4
l-16 5l-9 -10l-9 5l-16 5l-9 -13l-9 8l-17 5l-9 -6l-9 1l-16 5l-9 -5h-9l5 7l-8 9l8 9l-5 9v9l5 8l-13 9l13 9l-12 9l7 9l5 7l-6 9l6 9l-10 9l5 9v-5l9 16l9 -16l9 6l9 -1l17 -5l9 6l9 -1v-5l9 18l9 -18l9 7l9 -2l17 -5l9 8l9 -3v-5l9 9l9 -9l9 7l9 -2l17 -5l9 6l9 -1v-5
l9 6l9 -6l9 2l9 3v-5l9 2l9 -2l9 7l9 -2l17 -5l9 2l9 3v-5l9 2l9 -2l9 13l9 -8l17 -5l9 2l9 3v-5l9 18l9 -18l9 2l9 3l-4 -9l17 -9l-13 -9l-5 -2l12 -10l-13 -8l6 -9l-3 -9l-6 -6l1 -9l-3 -9l5 -10l-4 -8l-7 -8l3 -10l-8 -7l-1 -10v-9l-9 -12l12 -13l-18 -4l2 -10l-4 -8
l-4 2l11 -15l-18 -2v-10l-7 -7l4 -11l-7 -7l-6 -2l-2 -9l-6 -7l7 -13l-15 -3l10 -15l-14 -3l-5 -10l-13 -13l-2 -9l-7 -6l1 -11l-6 -7l-11 -12l6 -13l-14 -3l8 -14l-12 -4l-9 -10l5 -12l-12 -5l10 -14l-13 -4l-8 -9l2 -10l-8 -7l-3 -8l1 -10l-7 -7l6 -11l-10 -6l-2 -9l1 -10
l-6 -5l2 -10l-6 -7l12 -13l-12 -6l-5 -4l1 -9l-4 -9l4 -9l-2 -9l-5 -1l9 -10l-11 -8l8 -9l-5 -9l-5 -17l7 -9z" />
    <glyph glyph-name="eight" unicode="8" 
d="M46 195l4 15l-7 9l3 9l4 15l-1 9l-3 9l4 15l-14 9l10 9l5 4l-4 10l7 8l-2 9l5 8l-4 10l3 9l6 1l-6 16l18 -3l-1 13l9 4l1 6l-7 6l-4 8l-12 2l-3 9l3 9l-5 8l2 9l-15 7l12 11l-18 6l10 11l4 15l-7 9l3 9l5 8l-15 10l17 8l-15 10l12 8l5 2l-9 12l14 5l1 9l-1 10l4 -2l4 9
l5 7l-3 12l8 6l3 -3l2 11l10 3l-4 16h13l3 -3l2 14l13 -5l-2 20l15 -6l5 -3l6 10l11 -3l7 7l8 4l8 -3l8 6l9 -2l9 4l8 4l13 -4l8 15l10 -14l8 17l10 -11l12 -5l9 8l9 -9l9 8l9 -5l7 -6l11 11l6 -15l10 4l9 -3l2 -6l10 2l7 -8l11 3l7 -6l-1 -5l10 -1l5 -8l15 6l3 -12l-3 -3
l14 1l-2 -15l10 -3l5 -7l-4 -3l13 -3l-4 -13h19l-6 -13l-3 -5l8 -7l-3 -10l7 -7l2 -9l-4 -9l19 -7l-17 -10l7 -9l-1 -9l-4 -15l7 -9l-3 -9l-6 -7l6 -11l-9 -7l4 -10l-8 -7l4 -10l-3 -9l-7 -1l-1 -11l-11 -2l-4 -8l-4 -9v-7l7 -6l5 -7l10 -3l5 -8l-3 -6l3 -8v-10l4 -8v-9
l14 -7l-6 -10l-4 -15l1 -9l3 -9l-4 -15l17 -9l-13 -9l-4 -15l1 -9l3 -9l-5 -13l17 -10l-18 -8l12 -10l-9 -8l-6 -6l4 -10l-9 -7v-19l-5 -1l2 -11l-10 -5l1 -10l-5 -8l-4 3l-4 -9l-7 -5l6 -17h-14l-4 3l-4 -10l-11 -1l2 -18l-14 4l-6 2l-6 -7h-10l-5 -11h-10l-10 3l-8 -4h-9
l-7 -14l-10 6l-15 4l-8 -16l-10 15l-9 -4l-9 -2l-14 5l-9 -5l-9 6l-9 -10l-9 7l-8 6l-11 -11l-6 15l-11 -8l-8 7l-2 6l-14 -11l-3 17l-10 -1l-8 4l2 4l-8 5l-7 6l-12 -1l-5 8l3 4l-7 6l-5 7l-9 4l-6 7l2 5l-17 2l10 15l-7 7l-5 7l3 8l-7 8l3 10l-12 6l3 10l4 13l-9 9l8 9
l-9 9zM200 263l-4 -3l13 -9l-13 -9l4 -9v-9l-4 -3l11 -9l-11 -9l5 -9l-1 -9l-4 -3l8 -7l-3 -10l3 -9l1 -9l11 -6l-2 -10l12 -8l13 15l4 -19l9 -2l10 2l13 -1l8 4h10l6 14l10 -5l5 1l-5 10l9 7v9l5 8l-15 14l15 5l5 3l-17 9l17 9l-13 9l8 9l5 3l-4 9l4 9l-3 9l-2 9l4 3l-12 6
l7 11l-5 8l1 10l-11 6l2 10l-11 7l-10 -2l-7 7l-11 -7l-8 7l-14 1l-5 -15l-12 10l-6 -12l-10 3h-5l-1 -9l-4 -8l2 -10l-6 -7l2 -10zM262 568l-14 1l-18 -4l-5 -17l-11 8l-8 -9l11 -13l-16 -4v-10l-1 -9l-2 -10l12 -6l-8 -11l9 -7l-5 -11l8 -7l1 -9l11 -8l13 15l4 -20l14 15
l5 -15l14 -1l7 7l10 -2l7 6l9 3l5 2l-1 9l5 8l-5 11l10 6l-9 12l9 7v17l-19 3l14 14l-8 7l-1 9l-11 8l-13 -12l-4 17l-14 -15z" />
    <glyph glyph-name="nine" unicode="9" 
d="M315 423l5 3l-6 9l6 9l-10 9l5 9l5 4l-17 9l17 9l-5 9v27l-13 6l9 12l-4 8l-5 8l-7 7l-11 -6l-6 10l-13 -12l-6 13l-9 2l-4 -16l-13 11l-6 -12l-10 3l-8 -16l15 -13l-19 -4l7 -11l-7 -8l-5 -4l9 -9l-9 -9l1 -9l4 -9l-5 -3l18 -9l-18 -9l3 -9l2 -9v-18l19 -5l-15 -12
l12 -7l-4 -10l6 -6l13 12l4 -17l9 -2l10 1l10 -2l6 9l11 -4l4 18l12 -8l8 15l-1 10l6 7l2 9zM205 209l-5 -4l15 -9l-10 -9l-4 -2l6 -8l-2 -10l13 -6l-9 -11l10 -7l-2 -10l6 -6l13 11l4 -16l13 11l6 -12l10 -2l6 10l11 -5l7 9l9 1l5 -1l-5 11l9 7l-15 13l19 4v19l5 5l-13 9
l13 9l-18 9l13 9l5 4l-12 9l12 9l-14 9l14 14l-10 9l10 9l-16 9l11 9l-11 -5l-4 -9l-8 -4l-12 -14l1 -13l-10 -3l-6 1l-4 -11l-12 2l-5 -9l-8 -4l-17 2l-7 -14l-10 7l-13 6h-9l-9 2l-10 -16l-8 13l-5 6l-11 -4l-6 10l-12 -9l-6 11v6l-13 -3l-1 14l-12 -1l-5 8l1 6l-19 -2
l10 17l-8 6l-6 7l1 12l-9 6l4 11l-14 5l4 11l4 2l-15 8l14 10l-9 9l8 9l-6 9v9l4 3l-8 9l8 9l-12 9l8 9l4 3l-4 9l4 9v9l-4 9l5 13l-8 9l9 9l-10 9l7 9l6 7l-6 11l11 6l-5 11l5 8h5l2 10l6 7l-9 13l12 5l4 -2l1 10l11 3v12l8 5l4 -3l2 13l13 -2l4 10l8 4l6 -2l2 16l14 -9
l4 13l11 -2l10 -3l8 4h9l7 12l10 -4l15 -4l9 1h9l9 8l9 -2l15 -5l10 12l8 -13l10 14l8 -11l8 -6l10 6l7 -10l11 5l8 -4l2 -6l12 4l5 -11l14 11l4 -14l-2 -4l8 -5l7 -6l18 9l-1 -16l-3 -4l18 4l-6 -17l16 1l-1 -12l-3 -5l11 -4l-3 -12l8 -6l4 -8l-3 -9l14 -6l-9 -11l6 -8
l2 -9l-4 -13l15 -8l-14 -10l4 -9l2 -9l-5 -1l14 -9l-14 -9l4 -9l1 -9l-5 -1l15 -9l-15 -9l4 -9l1 -9l-5 -1l2 -9l-2 -9l7 -9l-2 -9l-5 -1l12 -9l-12 -9l15 -9l-10 -9l-5 -1l7 -9l-7 -9l10 -9l-5 -9l-5 -1l8 -9l-8 -9l3 -9l2 -9l-5 -1l18 -9l-18 -9l17 -9l-12 -9l-5 -1l5 -9
l-5 -9l3 -9l2 -9l-5 -13l13 -10l-14 -8l7 -9l-4 -9l-6 -6l3 -10l-7 -7l12 -13l-12 -6l-5 -1l2 -11l-10 -5l11 -15l-15 -3l-4 2l2 -13h-14l-1 -11l-7 -6l-4 3l-6 -7l-8 -4l-3 -11l-9 -3l-6 2l-1 -19l-15 12l-8 -4l-7 -7l-10 3l-6 -14l-11 10l-6 -15l-11 7l-15 4l-9 -13l-9 12
l-8 -19l-10 13l-14 5h-9l-9 1l-9 -3h-9l-7 6l-12 -14l-5 18l-11 -9l-8 8l-3 6l-11 -4l-6 11l-10 -3l-8 5l2 4l-11 1l-4 10l-13 -3l-4 10l3 4l-10 3l-2 10l-13 1l-3 9l3 5l-8 6v10l-8 6l-4 8l3 6l-9 7l5 11l-18 5l9 11l4 12l-13 7l11 10l-4 9l-2 9l4 2l-9 9l5 9l5 -5l9 3
l9 -3l9 8l9 -3l5 -5l9 4l9 -4l9 16l9 -11l4 -5l9 11l9 -11l9 4l9 1l5 -5l9 6l9 -6l9 1z" />
    <glyph glyph-name="colon" unicode=":" horiz-adv-x="248" 
d="M49 451l5 4l-14 9l14 9l-3 9l-2 9l5 5l-10 9l10 9l-10 9l5 9l5 4l-11 9l11 9l-12 9l7 9l5 4l-14 9l14 9l-4 9l-1 9l1 -4l9 2l9 -2l9 7l9 -3l2 -4l9 13l9 -13l9 14l9 -10l2 -4h27l9 4l1 -4l9 6l9 -6l9 10l9 -6l-5 -4l17 -9l-17 -9l18 -9l-13 -9l-5 -4l2 -9l-2 -9l18 -9
l-13 -9l-5 -5l15 -9l-15 -9l4 -9l1 -9l-5 -4l14 -9l-14 -9l15 -9l-10 -9l-1 5l-9 -9l-9 9l-9 -13l-9 8l-2 5l-9 -2l-9 2l-9 -6l-9 1l-2 5l-9 -6l-9 6l-9 -17l-9 12l-1 5l-9 -4l-9 4l-9 -2zM49 0l5 4l-3 9l3 9l-4 9l-1 9l5 3l-15 9l15 9l-4 9l-1 9l5 3l-7 9l7 9l-6 9l1 9l5 4
l-5 9l5 9l-1 9l-3 6l9 16l9 -17l9 3l9 1l2 -4l9 2l9 -2l9 8l9 -4l2 -4l9 3l9 -3h9l9 4l1 -4l9 17l9 -17l9 10l9 -6l-5 -4l13 -9l-13 -9l14 -9l-9 -9l-5 -3l11 -9l-11 -9l5 -9v-9l-5 -3l8 -9l-8 -9l1 -9l4 -9l-5 -4l1 -9l-1 -9l16 -9l-11 -9l-1 4l-9 -17l-9 17l-9 -16l-9 12
l-2 4h-18l-18 -4l-2 4l-9 -1l-9 1l-9 -6l-9 2l-1 4l-9 -8l-9 8l-9 -12zM50 155v-1l-1 4z" />
    <glyph glyph-name="semicolon" unicode=";" horiz-adv-x="248" 
d="M49 451l5 4l-14 9l14 9l-3 9l-2 9l5 5l-10 9l10 9l-10 9l5 9l5 4l-11 9l11 9l-12 9l7 9l5 4l-14 9l14 9l-4 9l-1 9l1 -4l9 2l9 -2l9 7l9 -3l2 -4l9 13l9 -13l9 14l9 -10l2 -4h27l9 4l1 -4l9 6l9 -6l9 10l9 -6l-5 -4l17 -9l-17 -9l18 -9l-13 -9l-5 -4l2 -9l-2 -9l18 -9
l-13 -9l-5 -5l15 -9l-15 -9l4 -9l1 -9l-5 -4l14 -9l-14 -9l15 -9l-10 -9l-1 5l-9 -9l-9 9l-9 -13l-9 8l-2 5l-9 -2l-9 2l-9 -6l-9 1l-2 5l-9 -6l-9 6l-9 -17l-9 12l-1 5l-9 -4l-9 4l-9 -2zM49 0l5 4l-17 9l17 9l-3 9l-2 9l5 3l-5 9l5 9l-9 9l4 9l5 3l-3 9l3 9l-4 9l-1 9l5 4
l-15 9l15 9l-4 9l-1 9l1 -4l9 6l9 -6l9 5l9 -1l2 -4l9 4l9 -4h9l9 4l2 -4l9 17l9 -17l9 3l9 1l1 -4l9 2l9 -2l9 8l9 -4l-5 -4l4 -9l-4 -9l1 -9l4 -9l-5 -5l18 -9l-18 -9l11 -9l-6 -9l-5 -5l13 -9l-13 -9l14 -9l-9 -9l-5 -4l11 -9l-11 -9l5 -9v-9l-6 2l-4 -11l-12 2l-7 -5
l-6 -8l-6 2l-8 -5l-8 -4v-18l-13 5l-6 2l1 -20l-17 11l1 -19l-14 6l-8 13l-7 6l-10 2l11 4l5 8l8 4l6 7l8 5l2 11l8 4l-16 4l-9 -8l-9 4l-16 4l-9 -12z" />
    <glyph glyph-name="less" unicode="&#x3c;" horiz-adv-x="763" 
d="M67 361l17 1l8 4l7 7l18 2l3 16l12 -6l17 1l5 13l10 -2l17 2l5 12l10 -1l18 2l4 13l11 -3l17 1l4 14l11 -3l18 2l3 16l12 -6l17 1l5 13l10 -2l17 1l6 9l9 2l18 2l5 11h10l17 1l6 10l9 1l17 1l5 12l10 -1l18 2l7 6l8 4l17 1l3 19l12 -8l18 2l4 15l11 -5l17 2l2 19l13 -8
l17 1l7 6l8 5l18 2l7 7l8 3l17 1l5 12l6 -1l2 -9l-2 -9l3 -9l1 -9l-4 -17l14 -9l-10 -9h-4l3 -9l-3 -9l6 -9l-2 -9l-17 -1l-6 -9l-9 -2l-17 -1l-7 -7l-8 -4l-17 -1l-8 -4l-7 -7l-16 -1l-2 -19l-13 8l-17 -1l-7 -7l-8 -4l-17 -1l-7 -6l-8 -5l-17 -1l-5 -11h-10l-16 -1l-8 -6
l-8 -4l-17 -1l-8 -4l-7 -7l-17 -1l-2 -20l-13 9l-17 -1l-5 -13l-10 2l-16 -1l-4 -15l-11 4l-17 -1l-3 -16l-12 5l-17 -1l-4 -13l-11 2l-17 -1l-7 -8l-8 -3l14 -10l11 4l7 -6l14 -10l8 -3l10 1l14 -10l8 -3l10 1l13 -10l14 12l4 -14l14 -10l14 13l4 -15l14 -10l14 12l4 -14
l14 -10l8 -3l10 1l14 -9l18 -2l14 -10l18 -2l14 -10l10 3l8 -5l14 -10l11 5l7 -7l13 -10l12 9l6 -11l14 -10l13 10l5 -12l14 -10l18 -2l14 -10l11 6l7 -8l-4 -17l9 -9l-5 -9h-4l10 -9l-10 -9l11 -9l-7 -9l-4 -17l13 -9l-9 -9l-14 10h-9l-9 2l-15 10l-18 2l-14 10l-11 -3
l-7 6l-14 10l-13 -9l-5 11l-15 10l-13 -11l-5 13l-14 10l-8 3l-10 -1l-15 10l-8 2h-10l-14 10l-10 -2l-8 5l-14 10l-12 -7l-6 9l-15 10l-14 -12l-4 14l-14 10l-14 -13l-4 15l-14 10l-9 2l-9 1l-15 10l-14 -13l-4 15l-14 10l-13 -11l-5 13l-15 10h-9l-9 2l-14 10l-13 -10
l-5 12l-14 10l-14 -10l-4 13l-15 10l-11 -5l-7 7l-14 10l-12 -8l-6 10h5l-2 9l2 9l-6 9l1 9h5l-6 9l6 9l-17 9l12 9h5l-4 9l4 9l-2 9z" />
    <glyph glyph-name="equal" unicode="=" horiz-adv-x="763" 
d="M127 148l5 16l-6 9l1 9l5 16l-18 9l13 9l5 16l-13 9l8 9l16 -4l18 4l16 -4l9 17l9 -13l16 -4l9 15l9 -11l16 -4l9 6l9 -2l16 -4l9 4h9l16 -4l9 13l9 -9l16 -4l9 9l9 -5l15 -4l9 16l9 -12l16 -4l9 6l9 -2l16 -4l18 4l16 -4h9l9 4l16 -4l9 7l9 -3l16 -4l9 11l9 -7l16 -4
l9 9l9 -5l16 -4l9 8l9 -4l-4 -16l17 -9l-13 -9l-4 -16l5 -9l-1 -9l-4 -16l6 -9l-2 -9l-16 4l-9 -17l-9 13l-16 4l-9 -6l-9 2l-16 4h-9l-9 -4l-16 4l-9 -8l-9 4l-16 4l-9 -17l-9 13l-16 4l-9 -12l-9 8l-16 4l-9 -9l-9 5l-15 4l-9 -7l-9 3l-16 4h-9l-9 -4l-16 4l-18 -4l-16 4
l-18 -4l-16 4l-9 -7l-9 3l-16 4l-9 -5l-9 1l-16 4l-9 -17l-9 13l-16 4l-9 -12zM127 369l5 16l-12 9l7 9l5 16l-15 9l10 9l5 16l-7 9l2 9l16 -5l9 13l9 -8l16 -5l9 9l9 -4l16 -5l9 4l9 1l16 -5l9 4l9 1l16 -5l9 2l9 3l16 -5l9 14l9 -9l16 -5l9 12l9 -7l15 -5l9 4l9 1l16 -5
l9 1l9 4l16 -5l9 11l9 -6l16 -5l9 12l9 -7l16 -5l9 6l9 -1l16 -5l9 14l9 -9l16 -5l9 2l9 3l16 -5l9 8l9 -3l-4 -16l9 -9l-5 -9l-4 -16l14 -9l-10 -9l-4 -16l6 -9l-2 -9l-16 5l-9 -15l-9 10l-16 5l-9 -12l-9 7l-16 5l-9 -6l-9 1l-16 5l-9 -17l-9 12l-16 5l-9 -6l-9 1l-16 5
l-9 -14l-9 9l-16 5l-9 -5h-9l-15 5l-9 -9l-9 4l-16 5l-9 -2l-9 -3l-16 5l-9 -5h-9l-16 5l-9 -1l-9 -4l-16 5l-9 -8l-9 3l-16 5l-9 -14l-9 9l-16 5l-9 -3l-9 -2l-16 5l-9 -8z" />
    <glyph glyph-name="greater" unicode="&#x3e;" horiz-adv-x="763" 
d="M82 485h4l-13 9l13 9l-10 9l6 9l4 17l-14 9l10 9h4l-17 9l17 9l-17 9l13 9l14 -10l8 -3l10 1l15 -10l10 1l8 -3l14 -10l14 13l4 -15l14 -10l9 -1l9 -2l15 -10l10 1l8 -3l14 -10l12 8l6 -10l14 -10l13 11l5 -13l15 -10l10 3l8 -5l14 -10l12 8l6 -10l14 -10l11 4l7 -7
l14 -10h9l9 -2l15 -10h9l9 -2l14 -10l18 -2l14 -10l13 10l5 -12l15 -10l12 7l6 -9l14 -10l9 -1l9 -2l14 -10l8 -3l10 1l15 -10l11 6l7 -8l14 -10l12 7l6 -9h-4l5 -9l-5 -9l13 -9l-9 -9h-4l1 -9l-1 -9l7 -9l-3 -9h-4l9 -9l-9 -9l14 -9l-10 -9l-17 -1l-6 -10l-27 -3l-3 -16
l-12 6l-17 -2l-4 -15l-11 4l-17 -1l-6 -9l-9 -2l-18 -2l-2 -18l-13 8l-17 -1l-6 -9l-9 -2l-17 -1l-3 -16l-12 5l-18 -2l-7 -8l-8 -3l-17 -1l-5 -11h-10l-17 -1l-8 -5l-7 -6l-17 -1l-7 -8l-8 -3l-18 -2l-8 -4l-7 -7l-17 -1l-6 -10l-9 -1l-17 -1l-3 -17l-12 6l-18 -2l-7 -5
l-8 -5l-17 -1l-5 -11h-10l-17 -2l-6 -8l-9 -3l-18 -2l-2 -19l-13 9l-17 -1l-4 -15l-11 4l4 17l-4 18l4 17l-17 9l13 9l4 17l-15 9l11 9l17 1l6 9l9 2l17 1l7 8l8 3l17 1l3 17l12 -6l17 1l5 13l10 -2l17 1l2 19l13 -8l17 1l6 10l9 1l17 1l7 6l8 5l17 1l8 4l7 7l17 1l5 11h10
l17 1l4 14l11 -3l17 1l5 12l10 -1l17 1l5 12l10 -1l17 1l2 20l13 -9l17 1l6 9l9 2l17 1l6 9l9 2l-14 10l-14 -13l-4 15l-14 10l-10 -3l-8 5l-14 10l-8 3l-10 -1l-14 10l-11 -5l-7 7l-14 10l-14 -13l-4 15l-14 10l-12 -9l-6 11l-14 10l-11 -6l-7 8l-14 9l-10 -4l-8 6l-14 10
l-8 2h-10l-14 10l-18 2l-14 10h-9l-9 2l-14 10l-11 -4l-7 6l-14 10l-10 -2l-8 4l-14 10l-14 -13l-4 15l-14 10l-12 -9z" />
    <glyph glyph-name="question" unicode="?" horiz-adv-x="436" 
d="M118 0l4 4l-17 9l17 9l-15 9l11 9l4 3l-6 9l6 9l-4 9v9l4 3l-13 9l13 9l-9 9l5 9l4 4l-16 9l16 9l-6 9l2 9l2 -4l9 2l9 -2h9l9 4l1 -4l9 7l9 -7l9 11l9 -7l1 -4l9 9l9 -9l9 8l9 -4l2 -4l9 17l9 -17l9 5l9 -1l-4 -4l6 -9l-6 -9l17 -9l-13 -9l-4 -3l6 -9l-6 -9v-9l4 -9
l-4 -3l8 -9l-8 -9l17 -9l-13 -9l-4 -4l12 -9l-12 -9l9 -9l-5 -9l-2 4l-9 -7l-9 7h-9l-9 -4l-1 4l-9 -2l-9 2l-18 -4l-1 4l-9 -7l-9 7l-9 -5l-9 1l-2 4l-9 -17l-9 17l-9 -12zM152 464l-1 4h1v-4zM148 482l2 -9l1 -5l-8 -2l-9 2l-9 -17l-9 13v4l-9 -9l-9 9l-18 -4l-1 4l-9 -2
l-9 2l-9 -4h-9v4l-9 -11l-9 11l-9 -16l-9 12l5 17l-5 9l5 9l-8 9l8 24l-16 10l17 8l-3 9v9l6 6l-15 12l18 5l-3 10l2 9l11 15l-1 10l4 8l13 9l-1 12l8 5l15 5l-1 16l13 -2l3 -4l8 3l9 4l7 7l8 3l7 -3l9 2l9 1l8 6l9 1l14 -4l9 12l9 -11l9 9l9 -4l14 -5l9 8l9 -9l9 6l9 -3
l7 -6l11 10l6 -13h10l9 1l1 -5l13 9l4 -15l11 6l7 -8l12 -13l8 -5l10 -1l8 -15l13 -1l2 -10l4 -17l5 -8l8 -6l-4 -3l14 -6l-9 -12l11 -6l-2 -10l-4 -7l7 -9l-6 -9l8 -9l-2 -9l-5 -4l7 -9l-9 -9l13 -10l-10 -8l-5 -1l7 -12l-13 -5l12 -14l-13 -5l-6 -2l12 -16h-20l11 -16
l-15 -2l-9 -6l-5 -8l-5 -7l-1 -10l-5 -8l-12 -9l8 -17l-19 2l-3 -9l-4 -8h-6l-1 -10l-9 -5l4 -14h-15l7 -16l-17 1v-11l-7 -6l-11 -12l7 -13l-15 -3l4 -12l-8 -6l-5 -1l2 -9l-5 -8l1 -10v-13l-6 5l-9 -2l-9 2l-9 -14l-9 9l-6 5l-9 -12l-9 12l-9 -4l-9 -1l-6 5l-9 -1l-9 1
l-9 -11l-9 6l5 4l-12 9l7 9l5 12l-4 9l6 9l-13 10l10 8l8 10l1 9l3 8l-4 11l5 8l10 10l-5 13l12 4l-9 14l13 4l13 12v12l10 3l-7 16l13 2l9 6l-5 14l15 1v11l10 4l-9 17l15 1l10 8v10l9 5l-6 15l12 3h5l-3 10l7 7l-6 11l6 8l1 15l-3 9l-1 9l-7 7l-2 9l-9 8l-9 2l-8 3l-11 -4
l-8 5l-10 2l-5 -16l-13 11l-8 -5l-8 -4l-8 -15l6 -11l-10 -6l3 -10l-3 -9l-4 -8l17 -9l-17 -9l12 -9z" />
    <glyph glyph-name="at" unicode="@" horiz-adv-x="1085" 
d="M619 136l-11 -6l-2 -10l-10 -3l-1 -11l-7 -6l-10 -2v-15l-15 5l-1 -14h-11l-10 1l-6 -10l-11 4l-4 -14l-11 4l-13 3l-8 -3l-10 1l-8 -7l-9 1l-15 6l-10 -14l-8 16l-9 -6l-9 3l-7 7l-14 -12l-3 18l-12 -8l-7 9l-1 6l-12 -1l-3 12h-11l-6 7l1 7l-17 -2l6 16l-11 3l-3 9
l1 10l-15 5l9 12l-13 6l3 10l3 16l-9 8l7 10l-5 8l-1 9l5 7l-17 10l18 8l-13 10l10 8l6 5l-16 12l19 5l-3 10l2 9l6 5l1 9l5 8l-9 12l11 6l7 3v10l8 6l3 9l2 9l7 2l4 8l6 7l4 8l3 9h7l1 11l11 2l-3 17l13 -1l7 -1l7 6l7 5l-1 16l13 -2l7 -1l2 16l15 -9l4 12h10l8 -2l6 10
l11 -5l4 19l12 -10l11 -4l8 9l9 -7l8 12l10 -6l15 -7l9 5l9 -7l10 12l8 -10l8 -9l10 -1l6 -8l13 7l5 -11l5 -13l11 -2l1 -11l16 1l-1 -12l6 1l-1 11l10 5l-10 15h19l-8 15l13 3l10 -4l9 7l9 -7l18 4l11 -4l9 2l9 -2l9 8l9 -4l-9 -14l15 -14l-15 -5l-8 -15l14 -13l-14 -6
l-9 -14l-2 -9l2 -10l-9 -14l8 -12l-8 -7l-8 -15l15 -13l-15 -6l-9 -14l15 -14l-15 -5l-9 -14l13 -13l-13 -6l-8 -15l4 -11l-4 -8l-9 -14l15 -14l-15 -5l-5 -2l9 -10l-7 -8l3 -8l16 7l-1 -17l15 6v-16l7 -5l10 -2l9 -3l7 12l10 -7l9 4l8 4l15 5l1 15l14 -6l2 14h11l11 5l1 11
l12 2l6 7l3 9l9 6l-8 16l18 -1l-2 13l8 5l8 7l2 10l6 7l-5 12l8 6l7 11l-14 12l18 5l-10 12l10 7l6 13l-16 10l17 8l-16 10l13 8l4 7l-7 9l6 9l-7 9l1 9l3 5l-11 7l7 11l-13 6l4 10l3 5l-17 3l9 13l-19 1l8 14l2 5l-19 -2l9 17l-18 -2l4 14l1 5l-10 3l-2 11l-19 -6l4 16v6
l-16 -5l2 16l-17 -6v14l-1 6l-12 -2l-3 11l-17 -9l-1 15l-4 7l-13 -9l-3 16l-14 -8l-4 12l-4 6l-12 -7l-5 13l-10 1h-9l-7 6l-12 -12l-5 16l-13 -14l-6 14l-8 6l-11 -16l-7 18l-10 -8l-8 6l-9 5l-9 -13l-9 14h-9l-9 -4l-12 4l-9 -11l-9 10l-8 -17l-10 12l-12 3l-7 -18
l-11 16l-7 -10l-10 4l-9 3l-5 -17l-12 12l-9 -5l-8 -3l-9 2l-3 -20l-14 15l-16 -10l-7 2l-5 -13l-12 6l-6 -10l-9 -1l-7 1l-7 -7l-9 -2l-3 -12l-10 -1l-11 -2l-5 -9l-10 -2l2 -19l-14 5l-11 -3l3 -17l-16 5l1 -15h-12l-9 -3l6 -17l-18 4v-12l-9 -4l-8 -3l7 -16l-17 1l9 -17
h-16l-7 -3l-4 -8l-5 -8l-1 -10l-4 -8l-7 -5l10 -14l-17 -3l-3 -8v-10l-6 -5l13 -13l-18 -4l5 -11l-6 -8l-6 -7l1 -9l-4 -8l3 -10l-2 -9l-5 -9l13 -9l-14 -9l7 -9l-3 -9l-4 -9l1 -9v-9l10 -9l-4 -9l-3 -8l14 -7l-11 -11l11 -7l-4 -10l-3 -6l8 -7l-2 -10l18 -4l-8 -12l-2 -5
l7 -7v-10l11 -5l1 -9l-2 -5l13 -2l-3 -13l6 -6l8 -6l-2 -5l19 3l-7 -17l6 -7l9 -4v-6l8 -4l5 -8h12l5 -8l1 -6l7 -4l8 -6l13 4l4 -10l2 -6l12 3l3 -12l16 9l2 -14l4 -6l14 10l3 -17l8 -2h10l6 -7l12 9l5 -14l14 14l5 -15l8 -6h9l8 -4l11 7l8 -6l9 -5l9 3l9 -5l10 16l8 -14
l12 -5l10 16l8 -17l18 4l13 -4l9 16l9 -15l9 15l9 -10l13 -3l8 9l10 -7l7 13l10 -6l13 -2l5 16l12 -12l6 16l11 -8l13 -1l5 14l12 -9l5 16l11 -6h13l3 18l14 -11l6 9l9 2l13 1l5 12l12 -4l1 17l13 -5l13 2l-1 18l16 -8l6 8l7 5l-3 -4l14 -1l-3 -13l9 -5l5 -7l-3 -3l11 -3
v-11l12 -2l2 -10l-13 -3l-5 -10h-10l-3 -13l-10 -1l-13 -2l-3 -15l-13 6l-14 -12l-13 -1l-3 -16l-13 9l-5 -12h-10l-12 1l-3 -17l-14 10l-7 -4l-8 -6l-13 1l-8 -3l-9 -2l-6 -11l-10 2l-12 2l-7 -16l-11 13l-7 -13l-10 5l-13 3l-8 -5l-10 3l-7 -10l-10 4l-13 4l-9 -17l-9 16
l-9 -7l-9 2l-14 5l-9 -6l-9 7l-9 -10l-9 6l-12 5l-10 -11l-8 13l-9 -9l-9 6l-10 6l-11 -12l-6 15l-9 1l-10 -2l-7 6l-11 -8l-6 12h-19l-5 7l-11 -3l-7 8l-18 2l-4 6l-14 -10l-3 17l-14 -11l-4 14l-3 7l-11 -1l-5 9l-13 -5l-5 10l-1 6l-13 -3l-2 13l-15 -6l-3 12l-8 12
l-18 -8l4 19l-8 5l-9 3l-5 11l-8 5l-4 8l-15 -1l-1 11l-2 10l-10 4l-1 11l-12 2l-3 9l-1 10l-6 6l-3 9l-9 5l-4 8l1 10l-12 4l4 12l-9 6l-2 9l2 10l-17 4l12 13l-10 16l3 11l-6 8l3 10l-16 7l9 10l4 13l-1 9v9l-15 8l9 10l5 11l-9 9l10 9l-4 18l6 10l1 9l2 9l-14 11l12 7
l7 8l-8 11l12 6l-12 13l12 6l8 8l-10 13l16 4l-2 10l4 8l8 7l-11 15l19 1l-3 11l7 7l9 6l-6 14l15 1v11l6 7l10 6v12l11 2l4 9l4 8l9 3l-5 16l17 -3l2 11l7 5l8 1l-2 16l15 -4l2 12l9 3h8v15l14 -4l-3 18l14 -3l8 -1l4 10h11l2 14l11 -1l8 -1l3 13l13 -4l14 12l9 -1l5 11
l11 -4l5 12l10 -1l9 -2l9 4l8 2l7 8l9 2l9 -3l5 17l12 -12l7 10l10 -2l10 -3l8 11l10 -8l8 5l9 3l12 -4l7 16l10 -14l8 19l10 -13l12 -4l9 7l9 -6l9 3l9 2l14 -5l9 11l9 -12l9 11l9 -7l13 -6l10 12l8 -14l10 10l8 -7l11 -7l11 10l6 -14l12 13l7 -12l9 -7h9l8 -5l12 10l7 -10
l6 -7l14 11l3 -18l11 4l7 -6l5 -7l9 -2l7 -6l14 8l4 -12l2 -7l8 -3l7 -6l13 3l5 -9l7 -12l16 5l-2 -16l15 4l2 -12l4 -11l14 1l-2 -14l18 5l-2 -15l1 -9l12 -3l-1 -12l18 2l-4 -14v-9l7 -6l1 -10l12 -4v-10l-2 -8l14 -5l-8 -12l19 -3l-9 -13l-3 -10l8 -7l-4 -10l12 -7
l-4 -10l-4 -11l10 -9l-9 -9l14 -8l-8 -10l-5 -10l16 -10l-17 -8l13 -10l-10 -8l-6 -8l-2 -9l-2 -8l4 -10l-3 -9l-7 -6l7 -12l-13 -6l14 -14l-15 -4l-8 -6l12 -15l-19 -1v-10l-4 -8l-8 -4l-2 -9l-8 -6l8 -16l-15 -1l-10 -4v-12l-11 -2l5 -17l-14 1l-11 -3l-6 -6l-7 -6l-2 -12
l-9 -3l-11 -2l-5 -10l-10 1l-3 -12l-10 -2l-10 1l-6 -11l-11 4l-3 -17l-12 6l-11 2l-8 -4h-10l-6 -11l-10 2l-11 4l-8 -5l-9 3l-8 -17l-10 11l-13 6l-9 -1l-9 3l-9 -6l-9 3v5l-12 -3l-5 11l-11 -3l-7 6l-6 15l-11 3l-4 8l4 2l-17 5l13 12l-15 6zM617 242h5l-13 12l17 5
l-14 13l14 6h5l-4 10l8 7v19h5l-15 13l19 4l-6 11l6 8v13l-11 6l5 11l-17 4l7 12l-1 7l-8 4l-5 8l-10 2l-7 6l-9 7h-9l-8 3l-10 -1l-9 1l-5 4l-7 -14l-11 11l-7 -12l-15 6v-17l-16 8l-7 -5l-6 -8h-6l-3 -9l-9 -4l5 -17l-14 1l-7 -3l11 -16l-20 1l4 -13l-9 -5l-7 -5l9 -13
l-15 -4l14 -14l-16 -4l-5 -4l3 -10l-7 -7l9 -12l-9 -7l-5 -3l14 -10l-15 -8l7 -9l-4 -9l-1 -17l16 -6l-13 -11l11 -7l-3 -10l1 -8l14 1l-2 -14l7 -6l8 -5l10 -7l9 -1l8 -3l13 15l6 -15l7 -3l7 13l11 -10l7 12l10 -4l10 1l1 15l14 -5l7 6l6 7l10 5l2 11l10 3l3 9l5 8l10 11
l-8 13l15 4l-2 11z" />
    <glyph glyph-name="A" unicode="A" horiz-adv-x="528" 
d="M200 252l7 -4l9 14l9 -14l9 4h9l6 -4l9 17l9 -17l9 17l9 -13l7 -4l9 8l9 -8l9 16l9 -12l4 11l-6 9l6 9l-17 9l12 9l4 9l-17 8l16 10l-7 9l1 9l4 8l-19 7l17 11l-8 8l1 9l4 7l-19 7l16 11l-17 6l10 11l3 7l-16 5l12 12l-10 7l2 10l3 7l-15 6l10 12l-12 6l3 10l2 8l-17 4
l11 13l-17 4l7 12l1 10l-9 6l3 11l-10 5v10l-7 -7l-3 -8l-4 -9l9 -12l-11 -6l-6 -5l11 -13l-17 -4l13 -14l-14 -5l-6 -5l12 -13l-17 -4l15 -14l-15 -5l-6 -5l2 -9l-6 -8l8 -11l-7 -8l-6 -6l5 -10l-7 -8l8 -10l-7 -8l-5 -7l11 -10l-13 -8l9 -10l-6 -8l-5 -9l6 -9l-7 -9
l13 -10l-10 -8l-5 -11l11 -9l-11 -9l8 -9zM200 0l-4 4l-9 -14l-9 14l-9 -17l-9 13l-4 4l-9 -7l-9 7l-9 -10l-9 6l-3 4l-9 -13l-9 13l-9 -5l-9 1l-4 4l-9 -6l-9 6l-9 -4h-9l5 16l-3 9l-2 9l5 16l-6 9l1 9l5 17l-3 9l-2 9l5 16l-7 9l2 9l5 6l-7 9l7 9l-10 9l10 9l-4 9v9l5 3
l-18 9l18 9l-4 9l5 9l-4 9v9l6 17l-5 9l7 9l-5 9l2 9l6 15l-12 10l14 8l-5 9l3 9l7 12l-5 10l7 8l-6 10l5 8l6 9l-1 9l5 8l-10 12l9 7l7 7l-3 10l7 7l-12 13l13 6l6 4l-3 11l9 6l-8 12l9 7l6 3l-9 13l16 4l2 18l6 2l-4 11l11 5l-11 15l15 3h5l1 10l8 5l-7 15l12 3l5 -1
l-7 15h16l-4 13l10 5l4 -2l-5 15l16 -1l-1 13l9 4v-4l9 1l9 -1l9 9l9 -5l1 -4l9 1l9 -1l9 12l9 -8v-4l9 11l9 -11l9 14l9 -10v-4l9 2l9 -2l9 7l9 -3l-3 -4l6 -6l5 -8l12 -3l2 -9l-3 -4l5 -7l5 -8l6 -6l8 -6l-2 -5l7 -6l1 -9h19l-6 -14l-2 -5l12 -5l-5 -12l19 -1l-7 -13
l-2 -6l7 -7l-1 -10l5 -8l6 -7l-2 -7l19 -3l-14 -14l13 -6l-3 -10l-2 -10l14 -5l-9 -12l12 -6l-3 -10l-2 -11l7 -7l-3 -10l18 -6l-10 -11l-2 -13l6 -8l-3 -10l15 -7l-8 -10l-3 -15l19 -7l-17 -11l3 -8l4 -9h-4l12 -9l-11 -9l7 -9l-6 -9l17 -8l-11 -10l-4 -2l5 -9l-4 -9l4 -9
l-3 -9l14 -8l-9 -10l-4 -6l17 -9l-17 -9l8 -9l-8 -9l4 -9l1 -9l-5 -16l2 -9l3 -9l-5 -17l18 -9l-13 -9l-5 -16l6 -9l-1 -9l-5 -16l3 -9l2 -9l-4 4l-9 -14l-9 14l-9 -15l-9 11l-3 4l-9 -9l-9 9l-9 -8l-9 4l-4 4l-9 -11l-9 11l-9 -7l-9 3l-4 4l-9 -2l-9 2l-9 -4h-9l4 6l-5 9
l5 9l-3 9l-1 9l4 6l-1 9l1 9l-14 9l10 9l4 6l-8 9l8 9l-5 9l1 9l-7 4l-9 -5l-9 5l-9 -1l-9 -3l-6 4l-9 -2l-9 2l-9 -9l-9 5l-7 4l-9 -16l-9 16l-9 -15l-9 11l-4 -6l10 -9l-10 -9l8 -9l-4 -9l-4 -6l6 -9l-6 -9l7 -9l-3 -9l-4 -6l14 -9l-14 -9l17 -9z" />
    <glyph glyph-name="B" unicode="B" horiz-adv-x="559" 
d="M216 574l-4 -16l14 -9l-10 -9l-4 -15l14 -9l-10 -9l-4 -15l7 -9l-3 -9l-4 -16l7 -9l-3 -9v-4h18l9 12l9 -8l3 -4l6 16l11 -13l6 17l12 -14l6 17l11 -9l4 -3l-6 19l18 -6l4 9l6 7l5 2l-8 10l11 7l-5 11l4 8l1 14l-12 6l6 11l-13 5l4 11l-9 7l-12 -7l-5 12l-11 -4l-8 5
l-11 4l-9 -13l-9 13l-9 -11l-9 11l-9 -8zM216 323l-4 -2l2 -9l-2 -9l9 -9l-5 -9l-4 -2l16 -9l-16 -9l15 -9l-11 -9l-4 -3l10 -9l-10 -9l8 -9l-4 -9l-4 -2l6 -9l-6 -9l7 -9l-3 -9l-4 -2l14 -9l-14 -9l17 -9l-13 -9l6 -4l9 14l9 -14l9 4h9l4 -4l7 18l11 -16l7 18l11 -16l8 10
l9 -3l5 -2l-5 19l18 -7l2 11l8 5l7 15l-16 11l18 7l-15 11l13 7l4 1l-7 8l5 10l-19 6l16 12l-7 8v9l-1 10l-20 -1l10 16l-19 -1l5 14l-12 9l-13 -12l-4 17l-12 -5l-7 6l-17 5l-9 -14l-9 14l-9 -11zM60 0l4 15l-4 18l4 16l-6 9l2 9l4 15l-6 9l2 9l4 16l-10 9l6 9l4 15l-4 9v9
l4 16l-17 9l13 9l4 15l-4 9v9l4 15l-3 9l-1 9l4 16l-5 9l1 9l4 15l-5 9l1 9l4 16l-13 9l9 9l4 15l-6 9l2 9l4 16l-5 9l1 9l4 15l-7 9l3 9l4 15l-3 9l-1 9l4 16l-12 9l8 9l4 15l-5 9l1 9l4 16l-15 9l11 9l4 15l-6 9l2 9l4 16l-10 9l6 9l4 15l-12 9l8 9l2 -4l9 2l9 -2l9 8
l9 -4l2 -4l9 16l9 -16l9 4h9l2 -4l9 13l9 -13l9 13l9 -9l2 -4l9 10l9 -10l9 13l9 -9l2 -4l9 9l9 -9l9 1l9 3l2 -4l9 9l9 -9l9 1l9 3l3 -5l9 12l9 -12l9 11l9 -12l9 14l9 -10l10 -6l9 1l9 -3l9 6l9 -4l1 -5l9 -1l8 -4l11 5l8 -6l11 -11l8 -4l10 -1l5 -12l7 -6l8 -5l2 -16
l7 -7l5 -8l-4 -4l19 -5l-15 -12l11 -7l-3 -10l-4 -11l16 -9l-15 -9l4 -9l1 -9l-6 -6l1 -9l-4 -9l16 -12l-19 -5l8 -11l-7 -8l-13 -13l5 -14l-14 -1l4 -13l-10 -5l-13 -5l-3 -10l-10 -2l4 -18l-15 3l2 -7l10 -2l4 -9l16 6l1 -13l-2 -4l19 4l-8 -18l7 -6l8 -5l-3 -5l15 -3
l-7 -13l10 -5l2 -9l-3 -9l18 -5l-14 -12l6 -8l2 -9h-4l4 -9l-3 -9l14 -8l-13 -10l17 -8l-12 -10l-5 -15l7 -9l-8 -9l3 -9l1 -9l-6 -7v-9l-3 -8l15 -12l-14 -7h-5l2 -10l-8 -7v-9l-2 -9l-13 -11l6 -15l-13 -2l-17 -7l2 -17l-14 3l-5 3l-5 -13l-12 6l-5 -11h-10l-13 2l-7 -13
l-11 10l-8 -8l-9 1l-4 4l-9 -2l-9 1l-9 -5l-9 4l-9 -6l-9 1l-16 4l-9 -3l-9 -1l-15 4l-9 -1l-9 -3l-16 4l-9 -14l-9 10l-16 4l-9 -8l-9 4l-16 4l-9 -5l-9 1l-15 4l-9 -5l-9 1l-16 4l-9 -1z" />
    <glyph glyph-name="C" unicode="C" horiz-adv-x="542" 
d="M500 425l-5 5l-9 -13l-9 13l-9 -1l-9 -4l-5 5l-9 -6l-9 6l-9 -9l-9 4l-4 5l-9 -10l-9 10l-9 -18l-9 13l-5 5l-9 -1l-9 1l-9 -16l-9 11l5 7l-8 9l8 9l-16 9l11 9l5 8l-9 9l9 9l-11 9l6 9l4 2l-8 7l4 10l-6 8l1 10l-2 8l-7 8l-12 8l-13 -12l-4 17l-13 -12l-6 12l-15 1
l-7 -11l-11 7l-6 -10l-10 1l-9 -13l7 -12l-12 -5l14 -14l-15 -5l-5 -15l17 -9l-12 -9l-5 -15l13 -9l-8 -9l-5 -16l18 -9l-13 -9l-5 -15l10 -9l-5 -9l-5 -15l12 -9l-7 -9l-5 -15l9 -9l-4 -9l-5 -15l9 -9l-4 -9l-5 -16l3 -9l2 -9l-5 -15l3 -9l2 -9l-5 -15l18 -9l-13 -9l1 -17
l18 -4l-13 -13l15 -5l-5 -11l12 -8l12 11l5 -15l13 11l6 -11l15 -1l7 12l11 -7l4 18l12 -9l5 1l-14 13l18 5l-2 10l6 7l1 9l-1 10l5 4l-14 9l14 9l-7 9l2 9l5 4l-4 9l4 9l-7 9l2 9l5 4l-8 9l8 9l-9 9l4 9l5 -5l9 2l9 -2l9 15l9 -10l4 -5l9 12l9 -12l9 2l9 3l5 -5l9 17l9 -17
l9 15l9 -10l5 -5l9 14l9 -14l9 13l9 -8l-4 -6l16 -9l-16 -9l5 -9l-1 -9l-4 -6l1 -9l-1 -9l5 -9l-1 -9l-5 -1l7 -9l-7 -9l15 -9l-16 -9l1 -9l3 -9l-6 -11l7 -10l-10 -8l16 -11l-15 -7l-5 -2l-2 -9l-4 -8l14 -14l-15 -5l-4 2l4 -13l-13 -3l10 -16l-15 -2l-14 -8l-10 -16
l-17 -5l-2 -14l-11 1l-5 3l-8 -3l-9 -3l-7 -6l-8 -4l-8 3l-7 -15l-11 12l-8 -8l-9 1l-15 4l-9 -5l-9 4l-9 -16l-9 11l-15 5l-9 -5l-9 6l-9 -15l-9 11l-7 6l-11 -11l-7 14l-9 -2h-9l-2 5l-14 -13l-3 19l-11 -5l-7 7l-12 13l-12 -2l-6 7l-8 14h-13l-3 10l4 3l-8 6l-1 10l-15 1
l2 12l3 5l-4 8l-1 9l-20 3l10 13l2 12l-16 7l13 11l-8 8l1 9l4 1l-2 9l2 9l-2 9l1 9l-16 9l11 9l4 17l-10 9l6 9h4l-9 9l9 9l-10 9l6 9l4 17l-10 9l6 9h4l-4 9l4 9l-15 9l11 9l4 17l-16 9l12 9h4l-10 9l10 9l-4 18l4 17l-9 9l5 9l5 1l-13 9l13 9l-7 9l8 9l-9 9l5 9l6 10
l-11 10l14 8l-11 10l9 8l6 3l1 9l5 9v9l1 9l13 13l1 10l4 8l15 9l4 8l5 8l17 5l7 6l6 7l3 -4l4 17l13 -11l9 4l7 6l9 -3l8 9l10 -6l8 8l9 -1l15 -4l9 6l9 -5l9 5h9l15 -5l10 17l8 -18l9 3l9 1l8 -6l10 7l8 -10l10 11l8 -9v-5l9 -1l9 -5l13 13l5 -14l12 -13l12 3l6 -8l8 -15
l16 3v-13l5 -18l7 -6l6 -7l-3 -6l8 -7l-2 -10l8 -7l2 -9l-3 -11l18 -6l-15 -12l13 -7l-6 -10l-4 -1l8 -9l-8 -9l10 -9l-9 -9l2 -9l3 -9l-4 -14l7 -9l-7 -9v-9z" />
    <glyph glyph-name="D" unicode="D" horiz-adv-x="556" 
d="M58 0l4 15l-5 9l1 9l4 16l-1 9l-3 9l4 15l-5 9l1 9l4 16l-7 9l3 9l4 15l-15 9l11 9l4 16v9l-4 9l4 15l-8 9l4 9l4 15l-17 9l13 9l4 16l-1 9l-3 9l4 15l-17 9l13 9l4 16l-10 9l6 9l4 15l-16 9l12 9l4 16l-4 18l4 15l-10 9l6 9l4 15v9l-4 9l4 16l-3 9l-1 9l4 15l-13 9l9 9
l4 16l-7 9l3 9l4 15l-4 9v9l4 16l-15 9l11 9l4 15l-5 9l1 9l16 -4l9 15l9 -11l17 -4l9 12l9 -8l16 -4l9 3l9 1l17 -4l9 17l9 -13l16 -4l9 8l9 -4l17 -4l9 7l9 -3l16 -4l9 9l9 -5l15 -5l9 2l9 -3l9 11l9 -8l7 -6h9l9 -3l11 17l7 -15l1 -5l14 11l3 -18l10 3l8 -5l11 -13l18 -6
l7 -15l7 -6l8 -5l-4 -2l18 -2l-11 -14l14 -4l-2 -11l-3 -6l11 -7l-7 -10l12 -7l-4 -10l-4 -11l11 -9l-10 -9l5 -9l1 -9h-5l16 -9l-16 -9l17 -9l-12 -9h-5l11 -9l-11 -9l3 -9l2 -9h-5l10 -9l-10 -9l13 -9l-8 -9h-5l8 -9l-8 -9l10 -9l-5 -9h-5l13 -9l-13 -9l13 -9l-8 -9h-5
l2 -9l-2 -9l4 -9l1 -9h-5l5 -9l-5 -9l3 -9l2 -9h-5l2 -9l-2 -9l15 -9l-10 -9h-5l2 -9l-2 -9l8 -9l-3 -9l-5 -11l6 -9l-7 -9l4 -9l-1 -9l-5 -4l2 -10l-6 -7l15 -13l-15 -6l-4 2l-1 -10l-7 -7l4 -11l-7 -7l-14 -9l4 -15l-12 -2l-16 -5l-7 -6l-6 -8l-3 4l-3 -19l-14 12l-5 -12
l-10 1l-9 3l-7 -15l-11 12l-8 -4l-9 -3l-15 4l-9 -6l-9 5l-9 -6h-9l-16 4l-9 -16l-9 12l-17 4l-9 -12l-9 8l-16 4l-9 -7l-9 3l-17 4l-9 -9l-9 5l-16 4l-18 -4l-17 4l-9 -7l-9 3l-16 4h-9zM267 568l-13 4l-9 -9l-9 9l-9 -17l-9 13l-4 -15l16 -9l-12 -9l-4 -16l12 -9l-8 -9
l-4 -15l17 -9l-13 -9l-4 -16l9 -9l-5 -9l-4 -15l11 -9l-7 -9l-4 -16l8 -9l-4 -9l-4 -15l8 -9l-4 -9l-4 -16l4 -18l-4 -15l4 -18l-4 -16l17 -9l-13 -9l-4 -15l16 -9l-12 -9l-4 -16l12 -9l-8 -9l-4 -15l12 -9l-8 -9l13 -5l9 14l9 -14l9 10l9 -5l9 -4l7 18l11 -16l7 17l10 -10
l13 5l5 9l7 5l6 6v9l3 8l-11 12l10 7l4 16l-6 9l2 9l4 15l-3 9l-1 9l4 16l-6 9l2 9l4 16l-7 9l3 9l4 15l-8 9l4 9l4 16l-1 9l-3 9l4 16l-14 9l10 9l4 15l-11 9l7 9l4 16l-1 9l-3 9l3 7l-18 6l15 12l-16 6l8 11l-8 12l-15 -5l-2 12l-8 5l-10 -11l-8 13l-10 -15z" />
    <glyph glyph-name="E" unicode="E" horiz-adv-x="452" 
d="M413 0l-17 4l-9 -11l-9 7v4l-9 -4l-9 4l-9 -12l-9 8l-17 4l-9 -12l-9 8l-17 4l-9 -6l-9 2v4l-9 -4l-9 4l-9 -5l-9 1l-17 4l-9 -8l-9 4l-17 4l-9 -3l-9 -1l-17 4l-9 -7l-9 3v4l-9 -1l-9 1l-9 -3l-9 -1l-17 4l-9 -16l-9 12l4 15l-13 9l9 9l4 16l-17 9l13 9l4 15v9l-4 9
l4 16v9l-4 9l4 15l-8 9l4 9l4 16l-16 9l12 9l4 15l-3 9l-1 9l4 15l-7 9l3 9l4 16l-3 9l-1 9l4 15l-6 9l2 9l4 16l-13 9l9 9l4 15l-12 9l8 9l4 16l-13 9l9 9l4 15l-1 9l-3 9l4 15l-3 9l-1 9l4 16v9l-4 9l4 15l-6 9l2 9l4 16l-11 9l7 9l4 15l-10 9l6 9l4 16l-11 9l7 9l4 15
l-8 9l4 9l16 -4l9 7l9 -3l17 -4l9 10l9 -6l16 -4l9 1l9 3l17 -4l9 6l9 -2l16 -4l9 16l9 -12l16 -4l9 7l9 -3l17 -4l9 1l9 3l16 -4l9 3l9 1l17 -4l9 12l9 -8l16 -4l9 16l9 -12l-4 -15v-9l4 -9l-4 -15l13 -9l-9 -9l-4 -15l9 -9l-5 -9l-4 -15l5 -9l-1 -9l-2 4h-18l-9 -7l-9 3
l-1 4h-18l-9 -10l-9 6l-2 4l-9 -3l-9 3l-18 -4l-1 4l-9 -14l-9 14l-9 -14l-9 10l-2 4l-9 -17l-9 17l-9 -14l-9 10l-4 -5l9 -9l-9 -9l11 -9l-7 -9l-4 -5l14 -9l-14 -9l7 -9l-3 -9l-4 -5l12 -9l-12 -9l7 -9l-3 -9l3 -5l9 1l9 -1l9 10l9 -5l4 -5l9 8l9 -8l9 3l9 2l3 -5l9 3
l9 -3l9 13l9 -8l4 -5l9 14l9 -14l9 9l9 -4l3 -5l9 3l9 -3l9 14l9 -9l-5 -6l14 -9l-14 -9l11 -9l-6 -9l-5 -6l10 -9l-10 -9l1 -9l4 -9l-5 -6l9 -9l-9 -9l10 -9l-5 -9l-3 5l-9 -1l-9 1l-9 -14l-9 9l-4 5l-9 -2l-9 2l-9 -1l-9 -4l-3 5l-9 -11l-9 11l-9 -8l-9 3l-4 5l-9 -12
l-9 12l-9 -12l-9 7l-3 5l-9 -10l-9 10l-9 -5h-9l-4 -2l17 -9l-17 -9l16 -9l-12 -9l-4 -2l7 -9l-7 -9l13 -9l-9 -9l-4 -1l17 -9l-17 -9l9 -9l-5 -9l-4 -2l14 -9l-14 -9l14 -9l-10 -9l-4 -2l11 -9l-11 -9l14 -8l2 3l9 -17l9 8l9 -4l4 -4l9 6l9 -6l9 4h9l3 -4l9 10l9 -10h9l9 4
l4 -4l9 2l9 -2l9 9l9 -5l3 -4l9 4l9 -4l9 5l9 -1l-5 -15l13 -9l-8 -9l-5 -15l5 -9v-9l-5 -15l14 -9l-9 -9l-5 -15l11 -9zM216 132l3 -4l5 10z" />
    <glyph glyph-name="F" unicode="F" horiz-adv-x="407" 
d="M216 0l-3 4h-18l-9 -14l-9 10l-3 4l-9 -10l-9 10l-9 -9l-9 5l-3 4l-9 -12l-9 12h-9l-9 -4l-3 4l-9 -6l-9 6l-9 -16l-9 12l4 15l-17 9l13 9l4 16l-11 9l7 9l4 15v9l-4 9l4 16l-9 9l5 9l4 15l-17 9l13 9l4 16v9l-4 9l4 15l-1 9l-3 9l4 15v9l-4 9l4 16l-9 9l5 9l4 15l-11 9
l7 9l4 16l-15 9l11 9l4 15l-3 9l-1 9l4 16l-13 9l9 9l4 15l-16 9l12 9l4 15l-3 9l-1 9l4 16l-12 9l8 9l4 15l-4 9v9l4 16l-11 9l7 9l4 15l-11 9l7 9l4 16l-5 9l1 9l4 15l-12 9l8 9v-4l9 14l9 -14l9 9l9 -5v-4l9 6l9 -6l9 16l9 -12v-4l9 3l9 -3l9 8l9 -4v-4l9 11l9 -11l9 6
l9 -2l1 -4l9 11l9 -11l9 1l9 3v-4l9 4l9 -4l9 3l9 1v-4l9 4l9 -4l9 13l9 -9v-4l9 7l9 -7l9 3l9 1v-4l9 14l9 -14l9 9l9 -5l-5 -16l14 -9l-9 -9l-5 -15l7 -9l-2 -9l-5 -15l18 -9l-13 -9l-5 -16l10 -9l-5 -9l-16 4l-9 -1l-9 -3l-16 4l-9 -10l-9 6l-15 4l-9 -8l-9 4l-16 4
l-9 -17l-9 13l-16 4l-9 -6l-9 2l-4 -15l9 -9l-5 -9l-4 -16l1 -9l3 -9l-4 -15l16 -9l-12 -9l-4 -16l4 -9v-9l-4 -15l8 -9l-4 -9l-4 -15v-9l4 -9l-4 -16v-9l4 -9l-4 -15l10 -9l-6 -9l-4 -16l13 -9l-9 -9l-4 -15l1 -9l3 -9l-4 -16l16 -9l-12 -9l-4 -15l5 -9l-1 -9l-4 -15l3 -9
l1 -9l-4 -16l14 -9l-10 -9l-4 -15l11 -9l-7 -9l-4 -16l10 -9l-6 -9l-4 -15z" />
    <glyph glyph-name="G" unicode="G" horiz-adv-x="554" 
d="M50 227l4 17l-1 9l-3 9h4l-11 9l11 9l-7 9l3 9l4 17v9l-4 9h4l-11 9l11 9l-12 9l8 9l4 17v9l-4 9h4l-16 9l16 9l-14 9l10 9l4 17l-1 9l-3 9l5 1l-3 9l3 9l-5 9l6 9l-4 9v9l6 10l-14 11l17 7l-4 9l2 9l6 3l-2 11l8 7l-9 12l10 6l13 13l-8 15l13 3l15 9l6 7l3 9l17 5l3 13
h10l3 -4l8 5l9 1l7 8l9 2l9 -3l8 6l10 -3l8 8l9 -1l15 -4l9 4l9 -3l9 11l9 -6l14 -5l9 2l9 -3l9 3l9 1l7 -6l11 13l7 -16l9 4l9 -2v-5l10 -1l8 -5l9 -1h9l13 -13l17 10l1 -15l8 -14l17 5l-1 -14l5 -17h17l-4 -13l-3 -4l14 -4l-8 -13l7 -7l3 -8l-3 -8l6 -8l-3 -10l17 -6
l-9 -11l-4 -14v-9l1 -9l12 -9l-7 -9l-4 -10l1 -9l3 -9l-5 5l-9 -15l-9 15l-9 -17l-9 12l-5 5l-9 -9l-9 9l-9 -4l-9 -1l-4 5l-9 -11l-9 11l-9 -10l-9 5l-5 5l-9 -7l-9 7l-9 -16l-9 11l5 15l-13 9l13 9l-17 9l12 9l4 2l-8 7l4 10l-13 6l8 12l-7 7l-2 9l-12 8l-11 -4l-6 9
l-12 -7l-7 7l-15 1l-5 -16l-13 12l-4 -20l-12 11l-9 -13l8 -12l-13 -5l6 -12l-7 -7l-5 -16l13 -9l-8 -9l-5 -17l18 -9l-13 -9l-5 -16l8 -9l-3 -9l-5 -16l12 -9l-7 -9l-5 -17l12 -9l-7 -9l-5 -16l18 -9l-13 -9l-5 -16l16 -9l-11 -9l-5 -17l1 -9l4 -9l-5 -16l15 -9l-10 -9
l-2 -17l11 -7l-9 -11l11 -7l-4 -10l7 -15l15 1v-12l6 -5l9 -1l9 -2l9 5l9 -3l7 -3l6 18l12 -15l6 19l11 -12l3 -3l-2 14h14l6 7l3 9l5 2l-9 10l11 8l-16 11l18 7l1 9l-3 9l5 10l-2 9l2 9l-1 9l-4 9l5 11l-10 9l10 9l-12 9l7 9l-17 5l-9 -16l-9 16l-9 -4l-9 -1l4 2l-13 9
l13 9l-16 9l16 12l-3 9l3 9l-12 9l8 9l4 2l-4 9l4 9l-11 9l7 9l15 -4l9 11l9 -7l15 -4l9 5l9 -1l15 -4l9 12l9 -8l15 -4l9 14l9 -10l15 -4l9 9l9 -5l15 -4l9 6l9 -2l-4 -17l16 -9l-12 -9l-4 -17l3 -9l1 -9h-4l8 -9l-8 -9l11 -9l-7 -9l-4 -17l6 -9l-2 -9l-4 -17l11 -9l-7 -9
l-4 -17l1 -9l3 -9l-4 -17l4 -9v-9l-4 -17l3 -9l1 -9l-4 -17l4 -9v-9h-4l13 -9l-13 -9l7 -9l-3 -9l-4 -17l3 -9l1 -9l-4 -17l14 -9l-10 -9l-16 4l-9 -9l-9 9l-9 -13l-9 9l-7 15l-11 2l-1 11l-19 -4l4 15l-7 1l-3 -12l-13 3l-7 -6l-8 -2l-3 -14l-11 1h-14l-6 -10l-11 5l-4 -19
l-12 9l-17 3l-9 -7l-9 6l-9 -11l-9 5l-11 5l-9 -1l-9 2l-10 -16l-8 12l-4 5l-9 -2l-8 6l-11 -7l-8 6v5l-8 2l-9 4l-8 2h-10l-10 12l-13 -4l-5 10l-8 15l-16 -3l1 13l-4 17l-6 8l-7 6l3 6l-19 4l13 13l-8 7l-2 9l3 11l-5 8l2 10l-15 7l8 10h4l-11 9l11 9l-11 9l10 9l-3 9z
" />
    <glyph glyph-name="H" unicode="H" horiz-adv-x="563" 
d="M60 0l4 15l-5 9l1 9l4 16l-7 9l3 9l4 15l-10 9l6 9l4 16v9l-4 9l4 15l-12 9l8 9l4 16l-12 9l8 9l4 15l-10 9l6 9l4 15v9l-4 9l4 16l-4 18l4 15l-8 9l4 9l4 16l-3 9l-1 9l4 15l-1 9l-3 9l4 16l-4 9v9l4 15l-15 9l11 9l4 15l-10 9l6 9l4 16l-10 9l6 9l4 15l-5 9l1 9l4 16
l-4 18l4 15l-1 9l-3 9l4 16l-3 9l-1 9l4 15l-10 9l6 9l4 -4l9 15l9 -15l9 14l9 -10l4 -4l9 15l9 -15l9 15l9 -11l3 -4l9 12l9 -12l9 9l9 -5l4 -4h18l9 11l9 -7h-5l15 -9l-15 -9l15 -9l-10 -9l-5 -1l8 -9l-8 -9l18 -9l-13 -9h-5l8 -9l-8 -9l7 -9l-2 -9l-5 -1l1 -9l-1 -9
l14 -9l-9 -9h-5l2 -9l-2 -9l2 -9l3 -9l-5 -1l4 -9l-4 -9l4 -9l1 -9h-5l4 -9l-4 -9l6 -9l-1 -9l5 -5l9 17l9 -17l9 8l9 -3l6 -5l9 6l9 -6l9 7l9 -2l5 -5l9 5l9 -5l9 10l9 -5h5l-4 9l4 9l-13 9l8 9l5 1l-15 9l15 9l-4 9l-1 9h5l-5 9l5 9l-14 9l9 9l5 1l-8 9l8 9l-8 9l3 9h5
l-8 9l8 9l-5 9v9l5 1l-2 9l2 9l-15 9l10 9h5l-5 9l5 9l-4 9l-1 9l4 -4l9 6l9 -6l9 1l9 3l3 -4l9 14l9 -14l9 14l9 -10l4 -4l9 5l9 -5l9 15l9 -11l4 -4l9 12l9 -12l9 9l9 -5l-4 -15l1 -9l3 -9l-4 -16l14 -9l-10 -9l-4 -15l5 -9l-1 -9l-4 -16l5 -9l-1 -9l-4 -15l8 -9l-4 -9
l-4 -16l1 -9l3 -9l-4 -15l4 -9v-9l-4 -15v-9l4 -9l-4 -16l13 -9l-9 -9l-4 -15l6 -9l-2 -9l-4 -16l16 -9l-12 -9l-4 -15l9 -9l-5 -9l-4 -16l14 -9l-10 -9l-4 -15l8 -9l-4 -9l-4 -15l14 -9l-10 -9l-4 -16l16 -9l-12 -9l-4 -15l7 -9l-3 -9l-4 -16l3 -9l1 -9l-4 -15l4 -18
l-4 -16l5 -9l-1 -9l-4 -15l10 -9l-6 -9l-4 4l-9 -6l-9 6l-9 -9l-9 5l-4 4l-9 -12l-9 12l-9 -14l-9 10l-3 4l-9 -2l-9 2l-9 -9l-9 5l-4 4l-9 -5l-9 5l-9 -8l-9 4h5l-16 9l16 9l-4 9l-1 9l5 17l-15 9l10 9h5l-9 9l9 9l-13 9l8 9h5l-2 9l2 9l-8 9l3 9l5 17l-2 9l-3 9h5l-16 9
l16 9l-15 9l10 9h5l-10 9l10 9l-7 9l2 9l5 17l-16 9l11 9h5l-8 9l8 9l-14 9l9 9l-5 5l-9 -16l-9 16l-9 -15l-9 10l-6 5l-9 -18l-9 18l-9 -3l-9 -2l-5 5l-9 -11l-9 11l-9 -15l-9 10h-5l8 -9l-8 -9l17 -9l-12 -9l-5 -17l3 -9l2 -9h-5l16 -9l-16 -9l17 -9l-12 -9h-5l6 -9l-6 -9
l5 -9v-9l-5 -17l4 -9l1 -9h-5l6 -9l-6 -9l7 -9l-2 -9h-5l17 -9l-17 -9l8 -9l-3 -9l-5 -17l4 -9l1 -9h-5l6 -9l-6 -9l8 -9l-3 -9l-4 4l-9 -10l-9 10l-9 -17l-9 13l-3 4l-9 -9l-9 9l-9 -8l-9 4l-4 4l-9 -13l-9 13l-9 -12l-9 8l-4 4l-9 -8l-9 8l-9 -4h-9z" />
    <glyph glyph-name="I" unicode="I" horiz-adv-x="286" 
d="M64 0l4 15l-16 9l12 9l4 16l-7 9l3 9l4 15l-3 9l-1 9l4 16l-4 18l4 15l-5 9l1 9l4 16l-10 9l6 9l4 15l-6 9l2 9l4 15l-9 9l5 9l4 16l-12 9l8 9l4 15l-14 9l10 9l4 16l-4 18l4 15l-9 9l5 9l4 16l-5 9l1 9l4 15l-8 9l4 9l4 15l-15 9l11 9l4 16l-3 9l-1 9l4 15l-14 9l10 9
l4 16l-8 9l4 9l4 15l-12 9l8 9l4 16l-1 9l-3 9l4 15l-7 9l3 9l4 -4l9 1l9 -1l9 15l9 -11l4 -4l9 14l9 -14l9 9l9 -5l3 -4l9 6l9 -6l9 15l9 -11l4 -4l9 7l9 -7l9 13l9 -9l-5 -15l16 -9l-11 -9l-5 -16l15 -9l-10 -9l-5 -15l18 -9l-13 -9l-5 -16l3 -9l2 -9l-5 -15l11 -9l-6 -9
l-5 -16l15 -9l-10 -9l-5 -15l8 -9l-8 -24l17 -9l-12 -9l-5 -16l3 -9l2 -9l-5 -15l16 -9l-11 -9l-5 -16l17 -9l-12 -9l-5 -15l6 -9l-1 -9l-5 -16l5 -9v-9l-5 -15l4 -9l1 -9l-5 -15l6 -9l-1 -9l-5 -16l7 -9l-2 -9l-5 -15l17 -9l-12 -9l-5 -16l8 -9l-8 -24l4 -9l1 -9l-5 -16
l6 -9l-1 -9l-5 -15l8 -9l-3 -9l-4 4l-9 -10l-9 10l-9 -17l-9 13l-3 4l-9 -9l-9 9l-9 -8l-9 4l-4 4l-9 -13l-9 13l-9 -12l-9 8l-4 4l-9 -8l-9 8l-9 -4h-9z" />
    <glyph glyph-name="J" unicode="J" horiz-adv-x="509" 
d="M166 323l-4 -17l14 -9l-10 -9l-4 -16l9 -9l-5 -9l-4 -16l15 -9l-11 -9l-4 -17v-9l4 -9v-17l15 -5l-9 -12l5 -8l4 -8l13 -8l13 14l4 -18l13 15l6 -15l15 -1l5 18l13 -13l6 11l10 -2l5 2l-9 11l13 6l-2 10l7 7l-15 13l15 6l5 16l-11 9l6 9l5 16l-4 9l-1 9l5 16l-7 9l2 9
l5 16l-7 9l2 9l5 16l-3 9l-2 9l5 16l-3 9l-2 9l5 16l-10 9l5 9l5 17l-10 9l5 9l5 16l-5 9v9l5 16l-5 9v9l5 16l-18 9l13 9l5 16l-18 9l13 9l5 16l-18 9l13 9l5 16l-15 9l10 9l5 16l-8 9l3 9l5 -4l9 10l9 -10l9 5l9 -1l4 -4l9 17l9 -17l9 5l9 -1l4 -4l9 17l9 -17l9 6l9 -2
l5 -4l9 15l9 -15l9 11l9 -7l-5 -16l12 -9l-7 -9l-5 -16l3 -9l2 -9l-5 -16l18 -9l-13 -9l-5 -16l3 -9l2 -9l-5 -16l7 -9l-2 -9l-5 -16l7 -9l-2 -9l-5 -16l13 -9l-8 -9l-5 -15l17 -9l-12 -9l-5 -16l11 -9l-6 -9l-5 -16l6 -9l-1 -9l-5 -16l7 -9l-2 -9l-5 -16l10 -9l-5 -9
l-5 -16l7 -9l-2 -9l-5 -16l2 -9l3 -9l-5 -1l9 -9l-9 -9l8 -9l-9 -9l16 -9l-12 -9l-6 -11l2 -9l-5 -9l-1 -9l2 -9l-5 -2l8 -13l-14 -4l-1 -10v-9l-4 2l11 -17l-20 1l4 -13l-9 -5l-14 -8l-2 -12l-8 -4l-17 -5l-7 -6l-6 -7l-5 3l-6 -9l-11 3l-3 -16l-12 6l-8 3l-7 -16l-11 13
l-9 -2l-8 -5l-15 4l-9 -3l-9 2l-9 -11l-9 6l-15 5l-9 -10l-9 11h-9l-9 -4l-7 6l-11 -14l-7 17l-9 -5l-9 3l-2 5l-12 -9l-5 15l-13 -10l-5 12l-12 13l-8 4l-10 1l-8 14l-14 -1l-2 11l3 3l-19 -1l10 17l-10 4l-3 9l3 5l-8 7l3 10l-18 4l8 12l2 12l-18 6l15 12l-13 7l6 10l4 1
l-5 9l5 9l-11 9l10 9l-17 9l12 9l4 12v18l-16 9l12 9l4 12l-5 9l5 9l-4 18l4 -5l9 10l9 -10l9 7l9 -2l5 -5l9 11l9 -11l9 6l9 -1l5 -5l9 15l9 -15l9 2l9 3l4 -5l9 6l9 -6l9 15z" />
    <glyph glyph-name="K" unicode="K" horiz-adv-x="547" 
d="M502 0l-4 4l-9 -8l-9 8l-9 -7l-9 3l-4 4l-9 -2l-9 2l-9 -17l-9 13l-4 4l-9 -9l-9 9l-9 -7l-9 3l-4 4l-9 -1l-9 1l-9 -1l-9 -3l5 10l-2 9l2 9l-9 9l9 9l-6 9l2 9l5 6l-3 9l3 9l-2 9l2 9l-3 9l-1 9l4 12l-10 9l10 9l-12 9l7 9l3 11l-5 8l3 10l-10 7l4 10l2 9l-13 6l9 12
l-7 7l-2 9l1 10l-8 16l-13 4l2 11l-2 11h-16l5 15l-11 3l-3 9l-12 -3l-2 -13l-13 2l3 -19l-17 9l2 -19l-17 8l-12 -14h-4l3 -9l-3 -9v-9l4 -9l-4 -1v-18l6 -9l-2 -9h-4l17 -9l-17 -9l10 -9l-6 -9h-4l15 -9l-15 -9l4 -18l-4 -1l13 -9l-13 -9l6 -9l-2 -9h-4l7 -9l-7 -9l9 -9
l-5 -9l-4 -1v-18l6 -9l-2 -9h-4l14 -9l-14 -9l6 -9l-2 -9l-3 4l-9 -14l-9 14l-9 -9l-9 5l-3 4l-9 -1l-9 1l-9 -3l-9 -1l-3 4l-9 -4l-9 4l-9 -14l-9 10l-3 4l-9 -9l-9 9l-9 -15l-9 11l4 15v9l-4 9l4 16l-12 9l8 9l4 15l-3 9l-1 9l4 16l-16 9l12 9l4 15l-17 9l13 9l4 16l-16 9
l12 9l4 15l-9 9l5 9l4 15l-11 9l7 9l4 16l-4 9v9l4 15l-17 9l13 9l4 16l-10 9l6 9l4 15l-3 9l-1 9l4 16l-6 9l2 9l4 15l-6 9l2 9l4 15l-4 18l4 16l-4 18l4 15l-9 9l5 9l4 16l-9 9l5 9l4 15l-4 9v9l4 16l-4 9v9l4 15l-17 9l13 9l3 -4l9 17l9 -17l9 17l9 -13l3 -4l9 14l9 -14
l9 7l9 -3l3 -4l9 10l9 -10l9 5l9 -1l3 -4l9 17l9 -17l9 5l9 -1l-4 -15l17 -9l-13 -9l-4 -15l6 -9l-2 -9l-4 -15l15 -9l-11 -9l-4 -15l11 -9l-7 -9l-4 -16l11 -9l-7 -9l-4 -15l4 -18l-4 -15l17 -9l-13 -9l-4 -15l4 -18l-4 -15l6 -9l-2 -9l11 5l2 10l11 2l-2 15l12 1l10 6
l-7 17l18 -3l-2 13l10 4l9 6l-1 11l9 5l-1 11l6 7l8 8l-5 12l12 5l-2 10l5 8l8 10l1 9l3 8l-5 11l6 8l7 12l-8 10l10 8l-14 11l13 7l6 15l-4 9l5 9v9l-3 9l4 -4l9 11l9 -11l9 1l9 3l4 -4l9 17l9 -17l9 9l9 -5l4 -4l9 7l9 -7l9 1l9 3l4 -4l9 6l9 -6l9 13l9 -9l-4 -2l15 -8
l-10 -10l-5 -14l1 -9l-2 -9l3 -9l1 -9l-7 -12l9 -10l-11 -8l8 -10l-7 -8l-7 -9l-2 -9l-2 -8l13 -13l-13 -6l-7 -7l2 -10l-9 -7l9 -13l-11 -5l-7 -4l8 -15l-17 -1l-3 -8l-1 -10l-6 -1l3 -14l-14 -1l8 -17h-15l-3 -4l11 -3v-11l10 -4l4 -8l-2 -6l18 -1l-10 -15h20l-8 -14
l-2 -8l14 -5l-9 -12l8 -7l2 -9l-2 -11l12 -6l-8 -11l18 -6l-10 -11l-2 -12l2 -9l1 -9l18 -6l-11 -11l-3 -12l5 -9l-4 -9l6 -18l-4 -11l10 -9l-9 -9l7 -9l-1 -9l-4 -8l10 -9l-9 -9l6 -9l-1 -9l-4 -5l14 -9l-14 -9l1 -9l3 -9l-4 -11l5 -9l-5 -9l14 -9z" />
    <glyph glyph-name="L" unicode="L" horiz-adv-x="418" 
d="M58 0l4 15l-9 9l5 9l4 16l-4 9v9l4 15l-4 9v9l4 16l-17 9l13 9l4 15l-17 9l13 9l4 16l-17 9l13 9l4 15l-14 9l10 9l4 15l-7 9l3 9l4 16l-10 9l6 9l4 15l-5 9l1 9l4 16l-17 9l13 9l4 15l-5 9l1 9l4 16l-17 9l13 9l4 15l-6 9l2 9l4 15l-15 9l11 9l4 16l-11 9l7 9l4 15
l-11 9l7 9l4 16l-4 18l4 15l-17 9l13 9l4 16l-4 18l4 15l-6 9l2 9l4 -4l9 6l9 -6l9 12l9 -8l4 -4l9 16l9 -16l9 10l9 -6l4 -4l9 5l9 -5l9 6l9 -2l4 -4l9 9l9 -9l9 6l9 -2l-4 -15l1 -9l3 -9l-4 -16l8 -9l-4 -9l-4 -15l8 -9l-4 -9l-4 -16l15 -9l-11 -9l-4 -15l4 -9v-9l-4 -16
v-9l4 -9l-4 -15l11 -9l-7 -9l-4 -16l1 -9l3 -9l-4 -15l17 -9l-13 -9l-4 -16l9 -9l-5 -9l-4 -15l7 -9l-3 -9l-4 -16l1 -9l3 -9l-4 -15l6 -9l-2 -9l-4 -16l13 -9l-9 -9l-4 -15l15 -9l-11 -9l-4 -16l1 -9l3 -9l-4 -15l4 -18l15 -5l9 11l9 -6l16 -5l9 11l9 -6l15 -5l9 1l9 4
l15 -5l9 16l9 -11l16 -5l9 7l9 -2l15 -5l9 14l9 -9l-4 -15l14 -9l-10 -9l-4 -16v-9l4 -9l-4 -15l10 -9l-6 -9l-4 -15l16 -9l-12 -9v4l-9 -6l-9 6l-9 -6l-9 2v4l-9 -16l-9 16l-9 -17l-9 13v4l-9 -11l-9 11l-9 -5l-9 1v4l-9 -10l-9 10l-9 -16l-9 12v4h-18l-9 -16l-9 12v4
l-9 -5l-9 5l-18 -4v4l-9 -9l-9 9l-9 -6l-9 2v4l-9 -10l-9 10l-9 -5l-9 1v4l-9 -14l-9 14l-9 -1l-9 -3v4l-9 -5l-9 5l-9 -14z" />
    <glyph glyph-name="M" unicode="M" horiz-adv-x="846" 
d="M790 0l-4 4l-9 -3l-9 3l-9 -12l-9 8l-4 4l-9 -5l-9 5l-9 -17l-9 13l-5 4l-9 -14l-9 14l-9 -11l-9 7l-4 4l-9 -14l-9 14l-9 -5l-9 1l5 15l-3 9l-2 9l5 15l-11 9l6 9l5 15l-17 9l12 9l5 15l-10 9l5 9l5 15l-17 9l12 9l5 15l-4 9l-1 9l5 15l-3 9l-2 9l5 15l-6 9l1 9l5 15
l-5 9v9l5 15l-16 9l11 9l5 15l-1 9l-4 9l5 15l-9 9l4 9l5 15l-1 9l-4 9l5 15l-14 9l9 9l5 15l-13 9l8 9l5 15l-6 9l1 9l5 15l-14 8l1 -7l-13 1l-5 -8l-8 -5v-12l-9 -4l-13 -9v-12l-11 -2l-1 -11l-7 -6l-8 -4l5 -14l-14 -1l5 -14l-11 -4l-5 -1l-1 -10l-6 -7l6 -12l-9 -6
l-5 -1l4 -10l-8 -7l2 -10l-2 -9l-5 -3l11 -10l-13 -8l6 -9l-3 -9l-5 -8l18 -9l-18 -9l13 -9l-9 -9l-4 -17l11 -9l-7 -9h-4l15 -9l-15 -9l17 -9l-13 -9l-4 -17l17 -9l-13 -9l-4 -17l5 -9l-1 -9h-4l14 -9l-14 -9l3 -9l1 -9l-4 -17l3 -9l1 -9h-4l15 -9l-15 -9l9 -9l-5 -9
l-4 -17l7 -9l-3 -9l-4 4l-9 -17l-9 17l-9 -1l-9 -3l-3 4l-9 -7l-9 7l-9 -1l-9 -3l-3 4l-9 -7l-9 7h-9l-9 -4l-4 4l-9 -7l-9 7l-9 -11l-9 7l4 17l-8 9l4 9h4l-8 9l8 9l-6 9l2 9l4 17l-12 9l8 9h4l-8 9l8 9l-17 9l13 9l4 17l-14 9l10 9l4 17l-8 9l4 9h4l-7 9l7 9l-5 9l1 9
l4 17l-4 9v9l4 8l-16 9l16 9l-11 9l6 9l4 5l-19 7l17 11l-10 8l4 9l4 2l-3 9l-1 9l-13 6l4 10l3 5l-10 5l3 11l-12 5l1 10v8l-15 2l6 14l-9 5l-4 8l-6 15l-13 1l2 13l-11 2l-4 9l-2 9l-10 4l-3 9l-7 6l-5 7l-8 6l-8 4l-4 -15l12 -9l-8 -9l-4 -15v-9l4 -9l-4 -15l10 -9l-6 -9
l-4 -15l4 -9v-9l-4 -15l4 -18l-4 -15l7 -9l-3 -9l-4 -15l14 -9l-10 -9l-4 -15l4 -9v-9l-4 -15l11 -9l-7 -9l-4 -15l16 -9l-12 -9l-4 -15v-9l4 -9l-4 -15l6 -9l-2 -9l-4 -15l4 -18l-4 -15l12 -9l-8 -9l-4 -15v-9l4 -9l-4 -15l15 -9l-11 -9l-4 -15l10 -9l-6 -9l-4 4l-9 -11
l-9 11l-9 -1l-9 -3l-4 4l-9 -2l-9 2l-9 -3l-9 -1l-4 4l-9 -17l-9 17l-9 -8l-9 4l-4 4h-18l-9 -12l-9 8l4 15l-13 9l9 9l4 16v9l-4 9l4 15l-12 9l8 9l4 16l-11 9l7 9l4 15l-8 9l4 9l4 16l-15 9l11 9l4 15l-17 9l13 9l4 15l-15 9l11 9l4 16l-13 9l9 9l4 15l-3 9l-1 9l4 16
l-12 9l8 9l4 15l-17 9l13 9l4 16l-9 9l5 9l4 15l-4 9v9l4 15l-13 9l9 9l4 16l-17 9l13 9l4 15l-16 9l12 9l4 16l-17 9l13 9l4 15l-17 9l13 9l4 16l-12 9l8 9l4 15l-10 9l6 9l2 -4l9 3l9 -3l9 11l9 -7l2 -4l9 2l9 -2l9 1l9 3l2 -4l9 1l9 -1l9 12l9 -8l3 -4l9 4l9 -4l9 16
l9 -12l2 -4l9 7l9 -7l9 1l9 3l2 -4l9 15l9 -15l9 15l9 -11l7 -13l7 -6l9 -4l-3 -3l18 3l-7 -17h14l1 -11l-2 -6l17 1l-7 -16h16l-2 -12v-10l5 -8l4 -8l15 -1l-2 -12l3 -17l10 -5l-2 -11l5 -8l7 -6l-2 -7l17 -2l-10 -15l19 -1l-12 -15l11 -5v-10l6 3l-1 10l8 6l-12 15l19 2
l-11 14l14 4l11 12l-5 13l12 4v10l4 8l9 6l-5 13l14 2l-6 14l11 4l7 2v10l10 5l2 9l4 8l4 -3l1 11l10 3l5 8l3 9l14 7l6 7l4 9l2 -4h18l9 12l9 -8l2 -4l9 14l9 -14l9 17l9 -13l3 -4l9 4l9 -4h9l9 4l2 -4l9 5l9 -5l9 13l9 -9l2 -4l9 16l9 -16l9 11l9 -7l2 -4l9 17l9 -17l9 7
l9 -3l-4 -15l9 -9l-5 -9l-4 -16l13 -9l-9 -9l-4 -15l4 -9v-9l-4 -16l14 -9l-10 -9l-4 -15l12 -9l-8 -9l-4 -16l13 -9l-9 -9l-4 -15l11 -9l-7 -9l-4 -15l12 -9l-8 -9l-4 -16l6 -9l-2 -9l-4 -15l7 -9l-3 -9l-4 -16l1 -9l3 -9l-4 -15v-9l4 -9l-4 -16l14 -9l-10 -9l-4 -15v-9
l4 -9l-4 -15l7 -9l-3 -9l-4 -16l14 -9l-10 -9l-4 -15l10 -9l-6 -9l-4 -16l13 -9l-9 -9l-4 -15l1 -9l3 -9l-4 -16l3 -9l1 -9l-4 -15l16 -9zM629 561l-9 -3v-4z" />
    <glyph glyph-name="N" unicode="N" horiz-adv-x="562" 
d="M58 0l4 15l-4 18l4 16l-9 9l5 9l4 15l-6 9l2 9l4 16l-11 9l7 9l4 15l-7 9l3 9l4 16l-8 9l4 9l4 15l-4 9v9l4 15l-17 9l13 9l4 16l-17 9l13 9l4 15l-3 9l-1 9l4 16l-3 9l-1 9l4 15v9l-4 9l4 16l-3 9l-1 9l4 15l-7 9l3 9l4 15l-6 9l2 9l4 16l-6 9l2 9l4 15l-4 9v9l4 16
l-16 9l12 9l4 15l-11 9l7 9l4 16l-10 9l6 9l4 15l-15 9l11 9l1 -4l9 4l9 -4l9 8l9 -4l1 -4l9 16l9 -16l9 10l9 -6l2 -4l9 2l9 -2l9 15l9 -11l1 -4l9 9l9 -9l18 4l3 -11l13 -2l1 -10l4 -15h18l-4 -13l-1 -6l5 -8l4 -8l11 -4l2 -9l2 -14l18 -1l-9 -15l12 -4v-10l-1 -9l17 -1
l-9 -15l17 -2l-9 -14h19l-7 -14l-4 -3l20 -1l-12 -15l10 -5l-2 -11l12 -5l-5 -12l5 -7l7 -7h4l-7 9l7 9l-9 9l5 9h4l-2 9l2 9l-11 9l7 9h4l-9 9l9 9l-11 9l7 9l4 17l-17 9l13 9h4l-10 9l10 9l-3 9l-1 9h4l-12 9l12 9l-15 9l11 9h4l-17 9l17 9l-4 18l4 -4l9 4l9 -4l9 13l9 -9
l3 -4l9 3l9 -3l9 17l9 -13l3 -4l9 5l9 -5l9 15l9 -11l4 -4l9 8l9 -8l9 7l9 -3l-4 -15l9 -9l-5 -9l-4 -16l11 -9l-7 -9l-4 -15l15 -9l-11 -9l-4 -16l4 -18l-4 -15l5 -9l-1 -9l-4 -16v-9l4 -9l-4 -15l3 -9l1 -9l-4 -15l4 -18l-4 -16l3 -9l1 -9l-4 -15l17 -9l-13 -9l-4 -16
l11 -9l-7 -9l-4 -15l5 -9l-1 -9l-4 -16l12 -9l-8 -9l-4 -15l4 -9v-9l-4 -15l5 -9l-1 -9l-4 -16l5 -9l-1 -9l-4 -15l4 -18l-4 -16l16 -9l-12 -9l-4 -15l13 -9l-9 -9l-4 -16v-9l4 -9l-4 -15l15 -9l-11 -9l-4 4l-9 -3l-9 3l-9 -1l-9 -3l-3 4l-9 -3l-9 3l-9 -8l-9 4l-3 4h-18
l-9 -14l-9 10l-4 4l-9 -1l-9 1l-9 -8l-9 4l4 16l-11 9l7 9l4 16l-5 9l1 9l4 17l-17 9l13 9l4 16l-17 9l13 9l4 3l-13 9l13 9l-8 9l3 9l4 4l-2 18l-10 8l4 9l4 3l-9 8l6 10l-9 8l2 9l3 5l-11 7l7 11l-14 5l5 11l2 8l-7 7l2 10l-11 6l1 10l1 9l-18 3l11 14l-13 5l2 10l-1 13
l-16 3l9 13l-20 1l8 14l-4 17l-7 6l-1 9l-8 6l-5 8l2 5l-19 -1l10 17l-6 7l-4 8l-14 2l1 11l-4 -16l9 -9l-5 -9l-4 -16l1 -9l3 -9l-4 -17l5 -9l-1 -9l-4 -16l4 -9v-9l-4 -16l12 -9l-8 -9l-4 -16l7 -9l-3 -9l-4 -16l7 -9l-3 -9l-4 -17l3 -9l1 -9l-4 -16l11 -9l-7 -9l-4 -16
l17 -9l-13 -9l-4 -16l6 -9l-2 -9l-4 -16v-9l4 -9l-4 -17l15 -9l-11 -9l-4 -16v-9l4 -9l-4 -16l8 -9l-4 -9l-4 4l-9 -16l-9 16l-9 -14l-9 10l-4 4l-9 -15l-9 15l-9 -8l-9 4l-4 4l-9 -15l-9 15l-9 -8l-9 4l-4 4h-18l-9 -9z" />
    <glyph glyph-name="O" unicode="O" horiz-adv-x="550" 
d="M211 517l-5 -15l18 -9l-13 -9l-5 -15l14 -9l-9 -9l-5 -16l8 -9l-8 -24l1 -9l4 -9l-5 -15l10 -9l-5 -9l-5 -15l9 -9l-4 -9l-5 -15l9 -9l-4 -9l-5 -16l9 -9l-4 -9l-5 -15l13 -9l-8 -9l-5 -15l5 -9v-9l1 -17l11 -6l-6 -11l18 -4l-8 -12l12 -8l11 8l6 -12l12 11l7 -11l15 -1
l4 20l14 -15l7 6l9 3l5 1l-2 10l6 8l-15 13l19 4l1 10l-1 9h5l-12 9l12 9l-10 9l5 9l5 17l-2 9l-3 9h5l-6 9l6 9l-5 9v9h5l-13 9l13 9l-8 9l3 9l5 17l-8 9l3 9h5l-4 9l4 9l-12 9l7 9h5l-18 9l18 9l-7 9l2 9l5 17l-1 9l-4 9h5l-16 9l16 9l-1 9l-4 9l4 2l-11 6l7 11l-19 5
l14 13l-16 5l7 11l-12 8l-13 -12l-4 17l-11 -5l-8 6l-15 1l-5 -18l-13 13l-6 -10l-10 1l-9 -13l-2 -9l-3 -8l6 -12zM50 227l4 17l-17 9l13 9h4l-17 9l17 9l-3 9l-1 9l4 17l-3 9l-1 9h4v18l-3 9l-1 9l4 17l-7 9l3 9h4l-6 9l6 9l-6 9l2 9l4 17l-4 9v9l5 1l-17 9l17 9l-10 9
l11 9l-11 9l7 9l6 11l-14 11l17 7l-3 9l1 9l6 2l-5 12l10 6l-12 13l14 5l4 -2l-5 14l14 2l2 9l3 9l14 8l-4 17l14 -1l17 5l2 13h11l4 -3l7 5l10 1l5 12l10 -2l9 -3l7 16l11 -13l9 2l8 5l15 -4l9 8l9 -7l9 15l9 -10l15 -5l9 8l9 -9l9 14l9 -10l8 -6l11 13l7 -16l11 16l7 -14
l1 -5l14 13l3 -19l10 3l8 -5l12 -13l13 3l5 -8l8 -14l7 -6l9 -4l-4 -3l12 -4l-3 -12l13 -3v-10l-3 -5l5 -8l1 -9l14 -5l-4 -11l-3 -12l11 -8l-8 -10l13 -7l-6 -10l-4 -1l17 -9l-17 -9l11 -9l-10 -9l4 -9l1 -9l-4 -17l12 -9l-8 -9h-4l15 -9l-15 -9l17 -9l-13 -9l-4 -17l4 -18
h-4l4 -9l-4 -9l13 -9l-9 -9l-4 -17l3 -9l1 -9h-4l17 -9l-17 -9l5 -9l-1 -9l-4 -17l15 -9l-11 -9l-5 -1l9 -9l-9 -9l7 -9l-8 -9l10 -9l-6 -9l-6 -11l9 -11l-12 -7l13 -11l-12 -7l-5 -2l-1 -10l-5 -7l3 -11l-4 -8l-4 2l-4 -9l-5 -7l-2 -9l-3 -9l-14 -8l-10 -16l-17 -5l-6 -8
l-7 -5l-5 3l-2 -20l-15 14l-4 -14l-11 4l-8 3l-8 -7l-10 4l-7 -13l-10 6l-15 4l-9 -5l-9 4l-9 -5h-9l-15 5l-9 -5l-9 6l-9 -3l-9 -1l-7 6l-11 -15l-7 18l-11 -13l-7 11l-2 5l-8 3l-9 3l-13 -11l-5 13l-12 13l-10 2l-8 3l-8 14l-8 6l-8 4l4 3l-8 6l-1 10l-12 3l-1 10l3 5
l-3 9l-2 8l-17 4l7 12l2 12l-2 9l-1 9l-9 8l2 9l4 1l-12 9l12 9l-6 9l5 9l-17 9z" />
    <glyph glyph-name="P" unicode="P" horiz-adv-x="547" 
d="M216 321l10 -5l9 3l9 -5l9 2l9 -3l10 11l8 -8l18 -1l8 6l9 2l13 6l-2 15l12 1l6 5l-4 11l9 6l-3 10l3 9l5 7l-8 9l9 9l-8 9l9 9l-15 10l12 8l4 3l-16 8l15 10l-12 9l11 9l-13 9l7 9l2 7l-9 5l2 11l-5 8l-18 21l-10 1l-7 6l-10 6l-9 1l-9 2h-9l-9 -2l-6 4l-9 -14l-9 14
l-9 -7l-9 3h-4l17 -9l-17 -9l13 -9l-9 -9l-4 -17l4 -18h-4l8 -9l-8 -9l15 -9l-11 -9l-4 -17l1 -9l3 -9h-4l12 -9l-12 -9l14 -9l-10 -9l-4 -17l9 -9l-5 -9h-4l16 -9l-16 -9l10 -9zM60 0l4 15l-10 9l6 9l4 16l-4 9v9l4 15l-13 9l9 9l4 16l-10 9l6 9l4 15l-15 9l11 9l4 16l-7 9
l3 9l4 15l-10 9l6 9l4 15l-12 9l8 9l4 16l-4 9v9l4 15l-14 9l10 9l4 16l-14 9l10 9l4 15l-8 9l4 9l4 16l-4 18l4 15l-1 9l-3 9l4 15l-3 9l-1 9l4 16l-5 9l1 9l4 15l-16 9l12 9l4 16l-16 9l12 9l4 15l-15 9l11 9l4 16l-14 9l10 9l4 15l-4 18l17 -4l9 5l9 -1l16 -4l9 1l9 3
l17 -4l9 16l9 -12l17 -4l9 3l9 1l16 -4l9 14l9 -10l17 -4l9 12l9 -8l12 -5l10 17l8 -18l9 15l9 -11l7 -5l10 11l8 -14l10 9l8 -7l1 -5h9l8 -5l12 6l7 -7l14 -12l11 1l7 -5l9 -14l7 -5l10 -3l6 -16l11 -3l4 -8l-4 -2l7 -7l2 -9l8 -6l4 -8l-3 -6l5 -7v-10l13 -5l-4 -11l-3 -11
l6 -8l-3 -10l7 -8v-9l-4 -16l17 -9l-16 -9l2 -9l3 -9l-5 -17l1 -9l-2 -9l14 -10l-11 -8l-6 -11l15 -11l-18 -7l2 -9v-9l-6 -5l-2 -9l-4 -8l-1 -10v-9l-6 -2l2 -11l-10 -5l-4 -8v-10l-5 2l3 -14h-14l-2 -10l-6 -7l-3 3l-6 -7l-8 -4l2 -16l-13 1l-5 3l-1 -19l-15 11l-2 -17
l-12 5l-5 3l-6 -13l-12 9l-6 -13l-10 4l-9 4l-9 -3l-9 2l-9 -6h-9l-12 5l-10 -16l-8 18l-10 -12l-8 13l-10 -14l-8 15l-9 1l-9 -4l-4 -3l5 -9l-5 -9l9 -9l-5 -9l-4 -3l5 -9l-5 -9l11 -9l-7 -9l-4 -4l1 -9l-1 -9l17 -9l-13 -9l-4 -3l10 -9l-10 -9l3 -9l1 -9l-4 -3v-18l9 -9
l-5 -9l-3 4l-9 -3l-9 3l-9 -3l-9 -1l-3 4l-9 -3l-9 3l-9 -13l-9 9l-3 4l-9 -6l-9 6l-9 -9l-9 5l-3 4l-9 -11l-9 11l-9 -8z" />
    <glyph glyph-name="Q" unicode="Q" horiz-adv-x="550" 
d="M211 517l-5 -15l11 -9l-6 -9l-5 -15l4 -9l1 -9l-5 -16l1 -9l4 -9l-5 -15l10 -9l-5 -9l-5 -15l4 -9l1 -9l-5 -15l4 -9l1 -9l-5 -15l4 -9l1 -9l-5 -16l14 -9l-9 -9l-5 -15l7 -9l-2 -9l-5 -15l10 -9l-5 -9l1 -17l13 -5l-8 -12l11 -6l-1 -10l12 -8l10 2l7 -6h19l15 -1l6 14
l12 -9l7 6l9 3l5 1l-10 12l14 6l-5 10l9 7l-2 10l2 9h5l-9 9l9 9l-9 9l4 9l5 17l-17 9l12 9h5l-16 9l16 9l-12 9l7 9h5l-12 9l12 9l-7 9l2 9l5 17l-2 9l-3 9h5l-6 9l6 9l-1 9l-4 9h5l-2 9l2 9l-15 9l10 9l5 17l-8 9l3 9h5l-18 9l18 9l-14 9l9 9l4 2l-5 8l1 9l-11 7l6 11
l-17 5l8 11l-12 8l-9 1l-8 4l-13 -10l-6 10l-15 1l-5 -16l-13 12l-6 -11l-10 2l-9 -13l14 -14l-19 -3l8 -12zM50 227l4 17l-13 9l9 9h4l-7 9l7 9l-12 9l8 9l4 17l-4 9v9h4l-10 9l10 9l-11 9l7 9l4 17l-15 9l11 9h4v18l-17 9l13 9l4 17l-3 9l-1 9l5 1l-3 9l3 9l-10 9l11 9
l-12 9l8 9l6 10l-1 9l4 9v9l-2 9l6 3l-14 14l20 4l1 8v10l13 13l-3 12l8 6l15 9l-1 14l10 2l17 5l5 9l8 4l3 -4l4 16l13 -10l6 13l10 -3l9 -3l7 16l11 -13l8 9l9 -2l15 -4l9 11l9 -10l9 13l9 -8l15 -5l9 4l9 -5l9 14l9 -10l8 -6l11 13l7 -16l10 7l8 -5v-5h10l8 -6l8 -1h10
l12 -13l10 -1l8 -4l8 -15l10 -3l6 -7l5 -18l18 1l-5 -14l-3 -6l19 -4l-13 -13l17 -4l-7 -12l-3 -11l15 -7l-12 -11l4 -8l3 -9l-4 -1l5 -9l-5 -9l2 -9l-1 -9l16 -9l-11 -9l-4 -17l3 -9l1 -9h-4l14 -9l-14 -9l12 -9l-8 -9l-4 -17l17 -9l-13 -9h-4l14 -9l-14 -9l12 -9l-8 -9
l-4 -17l10 -9l-6 -9h-4l2 -9l-2 -9l9 -9l-5 -9l-4 -17l5 -9l-1 -9l-5 -13v-9l-1 -9l6 -9l-7 -9l3 -9l1 -9l-7 -15l4 -9l-6 -9l2 -9v-9l-4 1l8 -12l-14 -5l1 -9l-3 -9l-9 -4l-1 -10l-6 -7l14 -10l14 11l4 -14l14 -10l9 -2l9 -1l-14 -11l-5 -8l-3 -9l-14 -12l7 -16l-14 -1
l-14 -11l7 -18l-15 1l-4 7h-10l-7 7l-8 3h-10l-4 7l-9 2l-8 6l-11 -3l-7 6l-4 7l-9 3l-8 4l-12 -6l-6 9l-15 4l-9 -5l-9 4l-9 -3l-9 2l-9 -14l-9 8l-15 5l-9 -16l-9 17l-9 -14l-9 10l-8 6l-10 -10l-8 13l-10 -9l-8 7v5l-10 1l-8 5l-10 -2l-8 3l-12 13l-17 -10l-1 15l-8 15
l-15 -2l-1 12l-5 18h-17l4 13l3 6l-3 9l-3 8l-8 7l-2 9l3 12l-11 7l8 11l-7 8v9l4 1l-12 9l12 9l-2 9l1 9l-18 9z" />
    <glyph glyph-name="R" unicode="R" horiz-adv-x="565" 
d="M216 444l8 -6l9 1l9 -3h9l9 -3l11 16l7 -14l10 -3l7 16l11 -13l7 15l10 -8l15 9l7 7l3 9l6 7l-5 10l8 8l-14 11l12 7l4 4l-3 9l-1 9l-16 5l7 11l-10 14l-15 -4l-2 12l-12 7l-11 -14l-7 16l-10 -5l-8 4l-1 4l-9 -4l-9 4l-9 -2l-9 2l-9 -10l-9 6l-4 -16l16 -9l-12 -9
l-4 -15l15 -9l-11 -9l-4 -15l13 -9l-9 -9l-4 -16l3 -9zM64 0l4 15l-4 9v9l4 16l-17 9l13 9l4 15l-4 9v9l4 16l-17 9l13 9l4 15l-11 9l7 9l4 16l-14 9l10 9l4 15l-6 9l2 9l4 15l-7 9l3 9l4 16l-5 9l1 9l4 15l-3 9l-1 9l4 16l-15 9l11 9l4 15l-7 9l3 9l4 16l-3 9l-1 9l4 15
l-13 9l9 9l4 15l-3 9l-1 9l4 16v9l-4 9l4 15l-4 18l4 16l-5 9l1 9l4 15l-4 9v9l4 16l-5 9l1 9l4 15l-10 9l6 9v-4l9 4l9 -4l9 15l9 -11l17 -4l9 14l9 -10v-4l9 14l9 -14l9 5l9 -1v-4l9 2l9 -2l9 4h9l17 -4l9 3l9 1v-4l9 5l9 -5l9 5l9 -1l1 -5l9 11l9 -12l9 5l9 -6l9 11l9 -7
l12 -7l11 9l6 -12l12 12l7 -11l5 -7h9l8 -6l18 -2l1 -6l12 2l3 -11l14 5l4 -11l-2 -4l16 3l-4 -17l17 4l-2 -14l-2 -6l5 -7l3 -8l13 -4v-10l-3 -6l10 -7l-5 -11l7 -7l2 -9l-3 -12l7 -9l-6 -9l6 -18l-5 -7l-2 -18l3 -9l-1 -9l-7 -7l5 -11l-11 -6l13 -14l-15 -4l-10 -7l-4 -8
l-6 -7l5 -14l-12 -3l-14 -6l-4 -10l-10 -2l3 -18l-14 3l3 -14l9 -5l-1 -10l5 -8l8 -6l1 -14l14 -4l-6 -12l11 -5v-10l1 -14l13 -4l-7 -13l10 -6l1 -9v-13l8 -6l-2 -11l17 -3l-7 -12l-2 -11l3 -9l2 -9l16 -5l-7 -11l-2 -10l6 -8l-2 -9l14 -6l-6 -11l-3 -6l7 -7l-4 -10l18 -6
l-10 -11l-4 -3l14 -7l-12 -11l3 -8l4 -9l-16 4h-9l-9 -4l-15 4l-9 -17l-9 13l-16 4l-9 -11l-9 7l-15 4l-9 -17l-9 13l-16 4l-9 -10l-9 6l4 11l-18 7l16 10l-18 8l12 10l3 8l-4 8l2 10l-17 7l10 10l3 8l-9 8l6 10l-15 7l7 10l2 10l-8 8l3 10l-14 5l5 11l1 11l-8 7l2 10l-18 4
l8 12l-1 14l-13 5l6 12l-15 4l4 11l4 3l-5 8l-3 8l-16 2l9 15l-18 1l6 13l-9 5l-10 -14l-8 16l-9 -2l-9 3h-9l-9 -3h-5l12 -9l-12 -9l8 -9l-3 -9l-5 -17l4 -9l1 -9h-5l17 -9l-17 -9l2 -9l3 -9h-5l7 -9l-7 -9l10 -9l-5 -9l-5 -17l17 -9l-12 -9h-5l18 -9l-18 -9l14 -9l-9 -9
h-5l2 -9l-2 -9l12 -9l-7 -9l-5 -17l18 -9l-13 -9h-5l17 -9l-17 -9l8 -9l-3 -9l-4 4l-9 -7l-9 7l-9 -9l-9 5l-3 4l-9 -10l-9 10l-9 -7l-9 3l-4 4l-9 -8l-9 8l-9 -1l-9 -3l-4 4l-9 -10l-9 10l-9 -12z" />
    <glyph glyph-name="S" unicode="S" horiz-adv-x="540" 
d="M489 482v-4l-9 -2l-9 2l-9 -18l-9 13l-1 5l-9 -4l-9 4l-9 -7l-9 2v5l-9 -17l-9 17l-9 -8l-9 3v5l-9 -8l-9 8l-9 -16l-9 11l4 5l-4 9l4 9l-1 9l-3 9l-1 15l-14 4l8 13l-17 3l7 12l-3 6l-11 -4l-6 9l-13 -10l-4 15l-11 -5l-8 6l-13 1l-5 -19l-13 15l-8 -4l-8 -5l-11 -8
l3 -13l-9 -5l-4 -3l12 -14l8 -15h14l2 -10l7 -12l14 3v-14l11 -1l6 -7l4 -9l10 -1l5 -9l17 9l-2 -19l11 -1l6 -6l-1 -5l17 10l-1 -19l15 8v-18l12 2l3 -11l9 -4l9 -2l7 -11l15 6l-1 -17l15 6l2 -13l2 -9l15 2l-3 -15l7 -6l8 -5v-9h19l-11 -15l12 -4l1 -10l-2 -11l11 -7
l-6 -11l19 -4l-10 -12l-3 -16l16 -8l-15 -10l11 -9l-5 -9l-6 -13l8 -9l-9 -9l6 -9l-3 -9l-6 -6l1 -9l-5 -8l13 -13l-13 -6l-6 -2l6 -13l-14 -3l6 -13l-10 -5l-4 2l2 -14l-14 1l-4 -9l-4 -8l-5 2l-3 -12l-12 2l-3 -11l-9 -3l-7 2l-4 -16l-13 10l-7 -7l-8 -4l-12 2l-8 -5l-9 2
l-7 -13l-10 5l-17 4l-9 -8l-9 7l-18 -6v4l-9 -9l-9 10l-10 -12l-8 13l-10 -12l-8 9l-11 6l-11 -10l-7 13l-11 -13l-7 12l-4 6l-10 -2l-7 9l-10 -2l-8 4l1 5l-8 4l-7 6l-17 -8v15l2 4l-9 3l-3 11l-10 3l-5 7l3 5l-6 7l-2 9l-18 1l6 13l3 9l-18 5l13 12l-18 5l10 12l4 14l-7 9
l6 9l-1 9l-5 9l5 6l-2 9l2 9l-10 9l5 9l5 6l-10 9l10 9l-13 9l8 9l5 -5l9 15l9 -15l9 5h9l5 -5l9 9l9 -9l9 2l9 3l5 -5l9 12l9 -12l9 14l14 -14l9 18l9 -18l9 3l9 2l-5 -3l13 -9l-13 -9l7 -9l-2 -9l-5 -3l17 -9l-17 -9l11 -9l-6 -9l-3 -7l15 -5l-11 -12l9 -7l-5 -11l19 -4
l-10 -12l15 -11l13 9l4 -15l10 1l8 -4h15l7 7l10 -2l6 13l10 -3l6 3l-9 14l16 3l2 9l1 9l1 18l-7 8l-1 9l2 5l-19 -2l8 17h-15l1 12l-10 15l-14 -1v13l-10 3l-6 6l-1 6l-15 -4l1 15l-16 -6l1 17l-17 -8l3 19l-8 4l-9 3l-2 7h-10l-4 10l-17 -7l2 18l-16 -6l-1 13l-9 14h-12
l-2 12l-15 -3l-1 12l-4 12l-8 5l-4 8l-9 4l-6 7l1 7l-8 6l-2 9l-15 1l1 12l4 3l-4 8l-3 9l-7 7l-3 8l2 18l-6 8l-1 9l5 5l-11 10l13 8l-5 9l2 9h5l1 9l4 8l-5 11l6 8l13 12l4 8l1 10l15 9l-6 19l16 -3l3 -3l2 14l14 -5l5 9l8 4l6 -3l2 20l15 -13l6 9l9 1l10 -3l8 7l10 -4
l7 11l10 -3l15 -4l9 2l9 -1l8 16l10 -10l1 -5l9 10l9 -10l9 15l9 -16l9 7l9 -3l10 -6l10 6l7 -9l10 3l9 -2l2 -6l11 4l7 -9l13 12l5 -14l12 -13l13 2l5 -8l8 -16l13 -1l2 -10l-4 -3l19 -1l-11 -15l9 -6l3 -8l-3 -7l8 -7l-4 -10l17 -6l-9 -11l-4 -14l16 -8l-15 -10l18 -8
l-12 -10l-5 -10l12 -9l-12 -9z" />
    <glyph glyph-name="T" unicode="T" horiz-adv-x="425" 
d="M131 574l-1 4l-9 -1l-9 1l-9 -9l-9 5l-1 4l-9 -9l-9 9l-9 -12l-9 8l-1 4l-9 -14l-9 14l-9 -4h-9l4 7l-8 9l8 9l-1 9l-3 9l4 6l-11 9l11 9l-13 9l9 9l4 7l-17 9l17 9l-4 18l17 -4l9 12l9 -8l17 -4l9 6l9 -2l17 -4l9 16l9 -12l17 -4l9 10l9 -6l17 -4l9 13l9 -9l16 -4l9 6
l9 -2l17 -4l9 16l9 -12l17 -4l9 13l9 -9l17 -4l9 4h9l17 -4l9 4h9l17 -4l9 10l9 -6l-4 -7l13 -9l-13 -9l1 -9l3 -9l-4 -6l5 -9l-5 -9l16 -9l-12 -9l-4 -7l12 -9l-12 -9l10 -9l-6 -9l-2 4l-9 -4l-9 4l-9 -12l-9 8l-1 4l-9 -14l-9 14l-9 -16l-9 12l-2 4l-9 -1l-9 1l-9 -5l-9 1
l-5 -16l16 -9l-11 -9l-5 -16l15 -9l-10 -9l-5 -15l8 -9l-3 -9l-5 -16l13 -9l-8 -9l-5 -16l3 -9l2 -9l-5 -16l5 -9v-9l-5 -15l3 -9l2 -9l-5 -16l13 -9l-8 -9l-5 -16l1 -9l4 -9l-5 -16l5 -9v-9l-5 -15l5 -9v-9l-5 -16l12 -9l-7 -9l-5 -16l6 -9l-1 -9l-5 -16l2 -9l3 -9l-5 -15
l8 -9l-3 -9l-5 -16l1 -9l4 -9l-5 -16l18 -9l-13 -9l-4 4l-9 -11l-9 11l-9 -5l-9 1l-4 4l-9 -17l-9 17l-9 -7l-9 3l-4 4l-9 -4l-9 4l-9 -9l-9 5l-4 4h-18l-9 -15l-9 11l5 16l-10 9l5 9l5 16l-16 9l11 9l5 15l-8 9l3 9l5 16l-8 9l3 9l5 16l-5 9v9l5 16l-8 9l8 24l-16 9l11 9
l5 16l-9 9l4 9l5 16l-10 9l5 9l5 16l-17 9l12 9l5 15l-6 9l1 9l5 16l-7 9l2 9l5 16l-16 9l11 9l5 16l-16 9l11 9l5 15l-17 9l12 9l5 16l-12 9l7 9l5 16l-5 9v9z" />
    <glyph glyph-name="U" unicode="U" horiz-adv-x="556" 
d="M214 702l-4 -16l5 -9l-1 -9l-4 -17l12 -9l-8 -9l-4 -16v-9l4 -9l-4 -17l8 -9l-4 -9l-4 -16l8 -9l-4 -9l-4 -17l17 -9l-13 -9l-4 -16l3 -9l1 -9l-4 -17l1 -9l3 -9l-4 -16l13 -9l-9 -9l-4 -17l3 -9l1 -9l-4 -16l4 -18l-4 -17l7 -9l-3 -9l-4 -16l13 -9l-9 -9l-4 -17l13 -9
l-9 -9l-4 -16l9 -9l-5 -9v-17l7 -7l-1 -10l17 -4l-8 -12l12 -8l13 15l4 -19l10 -1l9 1l15 -1l6 14l12 -9l5 14l11 -5l7 8l-6 11l10 6l-10 12l15 5l-14 13l14 6l4 16l-3 9l-1 9l4 15l-10 9l6 9l4 16v9l-4 9l4 16l-15 9l11 9l4 15l-13 9l9 9l4 16l-4 18l4 16l-5 9l1 9l4 15
l-7 9l3 9l4 16l-8 9l4 9l4 16l-9 9l5 9l4 15l-15 9l11 9l4 16l-15 9l11 9l4 16l-4 9v9l4 15l-12 9l8 9l4 16l-6 9l2 9l4 -4l9 5l9 -5l9 4h9l4 -4l9 1l9 -1l9 7l9 -3l3 -4l9 12l9 -12l9 7l9 -3l4 -4l9 1l9 -1l9 10l9 -6l-5 -16l12 -9l-7 -9l-5 -16l6 -9l-1 -9l-5 -16l1 -9
l4 -9l-5 -16l1 -9l4 -9l-5 -16l6 -9l-1 -9l-5 -16l18 -9l-13 -9l-5 -16l6 -9l-1 -9l-5 -15l18 -9l-13 -9l-5 -16l11 -9l-6 -9l-5 -16l11 -9l-6 -9l-5 -16l4 -9l1 -9l-5 -16l15 -9l-10 -9l-5 -16l1 -9l4 -9l-5 -16l8 -9l-3 -9l-5 -1l15 -9l-15 -9l2 -9l-3 -9l8 -9l-4 -9
l-6 -11l7 -10l-10 -8l11 -11l-10 -7l-5 -2l3 -11l-9 -6l3 -11l-4 -8l-4 2l3 -13l-12 -3l-1 -10l-4 -8l-14 -8l6 -19l-16 3l-17 -5l1 -19l-14 6l-4 3l-7 -4l-10 -2l-6 -9l-9 -1l-9 3l-9 -3h-9l-6 -18l-11 11l-14 4l-9 -16l-9 15l-9 -11l-9 6l-14 5l-9 -4l-9 5l-9 -10l-9 6
l-7 6l-10 -5l-8 8l-9 -4l-9 2v5l-10 -2l-8 8l-12 -10l-6 11l-12 13l-12 -3l-6 8l-8 15l-12 2l-4 8l-5 18l-6 7l-7 6l3 6l-17 4l12 13l-14 6l4 10l2 12l-17 6l14 12l-4 8l-3 9l4 1l-14 9l14 9l-6 9l5 9l-11 9l6 9l4 16l-1 9l-3 9l4 16l-1 9l-3 9l4 16v9l-4 9l4 16l-8 9l4 9
l4 16l-8 9l4 9l4 16l-4 9v9l4 15l-5 9l1 9l4 16l-6 9l2 9l4 16l-12 9l8 9l4 16l-5 9l1 9l4 16v9l-4 9l4 16l-11 9l7 9l4 16l-8 9l4 9l4 16l-4 9v9l4 -4l9 14l9 -14l9 11l9 -7l4 -4l9 7l9 -7l9 13l13 -13l9 17l9 -17l9 5l9 -1l4 -4l9 8l9 -8l9 15z" />
    <glyph glyph-name="V" unicode="V" horiz-adv-x="509" 
d="M32 702l4 -4l9 12l9 -12l9 14l9 -10l4 -4l9 1l9 -1l9 5l9 -1l4 -4l9 7l9 -7l9 1l9 3l4 -4l9 5l9 -5l9 16l9 -12l-4 -16l4 -18l-4 -16l7 -9l-3 -9l-4 -16l14 -9l-10 -9l-4 -15l11 -9l-7 -9l-4 -16l3 -9l1 -9l-4 -16l9 -9l-5 -9l-4 -7l14 -9l-14 -9l2 -9l-2 -9l2 -9l-2 -9
l17 -9l-13 -9l-4 -11l12 -9l-12 -9v-9l4 -9l-4 -7l13 -9l-12 -9l16 -8l-11 -10l-4 -7l18 -7l-16 -11l6 -8v-9l-3 -8l7 -8l-4 -10l7 -8l1 -9l-2 -10l14 -6l-10 -12l3 -8l6 -8v-14l11 -6l-5 -11l11 -6l-1 -10l-3 -4l20 -2l-13 -15l6 -7v-10l5 -8l6 -7l5 1l-9 14l16 3v10l7 7
l2 9l1 9l9 12l-5 11l11 7l-10 12l11 6l7 8l-11 12l16 5l-8 12l8 7l6 6l-4 9l6 9l-13 11l12 7l5 7l-16 11l18 7v9l-2 9l5 7l-11 9l12 9l-12 9l8 9l4 11l-8 9l8 9l-12 9l8 9l4 6l-16 9l16 9l-3 9l3 9l-10 9l10 9v9l-4 9l4 16l-15 9l11 9l4 16l-13 9l9 9l4 15l-4 18l4 16l-5 9
l1 9l4 16l-7 9l3 9l4 16l-8 9l4 9l4 -4l9 9l9 -9l9 15l9 -11l4 -4l9 15l9 -15l9 4h9l3 -4l9 12l9 -12l9 6l9 -2l4 -4l9 5l9 -5l9 4h4l2 -9l-2 -9l8 -9l-3 -9l-5 -17l13 -9l-8 -9l-5 -17l8 -9l-3 -9h-5l2 -9l-2 -9l11 -9l-6 -9h-5l12 -9l-12 -9l6 -9l-1 -9l-5 -17l1 -9l4 -9
l-5 -13l1 -9l-1 -9l6 -9l-1 -9l-5 -10l17 -10l-18 -8l5 -9l-1 -9l-5 -9l17 -10l-18 -8l10 -9l-6 -9l-5 -8l10 -10l-12 -8l3 -9v-9l-5 -5l13 -11l-16 -7l-1 -8l3 -10l-6 -5l6 -10l-9 -7l13 -12l-12 -7l-5 -3v-9l-5 -8l6 -11l-6 -8l-6 -2l6 -12l-11 -6l9 -12l-11 -6l-6 -3
l2 -11l-10 -6l2 -10l-5 -8l-6 -2l3 -13l-12 -3l-1 -10l-4 -8l-8 -4l10 -17l-20 2l9 -16l-15 -1l-9 -5l-4 -8l-8 -6v-11l-7 -6v4l-9 -1l-9 1l-9 -17l-9 13v4l-9 -15l-9 15l-9 -10l-9 6l-17 4l-9 -4h-9v4l-9 -10l-9 10l-9 -6l-9 2v4l-9 -4l-9 4l-9 -4h-9l-2 10l-16 -1l5 16
l-12 2l-3 9v9l-11 3l1 12l-14 12l1 7l-17 1l9 15l-14 3l1 11l2 6l-18 2l11 14l-6 7l-5 8l3 6l-17 4l11 13l-8 7l-2 9l3 5l-12 6l8 12l-4 8l-5 8l3 6l-3 8v9l-2 9l-6 8l4 7l-10 8l7 10l-9 8l2 9l4 7l-6 9l5 9l-6 9v9l4 9l-7 9l6 9l-13 9l7 9l4 11l-5 9l5 9l-1 9l-4 9l4 12
l-11 9l11 9l-8 9l4 9l4 17l-4 9v9h4l-14 9l14 9l-11 9l7 9h4l-7 9l7 9l-13 9l9 9l4 17l-17 9l13 9l4 17l-5 9l1 9h4l-8 9l8 9l-15 9z" />
    <glyph glyph-name="W" unicode="W" horiz-adv-x="794" 
d="M629 0l-1 4l-9 -16l-9 16l-9 -15l-9 11l-1 4l-9 -13l-9 13l-9 -17l-9 13l-1 4l-9 -10l-9 10l-9 -4h-9l-1 4l-9 -5l-9 5l-9 -4h-9l1 7l-12 3l4 12l-18 1l5 13v11l-18 2l11 14l-9 7l-3 8l4 2l-16 3l9 14l-6 7l-1 9l-8 7l-3 8v14l-8 6l2 10l-11 6l5 11l-11 6l1 10l-9 -11
l9 -13l-16 -4l4 -11l-11 -6l13 -14l-15 -4l-5 1l6 -12l-12 -5l8 -13l-15 -4l12 -15l-15 -3l-9 -8l11 -15l-19 -1l7 -14l-11 -4l-6 -1l10 -16h-18l3 -12l-8 -6l-1 4l-9 -1l-9 1l-9 -13l-9 9l-2 4l-9 -10l-9 10l-9 -7l-9 3l-1 4l-9 -11l-9 11l-9 -4h-9l-1 4l-9 -2l-9 2l-9 -16
l-9 12l-2 10h-15l4 15l-17 -2l2 13v9h-16l6 15l-6 6l-8 6l1 7l-12 4l4 12l-19 1l6 13l2 6l-4 8l-3 8l-12 5l1 10l3 6l-19 4l13 13l-10 16l3 5l-13 6l9 12l-14 5l5 11l3 6l-1 8l-2 9l-11 7l3 10l4 7l-11 8l8 10l-13 7l6 10l4 7l-15 8l14 10l-14 8l8 10l4 9l-1 9v9l-15 8l9 10
l4 11l-13 9l13 9l-3 9l-2 9l4 12l-3 9l3 9l-14 9l10 9l4 17l-17 9l13 9h4v18l-1 9l-3 9h4l-4 9l4 9l-4 9v9l4 17l-10 9l6 9l4 17v9l-4 9h4l-8 9l8 9l-3 9l-1 9l3 -4l9 9l9 -9l9 14l9 -10l3 -4l9 11l9 -11l9 9l9 -5l4 -4l9 17l9 -17l9 1l9 3l3 -4l9 4l9 -4l9 6l9 -2l-5 -16
l3 -9l2 -9l-5 -16l8 -9l-3 -9l-5 -16l2 -9l3 -9l-5 -15l18 -9l-13 -9l-5 -16l4 -9l1 -9l-5 -16l3 -9l2 -9l-5 -13l8 -9l-8 -9l17 -9l-17 -9l12 -9l-12 -9l16 -9l-11 -9l-5 -9l7 -9l-7 -9l17 -9l-12 -9l-4 -7l15 -9l-14 -9l10 -9l-5 -9l-4 -6l15 -7l-13 -11l6 -8l1 -9l-3 -6
l8 -8l-5 -10l11 -7l-4 -10l-2 -10l11 -6l-6 -11l18 -4l-9 -12v-13l12 -6l-6 -11l20 -3l-10 -13l-3 -4l14 -4l-7 -13l19 -1l-12 -15l8 -2l-1 1l16 2l-4 12l12 5l-2 10l5 8l9 12l-5 11l11 6l-4 11l6 7l7 7l-5 11l9 6l-4 11l5 8l6 6l-1 9l3 9l-4 9l3 9l5 5l-5 9l7 9l-11 10l9 8
l5 7l-2 9l3 9l-3 9l-1 9l5 10l-5 9l5 9l-10 9l5 9l5 11l-3 9l3 9l-12 9l12 9l-9 9l9 9l-10 9l5 9l5 16l-8 9l3 9l5 16l-13 9l8 9l5 15l-2 9l-3 9l5 16l-16 9l11 9l5 16l-10 9l5 9l5 16l-4 9l-1 9l3 -4l9 8l9 -8l9 9l9 -5l2 -4l9 7l9 -7h9l9 4l3 -4l9 1l9 -1l9 15l9 -11l3 -4
l9 6l9 -6l9 10l9 -6l-4 -16l4 -18l-4 -16l15 -9l-11 -9l-4 -16l17 -9l-13 -9l-4 -15l10 -9l-6 -9l-4 -16l4 -9v-9l-4 -16l3 -9l1 -9l-4 -3v-18l8 -9l-8 -9l13 -9l-9 -9l-4 -8l8 -9l-8 -9l12 -9l-8 -9l-4 -5l11 -9l-10 -9l9 -9l-4 -9l-4 -4l14 -8l-13 -10l1 -9l5 -9l-4 -5
l9 -8l-7 -10l16 -7l-9 -10l-3 -6l3 -8v-9l14 -7l-6 -10l-2 -9l9 -6l-4 -11l17 -4l-8 -12l-1 -11l9 -7l-3 -10l10 -7v-9l2 -17l9 -6l-1 -10l18 -2l-7 -13l5 1l2 10l5 7l3 9l4 8l-8 13l11 5l9 12v9l6 8l-13 14l15 4l7 8l-4 11l9 6l1 9l-1 10l6 7l-16 11l19 7l-11 10l9 8l5 6
l-15 11l17 7l-16 11l14 7l5 8l-1 9l2 9l-4 9v9l5 11l-5 9l5 9l-18 9l13 9l5 4l-2 9l2 9l-7 9l7 9l-15 9l15 9l-18 9l13 9l5 16l-2 9l-3 9l5 16l-18 9l13 9l5 15l-14 9l9 9l5 16l-3 9l-2 9l5 16l-1 9l-4 9l5 16l-11 9l6 9l3 -4l9 10l9 -10l9 6l9 -2l4 -4l9 4l9 -4h9l9 4l3 -4
l9 6l9 -6l9 10l9 -6l3 -4l9 17l9 -17l9 9l9 -5h-4l15 -9l-15 -9v-9l4 -9l-4 -17l1 -9l3 -9l-4 -17l8 -9l-4 -9h-4l8 -9l-8 -9l11 -9l-7 -9h-4l6 -9l-6 -9l10 -9l-6 -9l-4 -17l17 -9l-13 -9l-4 -13l2 -9l-2 -9l9 -9l-5 -9l-5 -10l16 -10l-17 -8l11 -9l-7 -9l-5 -9l7 -9l-8 -9
l7 -9l-3 -9l-5 -7l6 -9l-8 -9l17 -10l-14 -8l-5 -6l6 -10l-9 -8l12 -10l-15 -12l12 -11l-15 -6l11 -12l-10 -7l-6 -4l5 -11l-10 -6l12 -13l-12 -6l-6 -2l1 -10l-6 -8l12 -13l-14 -5l-6 -3l1 -11l-9 -6l8 -13l-11 -5l-6 -2l6 -13l-15 -3l12 -16l-16 -2l-8 -4l9 -16l-19 1v-10
l-6 -7l-9 -5v-11l-12 -3l8 -18zM258 103l-3 5l-2 -5h5z" />
    <glyph glyph-name="X" unicode="X" horiz-adv-x="541" 
d="M45 702l4 -4l9 11l9 -11l18 4l3 -4l9 7l9 -7l9 12l9 -8l4 -4l9 15l9 -15l9 15l9 -11l4 -4l9 1l9 -1l9 4h9l-4 -3l4 -18l-4 -9l7 -9l-7 -9l15 -9l-15 -9l11 -9l-6 -9l-4 -1l10 -9l-9 -9l9 -9l-8 -9l16 -8l-10 -10l-3 -12l8 -8l-6 -10l16 -7l-9 -10l-3 -8l19 -5l-15 -12
l3 -9l5 -8l-3 -5l14 -5l-9 -12l8 -7l2 -9l-3 -4l14 -4l-7 -12l8 -6l3 -9l-2 -5l7 -6l1 -10l8 -6l4 -8l-8 -7l1 -10l-7 -7l9 -13l-12 -5l-6 -4l8 -12l-14 -5l-2 -9v-9h-5l3 -11l-9 -7l8 -12l-9 -6l-5 -1l9 -11l-13 -6l2 -10l-1 -9l-5 -4l13 -11l-16 -6l-2 -9l3 -10l-5 -7
l9 -10l-11 -8l3 -9v-9l-5 -14l11 -9l-12 -9l3 -9l1 -9l-5 -4l13 -9l-13 -9l3 -9l-3 -9l1 -9l3 -9l-4 -3l14 -9l-10 -9l-4 4l-9 -13l-9 13l-9 -13l-13 13l-9 -2l-9 2l-18 -4l-3 4l-9 -11l-9 11l-9 -13l-13 13l-9 -9l-9 9l-9 -13l-9 9l5 2l-7 9l2 9l5 12l-4 9l4 9l-14 9l14 9
l-4 9v9l5 4l-4 9l5 9l-14 10l15 8l-3 9v9l6 16l-13 10l15 8l-2 18l6 9l-1 9l4 8v10l-1 9l6 6l-8 11l13 6l-6 11l6 8l5 2l-13 14l19 3l-12 14l13 5h5l-13 15l19 2l-8 13l11 5l5 -1l-11 15l18 2l-9 13l12 5l-4 18l-5 8l-7 6l2 7l-16 3l9 13l-4 8l-7 7l1 12l-13 6l7 11l-6 8
l-4 8l1 17l-13 6l9 12l-7 7l-2 9l4 6l-4 9l1 9l-14 7l11 11l-17 6l10 11l4 12l-1 9v9l-13 9l12 9l-3 9l-2 9l5 3l-10 9zM496 702l-4 -3l1 -9l3 -9l-5 -12l3 -9l-4 -9l18 -10l-19 -8l9 -9l-5 -9l-5 -5v-9l-3 -9l2 -9l-5 -9l13 -11l-11 -7l-8 -15v-9l-4 -8l5 -11l-5 -8l-8 -9
l5 -12l-11 -6l8 -12l-9 -6l-6 -3v-10l-7 -7l6 -12l-9 -6l-12 -14l6 -13l-10 -5l-4 -3l16 -3l-8 -13l19 -2l-8 -13l-4 -3l5 -8l2 -9l17 -3l-6 -12l-3 -5l10 -6l-5 -11l14 -5l-4 -11l-3 -8l6 -8l-2 -10l9 -7v-9l-2 -11l7 -7l-4 -10l10 -7l-2 -10l-3 -17l7 -8l-5 -10l4 -8l3 -9
l-4 -4l7 -9l-6 -9l2 -9l-1 -9l12 -9l-6 -9l-4 -12l13 -9l-13 -9l7 -9l-7 -9l16 -9l-11 -9l-4 -2l16 -9l-12 -9l-4 4l-9 -11l-9 11l-9 -3l-9 -1l-4 4l-9 -8l-9 8l-9 -9l-9 5l-3 4l-9 -4l-9 4l-9 -16l-9 12l-4 4l-9 -3l-9 3l-9 -3l-9 -1l5 3l-4 9l-1 9l4 4l-2 9l2 9l-9 9l9 9
l-14 9l9 9l4 14l-7 9l6 9l-16 9l11 9l4 8l-4 8l2 10l-11 7l4 10l4 5l-13 7l10 11l-2 9l-5 8l4 3l-7 8l3 10l-15 5l6 11l4 3l-13 6l7 11l-7 7l-3 9l2 7l-14 4l8 13l-16 3l6 12l1 10l-15 4l8 13l-8 7l-3 8l6 1l-10 15l18 1v10l4 8h5l-9 15l17 2l-13 15l16 3l5 2l-1 10l7 7
l-12 14l13 5l6 6l-11 11l15 6l-15 13l14 6l6 11l-6 10l8 8l-4 9l2 9l5 1l-4 9l5 9l-7 9l8 9l-7 9l4 9l5 9l-6 9l6 9l-8 9l8 9l-17 9l13 9l5 3l-11 9l6 9l4 -4l9 1l9 -1l9 1l9 3l3 -4l9 1l9 -1l9 9l9 -5l4 -4l9 1l9 -1l9 6l9 -2l4 -4l9 9l9 -9z" />
    <glyph glyph-name="Y" unicode="Y" horiz-adv-x="457" 
d="M148 0l4 3l-6 9l6 9l-16 9l16 12l-2 9l2 9l-9 9l5 9l4 3l-11 9l11 9v9l-4 9l4 3l-5 9l5 9l-12 9l8 9l4 3l-10 9l10 9l-4 9v9l-1 9l-14 1l5 14h-17l3 13v10l-16 2l7 14l-9 5l-4 8v10l-18 2l11 15l-8 6l-4 8v11l-17 2l10 14l-20 1l9 14l1 10l-7 8l1 9l-18 4l8 12l1 12
l-15 5l10 12l-18 4l9 12l2 13l-10 7l5 10l-7 8l-1 9l2 13l-6 8l3 10l-9 8l1 9l3 14l-9 8l7 10l-7 8v9l3 14l-9 9l8 9l-18 8l12 10l4 15l-10 9l10 9l-1 9l-4 9v15l4 -4l9 1l9 -1l9 1l9 3l4 -4l9 9l9 -9l9 1l9 3l4 -4l9 6l9 -6l9 9l9 -5l4 -4l9 2l9 -2l9 11l9 -7l-4 -3l3 -9
l-3 -9l9 -9l-8 -9l13 -9l-8 -9l-4 -17l17 -8l-16 -10l16 -8l-10 -10l-3 -15l2 -8v-10l5 -8l1 -9l-3 -12l3 -8l-1 -10l8 -8l-2 -9l-3 -8l16 -7l-13 -11l11 -7l-4 -10l-3 -6l11 -6l-8 -11l10 -7l-2 -10l-4 -3l17 -4l-12 -13l9 -7v-9l1 -17l18 -3l-7 -12l2 -14l19 -2l-8 -13
l10 11l2 8l1 10l9 14l-9 13l10 6h5l-3 10l8 7l-9 12l9 7l5 4l-3 10l7 7l-2 10l1 9l6 7l-3 9l6 9l-3 9l1 9l6 10l-13 10l15 8l-11 10l8 8l6 14l-1 9l2 9l-5 9l2 9l5 17l-11 9l12 9l-10 9l7 9l5 3l-3 9l3 9l-15 9l16 9v9l-4 9l3 -4l9 10l9 -10l9 4h9l4 -4l9 11l9 -11l18 4
l3 -4l9 13l9 -13l9 3l9 1l3 -4l9 1l9 -1l9 14l9 -10l-4 -16l13 -9l-9 -9l-5 -11l14 -9l-14 -9l4 -18l-5 -10l1 -9l-3 -9l11 -10l-8 -8l-6 -11l13 -10l-15 -8l8 -10l-6 -8l-6 -9l11 -11l-15 -6l5 -11l-4 -8l-7 -9l2 -10l-6 -7l12 -13l-12 -6l-7 -8l2 -10l-7 -7l1 -10l-2 -9
l-7 -8l10 -13l-16 -4l1 -9l-3 -9l-8 -6l10 -14l-17 -3l-1 -9l-2 -9l-8 -6l-1 -9l-6 -7l-4 -18l-8 -5l4 -13l-13 -3l3 -12l-8 -6l-8 -4l9 -16l-19 1l8 -16l-14 -1l-4 -3l17 -9l-17 -9l12 -9l-8 -9l-4 -3l15 -9l-15 -9l13 -9l-9 -9l-4 -3v-18l13 -9l-9 -9l-4 -3v-18l10 -9
l-6 -9l-4 -3l3 -9l-3 -9l11 -9l-7 -9l-4 4l-9 -4l-9 4l-9 -1l-9 -3l-4 4l-9 -12l-9 12l-9 -15l-9 11l-4 4h-18l-9 -12l-9 8l-4 4l-9 -3l-9 3l-9 -9z" />
    <glyph glyph-name="Z" unicode="Z" horiz-adv-x="448" 
d="M252 568l-1 4l-6 -8zM247 550l-4 12l-1 -1l-9 11l-9 -13l-9 9v4l-9 -14l-9 14l-9 -3l-9 -1l-1 4l-9 -11l-9 11l-9 -1l-9 -3l-1 4l-9 -2l-9 2l-9 -17l-9 13v4l-9 -7l-9 7l-9 -10l-9 6l-1 4l-9 -16l-9 16l-9 -10l-9 6l4 16l-15 9l11 9l4 15l-8 9l4 9l4 15l-7 9l3 9l4 16
l-13 9l9 9l17 -4l9 10l9 -6v-4l9 7l9 -7h9l9 4l17 -4l9 9l9 -5v-4l9 4l9 -4l9 12l9 -8l17 -4l9 8l9 -4v-4l9 16l9 -16l9 6l9 -2l17 -4l9 1l9 3v-4l9 8l9 -8l9 11l9 -7l17 -4l9 9l9 -5v-4l9 4l9 -4l9 11l9 -7l17 -4l18 4l-4 -17l15 -9l-11 -9l-4 -17l14 -9l-10 -9h-4l2 -9
l-2 -9l6 -9l-2 -9l-4 -17v-9l4 -9l-12 -13l4 -13l-9 -5l-12 -12l1 -11l-6 -7l-12 -13l-3 -8l-1 -10l-12 -12l6 -14l-11 -4l-12 -13l11 -17l-16 -1l-12 -12l5 -14l-10 -4l-12 -13l3 -12l-8 -6l-12 -13l7 -13l-11 -5l-12 -12l5 -13l-10 -5l-12 -13l7 -14l-12 -4l-12 -12l3 -12
l-8 -6l-12 -13l6 -13l-10 -5l-12 -12l-1 -10l-4 -8l-12 -13l-4 -8l-1 -10l1 -5l9 2l9 -2l9 13l9 -8l2 -5l9 9l9 -9l9 3l9 2l2 -5l9 10l9 -10l9 5h9l1 -5l9 14l9 -14l9 5h9l1 -5l9 6l9 -6l9 5h9l2 -5l9 15l9 -15l9 17l9 -12l-4 -15l7 -9l-3 -9l-4 -16v-9l4 -9l-4 -15l4 -9v-9
l-4 -15v-9l4 -9l-16 4l-9 -9l-9 5l-16 4l-9 -15l-9 11l-16 4l-9 -8l-9 4l-15 4l-9 -11l-9 7l-16 4l-9 -16l-9 12l-16 4l-9 -14l-9 10l-16 4l-9 -12l-9 8l-16 4l-9 -3l-9 -1l-15 4l-9 -5l-9 1l-16 4l-9 -17l-9 13l-16 4h-9l-9 -4l-16 4l-9 -7l-9 3l4 6v18l-5 9l1 9l4 5l-14 9
l14 9l-15 9l11 9l4 6l-7 9l7 9l-17 9l13 9l12 12l4 18l12 11l2 9l3 9l11 12l2 9l3 9l12 11l-2 12l7 6l12 12l-7 14l11 4l11 11l-10 16l15 2l12 12v10l5 8l11 11l-8 15l13 3l12 12l2 9l3 9l11 11l-10 16l15 2l11 12l3 9l2 9l12 11l-10 16l15 2l11 12l-7 14l12 4l12 11l3 9
l2 9z" />
    <glyph glyph-name="bracketleft" unicode="[" horiz-adv-x="318" 
d="M58 -60l4 15l-16 9l12 9l4 15l-6 9l2 9l4 15l-1 9l-3 9l4 16l-8 9l4 9l4 15l-11 9l7 9l4 15l-9 9l5 9l4 15l-4 9v9l4 15l-11 9l7 9l4 15l-4 18l4 15l-15 9l11 9l4 15l-14 9l10 9l4 16l-4 18l4 15l-6 9l2 9l4 15v9l-4 9l4 15l-9 9l5 9l4 15l-5 9l1 9l4 15v9l-4 9l4 15
l-12 9l8 9l4 15l-17 9l13 9l4 16l-11 9l7 9l4 15l-9 9l5 9l4 15l-11 9l7 9l4 15l-10 9l6 9l16 -4l9 13l9 -9l16 -4l9 8l9 -4l15 -4l9 11l9 -7l16 -4l9 3l9 1l16 -4h9l9 4l15 -4l9 1l9 3l16 -4l9 12l9 -8l16 -4l9 8l9 -4l-4 -4l2 -9l-2 -9l9 -9l-5 -9l-4 -4l4 -9l-4 -9l13 -9
l-9 -9l-4 4l-9 -4l-9 4l-9 -5l-9 1l-3 4l-9 -4l-9 4l-9 -14l-9 10l-4 4l-9 -16l-9 16l-9 -7l-9 3l-5 -15l1 -9l4 -9l-5 -16l5 -9v-9l-5 -15l1 -9l4 -9l-5 -16l10 -9l-5 -9l-5 -15l16 -9l-11 -9l-5 -16l9 -9l-4 -9l-5 -15l12 -9l-7 -9l-5 -16l17 -9l-12 -9l-5 -15l15 -9
l-10 -9l-5 -15l13 -9l-8 -9l-5 -16l4 -9l1 -9l-5 -15l6 -9l-1 -9l-5 -16l18 -9l-13 -9l-5 -15l1 -9l4 -9l-5 -16l8 -9l-8 -24l1 -9l4 -9l-5 -16l6 -9l-1 -9l-5 -15l15 -9l-10 -9l4 -4l9 15l9 -15l9 7l9 -3l3 -4l9 17l9 -17l18 4l4 -4l9 2l9 -2l18 4l-4 -4l7 -9l-7 -9l12 -9
l-8 -9l-4 -4l16 -9l-16 -9l4 -9v-9l-16 4l-9 -13l-9 9l-16 4l-18 -4l-15 4l-9 -16l-9 12l-16 4l-18 -4l-16 4l-9 -16l-9 12l-15 4l-9 -13l-9 9l-16 4l-18 -4l-16 4l-9 -11z" />
    <glyph glyph-name="backslash" unicode="\" horiz-adv-x="334" 
d="M43 710l2 -16l19 -2l-7 -13l3 -17l9 -6l3 -8l2 -16l16 -3l-4 -12l2 -16l8 -7l4 -8l3 -17l17 -2l-5 -12l2 -16l17 -3l-5 -12l2 -16l6 -8l6 -7l3 -17l17 -2l-5 -12l2 -16l18 -3l-6 -12l2 -16l20 -1l-8 -14l3 -17l15 -3l-3 -11l2 -16l18 -2l-6 -13l2 -16l20 -2l-8 -13l3 -16
l5 -8l7 -6l2 -16l10 -6l2 -9l3 -17l13 -4l-1 -10l2 -16l8 -7l4 -8l2 -16l18 -3l-6 -12l3 -17l12 -4v-10l2 -16l12 -5v-10l2 -16l16 -4l-4 -11l3 -17l15 -3l-3 -11l2 -16l5 -8l7 -7l2 -16l16 -4l-4 -11l3 -17l7 -6l5 -8l2 -16l18 -2l-6 -13l-5 5l-9 -5l-9 5l-9 -18l-9 13
l-5 5l-9 -1l-9 1l-9 -4l-9 -1l-2 16l-11 5l-1 10l-3 17l-14 3l2 11l-2 16l-4 9l-8 6l-2 16l-14 4l2 11l-3 17l-10 5l-2 9l-2 16l-12 5v10l-2 16l-20 1l8 14l-2 16l-14 4l2 11l-3 17l-5 7l-7 7l-2 16l-18 3l6 12l-2 16l-17 3l5 12l-3 17l-8 6l-4 8l-2 16l-12 5v10l-2 16
l-12 14l-3 17l-11 5l-1 9l-2 16l-6 8l-6 7l-2 16l-11 6l-1 9l-3 17l-7 6l-5 8l-2 16l-5 8l-7 7l-2 16l-12 5v10l-2 16l-19 2l7 13l-3 17h-20l8 14l-2 16l-16 3l4 12l-2 16l-13 5l1 10l-3 17h-20l8 14l-2 16l-21 1l9 14l4 -4h18l18 4l5 -4l9 16l9 -16l9 3z" />
    <glyph glyph-name="bracketright" unicode="]" horiz-adv-x="318" 
d="M259 702l-5 -15l3 -9l2 -9l-5 -15l1 -9l4 -9l-5 -15l13 -9l-8 -9l-5 -16l4 -9l1 -9l-5 -15l9 -9l-4 -9l-5 -15l13 -9l-8 -9l-5 -15l16 -9l-11 -9l-5 -15l3 -9l2 -9l-5 -15l2 -9l3 -9l-5 -15l8 -9l-8 -24l16 -9l-11 -9l-5 -16l2 -9l3 -9l-5 -15l18 -9l-13 -9l-5 -15l12 -9
l-7 -9l-5 -15l18 -9l-13 -9l-5 -15l12 -9l-7 -9l-5 -15l16 -9l-11 -9l-5 -15l16 -9l-11 -9l-5 -15l5 -9v-9l-5 -16l13 -9l-8 -9l-5 -15l5 -9v-9l-5 -15l15 -9l-10 -9l-5 -15l15 -9l-10 -9l-16 4l-18 -4l-15 4l-9 -14l-9 10l-16 4l-9 -14l-9 10l-16 4l-9 -17l-9 13l-15 4
l-9 -12l-9 8l-16 4l-9 -15l-9 11l-15 4l-9 -16l-9 12l-16 4h-9l-9 -4l4 4l-5 9l5 9l-9 9l5 9l4 4l-4 9l4 9l-14 9l10 9l4 -4l9 8l9 -8l9 8l9 -4l3 -4l9 12l9 -12l9 12l9 -8l4 -4h18l9 12l9 -8l5 15l-4 9l-1 9l5 16l-15 9l10 9l5 15l-5 9v9l5 16l-18 9l13 9l5 15l-1 9l-4 9
l5 16l-4 9l-1 9l5 15l-8 9l3 9l5 16l-12 9l7 9l5 15l-1 9l-4 9l5 15l-11 9l6 9l5 16l-8 9l8 24l-9 9l4 9l5 16l-18 9l13 9l5 15l-12 9l7 9l5 16l-2 9l-3 9l5 15l-15 9l10 9l5 16l-15 9l10 9l5 15l-5 9v9l-4 4l-9 -8l-9 8l-18 -4l-3 4l-9 -7l-9 7l-9 -1l-9 -3l-4 4l-9 -7
l-9 7l-9 -3l-9 -1l4 4l-1 9l1 9l-8 9l4 9l4 4l-16 9l16 9l-17 9l13 9l16 -4l9 12l9 -8l15 -4l9 9l9 -5l16 -4l9 17l9 -13l15 -4l9 17l9 -13l16 -4h9l9 4l16 -4l18 4l15 -4l9 16l9 -12l16 -4l9 3z" />
    <glyph glyph-name="asciicircum" unicode="^" horiz-adv-x="763" 
d="M99 450l14 11l3 10l5 7l4 -3l-1 13l12 1l-4 15l12 2l14 11l-6 17h14l14 11l4 8l4 9l14 11l5 8l3 9l4 -3v12l11 2l-6 17h14l14 11l5 8l3 9l14 11l-8 18l16 -1l4 -3l-3 14h14l-7 18l15 -1l14 11l-3 14l11 3l3 -4l9 15l9 -15l9 15l9 -11l4 -4l9 4l9 -4l9 12l9 -8l3 -4l9 4
l9 -4l9 14l9 -10l7 -17l17 2l-2 -13l-3 -3l7 -6l4 -8l17 2l-2 -13l7 -17l18 2l-3 -13l-3 -3l19 4l-8 -18l15 1v-12l7 -17l18 3l-3 -14l-3 -3l18 4l-7 -18l6 -6l9 -5l7 -17l11 -3l4 -8l-3 -3l13 -1l-2 -13l9 -4l6 -7l7 -17l18 2l-3 -13l-3 -3l12 -2l-1 -12l13 -1l1 -6l-9 -12
l-9 12l-9 -12l-9 8v4h-18l-9 -12l-9 8l-1 4l-9 -3l-9 3l-9 -14l-9 10l3 3l-9 4l-3 9l-19 -6l3 16l3 3l-12 14l-8 4l-7 6l3 3l-12 1v12l-15 -1l-1 11l3 3l-12 14l-14 -1l-1 11l3 3l-11 2l-1 11l-13 1l-3 9l3 3l-19 -5l7 19l-14 -1l-1 11l3 3l-7 6l-5 7l-15 -4h-2l-15 4l-3 -9
l-6 -7l-4 2v-12l-12 -1l-4 -8l-5 -8l-3 3l-1 -11l-12 -2l-5 -8l-4 -8l-3 3l-1 -12l-11 -2l-4 -8l-5 -8l-3 3l-6 -7l-7 -6v-12l-9 -4l-4 2l6 -17l-18 4l7 -18l-16 2l-3 3l3 -15l-16 2l1 -13l-10 -3l-1 4l-9 -17l-9 17l-9 -17l-9 13v4h-18l-18 -4l-1 4l-9 -16l-9 16l-9 -3z
M383 635l-3 3l2 -10z" />
    <glyph glyph-name="underscore" unicode="_" horiz-adv-x="543" 
d="M-6 -193l4 16v9l-4 9l4 17l-12 9l8 9l4 16l-3 9l-1 9l17 -4l9 14l9 -10l16 -4l9 4h9l17 -4l9 17l9 -13l17 -4h9l9 4l16 -4l9 3l9 1l17 -4l9 7l9 -3l17 -4l9 11l9 -7l17 -4h9l9 4l16 -4l9 10l9 -6l17 -4l9 7l9 -3l17 -4l9 8l9 -4l16 -4l9 17l9 -13l17 -4l9 11l9 -7l17 -4
l9 1l9 3l16 -4l9 14l9 -10l17 -4l9 14l9 -10l-5 -16l5 -9v-9l-5 -17l9 -9l-4 -9l-5 -16l3 -9l2 -9l-17 5l-9 -8l-9 3l-16 5l-9 -2l-9 -3l-17 5l-9 -8l-9 3l-17 5l-9 -4l-9 -1l-16 5l-9 -2l-9 -3l-17 5l-9 -9l-9 4l-17 5l-9 -17l-9 12l-16 5l-9 -18l-9 13l-17 5l-9 -13l-9 8
l-17 5l-9 -10l-9 5l-17 5l-9 -18l-9 13l-16 5l-9 -18l-9 13l-17 5l-9 -1l-9 -4l-17 5l-9 -3l-9 -2l-16 5l-9 -17l-9 12l-17 5l-9 -4z" />
    <glyph glyph-name="grave" unicode="`" horiz-adv-x="603" 
d="M260 658l-1 9l-18 -2l7 17l-11 3l-3 9v8l-9 6l-2 9l-8 5l-6 7l-1 9l-11 3v12l-17 -1l3 13l1 -5l9 10l9 -10l9 9l9 -4l2 -5l9 10l9 -10l9 11l9 -6l1 -5l9 8l9 -8l9 11l9 -6l-3 -5l15 -3l-7 -13l14 -4l-3 -11l-3 -4l7 -7v-10l14 -3l-2 -11l-3 -5l7 -7l1 -9l7 -7l4 -8l-5 4
l-9 -17l-9 17l-18 -4l-6 4l-9 -15l-9 15l-9 -5zM0 -357h1v-1h-1v1z" />
    <glyph glyph-name="a" unicode="a" horiz-adv-x="496" 
d="M185 427l-7 5l-9 -2l-9 2l-9 -2l-9 -3l-7 5l-9 -3l-9 3l-9 -1l-9 -4l-7 5l-9 -5l-9 5l-9 -2l-9 -3l4 4l-7 9l7 9l-11 9l7 9l5 7l-4 9l6 9l-1 9l-2 9l4 -1l-13 14l19 3l-1 10l2 9l13 11l2 9l4 8l16 6l-1 16l12 -1l4 -3l3 14l13 -7l5 11h10l8 -3l7 15l11 -12l9 3l8 5l16 -4
l9 12l9 -11l9 8l9 -2l1 -5l10 15l8 -16l10 16l8 -17l9 3l9 1l9 -6l12 13l5 -17l10 3l9 -2l2 -6l11 2l6 -10l15 11l3 -14l-3 -3l13 1l1 -13l15 3l1 -12l-3 -3l14 -2l-5 -14l18 1l-5 -14l-3 -6l17 -5l-12 -13l10 -6l-1 -10l-3 -14l13 -8l-12 -10l4 -9l2 -9l-5 -16l13 -9l-8 -9
l-5 -16l7 -9l-2 -9l-5 -17l16 -9l-11 -9l-5 -16l13 -9l-8 -9l-5 -16l13 -9l-8 -9l-5 -16l6 -9l-1 -9l-5 -17l1 -9l4 -9l-5 -16l11 -9l-6 -9l-5 -16l3 -9l2 -9l-5 -16l7 -9l-2 -9l-5 -17l2 -9l3 -9l-5 -16l4 -9l1 -9l-5 -16l12 -9l-7 -9l-17 4l-9 -4h-9l-16 4l-9 -6l-9 2
l-16 4l-9 -12l-9 8l-17 4l-9 -6l-9 2l5 5l-8 9l8 9l-17 9l17 9l-6 9l1 9l-14 -6l-2 -10l-11 -1l-4 -10l-10 -2l-1 -12l-10 -3h-10v-19l-16 11l-7 -5l-7 -7l-2 4l-8 -4l-10 2l-8 -7h-9l-12 6l-10 -13l-8 15l-10 -7l-8 5l-3 6l-12 -3l-5 11l-12 -5l-6 8l1 6l-13 -1v13l-16 10
l1 9l-14 3l7 13l-18 2l7 13l3 17l-16 7l14 11l-7 8v9l5 9l-1 9l1 9l-1 9l-4 9l5 10l-15 9l15 9l-13 9l8 9l5 4l-14 10l15 8l-9 9l6 9l8 13l-13 13l13 6l10 9l-2 11l6 7l12 6l3 9l6 7l15 5l5 8l7 6l5 -3l4 11l12 -3l1 17l13 -5l10 -1l5 12l12 -5l5 11h10l16 1l6 12l11 -6
l5 13l11 -3l8 -2l6 10l11 -4l5 13l12 -7l5 14l11 -4v16l2 11l-13 6l9 12l-6 7l-3 9l-9 7l-12 -8l-5 13l-10 -1l-9 2l-12 1l-7 -7l-10 2l-4 -19l-12 10l-7 -9v-9l-5 -8l13 -13l-13 -6l-5 -6l6 -9zM298 166l4 15l-14 9l10 9l4 15l-1 9l-3 9l4 16l-5 9l1 9l4 15l-13 9l9 9l4 15
l-14 9l-1 -9l-15 10l-7 -7l-9 -2l-7 -7l-7 -5l-9 -2l-6 -7l-8 -4l-5 -8l-6 -7l-13 -13l3 -12l-8 -6l-5 -5l13 -10l-15 -8l11 -10l-9 -8l-5 -1l11 -9l-11 -9l14 -9l-9 -9v-17l12 -6l-8 -12l14 -6l-5 -10l8 -7l10 1l7 -6l9 -2l10 1l11 -2l3 20l14 -14l8 3l8 6l8 15l-9 11l13 6
l-12 13zM288 332v-9l10 9h-10z" />
    <glyph glyph-name="b" unicode="b" horiz-adv-x="510" 
d="M204 445l-4 -17l14 -9l-10 -9l-4 -17l11 -9l-7 -9l-4 -17l11 -9l-7 -9l-4 -16l1 -9l3 -9l-4 -17l3 -9l1 -9l-4 -17l16 -9l-12 -9l-4 -17v-9l4 -9l-4 -17l14 -9l-10 -9l-1 -17l17 -5l-13 -13l5 -8l4 -8l8 -7l12 7l5 -12l10 1l9 -2l10 -2l5 15l12 -10l5 14l11 -4l8 15l3 9
l2 8l-8 12l8 7l4 17l-17 9l13 9l4 17l-8 9l4 9l4 17l-13 9l9 9l4 17l-11 9l7 9l4 16l-1 9l-3 9l4 17l-6 9l2 9l4 17l-10 9l6 9l4 17l-6 9l2 9v17l-4 8v10l-20 4l11 12l-7 7l-10 -2l-7 7h-10l-9 1l-11 2l-8 -5l-9 -1l-6 -11l-10 2l-8 -15l9 -11l-13 -6l13 -13zM56 0l4 15v9
l-4 9l4 16l-4 9v9l4 15l-5 9l1 9l4 16l-11 9l7 9l4 15l-11 9l7 9l4 16l-16 9l12 9l4 15l-15 9l11 9l4 15v9l-4 9l4 16l-8 9l4 9l4 15l-6 9l2 9l4 16l-9 9l5 9l4 15l-6 9l2 9l4 16l-12 9l8 9l4 15l-17 9l13 9l4 15l-6 9l2 9l4 16l-4 18l4 15l-5 9l1 9l4 16l-8 9l4 9l4 15
l-3 9l-1 9l4 16v9l-4 9l4 15l-12 9l8 9l1 -4l9 15l9 -15l18 4l1 -4l9 12l9 -12l9 12l9 -8l1 -4l9 12l9 -12l9 3l9 1l1 -4l9 14l9 -14l9 17l9 -13h-4l17 -9l-17 -9l9 -9l-5 -9h-4l7 -9l-7 -9l10 -9l-6 -9l-4 -1l14 -9l-14 -9l13 -9l-9 -9h-4v-18l4 -18l9 2l-3 16l16 -4l-1 14
l15 -2l-3 16l13 -1l6 -2l16 8l3 14l11 -2l3 -4l7 17l11 -15l8 8l9 -2l15 -6l10 10l8 -12l9 7l9 -4l2 -5l9 -1l8 -6l9 1l9 -3l9 -13l12 1l4 -10l4 -18l5 -7l7 -7l-4 -4l19 -5l-15 -13l19 -4l-10 -12l-4 -11l12 -9l-11 -9l8 -9l-2 -9l-4 -17l15 -9l-15 -9l5 -9v-9l-4 -2l6 -9
l-6 -9l14 -9l-10 -9l-4 -3l17 -9l-17 -9l13 -9l-9 -9l-4 -2l1 -9l-1 -9l5 -9l-1 -9l-4 -2l17 -9l-17 -9l4 -9v-9l-4 -3v-18l9 -9l-5 -9l-4 -2l9 -9l-9 -9l5 -9l-1 -9l-5 -9l11 -9l-12 -9l15 -10l-16 -8l8 -9l-4 -9l-7 -12l3 -10l-7 -7l8 -12l-8 -7l-6 -1l12 -16h-20l4 -12
l-8 -6l-15 -8l-10 -16l-2 4l-6 -9l-11 2l-8 -5l-7 -6l-6 4l-7 -13l-11 11l-8 -9l-9 3l-9 5l-10 -7l-8 9l-9 -5l-9 3l-8 9l-11 -2l-6 9l-12 -5l-6 8l-8 12l-9 3l-5 8l-10 2l-4 9l-14 -3l-3 11l-5 -3l4 -9l-4 -9l17 -9l-17 -9l14 -9l-9 -9l-16 4l-9 -11l-9 7l-17 4l-18 -4
l-16 4l-9 -13l-9 9l-16 4l-9 -10z" />
    <glyph glyph-name="c" unicode="c" horiz-adv-x="496" 
d="M457 424l-5 -7l7 -9l-7 -9l10 -9l-10 -9l7 -9l-2 -9l-1 5l-9 -13l-9 13l-9 -18l-9 13l-2 5l-9 -7l-9 7l-9 -3l-9 -2l-2 5l-9 -6l-9 6l-9 -9l-9 4l-1 5l-9 -4l-9 4l-9 -1l-9 -4l5 5l-13 9l13 9l-16 9l11 9l5 5l-3 9l3 9l-13 9l8 9v17l-14 6l10 12l-15 5l6 11l-7 7l-10 -1
l-7 6l-13 -12l-6 13l-11 2l-3 -20l-14 14l-4 -19l-12 10l-8 -15l7 -11l-12 -6l5 -11l-5 -8l-4 -17l10 -9l-6 -9l-4 -17l14 -9l-10 -9l-4 -17l13 -9l-9 -9l-4 -16v-9l4 -9l-4 -17l4 -18l-4 -17l14 -9l-10 -9l-4 -17l11 -9l-7 -9l-4 -17l13 -9l-9 -9v-17l4 -18l13 -6l-4 -10
l8 -7l14 13l3 -18l11 5l8 -6l11 -2l5 13l12 -7l7 9h9l8 15v9l4 8l-2 10l2 9l5 5l-10 9l10 9l-2 9l-3 9l5 5l-17 9l17 9l-18 9l13 9l1 -4l9 11l9 -11l9 7l9 -3l2 -4l9 15l9 -15l9 4h9l2 -4l9 6l9 -6l9 14l9 -10l1 -4l9 17l9 -17l9 13l9 -9l-5 -7l2 -9l-2 -9l6 -9l-6 -9l18 -9
l-13 -9l-5 -15l4 -9l-5 -9l-1 -9l4 -9l-6 -7l8 -10l-11 -7l8 -11l-7 -8l-4 1l1 -10l-8 -7l7 -12l-10 -6l-13 -9l6 -17h-14l-16 -6l-2 -12l-10 -2l-3 4l-7 -8l-10 2l-5 -13l-11 3l-9 3l-6 -19l-12 16l-7 -10l-10 2l-16 4l-9 -3l-9 2l-9 -6l-9 1l-16 5l-9 -1l-9 2l-9 -12l-9 8
l-8 6l-10 -6l-7 9l-11 -7l-8 6v5l-11 -3l-7 9l-10 -3l-8 4l-11 13l-13 -2l-4 9l-6 15l-8 5l-7 6l4 2l-8 7l1 10l-14 4l3 11l3 8l-5 9l2 9l-19 6l11 11l4 15l-14 9l13 9l-12 9l6 9l5 16l-3 9l-2 9l5 16l-14 9l9 9l5 16l-11 9l6 9l5 15l-15 9l10 9l5 16l-12 9l7 9l5 16l-12 9
l7 9l5 16l-2 9l-3 9l5 15l-3 9l4 9l-16 10l13 8l6 6l1 9l2 8l-13 12l12 7l5 -1l-10 14l17 3l1 9l2 9l14 10l-3 13l10 4l16 5l5 8l7 6l4 -3l4 14l13 -8l4 13l11 -3l8 -3l9 2l9 1l7 12l10 -4l16 -4l9 18l9 -17l9 9l9 -4l16 -5l9 13l9 -14l9 11l9 -7l8 -6h9l8 -3l11 5l8 -4v-5
l12 8l6 -14l10 4l8 -5l11 -13l9 -3l8 -4l6 -15l20 4l-5 -15l-4 -2l7 -7v-10l6 -7l5 -8l-3 -8l3 -9v-9l11 -7l-3 -10l-4 -15l12 -9l-11 -9l16 -8z" />
    <glyph glyph-name="d" unicode="d" horiz-adv-x="510" 
d="M194 445l-4 -17l7 -9l-3 -9l-4 -17l5 -9l-1 -9l-4 -17l17 -9l-13 -9l-4 -16l13 -9l-9 -9l-4 -17l3 -9l1 -9l-4 -17l6 -9l-2 -9l-4 -17l7 -9l-3 -9l-4 -17v-9l4 -9v-17l13 -6l-9 -12l4 -8l5 -8l8 -7l11 4l6 -9l13 11l6 -12l11 -2l8 5l9 1l6 12l10 -3l8 15l-14 12l18 5
l-2 10l2 9l5 17l-2 9l-3 9l5 17l-16 9l11 9l5 17l-16 9l11 9l5 17l-2 9l-3 9l5 16l-8 9l3 9l5 17l-9 9l4 9l5 17l-7 9l2 9l5 17l-1 9l-4 9v17l-13 6l9 12l-3 8l-6 8l-7 7l-11 -6l-6 11l-11 -4l-8 5l-11 2l-8 -3l-9 -3l-6 -12l-10 3l-8 -15l7 -11l-12 -6l15 -13zM45 179l5 2
l-16 9l16 9l-15 9l10 9l5 3l-3 9l3 9l-9 9l4 9l5 2l-17 9l17 9l-13 9l8 9l5 2l-7 9l7 9l-9 9l4 9l5 3l-11 9l11 9l-4 9l-1 9l5 2l-11 9l11 9l-1 9l-4 9h4l-6 9l7 9l-11 9l11 9l-1 9l-3 9l5 10l-7 9l8 9l-10 9l7 9l5 3l-7 11l11 6l1 9l-1 10l11 13v10l4 8l15 8l6 7l5 8l5 -3
l3 17l14 -11l7 4l8 6l17 -3l18 2l8 1l9 5l1 -5l11 17l7 -19l10 9l8 -6l2 -6l11 2l5 -10l11 3l7 -7l3 -8l16 4l-3 -16l18 6l-4 -18l7 -6l9 -3h5l-13 9l13 9l-5 9v9l5 1l-2 9l2 9l-10 9l5 9h5l-18 9l18 9l-16 9l11 9h5l-8 9l8 9l-17 9l12 9l1 -4l9 15l9 -15l9 3l9 1l1 -4l9 16
l9 -16l9 12l9 -8l1 -4l9 2l9 -2l9 4h9l1 -4l9 8l9 -8h9l9 4l-5 -15l17 -9l-12 -9l-5 -16l14 -9l-9 -9l-5 -15l3 -9l2 -9l-5 -16l12 -9l-7 -9l-5 -15l6 -9l-1 -9l-5 -16l8 -9l-8 -24l16 -9l-11 -9l-5 -15l18 -9l-13 -9l-5 -16l4 -9l1 -9l-5 -15l11 -9l-6 -9l-5 -16l1 -9l4 -9
l-5 -15l12 -9l-7 -9l-5 -16l4 -9l1 -9l-5 -15l1 -9l4 -9l-5 -15l13 -9l-8 -9l-5 -16l4 -9l1 -9l-5 -15l1 -9l4 -9l-5 -16l6 -9l-1 -9l-5 -15l18 -9l-13 -9l-5 -16l1 -9l4 -9l-5 -15l10 -9l-5 -9l-16 4l-9 -13l-9 9l-17 4h-9l-9 -4l-16 4l-9 -10l-9 6l-16 4l-9 -12l-9 8l4 2
l-14 9l14 9l-16 9l16 9l-8 9l4 9l-13 -4l-3 -11h-11l-1 -15l-14 4l-5 -8l-6 -7h-11l-6 -9l-10 2l-5 -12h-10l-10 3l-8 -4l-10 2l-8 -7l-9 1l-6 5l-9 -3l-9 5l-10 -10l-8 7l-15 11l-14 -11l-4 14l-10 15l-8 5l-8 4l2 5l-17 1l9 15l-15 2l3 12l1 14l-10 7l6 10l-17 6l9 11l4 9
l-15 9l14 9l-1 9v9l-14 9z" />
    <glyph glyph-name="e" unicode="e" horiz-adv-x="501" 
d="M192 441l-4 -11l1 -9l-1 -9l10 -9l-6 -9l3 -4l9 16l9 -16l9 4h9l4 -4l9 1l9 -1l9 15l9 -11l3 -4l9 15l9 -15l9 1l9 3l4 11l-7 9l7 9l-8 9l4 9l4 3l-9 8l5 10l-3 9l-1 9l-14 6l5 10l-10 8l-9 1l-8 3l-11 -5l-8 6l-13 1l-6 -9l-11 4l-8 -3l-8 -6l-5 -1l8 -12l-12 -6l8 -11
l-12 -6l14 -13zM457 424l-5 -16l17 -9l-12 -9l-5 -17l13 -9l-8 -9l-5 -17l7 -9l-2 -9l-5 -16l9 -9l-4 -9l-15 4l-9 -10l-9 6l-15 4l-9 -3l-9 -1l-15 4l-9 -10l-9 6l-16 4h-9l-9 -4l-15 4l-9 -6l-9 2l-15 4l-9 -11l-9 7l-15 4l-9 -1l-9 -3l-15 4l-9 -7l-9 3l-4 -4l10 -9
l-10 -9l9 -9l-5 -9l-4 -4l1 -9l-1 -9l4 -9v-9l-4 -4l1 -9l-1 -9l14 -9l-10 -9v-17l4 -9v-9l3 -8l6 -8l10 -8l9 -2l8 -2l14 14l5 -15l13 -1l6 12l11 -7l7 8l9 1l8 15l-5 11l10 6l-12 13l12 6l4 4l-16 9l16 9v18l-12 9l8 9l1 -4l9 4l9 -4l9 1l9 3l1 -4l9 9l9 -9l9 17l9 -13v-4
l9 15l9 -15l9 7l9 -3l1 -4l9 16l9 -16l9 15l9 -11l-5 -1l4 -9l-4 -9l17 -9l-12 -9l-5 -15l11 -9l-12 -9l2 -9l1 -9l-6 -7l3 -9l-6 -8l7 -11l-6 -8l-4 1l-3 -9l-4 -8l11 -14l-14 -4l-13 -9l5 -16l-13 -1l-16 -6l-12 -14l-3 4l-5 -14l-12 8l-7 -8l-9 -2l-9 3l-8 -9l-10 6
l-6 -17l-11 9l-16 4l-9 -18l-9 17l-9 -3l-9 -2l-16 5l-9 -10l-9 11h-9l-9 -4l-8 6l-11 -10l-6 13l-10 -2l-9 1v5l-9 2l-9 4l-12 -9l-6 10l-11 13l-9 3l-8 4l-6 15l-6 7l-9 4l4 2l-9 6l2 11l-20 2l9 13l3 8l-3 9v9l-11 7l3 10l4 15l-14 9l13 9l-1 9l-5 9l5 16l-11 9l6 9l5 16
l-13 9l8 9l5 16l-15 9l10 9l5 15l-17 9l12 9l5 16l-9 9l4 9l5 16l-7 9l2 9l5 16l-11 9l6 9l5 15l-2 9l3 9l-4 9l1 9l6 6l-7 10l10 7l-1 10v9l5 -1l-3 11l10 6v9l3 9l14 10l-4 14l11 3l16 5l-2 18l14 -4l4 -3l7 4l10 2l3 17l12 -7l8 -3l7 14l11 -11l7 11l10 -3l16 -4l9 16
l9 -15l9 15l9 -10l16 -5h9l9 -1l9 14l9 -10l8 -6l10 6l7 -9l10 3l9 -2v-5l15 14l3 -20l12 10l6 -11l11 -13l9 -2l8 -5l6 -15l11 -2l4 -9l-4 -2l11 -6l-4 -11l4 -8l7 -7l-3 -8l13 -7l-10 -11l3 -9l5 -8l-4 -15l8 -9l-7 -9l15 -8z" />
    <glyph glyph-name="f" unicode="f" horiz-adv-x="297" 
d="M218 0v4l-9 -9l-9 9l-9 -12l-9 8l-1 4l-9 -2l-9 2l-9 -11l-9 7l-1 4l-9 -5l-9 5l-9 -10l-9 6v4l-9 -6l-9 6l-9 -3l-9 -1l4 16l-3 9l-1 9l4 16l-6 9l2 9l4 16l-10 9l6 9l4 15l-8 9l4 9l4 16l-4 18l4 16l-14 9l10 9l4 16l-1 9l-3 9l4 16l-4 18l4 16l-4 18l4 16l-4 9v9l4 16
v9l-4 9l4 15l-6 9l2 9l4 16l-6 9l2 9l4 16l-15 9l11 9l4 16l-12 9l8 9l-4 4l-9 -3l-9 3l-9 -7l-9 3l4 17l-4 9v9l4 16l-15 9l11 9l4 17v9l-4 9l4 -4l9 9l9 -9l9 13l9 -9v16l5 2l-13 11l16 6l-12 12l11 7l13 9l5 8l3 9l4 -3l6 10l11 -4l7 8l8 3l16 -3l9 5l9 -4l9 12l9 -6
l1 -5h9l9 -2l10 14l8 -16l10 8l8 -10l9 7l9 -4l-5 -9l5 -9l-5 -9l12 -9l-12 -9l4 -9l1 -9l-13 -2l-3 -14l-13 6l-3 -15l-11 3v-5l7 -4l9 1l9 -1l9 10l9 -6l-5 -17l11 -9l-6 -9l-5 -16l1 -9l4 -9l-5 -17l10 -9l-5 -9l-7 4l-9 -17l-9 17l-9 -9l-9 5l-4 -16l14 -9l-10 -9
l-4 -16l4 -18l-4 -16l1 -9l3 -9l-4 -15l1 -9l3 -9l-4 -16l4 -9v-9l-4 -16l5 -9l-1 -9l-4 -16l13 -9l-9 -9l-4 -16l10 -9l-6 -9l-4 -16l7 -9l-3 -9l-4 -16l9 -9l-5 -9l-4 -16l4 -9v-9l-4 -15l4 -18l-4 -16l16 -9l-12 -9l-4 -16l6 -9l-2 -9l-4 -16l9 -9z" />
    <glyph glyph-name="g" unicode="g" horiz-adv-x="501" 
d="M305 235l5 17l-8 9l3 9l5 17l-5 9v9l5 17l-12 9l7 9l5 17l-4 9l-1 9l5 17l-12 9l7 9l5 17l-13 9l8 9v18l-3 9l-1 9l-13 6l4 10l-8 7l-12 -8l-5 13l-9 2l-10 -2l-10 2l-6 -12l-11 7l-3 -20l-13 10l-8 -15l6 -11l-11 -6l12 -13l-12 -6l-4 -17l4 -18l-4 -17l1 -9l3 -9
l-4 -17l1 -9l3 -9l-4 -17l4 -9v-9l-4 -17l5 -9l-1 -9l-4 -17l13 -9l-9 -9v-18l12 -6l-8 -12l10 -6l-1 -10l7 -7l12 6l5 -11l10 2l9 -3l11 -2l8 5l9 1l4 18l12 -9l9 16l-4 10l8 7l-7 12zM313 612l16 -4l9 3l9 1l15 -4l9 9l9 -5l16 -4l9 10l9 -6l16 -4l9 16l9 -12l-4 -17l7 -9
l-3 -9l-4 -17l13 -9l-9 -9l-4 -17l9 -9l-5 -9l-4 -16l16 -9l-12 -9l-4 -17l3 -9l1 -9l-4 -17l3 -9l1 -9l-4 -17l6 -9l-2 -9l-4 -17v-9l4 -9l-4 -17l11 -9l-7 -9l-4 -17l4 -18l-4 -17l5 -9l-1 -9l-4 -16l9 -9l-5 -9l-4 -17l6 -9l-2 -9l-4 -17l8 -9l-4 -9l-4 -17l12 -9l-8 -9
l-5 -5l3 -9l-4 -9l6 -9l-3 -9l-5 -1l15 -12l-19 -5l3 -10l-2 -9l-11 -14l11 -15l-15 -3l-14 -10l-4 -9l-4 -8l-3 3v-15l-14 4l1 -17l-13 3l-7 2l-6 -9l-11 2l-7 -7l-8 -4l-14 2l-6 -13l-11 9l-7 -12l-10 4l-4 4l-9 -10l-9 9l-9 -12l-9 11l-9 -4l-9 -1l-4 5l-9 -12l-9 12
l-9 -1l-9 2l-9 -16l-9 12v5l-11 -11l-7 13l-9 -1l-9 4l-9 -4l-9 2l-15 8l-12 -12l-5 16l-10 -1l-9 1l-12 9l-11 -4l-7 10l-13 -12l-5 13l13 12l-2 12l8 6l4 -2l-4 14l14 1l-2 13l8 5l13 12l2 10l4 8l5 -7l11 4l6 -10l14 13l3 -19l14 14l4 -16l8 -6l9 3l9 -5l9 4l9 -7h9l9 2
l4 -4l8 2l10 -1l8 4l9 -2l9 5l9 1l3 -3l2 16l15 -9l5 11l9 1l12 10v10l5 8l5 5l2 18l-13 10l11 8l5 5l-5 9l5 9l-1 9l-4 9l-13 -4l-4 -10l-10 -1l-7 -6l-8 -5v-15h-22l-3 -14l-13 7l-5 -13l-10 1l-4 4l-8 -11l-10 9l-7 -14l-10 7l-4 5l-9 -2l-9 4l-10 -11l-8 8l-14 9l-10 -2
l-8 4l-7 13l-14 -2l-3 10l-4 17l-11 5l-2 9l3 9l-6 8l1 9l-5 9l-3 8l4 1l-6 9l5 9l-11 9l10 9l-9 9l4 9l5 15l-3 9l-2 9l5 16l-15 9l10 9l5 16l-2 9l-3 9l5 15l-3 9l-2 9l5 15l-3 9l-2 9l5 16l-5 9v9l5 10v9l1 9l-6 9l7 9l-7 9l3 9l7 12l-12 12l16 5l-9 12l9 7l6 2l1 9l7 7
l-3 11l7 7l15 8l4 9l7 6l3 -4l3 17l14 -10l8 3l7 7l9 -4l8 11l9 -9l8 14l10 -8l3 -5l11 14l7 -16l10 13l8 -11l6 -8l8 -3l8 -5l11 3l7 -7l8 -12l9 -2l4 -10l10 -2l4 -9l14 3l3 -11l5 6l-1 9l1 9l-15 9l15 9l-9 9z" />
    <glyph glyph-name="h" unicode="h" horiz-adv-x="514" 
d="M56 0l4 15l-3 9l-1 9l4 16l-15 9l11 9l4 15l-7 9l3 9l4 16l-14 9l10 9l4 15l-15 9l11 9l4 16l-3 9l-1 9l4 15l-17 9l13 9l4 15l-14 9l10 9l4 16l-17 9l13 9l4 15l-14 9l10 9l4 16l-4 18l4 15l-11 9l7 9l4 16l-4 18l4 15l-4 9v9l4 15l-1 9l-3 9l4 16l-12 9l8 9l4 15l-4 9
v9l4 16l-1 9l-3 9l4 15l-3 9l-1 9l4 16l-6 9l2 9l4 15l-4 9v5l9 1l9 -1l9 4h9v-4l9 9l9 -9l9 14l9 -10l1 -4l9 14l9 -14l9 7l9 -3v-4l9 7l9 -7l9 1l9 3l-5 -16l6 -9l-1 -9l-5 -16l17 -9l-12 -9l-5 -17l1 -9l4 -9l-5 -16l11 -6v6l16 -8l3 12l12 -2l12 14l6 -2l4 14l13 -8
l2 19l13 -8l1 -4l8 10l10 -8l7 13l10 -7l9 -5l9 1l9 -3l9 2l9 1v-5l11 4l7 -10l12 10l6 -11l10 -15l19 8l-2 -16l-2 -5l16 -2l-8 -14l12 -14l-1 -14l9 -7l-5 -10l19 -5l-11 -12l-4 -10l17 -8l-16 -10l5 -9l-4 -9l17 -8l-12 -10l-4 -15l16 -9l-12 -9l-4 -15l12 -9l-8 -9
l-4 -16v-9l4 -9l-4 -15l4 -18l-4 -15l8 -9l-4 -9l-4 -15l6 -9l-2 -9l-4 -16l5 -9l-1 -9l-4 -15l3 -9l1 -9l-4 -15v-9l4 -9l-4 -15l7 -9l-3 -9l-4 -16l6 -9l-2 -9l-4 -15l4 -18l-4 -15l10 -9l-6 -9l-1 4h-27l-9 -4l-1 4l-9 -7l-9 7l-9 -15l-9 11l-1 4l-9 -12l-9 12l-9 -17
l-9 13l-1 4l-9 -10l-9 10l-9 -3l-9 -1l4 16l-6 9l2 9l4 16l-3 9l-1 9l4 17l-1 9l-3 9l4 16l-8 9l4 9l4 16l-7 9l3 9l4 16l-5 9l1 9l4 17l-6 9l2 9l4 16l-6 9l2 9l4 16l-10 9l6 9l4 16l-10 9l6 9l4 17l-4 18l4 16l-6 9l2 9l4 16l-12 9l8 9v17l-16 5l12 13l-17 5l8 11l-7 7
l-12 -9l-5 14l-9 2l-10 -1l-11 2l-7 -9l-10 3l-5 -16l-11 7l-8 -15l7 -11l-11 -6l-1 -10l1 -9l-4 -16l17 -9l-13 -9l-4 -16l4 -9v-9l-4 -17l4 -9v-9l-4 -16l5 -9l-1 -9l-4 -16l11 -9l-7 -9l-4 -16l13 -9l-9 -9l-4 -17l1 -9l3 -9l-4 -16v-9l4 -9l-4 -16l11 -9l-7 -9l-4 -16
l17 -9l-13 -9l-4 -17l13 -9l-9 -9l-4 -16l13 -9l-9 -9l-4 -16l8 -9l-4 -9l-1 4l-9 -7l-9 7h-9l-9 -4l-1 4l-9 -1l-9 1l-18 -4l-1 4l-9 -5l-9 5l-9 -1l-9 -3l-1 4l-9 -12l-9 12l-9 -1zM208 565v5l-7 -5h7z" />
    <glyph glyph-name="i" unicode="i" horiz-adv-x="266" 
d="M56 0l4 16l-4 18l4 16l-10 9l6 9l4 16v9l-4 9l4 16v9l-4 9l4 16l-7 9l3 9l4 16l-15 9l11 9l4 16l-12 9l8 9l4 16l-17 9l13 9l4 16l-10 9l6 9l4 16l-3 9l-1 9l4 16l-6 9l2 9l4 16l-3 9l-1 9l4 16l-1 9l-3 9l4 16l-8 9l4 9l4 16l-7 9l3 9l4 16l-5 9l1 9l4 16l-6 9l2 9l4 16
l-6 9l2 9l1 -4l9 10l9 -10l9 10l9 -6l1 -4l9 2l9 -2l9 6l9 -2l1 -4l9 12l9 -12l9 14l9 -10l1 -4l9 15l9 -15l9 12l9 -8l-4 -16v-9l4 -9l-4 -16l6 -9l-2 -9l-4 -16l13 -9l-9 -9l-4 -16l9 -9l-5 -9l-4 -16l1 -9l3 -9l-4 -16l17 -9l-13 -9l-4 -16l4 -9v-9l-4 -16l4 -9v-9
l-4 -16l5 -9l-1 -9l-4 -16l11 -9l-7 -9l-4 -16l13 -9l-9 -9l-4 -16l1 -9l3 -9l-4 -16v-9l4 -9l-4 -16l11 -9l-7 -9l-4 -16l17 -9l-13 -9l-4 -16l13 -9l-9 -9l-4 -16l13 -9l-9 -9l-4 -16l8 -9l-4 -9l-1 4l-9 -7l-9 7h-9l-9 -4l-1 4l-9 -1l-9 1l-18 -4l-1 4l-9 -5l-9 5l-9 -1
l-9 -3l-1 4l-9 -12l-9 12l-9 -1zM204 637l-1 5l-9 -3l-9 3l-9 -8l-9 3l-1 5l-9 -13l-9 13l-9 -18l-9 13l-1 5l-9 -14l-9 14l-9 -3l-9 -2l-1 5l-9 -8l-9 8l-9 -18l-9 13l4 11l-16 9l16 9l-5 9l5 9l-16 9l12 9l1 -4l9 16l9 -16l9 12l9 -8l1 -4h18l18 4l1 -4l9 8l9 -8l9 6l9 -2
l1 -4l9 5l9 -5l9 3l9 1l-4 -11v-18l7 -9l-7 -9l6 -9z" />
    <glyph glyph-name="j" unicode="j" horiz-adv-x="270" 
d="M211 637l-1 5l-9 -14l-9 14l-9 -14l-9 9v5l-9 -14l-9 14l-9 -13l-9 8v5l-9 -17l-9 17l-9 -7l-9 2l-1 5l-9 -3l-9 3l-9 -2l-9 -3l5 11l-6 9l6 9l-12 9l12 9l-12 9l7 9l1 -4l9 9l9 -9l9 13l9 -9v-4l9 3l9 -3l9 6l9 -2v-4l9 7l9 -7l18 4l1 -4h18l9 7l9 -3l-5 -11l9 -9l-9 -9
l9 -9l-9 -9l12 -9zM65 33l5 16l-7 9l2 9l5 16l-16 9l11 9l5 16l-9 9l4 9l5 16l-8 9l3 9l5 16l-1 9l-4 9l5 16l-5 9v9l5 16l-14 9l9 9l5 16l-8 9l3 9l5 17l-13 9l8 9l5 16l-16 9l11 9l5 16l-5 9v9l5 16l-16 9l11 9l5 16l-12 9l7 9l5 16l-5 9v9l5 16l-3 9l-2 9l5 16l-18 9
l13 9l5 16l-1 9l-3 6l9 14l9 -15l9 16l9 -12v-4l9 9l9 -9l9 6l9 -2v-4h18l9 15l9 -11l1 -4l9 6l9 -6l9 13l9 -9l-5 -16l8 -9l-3 -9l-5 -17l1 -9l4 -9l-5 -16l7 -9l-2 -9l-5 -17l5 -9v-9l-5 -16l15 -9l-10 -9l-5 -16l14 -9l-9 -9l-5 -17l7 -9l-2 -9l-5 -16l7 -9l-2 -9l-5 -16
l13 -9l-8 -9l-5 -17l15 -9l-10 -9l-5 -16l12 -9l-7 -9l-5 -16l8 -9l-3 -9l-5 -17l16 -9l-11 -9l-5 -16l18 -9l-13 -9l-5 -17l11 -9l-6 -9l-5 -16l5 -9v-9l-5 -14l11 -9l-11 -9l6 -9l-2 -9l-5 -3l7 -10l-10 -8l5 -9l-3 -9l-10 -11l6 -12l-9 -6l-11 -4v-14l-11 -1l-2 4l-6 -12
l-11 6l-3 -19l-13 9l-12 4l-8 -15l-10 14l-9 -2l-9 -4l-12 6l-10 -5l-8 7h-9l-9 2l-10 -8l-8 6l4 5l-9 9l9 9v9l-4 9l4 5l-10 9l10 9l-4 9v9l4 -3l2 13l13 -2l-2 17l16 -6zM66 609v-1l-1 4z" />
    <glyph glyph-name="k" unicode="k" horiz-adv-x="510" 
d="M56 0l4 15l-9 9l5 9l4 16l-11 9l7 9l4 15l-13 9l9 9l4 16l-14 9l10 9l4 15l-13 9l9 9l4 16l-10 9l6 9l4 15l-3 9l-1 9l4 15v9l-4 9l4 16l-11 9l7 9l4 15v9l-4 9l4 16l-7 9l3 9l4 15l-4 18l4 16l-17 9l13 9l4 15l-11 9l7 9l4 15l-7 9l3 9l4 16l-7 9l3 9l4 15l-17 9l13 9
l4 16l-7 9l3 9l4 15l-5 9l1 9l4 16l-17 9l13 9l4 15l-12 9l8 9l1 -4l9 6l9 -6l9 5l9 -1l1 -4l9 4l9 -4l9 17l9 -13l1 -4l9 14l9 -14l9 14l9 -10l1 -4l9 5l9 -5l9 17l9 -13l-4 -16l14 -9l-10 -9l-4 -17v-9l4 -9l-4 -16l16 -9l-12 -9l-4 -16l3 -9l1 -9l-4 -17l11 -9l-7 -9
l-4 -16l10 -9l-6 -9l-4 -16l3 -9l1 -9l-4 -16l8 -9l-4 -9l-4 -17v-9l4 -9l-4 -16l13 -9l-9 -9l12 4l-4 20l18 -8l-4 19l15 -4l9 4l-7 17l19 -4l3 10l5 7l8 4l-7 14l15 2l4 8l1 10l7 6v10l6 8l-3 10l4 8l6 9l-13 11l16 6l-7 11l6 8l5 14l-6 9l7 9v9l-3 9v13l1 -4l9 4l9 -4
l9 13l9 -9l1 -4l9 7l9 -7l9 12l9 -8l1 -4l9 15l9 -15l9 4h9l1 -4l9 15l9 -15l9 11l9 -7h-4l4 -9l-4 -9l4 -18l-6 -14l17 -10l-18 -8v-9l3 -9l-8 -13l13 -12l-17 -5l13 -13l-13 -6l-10 -12l6 -12l-12 -5l2 -10l-5 -8l-10 -9l-4 -8l-5 -7l9 -15l-14 -3l4 -17l10 -4l3 -9l-3 -5
l16 -4l-9 -13l11 -5v-10l-2 -8l4 -18l8 -7l1 -9l-2 -12l6 -9l-3 -9l16 -6l-8 -11l-3 -18l14 -7l-12 -11l7 -8l-1 -9l-4 -4l7 -9l-7 -9l13 -9l-12 -9l14 -9l-13 -13l11 -9l-11 -9l7 -9l-3 -9l-4 -5l15 -9l-15 -9l17 -9l-13 -9l-4 -4l10 -9l-10 -9l4 -9v-9l-1 4l-9 -10l-9 10
l-9 -6l-9 2l-1 4l-9 -8l-9 8l-9 -6l-9 2l-1 4l-9 -10l-9 10l-9 -10l-9 6l-1 4l-9 -9l-9 9l-9 -17l-9 13l4 17l-14 9l10 9l4 5v18l-6 9l6 9l-2 9l-3 9l4 16l-10 9l9 9l-10 9l5 9l4 10l-2 8v9l-11 9l5 9l4 6l-5 8l3 10l-10 8l3 9l4 3l-16 6l12 11l-4 9l-4 8v17l-15 5v-4l-16 5
l1 -16l-15 5v-15l-12 1l-6 1v-18l-16 9l-4 -10l-9 -3l-4 -17l4 -18l-4 -17l1 -9l3 -9l-4 -17l5 -9l-1 -9h-4l11 -9l-11 -9l11 -9l-7 -9l-4 -17l9 -9l-5 -9l-4 -17l13 -9l-9 -9l-4 -17l3 -9l1 -9l-1 4l-9 -6l-9 6l-9 -7l-9 3l-1 4l-9 -2l-9 2h-9l-9 -4l-1 4l-9 -7l-9 7l-9 -8
l-9 4l-1 4l-9 -8l-9 8l-9 -11zM286 302l-6 1l1 -11z" />
    <glyph glyph-name="l" unicode="l" horiz-adv-x="266" 
d="M58 0l4 15l-5 9l1 9l4 16l-16 9l12 9l4 15l-16 9l12 9l4 16l-9 9l5 9l4 15l-15 9l11 9l4 16l-10 9l6 9l4 15l-14 9l10 9l4 15l-12 9l8 9l4 16l-12 9l8 9l4 15l-5 9l1 9l4 16l-4 18l4 15l-4 9v9l4 16l-15 9l11 9l4 15l-13 9l9 9l4 15l-11 9l7 9l4 16l-16 9l12 9l4 15v9
l-4 9l4 16l-17 9l13 9l4 15l-17 9l13 9l4 16v9l-4 9l4 15l-5 9l1 9l1 -4l9 6l9 -6l9 13l9 -9l1 -4l9 12l9 -12l9 1l9 3l2 -4l9 3l9 -3l9 17l9 -13l1 -4l9 13l9 -13l9 15l9 -11l-5 -15l5 -9v-9l-5 -16l2 -9l3 -9l-5 -15l1 -9l4 -9l-5 -16l12 -9l-7 -9l-5 -15l13 -9l-8 -9
l-5 -16l11 -9l-6 -9l-5 -15l1 -9l4 -9l-5 -15l11 -9l-6 -9l-5 -16l6 -9l-1 -9l-5 -15l3 -9l2 -9l-5 -16l12 -9l-7 -9l-5 -15l15 -9l-10 -9l-5 -16l2 -9l3 -9l-5 -15l6 -9l-1 -9l-5 -15l9 -9l-4 -9l-5 -16l8 -9l-8 -24l2 -9l3 -9l-5 -16l18 -9l-13 -9l-5 -15l13 -9l-8 -9
l-5 -16l9 -9l-4 -9l-5 -15l16 -9l-11 -9l-1 4l-9 -15l-9 15l-9 -8l-9 4l-2 4l-9 -6l-9 6l-9 -5l-9 1l-1 4l-9 -6l-9 6l-9 -9l-9 5l-1 4l-9 -7l-9 7l-9 -13z" />
    <glyph glyph-name="m" unicode="m" horiz-adv-x="773" 
d="M204 0l-1 4l-9 -11l-9 11l-9 -6l-9 2l-1 4l-9 -7l-9 7h-9l-9 -4l-1 4h-18l-9 -13l-9 9l-1 4l-9 -16l-9 16l-9 -17l-9 13l4 16l-4 9v9l4 16l-6 9l2 9l4 16l-8 9l4 9l4 16l-16 9l12 9l4 16l-14 9l10 9l4 16l-7 9l3 9l4 16l-13 9l9 9l4 16l-1 9l-3 9l4 16l-8 9l4 9l4 16
l-8 9l4 9l4 16l-4 9v9l4 16l-11 9l7 9l4 16l-8 9l4 9l4 16l-3 9l-1 9l4 16l-4 18l4 16l-12 9l8 9l4 16l-12 9l8 9l4 16l-8 9l4 9l16 -4h9l9 4l16 -4l9 16l9 -12l17 -4l9 1l9 3l16 -4l9 15l9 -11l-5 -3l2 -9l-2 -9l9 -9l-9 -9l7 -9l-2 -9l14 5l2 13l12 -2l-2 18l17 -7l6 7
l5 8h11l4 14l12 -7l4 14l11 -2l8 -4l8 6l9 -4l9 7l9 -1l4 -5l11 16l7 -19l9 5l9 -3l4 -8l12 3l4 -11l13 4l5 -9v-6l17 5l-4 -17l10 -3l3 -10l17 5l-1 -14l9 2l-1 15l15 -3l6 7l7 5l6 7l5 8l12 1l3 13l13 -5l14 12l8 -4l7 12l11 -10l8 6l9 1l10 -5l10 12l8 -14l9 4l9 -1v-5
l12 7l5 -13l12 8l6 -10l10 -15l18 7l-1 -15l-2 -6l16 -1l-8 -14l7 -7l6 -7l-1 -15l13 -6l-9 -11l6 -8l2 -9l-4 -10l3 -9l-2 -9l10 -9l-9 -9l7 -9l-2 -9l-5 -15l18 -9l-13 -9l-5 -15l18 -9l-13 -9l-5 -16l4 -9l1 -9l-5 -15l7 -9l-2 -9l-5 -15l17 -9l-12 -9l-5 -15l7 -9l-2 -9
l-5 -16l5 -9v-9l-5 -15l15 -9l-10 -9l-5 -15l1 -9l4 -9l-5 -15l14 -9l-9 -9l-5 -16l6 -9l-1 -9l-5 -15l10 -9l-5 -9l-5 -15l12 -9l-7 -9l-1 4l-9 -2l-9 2l-9 -10l-9 6l-1 4l-9 -7l-9 7l-9 -5l-9 1l-1 4l-9 -13l-9 13l-9 -15l-9 11l-1 4l-9 -12l-9 12l-9 -8l-9 4l5 16l-12 9
l7 9l5 16l-8 9l3 9l5 17l-10 9l5 9l5 16l-6 9l1 9l5 16l-16 9l11 9l5 16l-7 9l2 9l5 17l-1 9l-4 9l5 16l-16 9l11 9l5 16l-1 9l-4 9l5 16l-17 9l12 9l5 17l-18 9l13 9l5 16l-12 9l7 9l5 16l-5 9v26l-6 8l2 10l-3 8l-6 8l-9 7l-12 -8l-5 13l-13 -11l-6 12l-10 2l-6 -11l-11 6
l-7 -8l-9 -2l-8 -15l14 -12l-18 -5l14 -13l-14 -6l-4 -16l9 -9l-5 -9l-4 -16l15 -9l-11 -9l-4 -17l10 -9l-6 -9l-4 -16l14 -9l-10 -9l-4 -16l12 -9l-8 -9l-4 -16l12 -9l-8 -9l-4 -17l5 -9l-1 -9l-4 -16l4 -18l-4 -16l4 -9v-9l-4 -16l15 -9l-11 -9l-4 -17l13 -9l-9 -9l-4 -16
l11 -9l-7 -9l-4 -16l16 -9l-12 -9l-1 4h-18l-9 -17l-9 13l-1 4l-9 -17l-9 17h-9l-9 -4l-1 4l-9 -5l-9 5l-9 -6l-9 2l-1 4l-9 -13l-9 13l-9 -12l-9 8l4 16l-1 9l-3 9l4 16l-3 9l-1 9l4 17l-17 9l13 9l4 16l-13 9l9 9l4 16l-15 9l11 9l4 16l-4 9v9l4 17l-1 9l-3 9l4 16v9l-4 9
l4 16l-11 9l7 9l4 16l-12 9l8 9l4 17l-10 9l6 9l4 16v9l-4 9l4 16l-10 9l6 9v17l-8 7l4 11l-5 8l-4 8l-7 7l-12 -9l-5 14l-13 -12l-6 13l-11 2l-8 -4l-9 -2l-7 -7l-9 -2l-8 -15l6 -11l-10 -6l5 -11l-5 -8l-4 -16l1 -9l3 -9l-4 -16l17 -9l-13 -9l-4 -17l12 -9l-8 -9l-4 -16
l8 -9l-4 -9l-4 -16l15 -9l-11 -9l-4 -16l15 -9l-11 -9l-4 -17l8 -9l-4 -9l-4 -16l6 -9l-2 -9l-4 -16l5 -9l-1 -9l-4 -16l6 -9l-2 -9l-4 -17l9 -9l-5 -9l-4 -16l7 -9l-3 -9l-4 -16l13 -9z" />
    <glyph glyph-name="n" unicode="n" horiz-adv-x="514" 
d="M56 0l4 16l-9 9l5 9l4 16l-11 9l7 9l4 16l-17 9l13 9l4 16l-13 9l9 9l4 16l-4 18l4 16l-11 9l7 9l4 16l-4 9v9l4 16l-4 18l4 16l-9 9l5 9l4 16l-6 9l2 9l4 16l-17 9l13 9l4 16l-17 9l13 9l4 16l-3 9l-1 9l4 16l-6 9l2 9l4 16l-16 9l12 9l4 16l-6 9l2 9l4 16l-4 9v9l4 16
l-14 9l10 9l16 -4h9l9 4l16 -4l9 13l9 -9l17 -4l9 5l9 -1l16 -4l9 9l9 -5l-5 -5l12 -9l-12 -9l3 -9l-3 -9l11 -9l-6 -9l13 5l2 11h12l3 10l11 1l-2 16l13 -1h10l1 18l15 -10l3 15l11 -3l4 -4l8 9l10 -7l7 12l10 -5l9 -5l9 6l9 -8l9 9l9 -6l1 -5l10 2l7 -8l13 11l5 -13
l10 -15h12l5 -8l-2 -5l8 -16l18 -1l-6 -13l-1 -15l2 -9l2 -8l18 -6l-10 -11l-4 -10l18 -8l-17 -10l11 -9l-10 -9l5 -9v-9l-4 -15l4 -9v-9l-4 -15v-9l4 -9l-4 -16l11 -9l-7 -9l-4 -15l14 -9l-10 -9l-4 -15l8 -9l-4 -9l-4 -15l5 -9l-1 -9l-4 -16l16 -9l-12 -9l-4 -15l16 -9
l-12 -9l-4 -15l9 -9l-5 -9l-4 -15l15 -9l-11 -9l-4 -16l10 -9l-6 -9l-4 -15l14 -9l-10 -9l-4 -15l12 -9l-8 -9l-1 4l-9 -12l-9 12l-9 -5l-9 1l-1 4l-9 -2l-9 2l-9 -4h-9l-1 4l-9 -15l-9 15l-9 -13l-9 9l-1 4l-9 -11l-9 11l-9 -16l-9 12l4 16v9l-4 9l4 16l-17 9l13 9l4 17
l-17 9l13 9l4 16v9l-4 9l4 16l-5 9l1 9l4 16l-6 9l2 9l4 17l-13 9l9 9l4 16l-12 9l8 9l4 16l-1 9l-3 9l4 16l-3 9l-1 9l4 17l-17 9l13 9l4 16l-13 9l9 9l4 16l-15 9l11 9v17l-6 8l2 10l-3 8l-6 8l-7 7l-9 2l-8 3l-12 -8l-7 9l-11 2l-5 -15l-12 9l-6 -13l-10 4l-8 -15l-2 -9
l-2 -8l8 -12l-8 -7l-4 -16l5 -9l-1 -9l-4 -16l4 -18l-4 -17l11 -9l-7 -9l-4 -16l14 -9l-10 -9l-4 -16l1 -9l3 -9l-4 -16l5 -9l-1 -9l-4 -17l8 -9l-4 -9l-4 -16l7 -9l-3 -9l-4 -16l1 -9l3 -9l-4 -16l17 -9l-13 -9l-4 -17l12 -9l-8 -9l-4 -16l8 -9l-4 -9l-4 -16l15 -9l-11 -9
l-1 4l-9 -15l-9 15l-9 -8l-9 4l-1 4l-9 -6l-9 6l-9 -5l-9 1l-1 4l-9 -6l-9 6l-9 -9l-9 5l-1 4l-9 -7l-9 7l-9 -13z" />
    <glyph glyph-name="o" unicode="o" horiz-adv-x="499" 
d="M306 172l4 15l-4 18l4 16l-9 9l5 9l4 15l-12 9l8 9l4 16l-17 9l13 9l4 15l-4 9v9l4 15l-16 9l12 9l4 16l-15 9l11 9l4 15l-15 9l11 9v17l-13 6l9 12l-13 6l4 10l-7 7l-10 -2l-7 7h-10l-9 1l-11 2l-5 -14l-12 8l-8 -4l-8 -5l-8 -15l5 -11l-10 -6l12 -13l-12 -6l-5 -15
l13 -9l-8 -9l-5 -16l8 -9l-8 -24l12 -9l-7 -9l-5 -15l2 -9l3 -9l-5 -16l12 -9l-7 -9l-5 -15l9 -9l-4 -9l-5 -16l9 -9l-4 -9l-5 -15l11 -9l-6 -9v-17l16 -5l-12 -13l17 -5l-8 -11l8 -7l11 4l6 -9h10l9 -1l10 -2l6 11l11 -6l4 18l12 -8l8 15l-1 10l6 7l-4 11zM43 187l5 16
l-13 9l8 9l5 16l-3 9l-2 9l5 16l-5 9v9l5 15l-6 9l1 9l5 16l-5 9v9l5 16l-18 9l13 9l5 16l-5 9v9l5 15l-9 9l10 9l-8 9l5 9l6 6l-1 9l4 8l-13 12l12 7l5 -1v10l7 7l3 8v10l14 10l-3 14l11 3l16 5l5 9l7 5l4 -3l6 10l11 -4l2 18l13 -8l8 -3l7 16l11 -13l8 8h9l16 -4l9 18
l9 -17l9 8l9 -3l16 -5l9 5l9 -6l9 1l9 3l8 -6l9 2l8 -5l9 -2l10 3v-5l13 9l5 -15l10 3l8 -4l11 -13l7 -5l10 -2l6 -15l9 -4l6 -7l-4 -2l6 -8l1 -9l4 -8l7 -7l-3 -8l2 -9l1 -9l11 -7l-3 -10l-4 -15l16 -8l-15 -10l11 -9l-5 -9l-4 -16l17 -9l-13 -9l-4 -16l15 -9l-11 -9
l-4 -16l4 -9v-9l-4 -15l15 -9l-11 -9l-4 -16l11 -9l-7 -9l-4 -16l6 -9l-2 -9l-4 -16l8 -9l-4 -9l-5 -15l17 -10l-18 -8l13 -10l-10 -8l-6 -7l5 -10l-8 -7l10 -11l-9 -8l-4 1l-3 -9l-4 -8l8 -13l-11 -5l-13 -9l-2 -10l-6 -7l-16 -6l2 -18l-14 4l-3 4l-9 -4l-8 -2l-6 -11
l-10 1l-9 3l-8 -8l-10 5l-9 -3l-8 -5l-16 4l-9 -7l-9 6l-9 -15l-9 10l-16 5l-9 -1l-9 2l-9 -14l-9 10l-8 6l-11 -10l-6 13l-12 -16l-7 15v5l-11 -2l-7 8h-9l-9 1l-11 13h-11l-6 7l-6 15l-18 -3l3 14l4 3l-12 5l4 11l-14 4l3 11l3 8l-19 6l16 12l-7 8l-1 9l4 15l-6 9l5 9
l-13 9z" />
    <glyph glyph-name="p" unicode="p" horiz-adv-x="510" 
d="M56 -90l4 15l-3 9l-1 9l4 16l-11 9l7 9l4 15l-9 9l5 9l4 16l-4 9v9l4 15l-13 9l9 9l4 16l-15 9l11 9l4 15l-12 9l8 9l4 15v9l-4 9l4 16l-9 9l5 9l4 15l-14 9l10 9l4 16l-6 9l2 9l4 15l-5 9l1 9l4 16l-4 9v9l4 15v9l-4 9l4 15l-4 18l4 16l-6 9l2 9l4 15v9l-4 9l4 16l-7 9
l3 9l4 15l-6 9l2 9l4 16l-9 9l5 9l4 15l-12 9l8 9l16 -4l9 16l9 -12l16 -4l9 3l9 1l17 -4h9l9 4l16 -4l9 13l9 -9l-5 -5l6 -9l-6 -9l12 -9l-12 -9l11 -9l-6 -9l14 5l-2 18l16 -6l-4 19l18 -8l-4 19l15 -4l13 1l4 13l12 -6l4 13l11 -2l9 -4l8 8l10 -6l8 7h9l5 -5l9 7l9 -9
l10 9l8 -6l-1 -4h10l7 -7l12 5l6 -8l9 -14l14 2l2 -11l-2 -6h20l-12 -16l10 -5l2 -9l-1 -14l14 -6l-10 -11l10 -7l-2 -10l-4 -9l16 -9l-15 -9l7 -9l-6 -9l10 -9l-5 -9l-4 -2l15 -9l-15 -9l11 -9l-7 -9l-4 -2l1 -9l-1 -9l10 -9l-6 -9l-4 -2l13 -9l-13 -9l11 -9l-7 -9l-4 -3
l13 -9l-13 -9l13 -9l-9 -9l-4 -2l16 -9l-16 -9l9 -9l-5 -9l-4 -2l4 -9l-4 -9l7 -9l-3 -9h-4l3 -9l-4 -9l17 -9l-17 -9l10 -9l-6 -9l-5 -10l14 -10l-15 -8l12 -10l-9 -8l-5 -3l1 -9l-5 -8l-2 -9l2 -10l-12 -13l6 -13l-10 -5l-15 -8l-3 -9l-7 -6l-5 3l-6 -9l-11 3l-7 -8l-8 -3
l-16 3l-9 -2h-9l-8 -9l-9 3l-2 5l-10 -9l-8 11l-9 -1l-9 -2l-4 7l-14 -7l-2 15l-8 3l-10 1l-2 8l-7 6l-6 6l-11 2l-2 11h-5l-15 -9l14 -9l-10 -9l-4 -1l13 -9l-13 -9l9 -9l-5 -9l-4 -1l17 -9l-17 -9l10 -9l-6 -9h-4l3 -9l-3 -9l4 -9v-9l-1 4l-9 -5l-9 5l-9 -16l-9 12l-1 4
l-9 -11l-9 11l-9 -7l-9 3l-1 4l-9 -6l-9 6l-9 -16l-9 12l-1 4l-9 -2l-9 2l-9 -7zM204 56h-4l5 -3zM316 166l4 17l-17 9l13 9l4 17l-10 9l6 9l4 17l-11 9l7 9l4 17l-4 18l4 16l-11 9l7 9l4 17l-3 9l-1 9l4 17l-14 9l10 9l4 17l-3 9l-1 9v17l-12 6l8 12l-3 8l-6 8l-7 7
l-13 -12l-4 17l-10 1h-9l-11 2l-3 -20l-14 14l-7 -7l-9 -2l-8 -15l11 -12l-15 -5l5 -11l-5 -8l-4 -17l5 -9l-1 -9l-4 -17l4 -9v-9l-4 -17l9 -9l-5 -9l-4 -16l13 -9l-9 -9l-4 -17l4 -18l-4 -17l9 -9l-5 -9l-4 -17l13 -9l-9 -9l-4 -17l16 -9l-12 -9l-1 -17l4 -8v-10l3 -8l6 -8
l8 -7l11 4l6 -9l12 7l7 -8l10 -2l4 17l13 -12l5 14l11 -4l8 15l-11 12l16 5l-8 12z" />
    <glyph glyph-name="q" unicode="q" horiz-adv-x="510" 
d="M194 445l-4 -17l13 -9l-9 -9l-4 -17l3 -9l1 -9l-4 -17v-9l4 -9l-4 -16l11 -9l-7 -9l-4 -17l4 -9v-9l-4 -17l6 -9l-2 -9l-4 -17l4 -9v-9l-4 -17v-9l4 -9v-17l10 -7l-6 -11l12 -6l-3 -10l8 -7l9 -2l8 -3l13 9l6 -10l11 -2l8 4l18 4l7 7l8 15l-4 10l8 7l-6 11l6 8l5 17
l-16 9l11 9l5 17l-15 9l10 9l5 17l-14 9l9 9l5 17l-10 9l5 9l5 16l-18 9l13 9l5 17l-11 9l6 9l5 17l-4 9l-1 9l5 17l-5 9v9l1 17l-8 7l4 11l-18 5l9 11l-8 7l-12 -8l-5 13l-11 -4l-8 5l-11 2l-6 -10l-11 4l-4 -18l-12 9l-8 -15v-9l-5 -8l5 -11zM318 554l4 4l-5 4zM300 575
l1 -14l12 5l-1 1l10 9l-11 9l11 9l-4 18l16 -4l9 11l9 -7l16 -4l9 3l9 1l17 -4l9 14l9 -10l16 -4l9 3l9 1l-5 -15l11 -9l-6 -9l-5 -16l1 -9l4 -9l-5 -15l16 -9l-11 -9l-5 -16l2 -9l3 -9l-5 -15l18 -9l-13 -9l-5 -16l6 -9l-1 -9l-5 -15l14 -9l-9 -9l-5 -15l8 -9l-3 -9l-5 -16
l6 -9l-1 -9l-5 -15l5 -9v-9l-5 -16l10 -9l-5 -9l-5 -15l14 -9l-9 -9l-5 -16l3 -9l2 -9l-5 -15l10 -9l-5 -9l-5 -15l14 -9l-9 -9l-5 -16l17 -9l-12 -9l-5 -15l3 -9l2 -9l-5 -16l1 -9l4 -9l-5 -15l7 -9l-2 -9l-5 -16l11 -9l-6 -9l-5 -15l15 -9l-10 -9l-1 4l-9 -11l-9 11
l-9 -14l-9 10l-1 4l-9 -10l-9 10l-9 -3l-9 -1l-1 4l-9 -11l-9 11l-9 -9l-9 5l-1 4l-9 -4l-9 4l-9 -13l-9 9h5l-16 9l16 9l-13 9l8 9h5l-1 9l1 9l-10 9l5 9l5 17l-15 9l10 9h5l-7 9l7 9l-6 9l1 9l-8 -1l-4 -9l-10 -3l-7 -6l-6 -6l-5 -8l-6 -7l-7 2l-5 -10l-11 2l-8 -5l-6 -7
l-1 4l-8 -8l-10 6l-8 -7l-9 1l-15 6l-10 -9l-8 11l-10 -12l-8 9l-3 6l-14 -13l-3 19h-9l-9 2l-9 14l-7 6l-10 2l-4 17l-16 2l4 12l3 5l-7 7l3 10l-12 7l4 10l4 12l-11 8l9 9l-15 8l9 10h4l-17 9l17 9l-17 9l17 9l-11 9l6 9l5 2l-11 9l11 9l-8 9l3 9l5 2l-6 9l6 9l-8 9l3 9
l5 3l-10 9l10 9l-5 9v9l5 2l-10 9l10 9l-11 9l6 9l5 2l-18 9l18 9l-7 9l2 9l5 2l-14 9l14 9l-9 9l4 9l5 9l-15 10l16 8l-6 9l7 9l-9 9l6 9l7 12l-13 12l17 5l-10 12l9 7l6 2l3 9l6 7l-5 13l9 5l15 8l-1 15h12l2 -4l4 14l13 -7l3 16l12 -5l7 -4l7 14l11 -12l7 17l10 -11l7 -5
l10 8l8 -10l9 3l9 -1l8 -9l11 4l6 -11h9l9 -3l9 -12l17 8l-3 -19z" />
    <glyph glyph-name="r" unicode="r" horiz-adv-x="479" 
d="M56 0l4 16l-13 9l9 9l4 16l-12 9l8 9l4 16l-12 9l8 9l4 16v9l-4 9l4 16l-4 9v9l4 16l-9 9l5 9l4 16l-11 9l7 9l4 16l-4 18l4 16l-9 9l5 9l4 16l-8 9l4 9l4 16l-10 9l6 9l4 16l-17 9l13 9l4 16l-4 18l4 16l-12 9l8 9l4 16l-7 9l3 9l4 16l-13 9l9 9l4 16l-10 9l6 9l4 16
l-3 9l-1 9l16 -4l9 5l9 -1l16 -4l9 11l9 -7l17 -4l9 1l9 3l16 -4l18 4l-5 -6l7 -9l-7 -9l15 -9l-15 -9l11 -9l-6 -9l12 4l6 7l8 5l-3 17l17 -6l-3 18l14 -3l9 -1l4 13l13 -5l6 7l8 5l5 -4l7 19l11 -17l7 15l10 -8l9 -5l9 1l9 -3l10 11l8 -8v-5l14 11l4 -17l10 3l8 -4l10 -15
l10 -2l7 -6l-2 -5l15 -2l-7 -14l7 -6l5 -8l-1 -14l15 -6l-11 -11l3 -9l5 -8l-4 -10l12 -9l-11 -9l12 -9l-11 -9l1 -9l4 -9l-4 -2l5 -9l-5 -9l1 -9l3 -9l-4 -1l3 -9l-3 -9l4 -9v-9l-4 -2l10 -9l-10 -9l13 -9l-9 -9l-1 5l-9 -13l-9 13l-9 -18l-9 13l-1 5l-9 -17l-9 17l-9 -6
l-9 1l-1 5l-9 -8l-9 8l-9 -7l-9 2l-1 5l-9 -13l-9 13l-9 -8l-9 3l4 6l-9 9l9 9l-14 9l10 9l4 6l-5 9l5 9l-16 9l12 9l4 6l-16 9l16 9l-15 9l11 9v17l-9 7l5 11l-10 6l1 10l-7 7l-10 -2l-7 7l-11 -5l-8 6l-11 2l-7 -6h-10l-6 -10l-10 1l-8 -15v-9l-4 -8l11 -12l-11 -7l-4 -16
l9 -9l-5 -9l-4 -16l9 -9l-5 -9l-4 -17l8 -9l-4 -9l-4 -16l17 -9l-13 -9l-4 -16l4 -9v-9l-4 -16l4 -9v-9l-4 -17l14 -9l-10 -9l-4 -16v-9l4 -9l-4 -16l10 -9l-6 -9l-4 -16l11 -9l-7 -9l-4 -17l6 -9l-2 -9l-4 -16l3 -9l1 -9l-4 -16l17 -9l-13 -9l-1 4l-9 -4l-9 4l-9 -5l-9 1
l-1 4l-9 -12l-9 12l-9 -5l-9 1l-1 4l-9 -8l-9 8l-9 -5l-9 1l-1 4l-9 -17l-9 17h-9z" />
    <glyph glyph-name="s" unicode="s" horiz-adv-x="484" 
d="M444 459l-4 -4l3 -9l-3 -9l4 -9v-4l-9 -1l-9 1l-9 -9l-9 4v5l-9 -10l-9 10l-9 -10l-9 5v5l-9 -16l-9 16l-9 -10l-9 5v5l-9 -18l-9 18l-9 -10l-9 5l4 2l-13 9l13 9l-8 9l8 9l-4 18l-10 11l-12 -3l-4 12l-14 -8l-1 17l-12 -3l-6 8l-14 -4l-4 -10l-11 -1l1 -16l-16 6l-1 -14
h-11l1 -10l5 -7l8 -6l2 -7l13 1l2 -12l9 -2l8 -5l11 -12l16 8l-1 -17l11 -1l7 -5l11 -12l17 10l-2 -20l15 6l3 -12l10 -12l7 -5l8 -5l10 -1l7 -5l4 -9l10 -2l3 -10l13 1l4 -9l-2 -5l20 4l-8 -18h14l1 -11l-3 -4l5 -8l3 -8l16 -2l-4 -12l-4 -4l5 -8l1 -9l7 -7l2 -9l-4 -5
l13 -9l-12 -9l12 -9l-6 -9l-6 -13l9 -9l-10 -9l13 -10l-10 -8l-6 -5l13 -13l-18 -4l7 -12l-8 -7h-5l7 -15h-17l7 -15l-12 -3l-4 2l1 -15l-15 4l1 -15h-12l-6 2l-8 -4l-9 -3l-6 -8l-8 -4l-12 2l-7 -11l-10 7l-7 -13l-10 5l-2 4l-9 -3l-9 2l-9 -9l-9 8l-9 -9l-9 4v4l-9 -10
l-9 11l-10 -17l-8 18l-9 -3l-9 -1l-10 6l-10 -11l-8 14l-10 -6l-8 4l-1 5l-13 -10l-4 16l-12 -8l-7 9l-11 13l-9 2l-8 4l-7 14l-10 4l-5 7l-3 17l-14 4l3 11l3 6l-3 8v9l-5 8l-3 9l4 13l-8 9l7 9l-15 8l9 10l5 1l-11 9l11 9l-2 9l-3 9l5 2l-16 9l16 9l-17 9l12 9l1 -4l9 10
l9 -10l9 3l9 1v-4l9 17l9 -17l9 13l9 -9l1 -4l9 2l9 -2l9 11l9 -7l1 -4l9 14l9 -14l9 5l9 -1l-4 -7l4 -9l-4 -9l13 -9l-9 -9l-4 -7l3 -9l-3 -9l13 -9l-9 -9v-17l4 -9v-9l14 -5l-5 -11l8 -7l12 8l5 -13l9 -2l10 1h13l7 8l10 -3l8 4l8 6l6 5v10l6 7l-1 10l2 9l4 2l-12 7l9 11
l-15 7l8 10l-6 16h-15l1 12l-4 9l-18 -8l4 19l-17 -7v15l-4 8h-11l-4 10l-12 -1l-3 11l-12 -1l-6 7l-5 9l-14 -6l-1 16l-11 -1l-4 11l-13 -3l-4 9l2 4l-16 -5l2 17l-10 2l-3 10l-18 -7l1 15l-3 11l-19 -3l7 17l-18 -3l3 14l2 5l-10 5l2 11l-11 4l-1 10l1 18l-5 8l-2 9l5 8
l-7 9l9 9l-3 9v9h5l-5 12l11 6v9l1 9l14 12l-5 15l12 2l17 7l1 13l10 2l5 -3l5 13l12 -6l5 11h10l12 -2l5 18l12 -15l8 6l9 2v-4l9 5l9 -4l8 14l10 -13h9l9 5l3 -5l9 10l9 -11l9 11l9 -12l9 6l9 -2l10 -6l9 1l8 -4l12 15l7 -14l2 -6l10 1l7 -7l10 1l8 -4l11 -14l15 4l2 -12
l6 -17l10 -4l4 -8l-3 -5l11 -6l-6 -11l7 -7l2 -9l-4 -11l18 -7l-16 -10l1 -9z" />
    <glyph glyph-name="t" unicode="t" horiz-adv-x="301" 
d="M33 503l-5 -2l-7 9l7 9l-13 9l9 9l4 1l-10 9l10 9l-3 9l-1 9l4 2l-5 9l5 9l-11 9l7 9l10 -4l9 1l9 -1l18 4h4l-6 9l6 9l-14 9l10 9l4 1l-10 9l10 9l-1 9l-2 5l7 17l11 -14l6 17l11 -10l2 -4l7 11l11 -9l8 5l9 2l1 -4l6 19l12 -16l7 14l10 -7l2 -4l9 3l9 -1l7 13l10 -6
l-4 -11l14 -9l-14 -9l5 -9l-1 -9l-4 -12l4 -9l-4 -9l13 -9l-9 -9l9 -4l9 3l9 -3l9 13l9 -9l-5 -2l2 -9l-2 -9l13 -9l-8 -9l-5 -1l12 -9l-12 -9l1 -9l4 -9l-5 -2l6 -9l-6 -9l2 -9l3 -9l-9 5l-9 -4l-9 4l-9 -5h-9l-4 -17l10 -9l-6 -9l-4 -17l13 -9l-9 -9l-4 -17l12 -9l-8 -9
l-4 -17l17 -9l-13 -9l-4 -17l16 -9l-12 -9h-4l5 -9l-5 -9l7 -9l-3 -9l-4 -17l6 -9l-2 -9l-4 -17l12 -9l-8 -9l-4 -17l7 -9l-3 -9l-4 -17l9 -9l-5 -9l1 -7l16 6l-2 -17l10 -2l3 -10l18 7l-1 -15l-5 -1l17 -9l-17 -9l16 -9l-11 -9h-5l7 -9l-7 -9l8 -9l-3 -9l-5 -1l5 -9l-5 -9
l8 -9l-3 -9l-8 3l-9 -5l-9 3l-8 -10l-10 7l-9 -4l-9 1l-7 -14l-10 7l-13 6l-10 -8l-8 10l-10 -9l-8 6l-15 11l-11 -4l-7 7l-5 14l-19 -3l5 15l4 4l-6 8l2 10l-7 7l-2 9l4 16l-15 9l14 9v9l-5 9l4 16l-10 9l6 9l4 16l-11 9l7 9l4 17l-6 9l2 9l4 16l-3 9l-1 9l4 16l-17 9l13 9
l4 16l-4 9v9l4 16l-5 9l1 9l4 16l-12 9l8 9l4 17l-5 9l1 9l4 16l-8 9l4 9l4 16l-5 9l1 9l-10 5l-9 -18l-9 18z" />
    <glyph glyph-name="u" unicode="u" horiz-adv-x="514" 
d="M457 612l-5 -16l16 -9l-11 -9l-5 -16l9 -9l-4 -9l-5 -16l7 -9l-2 -9l-5 -16l4 -9l1 -9l-5 -16l7 -9l-2 -9l-5 -16l4 -9l1 -9l-5 -16l3 -9l2 -9l-5 -16l15 -9l-10 -9l-5 -16l7 -9l-2 -9l-5 -16l7 -9l-2 -9l-5 -16l14 -9l-9 -9l-5 -16l4 -9l1 -9l-5 -16l17 -9l-12 -9
l-5 -16l17 -9l-12 -9l-5 -16l17 -9l-12 -9l-5 -16l4 -9l1 -9l-5 -16l12 -9l-7 -9l-5 -16l5 -9v-9l-16 4l-9 -14l-9 10l-16 4h-9l-9 -4l-16 4l-9 -12l-9 8l-16 4l-9 -9l-9 5l5 1l-12 9l12 9l-12 9l12 9l-14 7l2 -11l-18 8l-5 -8l-9 -2l3 -20l-15 5l-10 1l-3 -16l-13 8l-8 -4
l-7 -7l-5 4l-7 -16l-11 14l-7 -17l-10 10l-9 5l-10 -15l-8 17l-9 -6l-9 3l1 5l-15 -14l-3 19l-10 -2l-8 4l-10 15l-7 5l-10 3l2 5l-8 6v10l-13 4l1 10l1 14l-13 6l9 11l-18 6l10 11l4 10l-15 9l14 9l-3 9l2 9l-14 9l9 9l4 15l-7 9l3 9l4 16l-1 9l-3 9l4 15l-17 9l13 9l4 15
l-14 9l10 9l4 16l-1 9l-3 9l4 15l-6 9l2 9l4 15v9l-4 9l4 15l-15 9l11 9l4 16l-8 9l4 9l4 15l-3 9l-1 9l4 15l-7 9l3 9l4 16l-15 9l11 9l4 15l-7 9l3 9l1 -4l9 12l9 -12l9 1l9 3l1 -4l9 5l9 -5l9 13l9 -9l2 -4l9 7l9 -7l9 10l9 -6l1 -4l9 14l9 -14l9 13l9 -9l-5 -16l4 -9
l1 -9l-5 -17l2 -9l3 -9l-5 -16l14 -9l-9 -9l-5 -16l6 -9l-1 -9l-5 -17l9 -9l-4 -9l-5 -16l1 -9l4 -9l-5 -16l11 -9l-6 -9l-5 -16l3 -9l2 -9l-5 -17l1 -9l4 -9l-5 -16l14 -9l-9 -9l-5 -16l2 -9l3 -9l-5 -17l12 -9l-7 -9l-5 -16l12 -9l-7 -9v-18l3 -8l1 -9l13 -7l-5 -10l6 -6
l9 -1l8 -4l12 8l7 -9l11 -2l7 9l10 -3l6 10l10 -1l8 15l-10 12l15 5l-5 11l5 8l4 16l-5 9l1 9l4 17v9l-4 9l4 16l-16 9l12 9l4 16l-9 9l5 9l4 17l-17 9l13 9l4 16l-12 9l8 9l4 16l-14 9l10 9l4 16l-4 9v9l4 17l-10 9l6 9l4 16l-4 9v9l4 16l-4 18l4 17l-4 18l4 16l-11 9l7 9
l1 -4l9 2l9 -2l9 11l9 -7l1 -4l9 12l9 -12l9 3l9 1v-4l9 10l9 -10l9 11l9 -7l1 -4l9 13l9 -13l9 10zM321 55l-11 -3l1 -4z" />
    <glyph glyph-name="v" unicode="v" horiz-adv-x="501" 
d="M194 612l-4 -2l9 -9l-9 -9l8 -9l-4 -9l-4 -2l4 -9l-4 -9l16 -9l-12 -9l-4 -2l2 -9l-2 -9l3 -9l1 -9l-4 -2l1 -9l-1 -9l16 -9l-12 -9l-4 -2l4 -9l-4 -9l4 -18l-4 -2l6 -9l-6 -9l6 -9l-2 -9l-4 -8l1 -9l-1 -9l8 -9l-3 -9l-4 -7l1 -9v-9l5 -9l1 -9l-4 -8l6 -8l-4 -10l17 -7
l-10 -10l-3 -7l9 -8l-6 -10l9 -8l-1 -9l-3 -9l17 -5l-12 -12l12 -7l-4 -10l-1 -12l5 -8v-9l16 -5l-6 -11v-14l20 -3l-5 -5l16 3l-5 11l7 7l7 8l-4 11l9 6v10l1 9l6 6l-4 10l8 7l-1 10l1 9l6 7l-2 9l5 9l-13 11l11 7l5 6l-5 9l7 9l-5 9l3 9l5 8l-13 10l14 8l-2 9l-1 9l5 10
l-16 9l16 9l-16 9l12 9l5 2l-17 9l17 9l-4 9l-1 9l5 2l-12 9l12 9l-5 9v9l5 2l-15 9l15 9l-1 9l-4 9l5 2l-13 9l13 9l-10 9l5 9l5 2l-12 9l12 9l-12 9l7 9l5 2l-18 9l18 9l-18 9l13 9l1 -4l9 3l9 -3l9 17l9 -13l1 -4l9 13l9 -13l9 1l9 3l1 -4l9 15l9 -15l9 15l9 -11l1 -4
l9 15l9 -15l9 6l9 -2h-5l17 -9l-17 -9l6 -9l-1 -9l-5 -17l1 -9l4 -9h-5l5 -9l-5 -9l10 -9l-5 -9l-5 -17l12 -9l-7 -9h-5l17 -9l-17 -9l15 -9l-10 -9l-5 -17l3 -9l2 -9h-5l15 -9l-15 -9l8 -9l-8 -24l1 -9l-2 -9l18 -10l-14 -8l-6 -13l15 -10l-16 -8l1 -9l2 -9l-6 -10l5 -10
l-8 -7l-2 -9l3 -10l-6 -8l13 -12l-17 -5l5 -11l-5 -8l-6 -5v-9l-6 -8l4 -11l-6 -7l-6 -3l11 -14l-18 -3l4 -11l-6 -7l-6 -1l7 -14l-15 -2l-4 -9l-1 -9l-5 1v-11l-10 -4l6 -15l-12 -3l-4 3v-12l-11 -2l2 -14l-10 -3l-17 4l-9 -14l-9 10v4l-9 -13l-9 13l-9 -3l-9 -1l-17 4
l-9 -1l-9 -3v4l-9 -13l-9 13l-9 -5l-9 1l-17 4l-9 -8l-9 4l3 3l-5 7l-6 7h-14l-1 11l3 4l-7 7l-3 8l-6 8l-8 5l2 5l-16 2l8 14l-5 7l-7 7l2 7l-14 3l7 13l-14 4l3 11l2 7l-4 8l-1 9l-14 5l4 11l2 10l-4 8v9l-13 7l5 10l3 11l-8 8l5 10l-11 7l3 10l3 13l-14 8l13 10l-8 9l2 9
l4 15l-6 9l5 9l-1 9l-4 9h5l-17 9l17 9l-10 9l5 9l5 17l-18 9l13 9h5l-13 9l13 9l-15 9l10 9l5 17l-5 9v9h5l-11 9l11 9l-5 9v9l5 17l-3 9l-2 9h5l-3 9l3 9l-12 9l7 9l1 -4l9 2l9 -2l9 11l9 -7v-4l9 12l9 -12l9 3l9 1l1 -4l9 10l9 -10l9 11l9 -7l1 -4l9 13l9 -13l9 10z
M260 88l-1 1l-8 -12zM241 93l18 -4l-10 12z" />
    <glyph glyph-name="w" unicode="w" horiz-adv-x="762" 
d="M307 612l1 -4l9 4l9 -4l9 12l9 -8l1 -4l9 13l9 -13l9 6l9 -2l1 -4l9 15l9 -15l9 15l9 -11l1 -4l9 10l9 -10l9 17l9 -13l-5 -2l2 -9l-2 -9l16 -9l-11 -9l-5 -2l18 -9l-18 -9l9 -9l-4 -9l-5 -2l5 -9l-5 -9l6 -9l-1 -9l-5 -2l8 -9l-8 -9l13 -9l-8 -9l-5 -2l17 -9l-17 -9
l4 -9l1 -9l-5 -2l10 -9l-10 -9l12 -9l-7 -9l-4 -8l6 -9l-6 -9l7 -9l-2 -9l-4 -7l9 -9l-8 -9l7 -9l-1 -9l-4 -8l12 -7l-10 -11l8 -8l-1 -9l-3 -7l2 -9l1 -9l14 -7l-6 -10l-3 -9l17 -5l-12 -12l11 -7l-3 -10l-2 -11l13 -6l-8 -12l13 -6l-4 -10v-14l14 -5l-8 -12l17 -3l-7 11
l15 4l2 8v10l7 8l-3 11l9 6l-5 11l6 8l6 7l-4 10l8 7l-6 11l6 8l6 6l-16 12l19 5l-7 11l6 8l5 6l-7 10l9 8l-13 10l11 8l5 8l-10 9l11 9l-12 10l9 8l5 10l-6 9l6 9l-17 9l13 9l4 2l-3 9l3 9l-6 9l2 9l4 2l-17 9l17 9l-7 9l3 9l4 2l-12 9l12 9l-3 9l-1 9l4 2l-1 9l1 9l-15 9
l11 9l4 2l-5 9l5 9l-1 9l-3 9l4 2v18l-5 9l1 9v-4l9 12l9 -12l9 7l9 -3l1 -4l9 9l9 -9l9 4h9l1 -4l9 7l9 -7l9 4h9v-4l9 7l9 -7l9 6l9 -2h-4l14 -9l-14 -9l10 -9l-6 -9l-4 -17l1 -9l3 -9h-4l1 -9l-1 -9l3 -9l1 -9l-4 -17l4 -18h-4l14 -9l-14 -9l6 -9l-2 -9l-4 -17l17 -9
l-13 -9h-4l6 -9l-6 -9l4 -18l-5 -15l17 -10l-18 -8l1 -9l3 -9l-6 -13l10 -10l-11 -8l5 -9l-2 -9l-6 -10l13 -11l-16 -7l10 -10l-8 -8l-7 -8l15 -13l-19 -4l1 -10l-1 -9l-6 -4l6 -11l-11 -6l8 -12l-9 -7l-6 -3l12 -15l-19 -2l8 -13l-11 -5l-6 -1l10 -15l-18 -1l11 -16l-15 -2
l-5 1l-3 -10l-7 -5l5 -14l-11 -4l-4 3l6 -17l-17 3l8 -18l-16 1l-3 4l-9 -8l-9 8l-9 -6l-9 2l-3 4l-9 -1l-9 1l-9 -16l-12 16l-9 -1l-9 1l-9 -1l-9 -3l-3 4l-9 -8l-9 8l-9 -5l-9 1l3 4l-11 4l3 12l-5 8l-7 6l-2 16l-5 8l-3 8l-16 3l5 12l-1 14l-5 8l-2 9l-17 3l11 14l-10 6
l-1 9l-10 -12l-1 -10l-6 -7l8 -13l-15 -4l4 -11l-7 -7l-9 -10l3 -12l-11 -5l-1 -9l-2 -9h-5l11 -15l-19 -2l10 -14l-13 -4l-3 4l-9 -10l-9 10l-9 -9l-9 5l-3 4l-9 -9l-9 9h-9l-9 -4l-3 4l-9 -6l-9 6l-9 -9l-9 5l-3 4l-9 -2l-9 2l-9 -1l-9 -3l3 3l-18 -3l7 17l-17 -2l2 13
l3 4h-18l8 15l-11 4l-3 9l2 5l-7 6l-1 10l-14 3l2 11l2 7l-7 6v10l-13 5l2 10l2 7l-2 9l-3 8l-8 7l-2 9l2 10l-12 6l8 11l-10 7l2 10l3 11l-11 8l8 10l-4 9l-4 8l3 13l-11 9l10 9l-2 9l-4 9l4 15l-18 9l17 9l-6 9l1 9h5l-14 9l14 9l-1 9l-4 9l5 17l-6 9l1 9h5l-12 9l12 9
l-15 9l10 9l5 17l-17 9l12 9h5l-17 9l17 9l-10 9l5 9l5 17l-6 9l1 9h5l-2 9l2 9l-15 9l10 9l1 -4l9 4l9 -4l9 15l9 -11v-4l9 4l9 -4l9 16l9 -12l1 -4l9 7l9 -7l9 12l9 -8l1 -4l9 4l9 -4l9 4h9l-4 -2l5 -9l-5 -9l13 -9l-9 -9l-4 -2l12 -9l-12 -9l10 -9l-6 -9l-4 -2l14 -9
l-14 -9l10 -9l-6 -9l-4 -2l7 -9l-7 -9l7 -9l-3 -9l-4 -2l15 -9l-15 -9l7 -9l-3 -9l-4 -2l11 -9l-11 -9l11 -9l-7 -9l-4 -8l4 -9l-4 -9l18 -9l-13 -9l-4 -7l5 -9l-4 -9l15 -8l-9 -10l-4 -8l16 -7l-14 -11l16 -7l-9 -10l-3 -7l7 -8l-4 -10l18 -6l-10 -11l-3 -9l15 -6l-10 -11
l7 -8l1 -9l-1 -12l3 -8l2 -9l17 -5l-7 -11v-14l14 -5l-8 -12l13 -5l-3 -11l9 11l2 8l4 9l-6 11l8 7l7 8l-2 10l7 7l-9 13l10 6l6 6l-2 10l6 7l-13 13l13 6l6 7l-7 10l10 8l-14 11l12 7l5 6l-7 10l9 8l-10 10l8 8l5 8l-14 10l15 8l-2 9l-1 9l5 10l-7 9l7 9v9l-4 9l5 2l-12 9
l12 9l-5 9v9l5 2l-17 9l17 9l-6 9l1 9l5 2l-13 9l13 9l-14 9l9 9l5 2l-18 9l18 9l-8 9l3 9l5 2l-10 9l10 9l-13 9l8 9l5 2l-13 9l13 9l-13 9zM519 88l-1 1l-8 -12z" />
    <glyph glyph-name="x" unicode="x" horiz-adv-x="489" 
d="M384 334l-3 -3l7 -7v-10l18 -1l-6 -13l-2 -7l15 -4l-9 -13l16 -3l-6 -12l-2 -10l13 -5l-8 -12l19 -4l-10 -12l-2 -14l9 -8l-6 -10l10 -7l-2 -10l-2 -17l5 -8l-3 -10l16 -7l-9 -10l-4 -4l10 -8l-9 -10l13 -7l-11 -10l5 -9l1 -9l-4 -6l2 -9l-2 -9l15 -9l-15 -9l9 -9l-4 -9
l-1 4l-9 -15l-9 15l-9 -11l-9 7l-1 4l-9 -16l-9 16h-9l-9 -4l-1 4l-9 -4l-9 4l-9 -8l-9 4l-1 4l-9 -1l-9 1l-9 -12l-9 8l4 9l-17 9l17 9l-5 9v9l4 8l-5 9l4 9l-6 9v9l4 9l-12 8l10 9l-19 8l13 10l3 9l-17 6l14 12l-17 6l9 11l2 12l-15 7l12 11l-15 6l7 11v17l-8 7l4 11
l-11 6l2 10l3 4l-8 7l3 11l-5 7v10l-8 7l-1 9l-5 -2l3 -11l-9 -6l7 -12l-12 -5l3 -11l-4 -8l-9 -14l2 -10l-6 -7l9 -12l-10 -7l-7 -10l10 -12l-14 -5l8 -12l-8 -7l-6 -8l13 -11l-16 -7l15 -11l-13 -7l-5 -5l2 -9l-4 -9l9 -10l-7 -8l-5 -4v-9l-1 -9l1 -9l2 -9l-5 -4l5 -9
l-5 -9l8 -9l-4 -9v-14l-1 4l-9 -5l-9 5l-9 -16l-9 12l-1 4l-9 -13l-9 13l-9 -6l-9 2l-2 4l-9 -14l-9 14l-9 -11l-9 7l-1 4l-9 -9l-9 9h-9l-9 -4l5 6l-11 9l11 9l-16 9l17 9l-14 9l10 9l5 3l-13 10l14 8l-14 10l15 8l-2 9l-1 9l7 16l-13 11l15 7l-14 11l12 7l7 12l-6 10l10 7
l-5 11l4 8l7 8l-7 11l12 6l-3 10l3 9l6 4v9l7 8l-11 13l13 5l4 -1l-9 14l17 2l-4 12l8 6l-2 15l-5 7l-2 9l-15 3l4 12v14l-11 6l4 11l-13 4l3 11l1 13l-10 7l6 11l-5 8l-4 8l2 13l-8 7l4 10l-13 7l5 10l3 11l-10 8l8 10l-17 7l11 10l4 11l-12 9l11 9l-11 9l6 9l1 -4l9 9
l9 -9l9 10l9 -6l2 -4l9 6l9 -6l9 5l9 -1l1 -4h18l18 4l1 -4l9 10l9 -10l9 7l9 -3l-4 -10l16 -9l-16 -9l9 -9l-8 -18l17 -7l-15 -10l15 -8l-9 -10l-3 -8l13 -7l-10 -11l17 -6l-9 -11l-3 -8l9 -7l-5 -11l4 -8l5 -8l-1 -10l3 -8l3 -9l10 -5v-10l1 -12l12 -4l-5 -13l11 -5l1 -9
l8 8l-12 14l19 3l2 8v10l7 6l-11 14l17 4l-7 11l8 7l6 6l-12 12l16 5l-6 11l6 8l6 7l-3 9l6 9l-12 10l10 8l5 8l-4 9l6 9l-3 9l1 9l5 10l-17 9l17 9l-12 9l8 9l1 -4l9 16l9 -16l9 5l9 -1l1 -4l9 1l9 -1l9 7l9 -3l1 -4l9 4l9 -4l18 4l1 -4l9 11l9 -11h9l9 4l-5 -11l4 -9
l-5 -9v-9l4 -9l-6 -11l15 -10l-17 -8v-9l3 -9l-7 -10l9 -11l-13 -6v-10l1 -9l-7 -11l14 -13l-19 -4l3 -11l-3 -8l-8 -11l8 -12l-14 -5l-2 -8v-10l-9 -10l4 -12l-11 -5l1 -10z" />
    <glyph glyph-name="y" unicode="y" horiz-adv-x="501" 
d="M47 391l5 1l-13 9l13 9l-1 9l-4 9l5 1l-9 9l9 9l-18 9l13 9l5 1l-9 9l9 9l-8 9l3 9h5l-14 9l14 9l-4 9l-1 9l5 1l-7 9l7 9l-15 9l10 9l5 1l-10 9l10 9l-16 9l11 9l1 -4l9 11l9 -11l9 16l9 -12v-4l9 7l9 -7l9 6l9 -2l1 -4l9 6l9 -6l9 16l9 -12l1 -4l9 3l9 -3l9 15l9 -11
l-4 -2l12 -9l-12 -9l14 -9l-10 -9l-4 -2l10 -9l-10 -9l17 -9l-13 -9l-4 -2l7 -9l-7 -9l8 -9l-4 -9l-4 -1l4 -9l-4 -9l15 -9l-11 -9l-4 -2l9 -9l-9 -9l12 -9l-8 -9l-4 -2l4 -9l-4 -9l4 -18l-4 -4l15 -9l-15 -9l8 -9l-3 -9l-4 -5l16 -8l-15 -10l12 -9l-7 -9l-4 -6l18 -7
l-16 -11l1 -8l5 -9l-4 -7l6 -8l-3 -10l10 -7l-3 -10l-3 -8l3 -9v-9l14 -7l-6 -10l-2 -11l18 -5l-15 -12l6 -8l2 -9l-1 -13l7 -8l-3 -10l8 -7l1 -9v-17l13 -5l-1 -2l16 4l-12 13l13 6l7 10l-11 12l16 5l-11 13l11 6l7 9l-5 10l8 7l-6 11l6 8l6 7l-4 10l7 7l-2 10l1 9l5 6
l-4 9l6 9l-5 9l3 9l5 5l-9 10l11 8l-5 9l2 9l5 6l-4 9l5 9l-12 9l8 9l5 5l-12 9l12 9l-10 9l6 9l5 2l-15 9l15 9l-16 9l11 9l5 2l-4 9l4 9l-11 9l6 9l5 1l-1 9l1 9l-2 9l-3 9l5 2l-6 9l6 9l-8 9l3 9l5 2l-6 9l6 9l-17 9l12 9l5 2l-14 9l14 9l-7 9l2 9l1 -4l9 14l9 -14l9 11
l9 -7l1 -4l9 9l9 -9h9l9 4l1 -4l9 10l9 -10l9 16l9 -12l1 -4l9 14l9 -14l9 13l9 -9l-5 -1l15 -9l-15 -9l3 -9l2 -9l-5 -1l15 -9l-15 -9l16 -9l-11 -9h-5l9 -9l-9 -9l8 -9l-3 -9l-5 -1l10 -9l-10 -9l6 -9l-1 -9l-5 -1l4 -9l-4 -9l16 -9l-11 -9l-5 -1l16 -9l-16 -9l9 -9l-4 -9
l-5 -14l2 -9l-2 -9l13 -9l-9 -9l-5 -12l7 -9l-8 -9l10 -9l-7 -9l-6 -11l8 -10l-10 -8l2 -9l1 -9l-6 -9l4 -10l-7 -7l9 -11l-8 -8l-6 -8l7 -11l-11 -6l14 -13l-14 -6l-7 -7l9 -13l-15 -4l8 -12l-9 -7l-7 -7l5 -12l-12 -5l6 -12l-16 -12l2 -11l-10 -6l2 -10l-5 -8l-9 -7l-4 -9
l-5 -7l-2 -9l-3 -9l-11 -8l4 -13l-14 -2l1 -11l-7 -6l-12 -9l7 -16l-18 2l2 -12l-9 -5v4l-9 -15l-9 15l-9 -14l-9 10v4l-9 -11l-9 11l-9 -15l-9 11v4l-9 -7l-9 7l-9 -1l-9 -3v4h-18l-9 -7l-9 3v4l-9 -9l-9 9l-9 -7l-9 3v4l-9 -16l-9 16l-9 -1l-9 -3v4l-9 -14l-9 14l-9 -9
l-9 5l5 9l-15 9l15 9l-9 9l4 9l5 9l-5 9l5 9l-13 9l8 9l1 -4l9 5l9 -5l9 4h9l2 -4l9 16l9 -16l9 12l9 -8l1 -4l9 16l9 -16l9 5l9 -1l-1 10l-6 7l-4 8l-11 4l-2 9v10l-8 6l-1 10l-12 14l1 10l-14 4l6 12l-4 8l-7 7l1 10l-7 6l1 11l-3 8l-7 7l2 11l-18 4l12 13l-3 8l-6 8l2 11
l-12 6l9 11l-4 9l-4 8l3 11l-19 6l16 12l-7 8v9l4 12l-13 7l11 10l-2 9l-4 9l4 12l-8 9l8 9l-5 9v9zM259 49l-11 12l-6 -9l17 -4v1z" />
    <glyph glyph-name="z" unicode="z" horiz-adv-x="420" 
d="M236 483l-16 5l-9 -11l-9 6l-16 5l-9 -4l-9 -1l-16 5l-9 -3l-9 -2l-16 5l-9 -7l-9 2l-16 5l-9 -3l-9 -2l-16 5l-9 -10l-9 5l4 7l-5 9l5 9v9l-4 9l4 7l-6 9l6 9l-11 9l7 9l4 7l-2 9l2 9l-9 9l5 9v-4l9 1l9 -1h9l9 4v-4l9 11l9 -11l9 17l9 -13l17 -4l9 14l9 -10v-4l9 15
l9 -15l18 4v-4l9 15l9 -15l9 16l9 -12v-4l9 13l9 -13l9 3l9 1v-4l9 8l9 -8h9l9 4l17 -4l9 15l9 -11v-4l9 8l9 -8l9 16l9 -12v-4l9 8l9 -8l18 4l-4 -7l5 -9l-5 -9v-9l4 -9l-4 -6l3 -9l-3 -9l12 -9l-8 -9l-4 -7l17 -9l-17 -9l4 -9v-9l-13 -12l9 -16l-14 -2l-12 -11l5 -14
l-10 -4l-13 -12l3 -12l-8 -6l-12 -12l2 -12l-7 -6l-12 -11l9 -17l-15 -1l-13 -12l9 -16l-14 -2l-12 -12l-1 -10l-4 -8l-12 -11l3 -13l-9 -5l-12 -12l-3 -9l-2 -9l-13 -12l-1 -10l-4 -8l-12 -11l7 -15l-12 -3l-13 -12l3 -12l-8 -6l15 -4l9 17l9 -13l16 -4l9 16l9 -12l15 -4
l9 6l9 -2l15 -4l9 15l9 -11l16 -4l9 9l9 -5l15 -4l9 17l9 -13l-5 -7l11 -9l-11 -9l4 -9l1 -9l-5 -6l17 -9l-17 -9l3 -9l2 -9l-5 -7l6 -9l-6 -9l8 -9l-3 -9v4l-9 -2l-9 2l-9 -8l-9 4v4l-9 -2l-9 2l-9 -14l-9 10l-1 4l-9 -4l-9 4l-18 -4v4l-9 -14l-9 14l-9 -9l-9 5v4l-9 -9
l-9 9l-9 -13l-9 9v4l-9 -3l-9 3l-9 -3l-9 -1v4l-9 -15l-9 15l-9 -16l-9 12l-1 4l-9 -11l-9 11l-9 -16l-9 12v4l-9 -2l-9 2l-9 -3l-9 -1v4l-9 -13l-9 13l-9 -4h-9l5 2l-6 9l6 9l-5 9v9l5 3l-18 9l18 9l-2 9l-3 9l5 2l-7 9l7 9l-10 9l5 9l13 13l-7 15l12 3l13 12l-3 12l8 6
l4 -2l-5 14l14 1l3 10l3 8l13 13l-5 14l10 4l13 12l-6 14l11 4l13 13l3 9l2 9l4 -2l2 9l7 6l2 10l4 8l13 12l-4 13l9 5l13 13l-5 13l10 5l13 13l3 9l2 9l13 12l-1 12l7 6l13 13l-1 11z" />
    <glyph glyph-name="braceleft" unicode="{" horiz-adv-x="454" 
d="M25 296l5 16l-7 9l2 9l5 16l-13 9l8 9l5 16l-6 9l1 9h14l4 -4l7 13l11 -12l8 5l9 -3l8 16l10 -10l10 -1l7 6h10l7 6l8 4l5 -2l1 14l13 -2l-2 17l13 -2l6 2l-5 12l12 4l-9 14l13 4l6 11l-1 9l3 9l-3 9v9l4 6l-17 9l17 9l-7 9l3 9l4 5l-5 9l5 9l-17 9l13 9l4 6l-8 9l8 9
l-12 9l8 9l5 6l-17 9l17 9l-17 9l13 9h5l-5 10l7 8l-5 10l4 8l9 12l-11 13l13 5l11 6l-1 13l9 4l15 4l6 9l7 5l6 -3l4 18l13 -12l6 13l10 -3l17 -2l8 7l10 -4l9 2l8 5l13 -4l9 11l9 -11l9 3l9 -2h9l9 5l13 -5l9 2l9 3l-4 -17l17 -9l-13 -9l-4 -17l4 -9v-9l-4 -17l4 -18h-14
l-5 4l-7 -16l-11 15l-8 -5l-9 3l-18 -6l-7 2l-4 -12l-12 5l-4 -15l-11 4l-5 1l6 -14l-16 -1l2 -11l-8 -6l-6 -13l2 -9l-4 -9l12 -10l-15 -12l12 -9l-12 -9l14 -9l-14 -14l15 -9l-15 -9l1 -9l4 -9l-5 -4l14 -9l-14 -9l14 -9l-9 -9l-5 -7l15 -10l-16 -8l14 -10l-15 -8l7 -9
l-4 -9l-6 -4l-2 -9l-3 -8l11 -13l-12 -6l-15 -10l-2 -11l-6 -6l-7 1l-7 -6l-9 -3l-6 -7l-7 -6l3 -7h10l5 -9l10 -1l8 -4l8 -16l9 -4l6 -7l-2 -8l9 -6l-4 -11l5 -8l4 -8l-4 -7l15 -8l-14 -10l4 -9l-3 -9l13 -8l-7 -10l-5 -4l1 -9l-1 -9l11 -9l-6 -9l-5 -4l14 -9l-14 -9l10 -9
l-5 -9l-5 -4l14 -9l-14 -9l4 -9l1 -9l-3 -13l18 -7l-16 -11l5 -8l2 -9l-3 -4l13 -2l-3 -13l14 -1v-11l3 -6l12 6l5 -13l11 3l7 -6l4 -5l9 5l9 -6l9 1l9 -3l9 7l9 -4h14l-4 -17l12 -9l-8 -9l-4 -17v-9l4 -9l-4 -17v-9l4 -9l-13 4l-9 -12l-9 8l-13 5l-9 -8l-9 8l-9 1h-9
l-9 -17l-9 13l-16 7l-18 2l-10 -13l-8 11l-3 6l-13 -12l-4 17l-9 2l-10 -1l-10 12l-9 2l-9 3l-4 12l-17 -2l2 13l-1 15l-10 6v9l4 1l-2 9l-1 9l-16 6l9 11l4 8l-12 9l12 9l-11 9l10 15l-15 9l15 9l-14 9l10 9l4 6l-9 9l9 9l-17 9l13 9l4 6l-8 9l8 9l-4 9v9l3 12l-17 7l15 11
l-11 7l5 10l3 5l-11 5l3 11l-4 8l-7 7l1 5l-13 -2v14l-10 2l-7 6l-7 7l-11 -5l-6 11l-13 -9l-6 10l-4 5l-10 -8l-8 9l-9 -2l-9 4l-10 -16l-8 13h-14z" />
    <glyph glyph-name="bar" unicode="|" horiz-adv-x="603" 
d="M254 -180l4 15l-14 9l10 9l4 16l-5 9l1 9l4 15l-4 18l4 15l-4 18l4 16l-5 9l1 9l4 15l-4 9v9l4 16l-4 9v9l4 15l-7 9l3 9l4 15l-4 18l4 16l-14 9l10 9l4 15l-3 9l-1 9l4 15l-12 9l8 9l4 16v9l-4 9l4 15l-10 9l6 9l4 16l-13 9l9 9l4 15l-9 9l5 9l4 15l-13 9l9 9l4 16l-3 9
l-1 9l4 15l-17 9l13 9l4 15l-3 9l-1 9l4 16l-9 9l5 9l4 15l-10 9l6 9l4 16l-10 9l6 9l4 15l-6 9l2 9l4 15l-5 9l1 9l4 16l-4 18l4 15l-8 9l4 9l12 -5l9 13l9 -13l9 1l9 4l12 -5l9 1l9 -1l9 13l9 -8l-4 -15l8 -9l-4 -9l-4 -16v-9l4 -9l-4 -15l16 -9l-12 -9l-4 -15v-9l4 -9
l-4 -16l14 -9l-10 -9l-4 -15l15 -9l-11 -9l-4 -16v-9l4 -9l-4 -15l4 -18l-4 -15l14 -9l-10 -9l-4 -16l7 -9l-3 -9l-4 -15l1 -9l3 -9l-4 -15l14 -9l-10 -9l-4 -16l12 -9l-8 -9l-4 -15l10 -9l-6 -9l-4 -16l15 -9l-11 -9l-4 -15l14 -9l-10 -9l-4 -15l9 -9l-5 -9l-4 -16l17 -9
l-13 -9l-4 -15l8 -9l-4 -9l-4 -15l4 -9v-9l-4 -16l16 -9l-12 -9l-4 -15l10 -9l-6 -9l-4 -16l7 -9l-3 -9l-4 -15v-9l4 -9l-4 -15l9 -9l-5 -9l-4 -16l4 -9v-9l-4 -15l7 -9l-3 -9l-12 4l-9 -12l-9 12l-9 -8l-9 4l-12 4l-9 -3l-9 3l-9 -16zM0 -357h1v-1h-1v1z" />
    <glyph glyph-name="braceright" unicode="}" horiz-adv-x="454" 
d="M428 296h-14l-5 4l-7 -17l-11 16l-7 -14l-10 12l-9 -7l-9 1l-9 2l-5 -15l-12 9l-7 -8l-9 -2l-5 2l2 -15l-15 3l-5 -8l-6 -7l-5 -1l10 -15l-18 -2l-1 -9l-2 -9l-6 -11l3 -9l-5 -9l10 -10l-7 -8l-4 -6l14 -9l-14 -9l9 -9l-5 -9l-4 -6l14 -9l-14 -9l1 -9l3 -9l-4 -6l3 -9
l-3 -9l17 -9l-13 -9l-5 -8l8 -9l-8 -9l5 -9l-1 -9h-5l16 -11l-18 -7l6 -10l-5 -8l-9 -12l9 -12l-22 -12l8 -18l-16 1l-15 -4l2 -20l-15 7l-7 3l-7 -9l-10 3l-7 -9h-9l-17 2l-7 -16l-11 14l-8 -10l-9 3l-13 4l-9 -4l-9 4l-9 -16l-9 15l-9 -10l-9 5l-12 4l-9 -5l-9 1l4 17
l-1 9l-3 9l4 17l-10 9l6 9l4 17l-4 18h13l6 -4l9 1h9l8 3l9 -1l8 18l10 -12l7 -2l6 8l10 -1l8 5l7 6l4 -2l-8 16l18 -1l1 10l5 8l6 12l-1 9l3 9l-8 10l6 8l4 4l-12 9l12 9l-12 9l8 9l4 4l-7 9l7 9l-3 9l-1 9l4 4l-13 9l13 9l-11 9l7 9l5 7l-13 10l14 8l-14 10l15 8l1 9l-4 9
l6 5l-10 13l15 4l-10 13l11 6l3 -3l-5 17l17 -3l-5 16h14l7 -1l4 12l12 -3l7 5l6 8l-3 7l-15 -8v17h-11l-7 5l3 3l-7 5l-5 9l-8 4l-7 6l3 7l-8 7l2 10l-6 7l-3 9l4 7l-5 9l4 9l-8 9l7 9l-4 9l-2 9l4 4l-14 9l14 9l-3 9l-1 9l4 5l-12 9l12 9v9l-4 9l4 4l-10 9l10 9l-13 9l9 9
l3 14l-11 8l9 10l-15 7l8 10l3 4l-8 5l-2 10l-19 -3l5 15l-3 6l-10 1l-7 6l-12 -5l-6 8l-4 5l-10 -10l-8 11l-10 -9l-8 11l-9 -6l-9 3h-13l4 17l-5 9l1 9l4 17l-4 18l4 17l-8 9l4 9l12 -5l9 13l9 -8l13 -5h27l9 -1l9 12l9 -8l16 -7l10 7l8 -10l8 -1l10 3l4 -6l14 13l3 -19
l9 -2l10 1l10 -12l16 7l2 -13l4 -12l18 3l-3 -14l1 -15l4 -8l6 -7l-4 -1l4 -9l-1 -9l15 -7l-8 -10l-4 -6l7 -9l-7 -9l2 -9l3 -9l-4 -6l14 -9l-14 -9l12 -9l-8 -9l-4 -5l10 -9l-10 -9l15 -9l-11 -9l-4 -6l14 -9l-14 -9l9 -9l-5 -9l-3 -12l18 -7l-16 -11l9 -8l-3 -9l-2 -5
l8 -6l-1 -11l19 -1l-7 -13l-1 -5l14 2l-1 -14h12l5 -8l7 -7l8 -2l9 -4l11 6l7 -8l3 -5l9 4l9 -5l9 7l9 -9l10 12l8 -9h14l-4 -16l8 -9l-4 -9l-4 -16l3 -9l1 -9l-4 -16l16 -9z" />
    <glyph glyph-name="asciitilde" unicode="~" horiz-adv-x="904" 
d="M798 389l8 5l3 5l-3 2l5 1l-2 -3l10 -7l-13 -9l13 -9l-8 -9l-5 -1l11 -9l-11 -9l17 -9l-12 -9l-5 -1l17 -9l-17 -9l7 -9l-2 -9h-9l1 -18l-16 9l-7 -7l-9 -2v-18l-13 5l-3 4l-3 -17l-13 10l-5 -14l-12 7l-5 -12l-10 1l-14 1l-6 -13l-12 8l-5 -16l-11 7l-12 3l-8 -14
l-10 13l-8 -12l-10 6l-10 5l-10 -16l-8 18l-10 -9l-16 12l-9 -1l-8 5l-13 -14l-6 14l-10 8l-13 -11l-4 16l-10 1h-9l-1 5l-12 -7l-5 12l-14 -12l-3 18h-10l-9 1l-12 8h-9l-8 4l-13 -12l-6 12l-5 5l-11 -10l-6 13l-10 -2l-9 1l-15 5l-9 -10l-9 7l-1 4l-9 -12l-9 11l-9 -1
l-9 -5l-4 4l-9 -3l-9 -1l-8 -4l-8 -5l-8 2l-7 -7l-10 1l-6 -10l-9 -1l-13 -2l-2 -16l-14 7l-8 -4l-6 -8l-3 3l1 -20l-17 11l1 -18l-16 8l-8 -5l-2 -3l1 -4l-4 -1l3 5l-2 5l3 9l-1 9l-3 9l4 1v27l-4 9l4 1l-15 9l15 9l-12 9l8 9l16 4l4 11l12 -2l5 9l8 4h11l7 7l10 1l6 9l8 3
l8 -2l8 6h9l7 9l9 1l6 -3l6 12l11 -9l9 2l8 6l1 -4l9 5l9 -4l9 6h9l9 -5l9 3l9 -5l10 17l8 -14l17 -7l11 11l7 -14l9 2l9 -1l6 -6l11 9l6 -14l10 1l7 -6l12 9l7 -9l7 -7l11 6l6 -11l12 7l5 -12l14 13l5 -14l1 -5l12 13l5 -17l9 -1l8 -4l13 14l6 -14l7 -5l10 10l8 -13h9l9 2
l10 -3l8 7l10 -5l8 2l9 4l14 -1l6 13l11 -7l6 13l10 -4l4 -3l4 12l12 -4l3 15l14 -8l3 14l11 -2l12 2l2 13l13 -3l7 6z" />
    <glyph glyph-name="FLW127" horiz-adv-x="1080" 
 />
    <glyph glyph-name="quotesinglbase" horiz-adv-x="236" 
d="M119 0l-11 4l-9 -12l-9 12l-9 -7l-9 7l-9 -5l-9 1l4 2l-3 9l3 9l-5 9l1 9l4 1l-2 9l2 9l-6 9l2 9l4 1l-11 9l11 9v9l-4 9l4 2l-4 9l4 9l-4 9v9l6 -4l9 4l9 -4l9 17l9 -13l7 -4l9 12l9 -12l9 4h9l6 -4l9 11l9 -11l9 3l9 1l-5 -3l11 -9l-11 -9l9 -9l-4 -9l-5 -3l10 -9
l-10 -9l17 -9l-12 -9l-5 -2l17 -9l-17 -9l2 -9l3 -9l-5 -3l17 -9l-17 -9l12 -9l-7 -9l-5 2l-6 -6l-8 -5l-4 -10l-8 -4l-4 3l-6 -6l-8 -5l-2 -13l-10 -1l-5 2v-14l-14 3l-2 -12l-10 -2l-2 7l-15 -5l-2 12l5 -1l-3 14l15 -1l-2 13l10 4l5 -1l4 8l7 6l6 7z" />
    <glyph glyph-name="quotesinglbase" unicode="&#x201a;" horiz-adv-x="236" 
d="M119 0l-11 4l-9 -12l-9 12l-9 -7l-9 7l-9 -5l-9 1l4 2l-3 9l3 9l-5 9l1 9l4 1l-2 9l2 9l-6 9l2 9l4 1l-11 9l11 9v9l-4 9l4 2l-4 9l4 9l-4 9v9l6 -4l9 4l9 -4l9 17l9 -13l7 -4l9 12l9 -12l9 4h9l6 -4l9 11l9 -11l9 3l9 1l-5 -3l11 -9l-11 -9l9 -9l-4 -9l-5 -3l10 -9
l-10 -9l17 -9l-12 -9l-5 -2l17 -9l-17 -9l2 -9l3 -9l-5 -3l17 -9l-17 -9l12 -9l-7 -9l-5 2l-6 -6l-8 -5l-4 -10l-8 -4l-4 3l-6 -6l-8 -5l-2 -13l-10 -1l-5 2v-14l-14 3l-2 -12l-10 -2l-2 7l-15 -5l-2 12l5 -1l-3 14l15 -1l-2 13l10 4l5 -1l4 8l7 6l6 7z" />
    <glyph glyph-name="quotedblbase" horiz-adv-x="436" 
d="M318 0l-10 4l-9 -12l-9 12l-9 -7l-9 7l-9 -5l-9 1l4 2l-3 9l3 9l-5 9l1 9l4 1l-2 9l2 9l-6 9l2 9l4 1l-11 9l11 9v9l-4 9l4 2l-4 9l4 9l-4 9v9l7 -4l9 4l9 -4l9 17l9 -13l6 -4l9 12l9 -12l9 4h9l7 -4l9 11l9 -11l9 3l9 1l-4 -3l10 -9l-10 -9l8 -9l-4 -9l-4 -3l9 -9l-9 -9
l16 -9l-12 -9l-4 -2l16 -9l-16 -9l1 -9l3 -9l-4 -3l16 -9l-16 -9l11 -9l-7 -9l-5 2l-6 -6l-8 -5l-4 -10l-8 -4l-4 3l-7 -7l-8 -4l-1 -13l-11 -1l-5 2v-14l-14 3l-2 -12l-10 -2l-4 8l-14 -6l-3 12l5 -1l-3 14l15 -1l-2 13l10 4l5 -1l5 9l7 5l5 7zM119 0l-11 4l-9 -10l-9 10
l-9 -9l-9 9l-9 -10l-9 6l4 2l-13 9l13 9l-14 9l10 9l4 1l-11 9l11 9l-17 9l13 9l4 1l-10 9l10 9l-3 9l-1 9l4 2l-16 9l16 9l-14 9l10 9l6 -4l9 1l9 -1l9 10l9 -6l7 -4l9 16l9 -16l18 4l6 -4l9 2l9 -2l9 14l9 -10l-5 -3l13 -9l-13 -9l5 -9v-9l-5 -3l12 -9l-12 -9l12 -9l-7 -9
l-5 -2l1 -9l-1 -9l1 -9l4 -9l-5 -3l2 -9l-2 -9l5 -9v-9l-5 2l-3 -11h-11v-16l-12 2l-4 3l-7 -6l-7 -5l3 -19l-15 5l-5 2l2 -18l-16 7l-7 -5l-5 -9l-2 7l-9 3l-8 4l5 -1l5 7l7 6l5 8l3 9l5 -1l5 8l6 6l-6 17h14z" />
    <glyph glyph-name="quotedblbase" unicode="&#x201e;" horiz-adv-x="436" 
d="M318 0l-10 4l-9 -12l-9 12l-9 -7l-9 7l-9 -5l-9 1l4 2l-3 9l3 9l-5 9l1 9l4 1l-2 9l2 9l-6 9l2 9l4 1l-11 9l11 9v9l-4 9l4 2l-4 9l4 9l-4 9v9l7 -4l9 4l9 -4l9 17l9 -13l6 -4l9 12l9 -12l9 4h9l7 -4l9 11l9 -11l9 3l9 1l-4 -3l10 -9l-10 -9l8 -9l-4 -9l-4 -3l9 -9l-9 -9
l16 -9l-12 -9l-4 -2l16 -9l-16 -9l1 -9l3 -9l-4 -3l16 -9l-16 -9l11 -9l-7 -9l-5 2l-6 -6l-8 -5l-4 -10l-8 -4l-4 3l-7 -7l-8 -4l-1 -13l-11 -1l-5 2v-14l-14 3l-2 -12l-10 -2l-4 8l-14 -6l-3 12l5 -1l-3 14l15 -1l-2 13l10 4l5 -1l5 9l7 5l5 7zM119 0l-11 4l-9 -10l-9 10
l-9 -9l-9 9l-9 -10l-9 6l4 2l-13 9l13 9l-14 9l10 9l4 1l-11 9l11 9l-17 9l13 9l4 1l-10 9l10 9l-3 9l-1 9l4 2l-16 9l16 9l-14 9l10 9l6 -4l9 1l9 -1l9 10l9 -6l7 -4l9 16l9 -16l18 4l6 -4l9 2l9 -2l9 14l9 -10l-5 -3l13 -9l-13 -9l5 -9v-9l-5 -3l12 -9l-12 -9l12 -9l-7 -9
l-5 -2l1 -9l-1 -9l1 -9l4 -9l-5 -3l2 -9l-2 -9l5 -9v-9l-5 2l-3 -11h-11v-16l-12 2l-4 3l-7 -6l-7 -5l3 -19l-15 5l-5 2l2 -18l-16 7l-7 -5l-5 -9l-2 7l-9 3l-8 4l5 -1l5 7l7 6l5 8l3 9l5 -1l5 8l6 6l-6 17h14z" />
    <glyph glyph-name="ellipsis" unicode="&#x85;" horiz-adv-x="1238" 
d="M120 0l4 4l-8 9l8 9l-15 9l11 9l4 3l-3 9l3 9l-6 9l2 9l4 3l-3 9l3 9l-4 18l4 4l-8 9l8 9l-7 9l3 9l2 -4l9 17l9 -17l9 5l9 -1l1 -4l9 16l9 -16l9 8l9 -4l1 -4l9 12l9 -12l9 1l9 3l2 -4l9 1l9 -1l9 4h9l-4 -4l6 -9l-6 -9l15 -9l-11 -9l-4 -3l6 -9l-6 -9l16 -9l-16 -12
l5 -9l-5 -9l15 -9l-11 -9l-4 -4l5 -9l-5 -9l14 -9l-10 -9l-2 4l-9 -8l-9 8l-9 -17l-9 13l-1 4l-9 -9l-9 9l-9 -10l-9 6l-1 4l-9 -13l-9 13l-9 -15l-9 11l-2 4l-9 -16l-9 16l-9 -10zM545 0l5 4l-15 9l15 9l-7 9l2 9l5 3l-3 9l3 9l-17 9l12 9l5 3l-14 9l14 9l-4 9l-1 9l5 4
l-5 9l5 9l-16 9l11 9l1 -4l9 16l9 -16l9 16l9 -12l2 -4l9 11l9 -11l9 17l9 -13l2 -4l9 14l9 -14l9 14l9 -10l1 -4l9 12l9 -12l9 15l9 -11l-5 -4l9 -9l-9 -9l17 -9l-12 -9l-5 -3l17 -9l-17 -9l1 -9l4 -9l-5 -3l1 -9l-1 -9l17 -9l-12 -9l-5 -4l5 -9l-5 -9l7 -9l-2 -9l-1 4
l-9 -8l-9 8l-9 -16l-9 12l-2 4l-9 -3l-9 3l-9 -3l-9 -1l-2 4l-9 -15l-9 15l-9 -17l-9 13l-1 4l-9 -9l-9 9l-9 -11zM969 0l5 4l-1 9l1 9l-16 9l11 9l5 3l-14 9l14 9l-16 9l11 9l5 3l-13 9l13 9l-1 9l-4 9l5 4l-7 9l7 9l-13 9l8 9l1 -4l9 16l9 -16l9 6l9 -2l2 -4l9 4l9 -4
l9 14l9 -10l2 -4l9 2l9 -2l9 16l9 -12l1 -4l9 12l9 -12l9 12l9 -8l-5 -4l16 -9l-16 -9l6 -9l-1 -9l-5 -3l5 -9l-5 -9l12 -9l-7 -9l-5 -3l11 -9l-11 -9l13 -9l-8 -9l-5 -4l11 -9l-11 -9l12 -9l-7 -9l-1 4l-9 -13l-9 13l-18 -4l-2 4l-9 -1l-9 1l-9 -13l-9 9l-2 4l-9 -5l-9 5
l-9 -12l-9 8l-1 4l-9 -16l-9 16z" />
    <glyph glyph-name="ellipsis" unicode="&#x2026;" horiz-adv-x="1238" 
d="M120 0l4 4l-8 9l8 9l-15 9l11 9l4 3l-3 9l3 9l-6 9l2 9l4 3l-3 9l3 9l-4 18l4 4l-8 9l8 9l-7 9l3 9l2 -4l9 17l9 -17l9 5l9 -1l1 -4l9 16l9 -16l9 8l9 -4l1 -4l9 12l9 -12l9 1l9 3l2 -4l9 1l9 -1l9 4h9l-4 -4l6 -9l-6 -9l15 -9l-11 -9l-4 -3l6 -9l-6 -9l16 -9l-16 -12
l5 -9l-5 -9l15 -9l-11 -9l-4 -4l5 -9l-5 -9l14 -9l-10 -9l-2 4l-9 -8l-9 8l-9 -17l-9 13l-1 4l-9 -9l-9 9l-9 -10l-9 6l-1 4l-9 -13l-9 13l-9 -15l-9 11l-2 4l-9 -16l-9 16l-9 -10zM545 0l5 4l-15 9l15 9l-7 9l2 9l5 3l-3 9l3 9l-17 9l12 9l5 3l-14 9l14 9l-4 9l-1 9l5 4
l-5 9l5 9l-16 9l11 9l1 -4l9 16l9 -16l9 16l9 -12l2 -4l9 11l9 -11l9 17l9 -13l2 -4l9 14l9 -14l9 14l9 -10l1 -4l9 12l9 -12l9 15l9 -11l-5 -4l9 -9l-9 -9l17 -9l-12 -9l-5 -3l17 -9l-17 -9l1 -9l4 -9l-5 -3l1 -9l-1 -9l17 -9l-12 -9l-5 -4l5 -9l-5 -9l7 -9l-2 -9l-1 4
l-9 -8l-9 8l-9 -16l-9 12l-2 4l-9 -3l-9 3l-9 -3l-9 -1l-2 4l-9 -15l-9 15l-9 -17l-9 13l-1 4l-9 -9l-9 9l-9 -11zM969 0l5 4l-1 9l1 9l-16 9l11 9l5 3l-14 9l14 9l-16 9l11 9l5 3l-13 9l13 9l-1 9l-4 9l5 4l-7 9l7 9l-13 9l8 9l1 -4l9 16l9 -16l9 6l9 -2l2 -4l9 4l9 -4
l9 14l9 -10l2 -4l9 2l9 -2l9 16l9 -12l1 -4l9 12l9 -12l9 12l9 -8l-5 -4l16 -9l-16 -9l6 -9l-1 -9l-5 -3l5 -9l-5 -9l12 -9l-7 -9l-5 -3l11 -9l-11 -9l13 -9l-8 -9l-5 -4l11 -9l-11 -9l12 -9l-7 -9l-1 4l-9 -13l-9 13l-18 -4l-2 4l-9 -1l-9 1l-9 -13l-9 9l-2 4l-9 -5l-9 5
l-9 -12l-9 8l-1 4l-9 -16l-9 16z" />
    <glyph glyph-name="dagger" 
d="M208 702v-4l9 6l9 -6l9 12l9 -8v-4l9 16l9 -16l9 6l9 -2v-4l9 4l9 -4l9 14l9 -10l-4 -16l4 -18l-4 -17l16 -9l-12 -9l-4 -16l12 -9l-8 -9l-4 -17l12 -9l-8 -9l-4 -16l15 -9l-11 -9l3 -4l9 5l9 -5l9 4h9l3 -4l9 11l9 -11l9 10l9 -6l4 -4l9 12l9 -12l9 10l9 -6l3 -4l9 11
l9 -11l9 13l9 -9l-5 -15l3 -9l2 -9l-5 -15l2 -9l3 -9l-5 -15l14 -9l-9 -9l-3 5l-9 -6l-9 6l-9 -13l-9 8l-4 5l-9 -17l-9 17l-9 -3l-9 -2l-3 5l-9 -15l-9 15l-9 -7l-9 2l-3 5l-9 -3l-9 3l-9 -17l-9 12l-4 -16l13 -9l-9 -9l-4 -15l3 -9l1 -9l-4 -16l4 -9v-9l-4 -15l15 -9
l-11 -9l-4 -16l16 -9l-12 -9l-4 -15l16 -9l-12 -9l-4 -16l11 -9l-7 -9l-4 -15l17 -9l-13 -9l-4 -16l14 -9l-10 -9l-4 -15l14 -9l-10 -9l-4 -16l12 -9l-8 -9l-4 -15l15 -9l-11 -9l-4 -16l8 -9l-4 -9l-4 -15l16 -9l-12 -9l-4 -16l16 -9l-12 -9v4h-27l-9 -4v4l-9 -16l-9 16
l-9 -4h-9v4l-9 -6l-9 6l-9 -8l-9 4l4 16l-16 9l12 9l4 15l-3 9l-1 9l4 16l-3 9l-1 9l4 15l-15 9l11 9l4 16l-17 9l13 9l4 15l-9 9l5 9l4 16l-11 9l7 9l4 15l-8 9l4 9l4 16l-15 9l11 9l4 15l-3 9l-1 9l4 16l-6 9l2 9l4 15l-3 9l-1 9l4 16l-4 18l4 15l-8 9l4 9l4 16l-7 9l3 9
l-3 5l-9 -18l-9 18l-9 -6l-9 1l-3 5l-9 -17l-9 17l-9 -9l-9 4l-4 5l-9 -13l-9 13l-9 -2l-9 -3l-3 5l-9 -2l-9 2l-9 -5h-9l5 15l-7 9l2 9l5 15l-16 9l11 9l5 15l-7 9l2 9l3 -4l9 16l9 -16l9 5l9 -1l4 -4l9 15l9 -15l9 5l9 -1l3 -4l9 14l9 -14l9 8l9 -4l3 -4l9 17l9 -17l9 9
l9 -5l4 16l-10 9l6 9l4 17l-13 9l9 9l4 16l-15 9l11 9l4 17l-16 9l12 9l4 16l-10 9z" />
    <glyph glyph-name="dagger" unicode="&#x2020;" 
d="M208 702v-4l9 6l9 -6l9 12l9 -8v-4l9 16l9 -16l9 6l9 -2v-4l9 4l9 -4l9 14l9 -10l-4 -16l4 -18l-4 -17l16 -9l-12 -9l-4 -16l12 -9l-8 -9l-4 -17l12 -9l-8 -9l-4 -16l15 -9l-11 -9l3 -4l9 5l9 -5l9 4h9l3 -4l9 11l9 -11l9 10l9 -6l4 -4l9 12l9 -12l9 10l9 -6l3 -4l9 11
l9 -11l9 13l9 -9l-5 -15l3 -9l2 -9l-5 -15l2 -9l3 -9l-5 -15l14 -9l-9 -9l-3 5l-9 -6l-9 6l-9 -13l-9 8l-4 5l-9 -17l-9 17l-9 -3l-9 -2l-3 5l-9 -15l-9 15l-9 -7l-9 2l-3 5l-9 -3l-9 3l-9 -17l-9 12l-4 -16l13 -9l-9 -9l-4 -15l3 -9l1 -9l-4 -16l4 -9v-9l-4 -15l15 -9
l-11 -9l-4 -16l16 -9l-12 -9l-4 -15l16 -9l-12 -9l-4 -16l11 -9l-7 -9l-4 -15l17 -9l-13 -9l-4 -16l14 -9l-10 -9l-4 -15l14 -9l-10 -9l-4 -16l12 -9l-8 -9l-4 -15l15 -9l-11 -9l-4 -16l8 -9l-4 -9l-4 -15l16 -9l-12 -9l-4 -16l16 -9l-12 -9v4h-27l-9 -4v4l-9 -16l-9 16
l-9 -4h-9v4l-9 -6l-9 6l-9 -8l-9 4l4 16l-16 9l12 9l4 15l-3 9l-1 9l4 16l-3 9l-1 9l4 15l-15 9l11 9l4 16l-17 9l13 9l4 15l-9 9l5 9l4 16l-11 9l7 9l4 15l-8 9l4 9l4 16l-15 9l11 9l4 15l-3 9l-1 9l4 16l-6 9l2 9l4 15l-3 9l-1 9l4 16l-4 18l4 15l-8 9l4 9l4 16l-7 9l3 9
l-3 5l-9 -18l-9 18l-9 -6l-9 1l-3 5l-9 -17l-9 17l-9 -9l-9 4l-4 5l-9 -13l-9 13l-9 -2l-9 -3l-3 5l-9 -2l-9 2l-9 -5h-9l5 15l-7 9l2 9l5 15l-16 9l11 9l5 15l-7 9l2 9l3 -4l9 16l9 -16l9 5l9 -1l4 -4l9 15l9 -15l9 5l9 -1l3 -4l9 14l9 -14l9 8l9 -4l3 -4l9 17l9 -17l9 9
l9 -5l4 16l-10 9l6 9l4 17l-13 9l9 9l4 16l-15 9l11 9l4 17l-16 9l12 9l4 16l-10 9z" />
    <glyph glyph-name="perthousand" horiz-adv-x="797" 
d="M770 219l-4 -16l15 -9l-11 -9l-4 -15l17 -9l-13 -9l-4 -16l9 -9l-5 -9l-4 -16l11 -9l-7 -9l-4 1l6 -11l-10 -7l14 -12l-18 -5l1 -10v-9l-9 -2l-3 -11l-11 -2l-4 -9l-6 -6l-2 4l-8 -4l-9 1l-8 -10l-10 7l-8 -9l-9 1l-17 7l-12 -16l-6 19l-9 -4l-9 3l-3 9l-18 -5l5 18h-12
l-4 9l1 18l-14 7l11 11l-3 9l-5 8l5 16l-2 9l-3 9l5 16l-5 9v9l5 15l-7 9l2 9l5 16l-16 9l11 9h5l-5 10l8 8l-14 12l18 5l-3 10l2 9l8 2l-4 17l17 -5l3 11l7 5l18 -1l7 15l11 -12l7 10l10 -2l17 -8l12 16l5 -19l11 8l8 -7l4 -10l14 1v-13l15 3l1 -12l-4 -1l17 -6l-14 -12
l18 -5l-14 -12l12 -7zM631 227l-5 -1l14 -9l-14 -9l4 -9l1 -9l-5 -2l5 -9l-5 -9l16 -9l-11 -9l-5 -2l17 -9l-17 -9l17 -9l-12 -9l-5 -1l12 -9l-12 -9l18 -9l-13 -9l9 -12l16 6l-1 -17l16 7l1 -14l15 5v16l15 -5l-2 18l14 -4l4 1l-8 9l8 9l-16 9l12 9l4 2l-16 9l16 9v9l-4 9
l4 2v18l-16 9l12 9l4 1l-4 9l4 9l-6 9l2 9l-10 12l-12 -2l-3 12l-16 -8l-1 15l-14 -5l-6 -8l-9 -2l-5 -8zM83 610l-5 -1l3 -9l-3 -9l17 -9l-12 -9l-5 -1l13 -9l-13 -9l13 -9l-8 -9l-5 -2l16 -9l-16 -9l6 -9l-1 -9l-5 -1l5 -9l-5 -9l12 -9l-7 -9l9 -13l13 3l1 -14l15 5l2 -12
l16 6l1 14l13 -3v15l12 -1l5 1l-14 9l14 9l-3 9l-2 9l5 2l-2 9l2 9l-14 9l9 9l5 1l-6 9l6 9l-13 9l8 9l5 1l-17 9l17 9l-3 9l-2 9l-10 13l-16 -7l1 17h-11l-6 7l-14 -5l-6 -7l-8 -4l3 -18zM499 219l-5 -16l7 -9l-2 -9l-5 -15l1 -9l4 -9l-5 -16l8 -9l-3 -9l-5 -16l6 -9l-1 -9
l-4 1v-9l-4 -9v-9l-4 -8l-1 -9l2 -10l-9 -2l-3 -11l-11 -2v-12l-10 -3l-18 1l-8 -6l-10 3l-6 -17l-11 9l-17 7l-10 -4l-8 7l-9 -3l-9 2l-3 9l-15 -2l2 15l-7 5l-9 4l4 1l-15 6l12 12l-12 6l8 11l-7 8l-1 9l4 16l-6 9l2 9l4 16l-11 9l7 9l4 15l-4 18l4 16l-4 9v9h5l-4 10l7 8
v9l4 8l1 9l-2 10l9 2l-4 17l17 -5l-3 16h13l18 -1l6 17l12 -14l7 14l10 -6l17 -8l9 -1l8 -2l11 4l8 -3l4 -10l15 3l-2 -15l17 6l-1 -15l-4 -1l8 -8l-5 -10l6 -8l-2 -9l16 -6zM222 603l-4 -16l4 -9v-9l-4 -15l12 -9l-8 -9l-4 -16l7 -9l-3 -9l-4 -16l11 -9l-7 -9h-5l10 -11
l-13 -7l-1 -9l-3 -8l14 -12l-13 -7l-10 -3l1 -15l-15 2l-1 -12l-9 -3l-2 4l-5 -19l-12 16l-8 -10l-10 7l-7 -14l-10 6l-17 8l-11 -11l-6 14l-12 -14l-7 13l-2 9l-17 -4l4 16l-18 -4l2 14l4 2l-8 7l5 11l-13 6l9 11l-7 8l-1 9l4 16l-1 9l-3 9l4 16l-13 9l9 9l4 15l-15 9l11 9
l4 16l-4 18l4 -1v9l4 9l-11 11l15 6l-7 11l6 8l8 2l-2 15l15 -3v13l10 3l18 -1l6 17l12 -14l9 4l8 4v-5l9 2l9 -5l9 3l8 -6l12 12l7 -11l4 -10h11l3 -11h12l4 -9l-4 -1l7 -8l-4 -10l19 -5l-15 -12l7 -8zM67 0l-9 4l-9 -13l-9 13l-9 -6l-9 6l-9 -12l-9 8l13 11l-9 17l15 1
l13 11l-6 14l12 3l13 11l-4 14l10 4l13 11v10l6 7l13 11l-9 17l15 1l13 11l-1 12l7 6l13 11l-4 13l10 4l13 11l6 18l13 11l-7 16l13 2l13 11l-5 14l11 3l13 11l-8 17l14 1l13 11l-1 11l7 6l12 11l-4 14l10 4l13 11l-9 17l15 1l13 11l-5 13l11 4l13 11l-9 17l15 1l13 11l1 11
l5 7l13 11l-1 11l7 6l13 11l-9 17l15 1l13 11l2 9l4 8l13 11l-5 14l11 4l13 11l-3 13l9 5l13 11l-3 12l9 5l13 11v11l6 7l7 -5l9 10l9 -10l9 17l9 -17l9 17l9 -12l-13 -11l2 -12l-8 -6l-13 -11l8 -15l-14 -2l-13 -11l-1 -11l-5 -7l-13 -11l1 -11l-7 -6l-12 -11v-11l-6 -7
l-13 -11l10 -18h-16l-13 -11l5 -14l-11 -3l-13 -11l8 -16l-14 -2l-13 -11l4 -14l-10 -4l-13 -11l7 -15l-13 -2l-13 -11l2 -12l-8 -6l-13 -11v-10l-6 -7l-12 -11l-6 -18l-13 -11l-6 -18l-13 -11l6 -15l-12 -2l-13 -11l4 -14l-10 -4l-13 -11l6 -15l-12 -3l-13 -11l1 -11l-7 -6
l-13 -11l5 -15l-11 -3l-13 -11l7 -15l-13 -2l-12 -11l7 -15l-13 -3l-13 -11l-1 -11l-5 -7l-13 -11l5 -13l-11 -4l-13 -11zM360 227l-4 -1l10 -9l-10 -9l1 -9l3 -9l-4 -2l17 -9l-17 -9l6 -9l-2 -9l-4 -2l4 -9l-4 -9l6 -9l-2 -9l-4 -1l6 -9l-6 -9l15 -9l-11 -9l11 -13l13 3
l2 -13l10 -1l7 -6l15 5l5 8l9 3l2 12l10 2l4 1l-16 9l16 9l-9 9l5 9l4 2l-15 9l15 9v9l-4 9l4 2l-8 9l8 9l-6 9l2 9l4 1l-4 9l4 9l-4 9v9l-10 12l-8 4l-7 6l-17 -9v16l-15 -5l2 -19l-17 9l-7 -6z" />
    <glyph glyph-name="perthousand" unicode="&#x2030;" horiz-adv-x="797" 
d="M770 219l-4 -16l15 -9l-11 -9l-4 -15l17 -9l-13 -9l-4 -16l9 -9l-5 -9l-4 -16l11 -9l-7 -9l-4 1l6 -11l-10 -7l14 -12l-18 -5l1 -10v-9l-9 -2l-3 -11l-11 -2l-4 -9l-6 -6l-2 4l-8 -4l-9 1l-8 -10l-10 7l-8 -9l-9 1l-17 7l-12 -16l-6 19l-9 -4l-9 3l-3 9l-18 -5l5 18h-12
l-4 9l1 18l-14 7l11 11l-3 9l-5 8l5 16l-2 9l-3 9l5 16l-5 9v9l5 15l-7 9l2 9l5 16l-16 9l11 9h5l-5 10l8 8l-14 12l18 5l-3 10l2 9l8 2l-4 17l17 -5l3 11l7 5l18 -1l7 15l11 -12l7 10l10 -2l17 -8l12 16l5 -19l11 8l8 -7l4 -10l14 1v-13l15 3l1 -12l-4 -1l17 -6l-14 -12
l18 -5l-14 -12l12 -7zM631 227l-5 -1l14 -9l-14 -9l4 -9l1 -9l-5 -2l5 -9l-5 -9l16 -9l-11 -9l-5 -2l17 -9l-17 -9l17 -9l-12 -9l-5 -1l12 -9l-12 -9l18 -9l-13 -9l9 -12l16 6l-1 -17l16 7l1 -14l15 5v16l15 -5l-2 18l14 -4l4 1l-8 9l8 9l-16 9l12 9l4 2l-16 9l16 9v9l-4 9
l4 2v18l-16 9l12 9l4 1l-4 9l4 9l-6 9l2 9l-10 12l-12 -2l-3 12l-16 -8l-1 15l-14 -5l-6 -8l-9 -2l-5 -8zM83 610l-5 -1l3 -9l-3 -9l17 -9l-12 -9l-5 -1l13 -9l-13 -9l13 -9l-8 -9l-5 -2l16 -9l-16 -9l6 -9l-1 -9l-5 -1l5 -9l-5 -9l12 -9l-7 -9l9 -13l13 3l1 -14l15 5l2 -12
l16 6l1 14l13 -3v15l12 -1l5 1l-14 9l14 9l-3 9l-2 9l5 2l-2 9l2 9l-14 9l9 9l5 1l-6 9l6 9l-13 9l8 9l5 1l-17 9l17 9l-3 9l-2 9l-10 13l-16 -7l1 17h-11l-6 7l-14 -5l-6 -7l-8 -4l3 -18zM499 219l-5 -16l7 -9l-2 -9l-5 -15l1 -9l4 -9l-5 -16l8 -9l-3 -9l-5 -16l6 -9l-1 -9
l-4 1v-9l-4 -9v-9l-4 -8l-1 -9l2 -10l-9 -2l-3 -11l-11 -2v-12l-10 -3l-18 1l-8 -6l-10 3l-6 -17l-11 9l-17 7l-10 -4l-8 7l-9 -3l-9 2l-3 9l-15 -2l2 15l-7 5l-9 4l4 1l-15 6l12 12l-12 6l8 11l-7 8l-1 9l4 16l-6 9l2 9l4 16l-11 9l7 9l4 15l-4 18l4 16l-4 9v9h5l-4 10l7 8
v9l4 8l1 9l-2 10l9 2l-4 17l17 -5l-3 16h13l18 -1l6 17l12 -14l7 14l10 -6l17 -8l9 -1l8 -2l11 4l8 -3l4 -10l15 3l-2 -15l17 6l-1 -15l-4 -1l8 -8l-5 -10l6 -8l-2 -9l16 -6zM222 603l-4 -16l4 -9v-9l-4 -15l12 -9l-8 -9l-4 -16l7 -9l-3 -9l-4 -16l11 -9l-7 -9h-5l10 -11
l-13 -7l-1 -9l-3 -8l14 -12l-13 -7l-10 -3l1 -15l-15 2l-1 -12l-9 -3l-2 4l-5 -19l-12 16l-8 -10l-10 7l-7 -14l-10 6l-17 8l-11 -11l-6 14l-12 -14l-7 13l-2 9l-17 -4l4 16l-18 -4l2 14l4 2l-8 7l5 11l-13 6l9 11l-7 8l-1 9l4 16l-1 9l-3 9l4 16l-13 9l9 9l4 15l-15 9l11 9
l4 16l-4 18l4 -1v9l4 9l-11 11l15 6l-7 11l6 8l8 2l-2 15l15 -3v13l10 3l18 -1l6 17l12 -14l9 4l8 4v-5l9 2l9 -5l9 3l8 -6l12 12l7 -11l4 -10h11l3 -11h12l4 -9l-4 -1l7 -8l-4 -10l19 -5l-15 -12l7 -8zM67 0l-9 4l-9 -13l-9 13l-9 -6l-9 6l-9 -12l-9 8l13 11l-9 17l15 1
l13 11l-6 14l12 3l13 11l-4 14l10 4l13 11v10l6 7l13 11l-9 17l15 1l13 11l-1 12l7 6l13 11l-4 13l10 4l13 11l6 18l13 11l-7 16l13 2l13 11l-5 14l11 3l13 11l-8 17l14 1l13 11l-1 11l7 6l12 11l-4 14l10 4l13 11l-9 17l15 1l13 11l-5 13l11 4l13 11l-9 17l15 1l13 11l1 11
l5 7l13 11l-1 11l7 6l13 11l-9 17l15 1l13 11l2 9l4 8l13 11l-5 14l11 4l13 11l-3 13l9 5l13 11l-3 12l9 5l13 11v11l6 7l7 -5l9 10l9 -10l9 17l9 -17l9 17l9 -12l-13 -11l2 -12l-8 -6l-13 -11l8 -15l-14 -2l-13 -11l-1 -11l-5 -7l-13 -11l1 -11l-7 -6l-12 -11v-11l-6 -7
l-13 -11l10 -18h-16l-13 -11l5 -14l-11 -3l-13 -11l8 -16l-14 -2l-13 -11l4 -14l-10 -4l-13 -11l7 -15l-13 -2l-13 -11l2 -12l-8 -6l-13 -11v-10l-6 -7l-12 -11l-6 -18l-13 -11l-6 -18l-13 -11l6 -15l-12 -2l-13 -11l4 -14l-10 -4l-13 -11l6 -15l-12 -3l-13 -11l1 -11l-7 -6
l-13 -11l5 -15l-11 -3l-13 -11l7 -15l-13 -2l-12 -11l7 -15l-13 -3l-13 -11l-1 -11l-5 -7l-13 -11l5 -13l-11 -4l-13 -11zM360 227l-4 -1l10 -9l-10 -9l1 -9l3 -9l-4 -2l17 -9l-17 -9l6 -9l-2 -9l-4 -2l4 -9l-4 -9l6 -9l-2 -9l-4 -1l6 -9l-6 -9l15 -9l-11 -9l11 -13l13 3
l2 -13l10 -1l7 -6l15 5l5 8l9 3l2 12l10 2l4 1l-16 9l16 9l-9 9l5 9l4 2l-15 9l15 9v9l-4 9l4 2l-8 9l8 9l-6 9l2 9l4 1l-4 9l4 9l-4 9v9l-10 12l-8 4l-7 6l-17 -9v16l-15 -5l2 -19l-17 9l-7 -6z" />
    <glyph glyph-name="quoteleft" horiz-adv-x="236" 
d="M118 630l9 -4l9 5l9 -5l9 5l9 -5h9l4 2l5 -9l-5 -9l5 -9v-9l-5 -1l6 -9l-6 -9l7 -9l-2 -9l-5 -1l14 -9l-14 -9l8 -9l-3 -9l-5 -2l10 -9l-10 -9l2 -9l3 -9l-6 4l-9 -13l-9 13l-9 -14l-9 10l-7 4l-9 -15l-9 15l-9 -7l-9 3l-6 4l-9 -14l-9 14l-9 -10l-9 6l4 3l-7 9l7 9
l-11 9l7 9l4 3l-12 9l12 9l-16 9l12 9l4 2l-4 9l4 9l-12 9l8 9l4 3l-6 9l6 9l-5 9l1 9l5 -2l-1 16l15 -5l7 6l5 8l4 -3l5 8l9 3l-2 18l14 -4l5 -2l2 12l12 -1l-1 17l13 -3l3 -7l14 5l3 -12l-5 1l5 -16l-16 2l-2 -11l-6 -6l-5 2l3 -14h-14l-2 -10z" />
    <glyph glyph-name="quoteleft" unicode="&#x2018;" horiz-adv-x="236" 
d="M118 630l9 -4l9 5l9 -5l9 5l9 -5h9l4 2l5 -9l-5 -9l5 -9v-9l-5 -1l6 -9l-6 -9l7 -9l-2 -9l-5 -1l14 -9l-14 -9l8 -9l-3 -9l-5 -2l10 -9l-10 -9l2 -9l3 -9l-6 4l-9 -13l-9 13l-9 -14l-9 10l-7 4l-9 -15l-9 15l-9 -7l-9 3l-6 4l-9 -14l-9 14l-9 -10l-9 6l4 3l-7 9l7 9
l-11 9l7 9l4 3l-12 9l12 9l-16 9l12 9l4 2l-4 9l4 9l-12 9l8 9l4 3l-6 9l6 9l-5 9l1 9l5 -2l-1 16l15 -5l7 6l5 8l4 -3l5 8l9 3l-2 18l14 -4l5 -2l2 12l12 -1l-1 17l13 -3l3 -7l14 5l3 -12l-5 1l5 -16l-16 2l-2 -11l-6 -6l-5 2l3 -14h-14l-2 -10z" />
    <glyph glyph-name="quoteright" horiz-adv-x="236" 
d="M119 552l-11 4l-9 -5l-9 5l-9 -5l-9 5h-9l-9 -4l4 2l-4 9l4 9l-4 9v9l4 1l-5 9l5 9l-6 9l2 9l4 1l-13 9l13 9l-7 9l3 9l4 2l-9 9l9 9l-1 9l-3 9l6 -4l9 13l9 -13l9 14l9 -10l7 -4l9 15l9 -15l9 7l9 -3l6 -4l9 14l9 -14l9 10l9 -6l-5 -3l8 -9l-8 -9l12 -9l-7 -9l-5 -3
l13 -9l-13 -9l17 -9l-12 -9l-5 -2l5 -9l-5 -9l13 -9l-8 -9l-5 -3l7 -9l-7 -9l6 -9l-1 -9l-5 2l1 -16l-15 5l-7 -6l-5 -8l-4 2l-6 -7l-8 -3l3 -19l-15 4l-5 2l-2 -12l-12 1l1 -17l-13 3l-2 7l-15 -5l-2 12l5 -1l-5 16l16 -2l2 11l6 6l5 -1l-2 15l14 -1l2 10z" />
    <glyph glyph-name="quoteright" unicode="&#x2019;" horiz-adv-x="236" 
d="M119 552l-11 4l-9 -5l-9 5l-9 -5l-9 5h-9l-9 -4l4 2l-4 9l4 9l-4 9v9l4 1l-5 9l5 9l-6 9l2 9l4 1l-13 9l13 9l-7 9l3 9l4 2l-9 9l9 9l-1 9l-3 9l6 -4l9 13l9 -13l9 14l9 -10l7 -4l9 15l9 -15l9 7l9 -3l6 -4l9 14l9 -14l9 10l9 -6l-5 -3l8 -9l-8 -9l12 -9l-7 -9l-5 -3
l13 -9l-13 -9l17 -9l-12 -9l-5 -2l5 -9l-5 -9l13 -9l-8 -9l-5 -3l7 -9l-7 -9l6 -9l-1 -9l-5 2l1 -16l-15 5l-7 -6l-5 -8l-4 2l-6 -7l-8 -3l3 -19l-15 4l-5 2l-2 -12l-12 1l1 -17l-13 3l-2 7l-15 -5l-2 12l5 -1l-5 16l16 -2l2 11l6 6l5 -1l-2 15l14 -1l2 10z" />
    <glyph glyph-name="quotedblleft" horiz-adv-x="436" 
d="M316 630l15 -4l9 5l9 -1l15 -4h9l5 2l4 -9l-4 -9l4 -9v-9l-4 -1l5 -9l-5 -9l6 -9l-2 -9l-4 -1l13 -9l-13 -9l7 -9l-3 -9l-4 -2l9 -9l-9 -9l1 -9l3 -9l-7 4l-9 -13l-9 13l-9 -14l-9 10l-6 4l-9 -15l-9 15l-9 -7l-9 3l-7 4l-9 -14l-9 14l-9 -10l-9 6l4 3l-7 9l7 9l-11 9
l7 9l4 3l-12 9l12 9l-16 9l12 9l4 2l-4 9l4 9l-12 9l8 9l4 3l-6 9l6 9l-5 9l1 9l5 -2l-1 16l15 -5l7 6l5 8l4 -3l6 8l9 3l-2 19l14 -5l5 -2l2 12l12 -1l-1 17l13 -3l3 -7l14 5l3 -12h-6l5 -16l-17 3l-1 -11l-7 -6l-5 1l3 -14l-15 1l-2 -10zM118 630l9 -4l9 9l9 -9l9 6l9 -6
l9 8l9 -4l-5 -2l16 -9l-16 -9l11 -9l-6 -9l-5 -1l17 -9l-17 -9l9 -9l-4 -9l-5 -1l3 -9l-3 -9l13 -9l-8 -9l-5 -2l9 -9l-9 -9l11 -9l-6 -9l-6 4l-9 -7l-9 7l-9 -3l-9 -1l-7 4l-9 -3l-9 3l-9 -8l-9 4l-6 4l-9 -11l-9 11l-9 -7l-9 3l4 3l-2 9l2 9l-4 18l4 3l-8 9l8 9l-17 9
l13 9l4 2l-6 9l6 9l-4 18l4 3l-3 9l3 9l-5 9l1 9l5 -2l6 6l8 5l-1 17l13 -3l4 -3l6 7l8 4l1 14h11l5 -2l-3 19l17 -8l12 14l3 -7h11l6 -7l-5 1l1 -12l-12 -2l-5 -8l-3 -9l-5 2l-2 -10l-9 -4l-2 -11z" />
    <glyph glyph-name="quotedblleft" unicode="&#x201c;" horiz-adv-x="436" 
d="M316 630l15 -4l9 5l9 -1l15 -4h9l5 2l4 -9l-4 -9l4 -9v-9l-4 -1l5 -9l-5 -9l6 -9l-2 -9l-4 -1l13 -9l-13 -9l7 -9l-3 -9l-4 -2l9 -9l-9 -9l1 -9l3 -9l-7 4l-9 -13l-9 13l-9 -14l-9 10l-6 4l-9 -15l-9 15l-9 -7l-9 3l-7 4l-9 -14l-9 14l-9 -10l-9 6l4 3l-7 9l7 9l-11 9
l7 9l4 3l-12 9l12 9l-16 9l12 9l4 2l-4 9l4 9l-12 9l8 9l4 3l-6 9l6 9l-5 9l1 9l5 -2l-1 16l15 -5l7 6l5 8l4 -3l6 8l9 3l-2 19l14 -5l5 -2l2 12l12 -1l-1 17l13 -3l3 -7l14 5l3 -12h-6l5 -16l-17 3l-1 -11l-7 -6l-5 1l3 -14l-15 1l-2 -10zM118 630l9 -4l9 9l9 -9l9 6l9 -6
l9 8l9 -4l-5 -2l16 -9l-16 -9l11 -9l-6 -9l-5 -1l17 -9l-17 -9l9 -9l-4 -9l-5 -1l3 -9l-3 -9l13 -9l-8 -9l-5 -2l9 -9l-9 -9l11 -9l-6 -9l-6 4l-9 -7l-9 7l-9 -3l-9 -1l-7 4l-9 -3l-9 3l-9 -8l-9 4l-6 4l-9 -11l-9 11l-9 -7l-9 3l4 3l-2 9l2 9l-4 18l4 3l-8 9l8 9l-17 9
l13 9l4 2l-6 9l6 9l-4 18l4 3l-3 9l3 9l-5 9l1 9l5 -2l6 6l8 5l-1 17l13 -3l4 -3l6 7l8 4l1 14h11l5 -2l-3 19l17 -8l12 14l3 -7h11l6 -7l-5 1l1 -12l-12 -2l-5 -8l-3 -9l-5 2l-2 -10l-9 -4l-2 -11z" />
    <glyph glyph-name="quotedblright" horiz-adv-x="436" 
d="M318 552l-10 4l-9 -9l-9 9l-9 -17l-9 17l-9 -5l-9 1l4 2l-7 9l7 9l-15 9l11 9l4 1l-17 9l17 9l-12 9l8 9l4 1l-7 9l7 9l-7 9l3 9l4 2l-17 9l17 9l-8 9l4 9l7 -4l9 17l9 -17l9 11l9 -7l6 -4l9 13l9 -13l9 3l9 1l7 -4l9 7l9 -7l9 17l9 -13l-4 -3l6 -9l-6 -9l9 -9l-5 -9
l-4 -3l7 -9l-7 -9v-9l4 -9l-4 -2l11 -9l-11 -9l14 -9l-10 -9l-4 -3l14 -9l-14 -9l11 -9l-7 -9l-5 2l2 -18l-16 7l1 -16l-13 2l-5 2l2 -17l-16 6l-3 -11l-9 -3l-5 2l-2 -12l-12 1l-7 -6l-5 -8l-4 8l-17 -10v16l5 -1l-4 16l16 -2l1 11l7 6l5 -1l-2 14h14l1 11zM119 552l-11 4
l-1 -2zM111 535l-6 15l-6 -10l-9 16l-9 -5l-9 5l-18 -4l4 2l-4 9l4 9l-16 9l12 9l4 1l-8 9l8 9v9l-4 9l4 1l-4 9l4 9l-15 9l11 9l4 2l-10 9l10 9l-9 9l5 9l6 -4l9 6l9 -6l9 15l9 -11l7 -4l9 17l9 -17l9 1l9 3l6 -4l9 6l9 -6l9 3l9 1l-5 -3l13 -9l-13 -9l4 -9l1 -9l-5 -3
l18 -9l-18 -9l17 -9l-12 -9l-5 -2l6 -9l-6 -9l7 -9l-2 -9l-5 -3l12 -9l-12 -9l12 -9l-7 -9l-5 2l-5 -8l-9 -3l-7 -6l-5 -8l-4 2v-14l-14 4l-6 -8l-6 -7l-5 2l-4 -10l-10 -1l-3 -11l-9 -3l-2 7l-15 -5l-2 12l5 -1l-7 17l18 -3l4 8l4 9l5 -1l-6 17z" />
    <glyph glyph-name="quotedblright" unicode="&#x201d;" horiz-adv-x="436" 
d="M318 552l-10 4l-9 -9l-9 9l-9 -17l-9 17l-9 -5l-9 1l4 2l-7 9l7 9l-15 9l11 9l4 1l-17 9l17 9l-12 9l8 9l4 1l-7 9l7 9l-7 9l3 9l4 2l-17 9l17 9l-8 9l4 9l7 -4l9 17l9 -17l9 11l9 -7l6 -4l9 13l9 -13l9 3l9 1l7 -4l9 7l9 -7l9 17l9 -13l-4 -3l6 -9l-6 -9l9 -9l-5 -9
l-4 -3l7 -9l-7 -9v-9l4 -9l-4 -2l11 -9l-11 -9l14 -9l-10 -9l-4 -3l14 -9l-14 -9l11 -9l-7 -9l-5 2l2 -18l-16 7l1 -16l-13 2l-5 2l2 -17l-16 6l-3 -11l-9 -3l-5 2l-2 -12l-12 1l-7 -6l-5 -8l-4 8l-17 -10v16l5 -1l-4 16l16 -2l1 11l7 6l5 -1l-2 14h14l1 11zM119 552l-11 4
l-1 -2zM111 535l-6 15l-6 -10l-9 16l-9 -5l-9 5l-18 -4l4 2l-4 9l4 9l-16 9l12 9l4 1l-8 9l8 9v9l-4 9l4 1l-4 9l4 9l-15 9l11 9l4 2l-10 9l10 9l-9 9l5 9l6 -4l9 6l9 -6l9 15l9 -11l7 -4l9 17l9 -17l9 1l9 3l6 -4l9 6l9 -6l9 3l9 1l-5 -3l13 -9l-13 -9l4 -9l1 -9l-5 -3
l18 -9l-18 -9l17 -9l-12 -9l-5 -2l6 -9l-6 -9l7 -9l-2 -9l-5 -3l12 -9l-12 -9l12 -9l-7 -9l-5 2l-5 -8l-9 -3l-7 -6l-5 -8l-4 2v-14l-14 4l-6 -8l-6 -7l-5 2l-4 -10l-10 -1l-3 -11l-9 -3l-2 7l-15 -5l-2 12l5 -1l-7 17l18 -3l4 8l4 9l5 -1l-6 17z" />
    <glyph glyph-name="bullet" horiz-adv-x="718" 
d="M191 382l5 5l-10 10l13 8l-2 9v9l6 2l3 8l5 8l-6 13l10 5h6l4 8l8 5l2 11l6 6l6 -1l4 10l11 -1l1 16l12 -2l8 -2l3 18l13 -12l16 10l8 -4l7 17l11 -15l7 19l10 -12l7 -5l10 8l8 -10l11 16l7 -14l5 -7l10 2l7 -8l11 4l7 -6l1 -6l16 8l-1 -18l18 10v-22l15 2l-3 -16l12 -1
l3 -9l-2 -6l11 -4l-3 -12h19l-7 -14l-4 -5l10 -8l-7 -10l18 -6l-16 -16l10 -10l-13 -8l12 -10l-10 -8l-6 -1v-10l-8 -6l3 -11l-7 -7h-6l7 -19l-19 5l-1 -11l-8 -5l-7 1l-2 -13l-13 3l-3 -11l-9 -3l-8 2l-8 -4l-9 -2l-4 -14l-11 3l-9 4l-7 -16l-11 14l-7 -16l-10 9l-8 5
l-10 -10l-8 12l-10 -14l-12 18l-13 -10l-4 17l-13 -11l-5 13l-2 7l-11 -2l-4 12l-12 -3l-5 9l1 6l-7 6l-5 7l-19 -4l4 15l3 5l-16 2l8 14l-10 5l-2 9l4 6l-12 7l9 11l-8 8z" />
    <glyph glyph-name="bullet" unicode="&#x2022;" horiz-adv-x="718" 
d="M191 382l5 5l-10 10l13 8l-2 9v9l6 2l3 8l5 8l-6 13l10 5h6l4 8l8 5l2 11l6 6l6 -1l4 10l11 -1l1 16l12 -2l8 -2l3 18l13 -12l16 10l8 -4l7 17l11 -15l7 19l10 -12l7 -5l10 8l8 -10l11 16l7 -14l5 -7l10 2l7 -8l11 4l7 -6l1 -6l16 8l-1 -18l18 10v-22l15 2l-3 -16l12 -1
l3 -9l-2 -6l11 -4l-3 -12h19l-7 -14l-4 -5l10 -8l-7 -10l18 -6l-16 -16l10 -10l-13 -8l12 -10l-10 -8l-6 -1v-10l-8 -6l3 -11l-7 -7h-6l7 -19l-19 5l-1 -11l-8 -5l-7 1l-2 -13l-13 3l-3 -11l-9 -3l-8 2l-8 -4l-9 -2l-4 -14l-11 3l-9 4l-7 -16l-11 14l-7 -16l-10 9l-8 5
l-10 -10l-8 12l-10 -14l-12 18l-13 -10l-4 17l-13 -11l-5 13l-2 7l-11 -2l-4 12l-12 -3l-5 9l1 6l-7 6l-5 7l-19 -4l4 15l3 5l-16 2l8 14l-10 5l-2 9l4 6l-12 7l9 11l-8 8z" />
    <glyph glyph-name="endash" horiz-adv-x="543" 
d="M17 361l16 -5l9 16l9 -11l16 -5l9 18l9 -13l16 -5l9 10l9 -5l16 -5l9 18l9 -13l16 -5l9 6l9 -1l16 -5l9 8l9 -3l16 -5l9 16l9 -11l15 -5l9 18l9 -13l16 -5l9 13l9 -8l16 -5l9 8l9 -3l16 -5l9 8l9 -3l16 -5l9 18l9 -13l16 -5l9 9l9 -4l16 -5l9 18l9 -13l16 -5l9 12l9 -7
l-4 -12l13 -9l-13 -9l3 -9l1 -9l-4 -12l7 -9l-7 -9l17 -9l-13 -9l-16 5l-9 -7l-9 2l-16 5l-9 -10l-9 5l-16 5l-9 -8l-9 3l-16 5l-9 -1l-9 -4l-16 5l-9 -12l-9 7l-16 5l-9 -15l-9 10l-16 5l-9 -15l-9 10l-15 5l-9 -12l-9 7l-16 5l-9 -16l-9 11l-16 5l-9 -15l-9 10l-16 5
l-9 -15l-9 10l-16 5l-9 -8l-9 3l-16 5l-9 -9l-9 4l-16 5l-9 -2l-9 -3l-16 5l-9 -18l-9 13l5 12l-13 9l13 9l-7 9l2 9l5 12l-11 9l11 9l-7 9z" />
    <glyph glyph-name="endash" unicode="&#x2013;" horiz-adv-x="543" 
d="M17 361l16 -5l9 16l9 -11l16 -5l9 18l9 -13l16 -5l9 10l9 -5l16 -5l9 18l9 -13l16 -5l9 6l9 -1l16 -5l9 8l9 -3l16 -5l9 16l9 -11l15 -5l9 18l9 -13l16 -5l9 13l9 -8l16 -5l9 8l9 -3l16 -5l9 8l9 -3l16 -5l9 18l9 -13l16 -5l9 9l9 -4l16 -5l9 18l9 -13l16 -5l9 12l9 -7
l-4 -12l13 -9l-13 -9l3 -9l1 -9l-4 -12l7 -9l-7 -9l17 -9l-13 -9l-16 5l-9 -7l-9 2l-16 5l-9 -10l-9 5l-16 5l-9 -8l-9 3l-16 5l-9 -1l-9 -4l-16 5l-9 -12l-9 7l-16 5l-9 -15l-9 10l-16 5l-9 -15l-9 10l-15 5l-9 -12l-9 7l-16 5l-9 -16l-9 11l-16 5l-9 -15l-9 10l-16 5
l-9 -15l-9 10l-16 5l-9 -8l-9 3l-16 5l-9 -9l-9 4l-16 5l-9 -2l-9 -3l-16 5l-9 -18l-9 13l5 12l-13 9l13 9l-7 9l2 9l5 12l-11 9l11 9l-7 9z" />
    <glyph glyph-name="emdash" horiz-adv-x="1085" 
d="M66 361l16 -5l9 16l9 -11l16 -5l9 11l9 -6l16 -5l9 10l9 -5l16 -5l9 7l9 -2l16 -5l9 16l9 -11l16 -5l9 18l9 -13l16 -5l9 2l9 3l17 -5l9 7l9 -2l16 -5l9 4l9 1l16 -5l9 13l9 -8l16 -5l9 4l9 1l16 -5l9 18l9 -13l16 -5l9 17l9 -12l16 -5l9 6l9 -1l16 -5l9 7l9 -2l16 -5
l9 12l9 -7l16 -5l9 12l9 -7l16 -5l9 4l9 1l16 -5l9 2l9 3l16 -5l9 12l9 -7l17 -5l9 3l9 2l16 -5l9 6l9 -1l16 -5l9 7l9 -2l16 -5l9 13l9 -8l16 -5l9 17l9 -12l16 -5l9 2l9 3l16 -5l9 16l9 -11l16 -5l9 18l9 -13l-4 -12l9 -9l-9 -9l17 -9l-13 -9l-4 -12l5 -9l-5 -9l7 -9
l-3 -9l-16 5l-9 -16l-9 11l-16 5l-9 -18l-9 13l-16 5l-9 -13l-9 8l-16 5l-9 -8l-9 3l-16 5l-9 -8l-9 3l-16 5l-9 -18l-9 13l-16 5l-9 -9l-9 4l-17 5l-9 -18l-9 13l-16 5l-9 -12l-9 7l-16 5l-9 -14l-9 9l-16 5l-9 -4l-9 -1l-16 5l-9 -8l-9 3l-16 5l-9 -18l-9 13l-16 5l-9 -7
l-9 2l-16 5l-9 -10l-9 5l-16 5l-9 -8l-9 3l-16 5l-9 -1l-9 -4l-16 5l-9 -12l-9 7l-16 5l-9 -15l-9 10l-16 5l-9 -15l-9 10l-17 5l-9 -12l-9 7l-16 5l-9 -16l-9 11l-16 5l-9 -15l-9 10l-16 5l-9 -15l-9 10l-16 5l-9 -8l-9 3l-16 5l-9 -9l-9 4l-16 5l-9 -2l-9 -3l-16 5l-9 -18
l-9 13l4 12l-12 9l12 9l-6 9l2 9l4 12l-10 9l10 9l-6 9z" />
    <glyph glyph-name="emdash" unicode="&#x2014;" horiz-adv-x="1085" 
d="M66 361l16 -5l9 16l9 -11l16 -5l9 11l9 -6l16 -5l9 10l9 -5l16 -5l9 7l9 -2l16 -5l9 16l9 -11l16 -5l9 18l9 -13l16 -5l9 2l9 3l17 -5l9 7l9 -2l16 -5l9 4l9 1l16 -5l9 13l9 -8l16 -5l9 4l9 1l16 -5l9 18l9 -13l16 -5l9 17l9 -12l16 -5l9 6l9 -1l16 -5l9 7l9 -2l16 -5
l9 12l9 -7l16 -5l9 12l9 -7l16 -5l9 4l9 1l16 -5l9 2l9 3l16 -5l9 12l9 -7l17 -5l9 3l9 2l16 -5l9 6l9 -1l16 -5l9 7l9 -2l16 -5l9 13l9 -8l16 -5l9 17l9 -12l16 -5l9 2l9 3l16 -5l9 16l9 -11l16 -5l9 18l9 -13l-4 -12l9 -9l-9 -9l17 -9l-13 -9l-4 -12l5 -9l-5 -9l7 -9
l-3 -9l-16 5l-9 -16l-9 11l-16 5l-9 -18l-9 13l-16 5l-9 -13l-9 8l-16 5l-9 -8l-9 3l-16 5l-9 -8l-9 3l-16 5l-9 -18l-9 13l-16 5l-9 -9l-9 4l-17 5l-9 -18l-9 13l-16 5l-9 -12l-9 7l-16 5l-9 -14l-9 9l-16 5l-9 -4l-9 -1l-16 5l-9 -8l-9 3l-16 5l-9 -18l-9 13l-16 5l-9 -7
l-9 2l-16 5l-9 -10l-9 5l-16 5l-9 -8l-9 3l-16 5l-9 -1l-9 -4l-16 5l-9 -12l-9 7l-16 5l-9 -15l-9 10l-16 5l-9 -15l-9 10l-17 5l-9 -12l-9 7l-16 5l-9 -16l-9 11l-16 5l-9 -15l-9 10l-16 5l-9 -15l-9 10l-16 5l-9 -8l-9 3l-16 5l-9 -9l-9 4l-16 5l-9 -2l-9 -3l-16 5l-9 -18
l-9 13l4 12l-12 9l12 9l-6 9l2 9l4 12l-10 9l10 9l-6 9z" />
    <glyph glyph-name="trademark" horiz-adv-x="904" 
d="M426 458l4 16l-8 9l4 9l4 16l-6 9l2 9l4 16l-5 9l1 9l4 16l-6 9l2 9l4 17l-8 9l4 9l4 16l-1 9l-3 9l4 16l-16 9l12 9l4 16l-10 9l6 9l17 -5l9 4l9 1l16 -5l9 8l9 -3l17 -5l9 10l9 -5l2 -18l19 -2l-8 -13l3 -18l17 -3l-6 -12l-4 -2l11 -5l-5 -12l4 -8l7 -7l3 -18l17 -2
l-6 -13l2 -18l7 -7l4 -8l11 15l2 8v10l11 15l-1 10l3 8l4 -1l1 9l5 8l2 9v9l11 15l-2 10l4 8l11 15l-12 14l14 4l17 -5l9 12l9 -7l17 -5l9 6l9 -1l17 -5l9 3l9 2l-4 -16l1 -9l3 -9l-4 -16v-9l4 -9l-4 -16l6 -9l-2 -9l-4 -17l16 -9l-12 -9l-4 -16l13 -9l-9 -9l-4 -16l4 -9v-9
l-4 -16l11 -9l-7 -9l-4 -16l3 -9l1 -5l-9 -6l-9 6l-9 -10l-9 6l-17 4l-9 -15l-9 11l5 16l-6 9l1 9l5 16l-18 9l13 9l5 16l-18 9l13 9l5 16l-6 9l1 9l5 16l-14 9l9 9l5 16l-7 6l-9 -4l11 -14l-14 -4l-4 1l-3 -9l-4 -8l9 -13l-11 -5l-4 1l5 -12l-12 -5l-1 -9l-2 -9l-4 1l6 -13
l-13 -4l10 -14l-13 -4l-4 1l8 -13l-15 -4l-2 -18l-4 1l7 -13l-14 -4l2 -10l-5 -8l-14 4l-9 -16l-9 12l4 2l-7 7v10l-12 5l1 10l4 2l-17 3l10 14l-6 7l-5 8l4 2l-6 8l-1 9l-11 5v10l4 2l-14 5l7 12l-5 8l-6 7l4 2l-17 3l10 14l-8 6l-3 9l4 2l-14 4l7 13l-15 3l-1 -4l10 -9
l-5 -9l-5 -16l7 -9l-2 -9l-5 -16l16 -9l-11 -9l-5 -16l2 -9l3 -9l-5 -16l16 -9l-11 -9l-5 -16l15 -9l-10 -9l-17 4l-9 -12l-9 8v4l-9 -6l-9 6l-9 -17zM695 662l-4 1l2 -4zM110 675l4 2l-2 9l2 9l-15 9l15 9l-6 9l2 9l1 -5l9 10l9 -10l9 2l9 3v-5l9 9l9 -9l9 1l9 4l1 -5l9 14
l9 -14l9 3l9 2l1 -5l9 2l9 -2l9 12l9 -7l1 -5l9 14l9 -14l9 2l9 3v-5l9 12l9 -12l9 8l9 -3l1 -5l9 16l9 -16l9 7l9 -2l-5 -2l17 -9l-17 -9l16 -9l-16 -9l9 -9l-4 -9l-9 5l-9 -13l-9 13l-9 -2l-9 -3l-8 5l-9 -13l-9 13l-7 -13l1 -1l-2 -1l-1 -2l-1 1l-12 -7l4 -9v-9h-4l15 -9
l-15 -9l13 -9l-9 -9l-4 -1l6 -9l-6 -9l14 -9l-10 -9h-4l4 -9l-4 -9l1 -9l3 -9h-4l16 -9l-16 -9v-9l4 -9h-4l14 -9l-14 -9l15 -9l-11 -9l-4 4l-9 -12l-9 12l-9 -5l-9 1l-3 4l-9 -14l-9 14l-9 -5l-9 1h5l-3 9l3 9l-7 9l2 9h5l-18 9l18 9l-8 9l3 9h5l-18 9l18 9l-9 9l4 9l5 1
l-15 9l15 9l-13 9l8 9h5l-6 9l6 9l-9 9l4 9h5l-3 9l3 9l-15 9l10 9l-9 5l-9 -7l-9 7l-9 -3l-9 -2l-8 5l-9 -12l-9 12l-9 -13zM278 675h-4l7 -4z" />
    <glyph glyph-name="trademark" unicode="&#x2122;" horiz-adv-x="904" 
d="M426 458l4 16l-8 9l4 9l4 16l-6 9l2 9l4 16l-5 9l1 9l4 16l-6 9l2 9l4 17l-8 9l4 9l4 16l-1 9l-3 9l4 16l-16 9l12 9l4 16l-10 9l6 9l17 -5l9 4l9 1l16 -5l9 8l9 -3l17 -5l9 10l9 -5l2 -18l19 -2l-8 -13l3 -18l17 -3l-6 -12l-4 -2l11 -5l-5 -12l4 -8l7 -7l3 -18l17 -2
l-6 -13l2 -18l7 -7l4 -8l11 15l2 8v10l11 15l-1 10l3 8l4 -1l1 9l5 8l2 9v9l11 15l-2 10l4 8l11 15l-12 14l14 4l17 -5l9 12l9 -7l17 -5l9 6l9 -1l17 -5l9 3l9 2l-4 -16l1 -9l3 -9l-4 -16v-9l4 -9l-4 -16l6 -9l-2 -9l-4 -17l16 -9l-12 -9l-4 -16l13 -9l-9 -9l-4 -16l4 -9v-9
l-4 -16l11 -9l-7 -9l-4 -16l3 -9l1 -5l-9 -6l-9 6l-9 -10l-9 6l-17 4l-9 -15l-9 11l5 16l-6 9l1 9l5 16l-18 9l13 9l5 16l-18 9l13 9l5 16l-6 9l1 9l5 16l-14 9l9 9l5 16l-7 6l-9 -4l11 -14l-14 -4l-4 1l-3 -9l-4 -8l9 -13l-11 -5l-4 1l5 -12l-12 -5l-1 -9l-2 -9l-4 1l6 -13
l-13 -4l10 -14l-13 -4l-4 1l8 -13l-15 -4l-2 -18l-4 1l7 -13l-14 -4l2 -10l-5 -8l-14 4l-9 -16l-9 12l4 2l-7 7v10l-12 5l1 10l4 2l-17 3l10 14l-6 7l-5 8l4 2l-6 8l-1 9l-11 5v10l4 2l-14 5l7 12l-5 8l-6 7l4 2l-17 3l10 14l-8 6l-3 9l4 2l-14 4l7 13l-15 3l-1 -4l10 -9
l-5 -9l-5 -16l7 -9l-2 -9l-5 -16l16 -9l-11 -9l-5 -16l2 -9l3 -9l-5 -16l16 -9l-11 -9l-5 -16l15 -9l-10 -9l-17 4l-9 -12l-9 8v4l-9 -6l-9 6l-9 -17zM695 662l-4 1l2 -4zM110 675l4 2l-2 9l2 9l-15 9l15 9l-6 9l2 9l1 -5l9 10l9 -10l9 2l9 3v-5l9 9l9 -9l9 1l9 4l1 -5l9 14
l9 -14l9 3l9 2l1 -5l9 2l9 -2l9 12l9 -7l1 -5l9 14l9 -14l9 2l9 3v-5l9 12l9 -12l9 8l9 -3l1 -5l9 16l9 -16l9 7l9 -2l-5 -2l17 -9l-17 -9l16 -9l-16 -9l9 -9l-4 -9l-9 5l-9 -13l-9 13l-9 -2l-9 -3l-8 5l-9 -13l-9 13l-7 -13l1 -1l-2 -1l-1 -2l-1 1l-12 -7l4 -9v-9h-4l15 -9
l-15 -9l13 -9l-9 -9l-4 -1l6 -9l-6 -9l14 -9l-10 -9h-4l4 -9l-4 -9l1 -9l3 -9h-4l16 -9l-16 -9v-9l4 -9h-4l14 -9l-14 -9l15 -9l-11 -9l-4 4l-9 -12l-9 12l-9 -5l-9 1l-3 4l-9 -14l-9 14l-9 -5l-9 1h5l-3 9l3 9l-7 9l2 9h5l-18 9l18 9l-8 9l3 9h5l-18 9l18 9l-9 9l4 9l5 1
l-15 9l15 9l-13 9l8 9h5l-6 9l6 9l-9 9l4 9h5l-3 9l3 9l-15 9l10 9l-9 5l-9 -7l-9 7l-9 -3l-9 -2l-8 5l-9 -12l-9 12l-9 -13zM278 675h-4l7 -4z" />
    <glyph glyph-name="currency" unicode="&#xa4;" horiz-adv-x="763" 
d="M384 457l-11 3l-7 -16l-11 13l-7 -13l-10 6h-11l-2 -16l-14 8l-7 -5l-7 -7l-9 -2l5 -19l-18 7l-3 -10l-7 -6l-8 -4l9 -15l-17 -1l-4 -8l-1 -10l-6 -7l10 -11l-13 -6l5 -11l-4 -8l-3 -8l17 -6l-14 -12l17 -6l-9 -11v-9l14 -2l-6 -13l10 -6l3 -8l3 -9l7 -5l6 -7l10 -2l6 -7
l6 -8l12 4l5 -12l10 1l8 -4l10 -6l11 11l7 -14l11 13l7 -11l11 -3l7 17l11 -14l7 15l10 -8h10l7 5l9 3l1 17l13 -5l8 1l-1 14l14 -2l-6 19l16 -3l8 4l1 10l7 6v10l5 8l6 7l-10 11l13 6l-12 12l11 7l3 8l-11 8l8 10l-5 8l-3 9v9h-18l10 15h-19l6 14l-3 9l-10 1l-3 11l-8 5
l-8 4l-6 8l-14 -8l-2 16l-14 -8l-4 12l-9 6l-9 -4l-9 7h-9zM89 543l5 -2l-5 18l17 -5l1 12l9 4l5 -2l2 11l11 1l-2 15l12 1l-2 -4l7 -5l6 -7l15 3l1 -12l-2 -4l14 1l-1 -14l14 2l2 -11l-2 -4l14 2l-1 -14l16 4v-13l-2 -4l6 -6l7 -6l13 1l3 -10h10l7 7l9 2l4 11l10 1l10 -2
l4 17l13 -12l4 18l12 -8l12 -4l8 4l9 -2l8 14l10 -8l11 -5l9 4l9 -6l10 12l8 -9l8 -7l14 14l3 -19l9 -2l10 1l6 -8l9 -2l7 -7l11 1l7 -5l4 -3l-3 17l16 -5l5 9l5 7l4 -2l4 9l9 3l2 11l8 5l4 -3l-5 19l18 -7l-2 16h12l4 -3v13l13 -1l4 9l6 7l-2 -5l11 -2l2 -10l9 -4l7 -6
l-1 -5l13 2v-14h12l4 -9l-4 2l-7 -6l-6 -6l-6 -7l-4 -9l-4 3l4 -17l-17 5l-1 -13l-9 -3l-4 2l5 -18l-18 6l4 -18l-14 2l-4 2v-13l-13 1l2 -16h-12v-9l18 1l-8 -16l12 -3l1 -10l-2 -7l3 -9l2 -8l18 -4l-8 -12l-4 -9l5 -8l-3 -9l16 -8l-10 -10l-6 -9l16 -11l-18 -7l2 -9l-5 -9
l16 -11l-14 -7l-9 -7l4 -13l-13 -3l-2 -9l-6 -7v-11l-5 -7l-2 -4l16 4l-3 -17l19 7l-3 -16l-2 -4l9 -3l4 -9l18 7l-2 -16l-2 -4l8 -5l5 -8l8 -5l8 -4l-2 -4l8 -5l5 -8l11 -1l5 -8l-5 2l3 -17l-16 5l1 -15l-11 -1l-4 2l-2 -11l-11 -1l-4 -9l-6 -7l2 4l-11 1l-2 11l-11 1l-5 8
l2 4l-10 2l-3 11l-13 -1l-3 10l2 4l-14 -2l1 14l-11 1l-5 8l2 4h-12l-1 12l-13 -1l-3 10h-10l-2 -17l-14 8l-4 -12h-10l-10 2l-7 -7l-10 2l-8 -4l-8 -6l-11 4l-8 -6l-9 4l-8 -17l-10 11l-12 5l-10 -9l-8 11l-10 -15l-8 12l-8 7l-11 -5l-6 10l-11 -4l-8 5l-6 8l-11 -2l-5 11
h-10l-8 4l-4 3v-13l-13 1l-1 -13l-9 -3l-4 2l-6 -7l-7 -5l-10 -16l-4 3l1 -14l-14 2l6 -20l-16 4l-4 3l-6 -7l-7 -5v-13l-10 -3l1 5l-7 5l-6 7l-15 -3l-1 12l2 4l-11 1l-2 12l-19 -7l3 16l4 -2l1 12h12l2 11l8 5l4 -3l6 7l6 6v14l10 2l4 -3l4 9l9 3l-5 19l15 -3l4 -2l-4 17
l17 -5l6 7l4 9v10l-12 4l4 12h-21l12 16l-4 8l-8 6l3 11l-19 7l16 11l-17 7l14 11l-4 8l-3 9l6 10l-11 11l14 7l-1 9l4 9l-9 10l7 8l9 7l-3 11l11 5l3 8l5 8l-10 15l14 3l2 4l-11 2l-2 11l-14 -2l-2 11l3 4l-10 3l-3 9l-12 1l-4 9l2 4l-9 3l-4 9l-6 6l-10 3l2 4l-7 6l-6 7
h-12z" />
    <glyph glyph-name="brokenbar" unicode="&#xa6;" horiz-adv-x="603" 
d="M254 -176l4 17l-15 9l11 9l4 16l-15 9l11 9l4 17l-11 9l7 9l4 17l-5 9l1 9l4 16l-1 9l-3 9l4 17l-5 9l1 9l4 16l-8 9l4 9l4 17l-4 9v9l4 17l-12 9l8 9l4 16l-13 9l9 9l4 17l-15 9l11 9l12 -5l9 14l9 -14l9 1l9 4l12 -5l9 15l9 -15l9 11l9 -6l-4 -17l17 -9l-13 -9l-4 -16
l3 -9l1 -9l-4 -17l4 -9v-9l-4 -17l11 -9l-7 -9l-4 -16l14 -9l-10 -9l-4 -17l9 -9l-5 -9l-4 -16l3 -9l1 -9l-4 -17l15 -9l-11 -9l-4 -17l16 -9l-12 -9l-4 -16l6 -9l-2 -9l-4 -17l1 -9l3 -9l-12 4l-9 -13l-9 13l-9 -13l-9 9l-12 4l-9 -5l-9 5h-9zM254 338l4 17l-8 9l4 9l4 16
l-17 9l13 9l4 17v9l-4 9l4 16l-17 9l13 9l4 17l-15 9l11 9l4 16l-3 9l-1 9l4 17l-12 9l8 9l4 16l-4 18l4 17l-10 9l6 9l4 16l-7 9l3 9l4 17v9l-4 9l12 -4l9 15l9 -15l9 6l9 -2l12 -4l9 10l9 -10l9 4h9l-4 -17l8 -9l-4 -9l-4 -16l4 -9v-9l-4 -17v-9l4 -9l-4 -16l1 -9l3 -9
l-4 -17l8 -9l-4 -9l-4 -16l14 -9l-10 -9l-4 -17l11 -9l-7 -9l-4 -16l13 -9l-9 -9l-4 -17v-9l4 -9l-4 -16l17 -9l-13 -9l-4 -17l5 -9l-1 -9l-12 4l-9 -14l-9 14l-9 -1l-9 -3l-12 4l-9 -12l-9 12l-9 -6zM0 -357h1v-1h-1v1z" />
    <glyph glyph-name="section" unicode="&#xa7;" horiz-adv-x="516" 
d="M329 238l13 10l-6 15l17 -1l-3 13l10 4v18l-8 8v9l-8 16l-15 -1v12l-3 7l-12 -4l-3 13l-13 -4l-5 9l-13 10l-12 -5l-5 12l-9 2l-9 1l-5 6l-13 -11l-4 17l-9 -1l-8 7l-10 -4l-8 6l-8 -4l6 -16l-17 2l8 -18l-19 3l-3 -9l-4 -8l-2 -9l20 -2l-9 -13l-2 -4l8 -4l5 -8l17 5
l-1 -14l12 -12l14 6l2 -15l13 5l5 -10l13 -10l9 -2l8 -5h10l7 -7l11 5l7 -8l13 -10l8 -2h10zM353 491l5 7l-8 9l8 9l-8 9l3 9l2 12l-14 7l11 11l-17 6l9 11l1 5l-8 5l-6 7l-14 -2l-3 10l-1 5h-9l-9 2l-9 -3l-9 6l-9 -4l-9 2l-18 2l-8 -8l-10 6l-7 -12l-10 5l-4 3l-1 -15
l-14 5l-6 -7l-7 -6l-9 -11l9 -13l-11 -5l-2 -7l14 -4l-2 -11l10 -14l8 -5l9 -3l4 -7l11 1l5 -10l13 6l5 -10l10 -9l9 -3l8 -4l12 6l6 -9l11 -9l12 9l5 -15h9l9 -2l7 -8l11 4l6 -10l12 6l6 -9l3 -7l12 2l4 -11l11 1l7 -6l-1 -5l10 -3l2 -10l19 5l-3 -15l-3 -5l12 -5l-4 -11
l16 -3l-5 -12l-3 -10l17 -7l-15 -11l9 -8l-3 -9l-6 -15l5 -9l-7 -9l8 -10l-6 -8l-6 -3l-2 -9l-6 -7l-1 -9l-3 -9l-3 3l-5 -8l-9 -4l3 -15v-2l-3 -14l17 5l-1 -14l-3 -5l13 -4l-5 -12l11 -5v-10l-3 -15l11 -8l-9 -10l16 -7l-9 -10l-5 -7l7 -9l-9 -9l16 -10l-13 -8h-5l4 -11
l-10 -7l7 -11l-8 -7l-14 -12l-2 -9l-5 -8l-17 -7l-1 -14l-10 -1l-6 2l-4 -12l-12 5l-7 -7l-8 -4l-10 3l-7 -9l-10 5l-8 -5l-9 -3l-17 4l-9 -3l-9 2l-8 -15l-10 9v4l-10 -17l-8 18l-9 -10l-9 11h-9l-9 -3l-8 6l-12 -15l-5 19l-11 -7l-8 6v5l-15 -10l-2 18l-9 1l-9 2l3 3
l-13 -1l-1 13l-11 1l-5 8l3 3l-19 -1l10 17l-13 2v11l3 8l-10 7l6 11l-15 5l6 11l3 16l-7 9l6 9l-8 9l2 9l5 4l-7 9l7 9l-1 9l-4 9l16 -4l9 3l9 1l16 -4l9 13l9 -9l16 -4l9 9l9 -5l-5 -14l3 -9l2 -9l-2 -18l15 -7l-12 -11l1 -9l6 -8l1 -7l14 3l-1 -15l8 -4l8 -5l2 -5l11 13
l7 -16l9 3l9 -6l9 3l27 -3l8 10l10 -8l8 10l9 -3l3 -3l-1 20l17 -11l6 7l7 6l9 10l3 8l-1 10l-2 14l-12 4v10l-4 8l-12 -1l-3 11l-12 -2l-5 9l1 5l-13 -7l-3 14l-14 -9l-3 17l-10 -2l-8 5l-1 5l-13 -9l-4 16h-10l-7 7l-14 -13l-4 15l-13 10l-14 -9l-3 16h-9l-9 3l-10 11
l-12 -2l-4 11l-16 -10l-2 15l-2 8l-18 -5l6 18l-9 4l-7 6l2 7l-16 2l9 14l-18 2l7 13l3 16l-16 7l14 11l-13 7l7 10l7 11v9l3 9l-10 11l14 6l-12 12l11 7l15 8v13l13 -1l-5 18l15 -2l-8 15l-9 4l-3 10l-14 -2l-1 12l2 13l-18 5l15 12l-13 7l10 11l-11 7l3 10l5 10l-5 9l7 9
l-5 9l2 9l5 1l-12 14l18 3l-4 11l5 8l4 -2l2 9l8 6l-6 14l12 3l17 7l-2 17l13 -2l5 -3l7 7l9 1l6 8l9 3l11 -2l7 9l10 -6l8 9l9 -1l17 -4l9 8l9 -7l9 7l9 -1l10 -5l9 5l9 -7l9 4l9 -5l9 4l9 -1l16 -9l12 8l5 -13l12 10l7 -10l8 -10l8 -4l7 -5l10 -2l8 -4l5 -12l7 -5l8 -5
l-3 -4l4 -8l2 -9l15 -4l-5 -11l-4 -8l15 -8l-14 -10l15 -8l-14 -10l5 -9l1 -9l-5 -1l5 -9l-5 -9l5 -9l-5 -9l3 -9l2 -9l-15 5l-9 -6l-9 1l-16 5l-9 -8l-24 8l-9 -15zM405 199l-3 -3l10 2z" />
    <glyph glyph-name="afii10023" unicode="&#xa8;" horiz-adv-x="452" 
d="M364 754l-11 4l-9 -4l-9 4l-9 -7l-9 3l-11 4l-9 -15l-9 15l-9 -16l-9 12l4 15l-4 18l4 16l-17 9l13 9l4 15l-4 18l11 -4l9 15l9 -15l9 12l9 -8l11 -4l9 10l9 -10l9 1l9 3l-4 -15l4 -9v-9l-4 -16l9 -9l-5 -9l-4 -15l1 -9zM194 754l-10 4l-9 -4l-9 4l-18 -4l-10 4l-9 -5
l-9 5l-9 -7l-9 3l4 15l-14 9l10 9l4 16l-14 9l10 9l4 15l-10 9l6 9l10 -4l9 6l9 -6l9 11l9 -7l10 -4l9 9l9 -9l9 9l9 -5l-4 -15l9 -9l-5 -9l-4 -16l1 -9l3 -9l-4 -15l15 -9zM413 0l-17 4l-9 -8l-9 4v4l-9 -6l-9 6l-9 -9l-9 5l-17 4l-18 -4l-17 4l-9 -3l-9 -1v4l-9 -3l-9 3
l-9 -14l-9 10l-17 4l-9 -13l-9 9l-17 4l-9 -15l-9 11l-17 4l-9 -9l-9 5v4l-9 -8l-9 8l-9 -9l-9 5l-17 4l-9 -14l-9 10l4 15l-8 9l4 9l4 16l-17 9l13 9l4 15l-7 9l3 9l4 16l-9 9l5 9l4 15l-4 9v9l4 16l-9 9l5 9l4 15l-9 9l5 9l4 15l-4 9v9l4 16l-7 9l3 9l4 15l-3 9l-1 9l4 16
l-4 18l4 15l-14 9l10 9l4 16l-17 9l13 9l4 15l-10 9l6 9l4 15v9l-4 9l4 16l-17 9l13 9l4 15l-8 9l4 9l4 16l-14 9l10 9l4 15l-4 18l4 16l-9 9l5 9l4 15l-6 9l2 9l16 -4l9 17l9 -13l17 -4l9 10l9 -6l16 -4l9 8l9 -4l17 -4l9 12l9 -8l16 -4l9 6l9 -2l16 -4l9 6l9 -2l17 -4l9 6
l9 -2l16 -4h9l9 4l17 -4l9 3l9 1l16 -4l9 13l9 -9l-4 -15l9 -9l-5 -9l-4 -15l4 -18l-4 -15l13 -9l-9 -9l-4 -15v-9l2 -5l-9 -11l-9 11l-18 -4l-1 4l-9 -14l-9 14l-9 -4h-9l-2 4l-9 -4l-9 4l-9 -9l-9 5l-1 4l-9 -8l-9 8l-9 -17l-9 13l-2 4l-9 -2l-9 2h-9l-9 -4l-4 -5l9 -9
l-9 -9l7 -9l-3 -9l-4 -5l9 -9l-9 -9l11 -9l-7 -9l-4 -5l13 -9l-13 -9l5 -9l-1 -9l3 -5l9 14l9 -14l9 4l9 1l4 -5l9 18l9 -18l9 14l9 -9l3 -5l9 4l9 -4l9 8l9 -3l4 -5l9 17l9 -17l9 17l9 -12l3 -5l9 4l9 -4l9 14l9 -9l-5 -6l16 -9l-16 -9l16 -9l-11 -9l-5 -6l12 -9l-12 -9
l2 -9l3 -9l-5 -6l13 -9l-13 -9l14 -9l-9 -9l-3 5l-9 -10l-9 10l-9 -17l-9 12l-4 5l-9 -4l-9 4l-9 -12l-9 7l-3 5l-9 -18l-9 18l-9 -12l-9 7l-4 5l-9 -9l-9 9l-9 -7l-9 2l-3 5l-9 -6l-9 6l-9 -17l-9 12l-4 -2l6 -9l-6 -9l3 -9l1 -9l-4 -2l12 -9l-12 -9l14 -9l-10 -9l-4 -1
l2 -9l-2 -9l5 -9l-1 -9l-4 -2l8 -9l-8 -9l7 -9l-3 -9l-4 -2l6 -9l-6 -9l6 -9l-2 -9l3 -4l9 6l9 -6l9 4h9l4 -4l9 4l9 -4l9 10l9 -6l3 -4l9 12l9 -12l9 1l9 3l4 -4l9 3l9 -3l18 4l3 -4l9 1l9 -1l9 12l9 -8l-5 -15l15 -9l-10 -9l-5 -15l14 -9l-9 -9l-5 -15l5 -9v-9l-5 -15
l5 -9v-9z" />
    <glyph glyph-name="afii10023" unicode="&#x401;" horiz-adv-x="452" 
d="M364 754l-11 4l-9 -4l-9 4l-9 -7l-9 3l-11 4l-9 -15l-9 15l-9 -16l-9 12l4 15l-4 18l4 16l-17 9l13 9l4 15l-4 18l11 -4l9 15l9 -15l9 12l9 -8l11 -4l9 10l9 -10l9 1l9 3l-4 -15l4 -9v-9l-4 -16l9 -9l-5 -9l-4 -15l1 -9zM194 754l-10 4l-9 -4l-9 4l-18 -4l-10 4l-9 -5
l-9 5l-9 -7l-9 3l4 15l-14 9l10 9l4 16l-14 9l10 9l4 15l-10 9l6 9l10 -4l9 6l9 -6l9 11l9 -7l10 -4l9 9l9 -9l9 9l9 -5l-4 -15l9 -9l-5 -9l-4 -16l1 -9l3 -9l-4 -15l15 -9zM413 0l-17 4l-9 -8l-9 4v4l-9 -6l-9 6l-9 -9l-9 5l-17 4l-18 -4l-17 4l-9 -3l-9 -1v4l-9 -3l-9 3
l-9 -14l-9 10l-17 4l-9 -13l-9 9l-17 4l-9 -15l-9 11l-17 4l-9 -9l-9 5v4l-9 -8l-9 8l-9 -9l-9 5l-17 4l-9 -14l-9 10l4 15l-8 9l4 9l4 16l-17 9l13 9l4 15l-7 9l3 9l4 16l-9 9l5 9l4 15l-4 9v9l4 16l-9 9l5 9l4 15l-9 9l5 9l4 15l-4 9v9l4 16l-7 9l3 9l4 15l-3 9l-1 9l4 16
l-4 18l4 15l-14 9l10 9l4 16l-17 9l13 9l4 15l-10 9l6 9l4 15v9l-4 9l4 16l-17 9l13 9l4 15l-8 9l4 9l4 16l-14 9l10 9l4 15l-4 18l4 16l-9 9l5 9l4 15l-6 9l2 9l16 -4l9 17l9 -13l17 -4l9 10l9 -6l16 -4l9 8l9 -4l17 -4l9 12l9 -8l16 -4l9 6l9 -2l16 -4l9 6l9 -2l17 -4l9 6
l9 -2l16 -4h9l9 4l17 -4l9 3l9 1l16 -4l9 13l9 -9l-4 -15l9 -9l-5 -9l-4 -15l4 -18l-4 -15l13 -9l-9 -9l-4 -15v-9l2 -5l-9 -11l-9 11l-18 -4l-1 4l-9 -14l-9 14l-9 -4h-9l-2 4l-9 -4l-9 4l-9 -9l-9 5l-1 4l-9 -8l-9 8l-9 -17l-9 13l-2 4l-9 -2l-9 2h-9l-9 -4l-4 -5l9 -9
l-9 -9l7 -9l-3 -9l-4 -5l9 -9l-9 -9l11 -9l-7 -9l-4 -5l13 -9l-13 -9l5 -9l-1 -9l3 -5l9 14l9 -14l9 4l9 1l4 -5l9 18l9 -18l9 14l9 -9l3 -5l9 4l9 -4l9 8l9 -3l4 -5l9 17l9 -17l9 17l9 -12l3 -5l9 4l9 -4l9 14l9 -9l-5 -6l16 -9l-16 -9l16 -9l-11 -9l-5 -6l12 -9l-12 -9
l2 -9l3 -9l-5 -6l13 -9l-13 -9l14 -9l-9 -9l-3 5l-9 -10l-9 10l-9 -17l-9 12l-4 5l-9 -4l-9 4l-9 -12l-9 7l-3 5l-9 -18l-9 18l-9 -12l-9 7l-4 5l-9 -9l-9 9l-9 -7l-9 2l-3 5l-9 -6l-9 6l-9 -17l-9 12l-4 -2l6 -9l-6 -9l3 -9l1 -9l-4 -2l12 -9l-12 -9l14 -9l-10 -9l-4 -1
l2 -9l-2 -9l5 -9l-1 -9l-4 -2l8 -9l-8 -9l7 -9l-3 -9l-4 -2l6 -9l-6 -9l6 -9l-2 -9l3 -4l9 6l9 -6l9 4h9l4 -4l9 4l9 -4l9 10l9 -6l3 -4l9 12l9 -12l9 1l9 3l4 -4l9 3l9 -3l18 4l3 -4l9 1l9 -1l9 12l9 -8l-5 -15l15 -9l-10 -9l-5 -15l14 -9l-9 -9l-5 -15l5 -9v-9l-5 -15
l5 -9v-9z" />
    </font>
</defs>
</svg>
